<?xml version="1.0" encoding="UTF-8"?>
<svg xmlns="http://www.w3.org/2000/svg" xmlns:xlink="http://www.w3.org/1999/xlink" width="4713" height="3361" viewBox="0 0 4713 3361">
<path fill-rule="evenodd" fill="rgb(100%, 100%, 100%)" fill-opacity="1" d="M 0.261719 0.0195312 L 4712.53125 0.0195312 L 4712.53125 3360.011719 L 0.261719 3360.011719 L 0.261719 0.0195312 "/>
<path fill-rule="evenodd" fill="rgb(97.65625%, 70.506287%, 14.109802%)" fill-opacity="1" d="M 2356.398438 226.429688 C 3159.191406 226.429688 3809.980469 877.21875 3809.980469 1680.019531 C 3809.980469 2482.808594 3159.191406 3133.597656 2356.398438 3133.597656 C 1553.609375 3133.597656 902.8125 2482.808594 902.8125 1680.019531 C 902.8125 877.21875 1553.609375 226.429688 2356.398438 226.429688 "/>
<path fill-rule="evenodd" fill="rgb(100%, 100%, 100%)" fill-opacity="1" d="M 3271.988281 2808.933594 C 3022.050781 3011.894531 2703.460938 3133.597656 2356.398438 3133.597656 C 1891.589844 3133.597656 1477.761719 2915.421875 1211.671875 2575.90625 C 1226.078125 2559.90625 1248.289062 2542.691406 1282.769531 2524.839844 C 1398.730469 2464.785156 1748.660156 2358.160156 1748.660156 2358.160156 L 1827.859375 2232.371094 L 1840.28125 1981.820312 C 1840.28125 1981.820312 1792.660156 1937.308594 1767.808594 1857.589844 C 1742.960938 1777.871094 1742.960938 1759.230469 1742.960938 1759.230469 C 1742.960938 1759.230469 1592.851562 1681.589844 1592.851562 1563.558594 C 1592.851562 1445.53125 1640.46875 1421.71875 1640.46875 1421.71875 C 1640.46875 1421.71875 1621.828125 1051.078125 1670.488281 959.96875 C 1719.148438 868.871094 1762.628906 842.980469 1762.628906 842.980469 C 1762.628906 842.980469 1684.980469 783.96875 1719.148438 715.640625 C 1753.308594 647.308594 1868.238281 744.628906 1868.238281 744.628906 C 1868.238281 744.628906 1882.730469 482.691406 2217.128906 468.191406 C 2551.539062 453.699219 2908.71875 785 2908.71875 774.648438 C 2908.71875 764.300781 2909.761719 573.800781 3047.460938 630.738281 C 3185.148438 687.679688 3228.640625 978.609375 3140.640625 1106.988281 C 3052.628906 1235.371094 2940.820312 1261.25 2940.820312 1261.25 C 2940.820312 1261.25 2939.269531 1398.949219 2910.28125 1459 C 2881.289062 1519.050781 2840.910156 1558.390625 2840.910156 1558.390625 C 2840.910156 1558.390625 2879.21875 1706.960938 2846.089844 1763.898438 C 2812.949219 1820.839844 2747.730469 1857.078125 2747.730469 1857.078125 C 2747.730469 1857.078125 2704.25 1990.640625 2625.558594 2070.359375 C 2546.878906 2150.078125 2499.25 2181.140625 2499.25 2181.140625 L 2511.679688 2397.519531 C 2511.679688 2397.519531 3098.699219 2550.742188 3158.75 2629.425781 C 3193.121094 2674.464844 3239.019531 2751.382812 3271.988281 2808.933594 "/>
<path fill-rule="evenodd" fill="rgb(93.75%, 93.75%, 93.75%)" fill-opacity="1" d="M 1729.441406 2364.082031 C 1741.699219 2360.28125 1748.660156 2358.160156 1748.660156 2358.160156 L 1757.558594 2344.019531 L 2294.910156 2578.769531 L 2370.46875 2605.683594 L 2546.949219 2406.933594 C 2557.019531 2409.65625 2568.949219 2412.902344 2582.480469 2416.632812 L 2380.320312 2644.300781 L 2283.550781 2609.835938 L 2282.449219 2609.382812 L 1740.179688 2372.476562 L 1729.441406 2364.082031 "/>
<path fill-rule="evenodd" fill="rgb(40.380859%, 37.255859%, 51.367188%)" fill-opacity="1" d="M 2558.289062 3119.660156 C 2500.058594 3127.757812 2440.738281 3132.398438 2380.519531 3133.378906 C 2352.519531 2972.234375 2289.050781 2594.238281 2289.050781 2594.238281 L 2440.210938 2648.078125 C 2440.210938 2648.078125 2518.578125 2943.210938 2558.289062 3119.660156 "/>
<path fill-rule="evenodd" fill="rgb(99.21875%, 78.514099%, 69.334412%)" fill-opacity="1" d="M 1827.859375 2232.371094 L 1840.28125 1981.820312 C 1840.28125 1981.820312 1792.660156 1937.308594 1767.808594 1857.589844 C 1742.960938 1777.871094 1742.960938 1759.230469 1742.960938 1759.230469 C 1742.960938 1759.230469 1592.851562 1681.589844 1592.851562 1563.558594 C 1592.851562 1445.53125 1640.46875 1421.71875 1640.46875 1421.71875 C 1640.46875 1421.71875 1636.429688 1341.339844 1637.03125 1246.238281 C 1721.519531 1179.710938 1837.378906 1108.378906 1986.761719 1031.941406 C 2267.871094 888.121094 2714.03125 1090.039062 2934.390625 1356.628906 C 2929.988281 1393.75 2922.628906 1433.421875 2910.28125 1459 C 2881.289062 1519.050781 2840.910156 1558.390625 2840.910156 1558.390625 C 2840.910156 1558.390625 2879.21875 1706.960938 2846.089844 1763.898438 C 2812.949219 1820.839844 2747.730469 1857.078125 2747.730469 1857.078125 C 2747.730469 1857.078125 2704.25 1990.640625 2625.558594 2070.359375 C 2546.878906 2150.078125 2499.25 2181.140625 2499.25 2181.140625 L 2511.679688 2397.519531 C 2511.679688 2397.519531 2430.910156 2412.023438 2401.921875 2432.730469 C 2372.929688 2453.4375 2357.398438 2571.460938 2357.398438 2571.460938 C 2357.398438 2571.460938 2333.589844 2471.035156 2288.039062 2442.046875 C 2242.480469 2413.058594 1827.859375 2232.371094 1827.859375 2232.371094 "/>
<path fill-rule="evenodd" fill="rgb(94.139099%, 56.054688%, 52.539062%)" fill-opacity="1" d="M 1827.859375 2232.371094 L 1840.28125 1981.820312 C 1840.28125 1981.820312 2049.910156 2229.808594 2206.238281 2263.96875 C 2362.578125 2298.140625 2499.25 2181.140625 2499.25 2181.140625 C 2499.25 2181.140625 2487.851562 2343.691406 2280.78125 2393.386719 C 2259.390625 2398.519531 2236.890625 2402.308594 2213.71875 2404.890625 C 2081.378906 2342.851562 1827.859375 2232.371094 1827.859375 2232.371094 "/>
<path fill-rule="evenodd" fill="rgb(30.200195%, 27.43988%, 43.530273%)" fill-opacity="1" d="M 1640.46875 1421.71875 C 1640.46875 1421.71875 1621.828125 1051.078125 1670.488281 959.96875 C 1719.148438 868.871094 1762.628906 842.980469 1762.628906 842.980469 C 1762.628906 842.980469 1684.980469 783.96875 1719.148438 715.640625 C 1753.308594 647.308594 1868.238281 744.628906 1868.238281 744.628906 C 1868.238281 744.628906 1882.730469 482.691406 2217.128906 468.191406 C 2551.539062 453.699219 2908.71875 785 2908.71875 774.648438 C 2908.71875 764.300781 2909.761719 573.800781 3047.460938 630.738281 C 3185.148438 687.679688 3228.640625 978.609375 3140.640625 1106.988281 C 3052.628906 1235.371094 2940.820312 1261.25 2940.820312 1261.25 C 2940.820312 1261.25 2939.269531 1398.949219 2910.28125 1459 C 2881.289062 1519.050781 2840.910156 1558.390625 2840.910156 1558.390625 L 2820.191406 1293.878906 C 2820.191406 1293.878906 2784.988281 1309.410156 2544.800781 1259.71875 C 2304.609375 1210.019531 2085.121094 1087.851562 2085.121094 1087.851562 C 2085.121094 1087.851562 2087.199219 1184.128906 2031.289062 1283.519531 C 1975.378906 1382.910156 1831.46875 1437.78125 1831.46875 1437.78125 C 1831.46875 1437.78125 1831.46875 1464.699219 1821.121094 1525.78125 C 1810.761719 1586.871094 1743.46875 1642.769531 1743.46875 1642.769531 C 1743.46875 1642.769531 1754.859375 1585.828125 1742.429688 1506.109375 C 1730.011719 1426.390625 1640.46875 1421.71875 1640.46875 1421.71875 "/>
</svg>
