<?xml version="1.0" encoding="iso-8859-1"?>
<!-- Generator: Adobe Illustrator 23.0.1, SVG Export Plug-In . SVG Version: 6.00 Build 0)  -->
<svg version="1.1" id="Layer_1" xmlns="http://www.w3.org/2000/svg" xmlns:xlink="http://www.w3.org/1999/xlink" x="0px" y="0px"
	 viewBox="0 0 512 512" style="enable-background:new 0 0 512 512;" xml:space="preserve">
<g>
	<g>
		<linearGradient id="SVGID_1_" gradientUnits="userSpaceOnUse" x1="256.0003" y1="407.6097" x2="256.0003" y2="32.2407">
			<stop  offset="0" style="stop-color:#0077C0"/>
			<stop  offset="1" style="stop-color:#00AEEF"/>
		</linearGradient>
		<path style="fill:url(#SVGID_1_);" d="M77.601,407.61c-0.681,0-1.234-0.552-1.234-1.234c0-103.372,13.726-178.96,43.195-237.879
			C169.792,68.074,249.567,34.729,255.279,32.449c0.209-0.134,0.451-0.208,0.694-0.208c0.082,0,0.164,0.008,0.244,0.025
			c0.168,0.025,0.33,0.081,0.473,0.17c5.437,2.165,85.422,35.444,135.748,136.061c29.469,58.919,43.195,134.507,43.195,237.879
			c0,0.682-0.552,1.234-1.234,1.234H77.601z"/>
		<path d="M256.06,33.467v0.047c3.354,1.312,84.421,33.865,135.273,135.534c31.286,62.55,43.065,141.589,43.065,237.327H256.06
			h-0.121H77.601c0-95.739,11.779-174.777,43.065-237.327C171.519,67.379,252.586,34.826,255.94,33.514v-0.047
			c0,0,0.021,0.008,0.06,0.023C256.04,33.475,256.06,33.467,256.06,33.467 M255.941,31c-0.464,0-0.925,0.131-1.326,0.386
			c-7.264,2.941-86.267,36.817-136.156,136.559c-29.559,59.097-43.326,134.86-43.326,238.431c0,1.363,1.105,2.467,2.467,2.467
			H255.94h0.121h178.338c1.363,0,2.467-1.105,2.467-2.467c0-103.571-13.767-179.335-43.326-238.431
			C343.371,67.64,263.757,33.947,257.269,31.339c-0.334-0.19-0.704-0.301-1.079-0.326C256.107,31.004,256.024,31,255.941,31
			L255.941,31z"/>
	</g>
	<g>
		<g>
			<path style="fill:#FFFFFF;" d="M192.469,389.852c-0.357,0-0.645-0.289-0.645-0.646v-8.173c0-0.357,0.289-0.646,0.645-0.646h6.869
				c0.39-0.818,0.658-2.43-0.601-5.26c-0.114-0.257-0.049-0.557,0.159-0.743l14.346-12.861c0.122-0.11,0.277-0.165,0.431-0.165
				c0.154,0,0.308,0.055,0.431,0.165l14.346,12.861c0.208,0.187,0.273,0.487,0.159,0.743c-1.258,2.83-0.99,4.442-0.601,5.26h3.527
				c0.39-0.818,0.658-2.43-0.601-5.26c-0.114-0.257-0.049-0.557,0.159-0.743l14.346-12.861c0.122-0.11,0.277-0.165,0.431-0.165
				c0.154,0,0.308,0.055,0.431,0.165l14.347,12.861c0.208,0.187,0.272,0.487,0.158,0.743c-1.258,2.829-0.989,4.441-0.6,5.26h3.528
				c0.389-0.819,0.658-2.431-0.6-5.26c-0.114-0.257-0.051-0.557,0.158-0.743l14.345-12.861c0.123-0.11,0.277-0.165,0.431-0.165
				c0.154,0,0.308,0.055,0.431,0.165l14.347,12.861c0.208,0.187,0.272,0.487,0.158,0.743c-1.281,2.881-0.947,4.51-0.598,5.26h3.522
				c0.349-0.751,0.683-2.379-0.598-5.26c-0.114-0.257-0.051-0.557,0.158-0.743l14.347-12.861c0.123-0.11,0.277-0.165,0.431-0.165
				c0.154,0,0.308,0.055,0.431,0.165l14.347,12.861c0.208,0.187,0.272,0.487,0.158,0.743c-1.258,2.829-0.99,4.442-0.601,5.26h3.525
				c0.349-0.751,0.683-2.379-0.598-5.26c-0.114-0.257-0.051-0.557,0.158-0.743l14.345-12.861c0.123-0.11,0.277-0.165,0.431-0.165
				c0.154,0,0.308,0.055,0.431,0.165l14.347,12.861c0.208,0.187,0.272,0.487,0.158,0.743c-1.258,2.829-0.989,4.441-0.6,5.26h3.528
				c0.389-0.819,0.658-2.431-0.6-5.26c-0.114-0.257-0.051-0.557,0.158-0.743l14.345-12.861c0.123-0.11,0.277-0.165,0.431-0.165
				s0.308,0.055,0.431,0.165l14.347,12.861c0.208,0.187,0.272,0.487,0.158,0.743c-1.258,2.829-0.99,4.441-0.601,5.26h4.413
				c0.357,0,0.646,0.289,0.646,0.646v8.173c0,0.357-0.289,0.646-0.646,0.646H192.469z"/>
			<path d="M374.661,362.003l14.346,12.862c-1.564,3.517-0.9,5.383-0.388,6.169h4.79v8.173h-200.94v-8.173h7.246
				c0.511-0.785,1.176-2.651-0.388-6.169l14.346-12.862l14.346,12.862c-1.564,3.517-0.899,5.383-0.388,6.169h4.282
				c0.511-0.785,1.176-2.651-0.388-6.169l14.346-12.862l14.346,12.862c-1.564,3.517-0.9,5.383-0.388,6.169h4.282
				c0.511-0.785,1.176-2.651-0.388-6.169l14.346-12.862l14.346,12.862c-1.564,3.517-0.899,5.383-0.388,6.169h4.282
				c0.511-0.785,1.176-2.651-0.388-6.169l14.346-12.862l14.346,12.862c-1.564,3.517-0.9,5.383-0.388,6.169h4.282
				c0.511-0.785,1.176-2.651-0.388-6.169l14.346-12.862l14.346,12.862c-1.564,3.517-0.899,5.383-0.388,6.169h4.282
				c0.511-0.785,1.176-2.651-0.388-6.169L374.661,362.003 M374.661,360.712c-0.308,0-0.616,0.11-0.862,0.33l-14.346,12.862
				c-0.417,0.374-0.545,0.974-0.318,1.485c0.997,2.241,0.956,3.603,0.743,4.354h-2.632c-0.213-0.751-0.254-2.113,0.743-4.354
				c0.227-0.512,0.099-1.112-0.318-1.485l-14.346-12.862c-0.245-0.22-0.553-0.33-0.862-0.33s-0.616,0.11-0.862,0.33l-14.346,12.862
				c-0.417,0.374-0.545,0.974-0.318,1.485c0.996,2.241,0.956,3.603,0.743,4.354h-2.632c-0.213-0.751-0.254-2.112,0.743-4.354
				c0.228-0.512,0.099-1.112-0.318-1.485l-14.346-12.862c-0.245-0.22-0.553-0.33-0.862-0.33c-0.308,0-0.616,0.11-0.862,0.33
				l-14.346,12.862c-0.417,0.374-0.545,0.974-0.318,1.485c0.997,2.241,0.956,3.603,0.743,4.354h-2.632
				c-0.213-0.751-0.254-2.112,0.743-4.354c0.227-0.512,0.099-1.112-0.318-1.485l-14.346-12.862c-0.245-0.22-0.553-0.33-0.862-0.33
				c-0.308,0-0.616,0.11-0.862,0.33l-14.346,12.862c-0.417,0.374-0.545,0.974-0.318,1.485c0.996,2.241,0.956,3.603,0.743,4.354
				h-2.632c-0.213-0.751-0.254-2.112,0.743-4.354c0.227-0.512,0.099-1.112-0.318-1.485l-14.346-12.862
				c-0.245-0.22-0.553-0.33-0.862-0.33c-0.308,0-0.616,0.11-0.862,0.33l-14.346,12.862c-0.417,0.374-0.545,0.974-0.318,1.485
				c0.997,2.241,0.956,3.603,0.743,4.354h-2.632c-0.213-0.751-0.254-2.112,0.743-4.354c0.227-0.512,0.099-1.112-0.318-1.485
				l-14.346-12.862c-0.245-0.22-0.553-0.33-0.862-0.33c-0.308,0-0.616,0.11-0.862,0.33l-14.346,12.862
				c-0.417,0.374-0.545,0.974-0.318,1.485c0.996,2.241,0.956,3.603,0.743,4.354h-6.422c-0.713,0-1.291,0.578-1.291,1.291v8.173
				c0,0.713,0.578,1.291,1.291,1.291h200.94c0.713,0,1.291-0.578,1.291-1.291v-8.173c0-0.713-0.578-1.291-1.291-1.291h-3.965
				c-0.213-0.751-0.254-2.112,0.743-4.354c0.227-0.512,0.099-1.112-0.318-1.485l-14.346-12.862
				C375.277,360.822,374.969,360.712,374.661,360.712L374.661,360.712z"/>
		</g>
		<circle cx="213.287" cy="379.799" r="3.393"/>
		<circle cx="245.485" cy="379.799" r="3.393"/>
		<circle cx="277.683" cy="379.799" r="3.393"/>
		<circle cx="309.88" cy="379.799" r="3.393"/>
		<circle cx="342.078" cy="379.799" r="3.393"/>
		<circle cx="374.275" cy="379.799" r="3.393"/>
	</g>
	
		<rect x="99.015" y="389.206" style="stroke:#000000;stroke-width:0.378;stroke-linecap:round;stroke-linejoin:round;stroke-miterlimit:10;" width="317.371" height="6.477"/>
	<g>
		<g>
			<g>
				<path style="fill:#FFFFFF;" d="M148.131,281.313c-0.511,0-0.925-0.414-0.925-0.925v-8.846h-0.771
					c-0.511,0-0.925-0.414-0.925-0.925v-6.631c0-0.511,0.414-0.925,0.925-0.925h17.904c0.511,0,0.925,0.414,0.925,0.925v6.631
					c0,0.511-0.414,0.925-0.925,0.925h-0.771v8.846c0,0.511-0.414,0.925-0.925,0.925H148.131z"/>
				<g>
					<path d="M164.338,263.985v6.631h-1.696v9.77h-14.511v-9.77h-1.696v-6.631H164.338 M164.338,262.135h-17.903
						c-1.022,0-1.851,0.829-1.851,1.851v6.631c0,0.97,0.747,1.766,1.696,1.844v7.926c0,1.022,0.829,1.851,1.851,1.851h14.511
						c1.022,0,1.851-0.829,1.851-1.851v-7.926c0.95-0.078,1.696-0.874,1.696-1.844v-6.631
						C166.188,262.963,165.36,262.135,164.338,262.135L164.338,262.135z"/>
				</g>
			</g>
			<g>
				<path style="fill:#FFFFFF;" d="M150.598,263.368c-0.511,0-0.925-0.414-0.925-0.925l0.001-19.166c0-0.219,0.078-0.43,0.219-0.598
					l4.788-5.663c0.176-0.208,0.434-0.328,0.707-0.328s0.531,0.12,0.707,0.328l4.788,5.663c0.141,0.167,0.219,0.379,0.219,0.598
					v19.166c0,0.511-0.414,0.925-0.925,0.925H150.598z"/>
				<g>
					<path d="M155.386,237.615l4.788,5.662v9.407v9.759h-9.576v-9.759h0v-9.407L155.386,237.615 M155.386,235.764
						c-0.545,0-1.061,0.24-1.413,0.656l-4.788,5.662c-0.282,0.334-0.437,0.757-0.437,1.195v9.407l0,9.759
						c0,0.491,0.195,0.962,0.542,1.309c0.347,0.347,0.818,0.542,1.309,0.542h9.576c1.022,0,1.851-0.829,1.851-1.851v-9.759v-9.407
						c0-0.437-0.155-0.861-0.437-1.195l-4.788-5.662C156.448,236.004,155.931,235.764,155.386,235.764L155.386,235.764z"/>
				</g>
			</g>
			<g>
				<path style="fill:#FFFFFF;" d="M131.05,388.284c-0.511,0-0.925-0.414-0.925-0.925v-5.554c0-0.511,0.414-0.925,0.925-0.925
					h11.261v-73.363l-4.641-10.462c-0.052-0.118-0.08-0.246-0.08-0.375V281.72c0-0.511,0.414-0.925,0.925-0.925h33.741
					c0.511,0,0.925,0.414,0.925,0.925v14.959c0,0.129-0.027,0.257-0.08,0.375l-4.641,10.462v73.363h11.261
					c0.511,0,0.925,0.414,0.925,0.925v5.554c0,0.511-0.414,0.925-0.925,0.925H131.05z"/>
				<g>
					<path d="M172.257,281.72v14.959l-4.721,10.641v74.485h12.186v5.554H131.05v-5.554h12.186v-74.485l-4.721-10.641V281.72H172.257
						 M172.257,279.869h-33.741c-1.022,0-1.851,0.829-1.851,1.851v14.959c0,0.259,0.054,0.514,0.159,0.75l4.562,10.282v72.242
						H131.05c-1.022,0-1.851,0.829-1.851,1.851v5.554c0,1.022,0.829,1.851,1.851,1.851h48.672c1.022,0,1.851-0.829,1.851-1.851
						v-5.554c0-1.022-0.829-1.851-1.851-1.851h-10.336v-72.242l4.562-10.282c0.105-0.236,0.159-0.492,0.159-0.75V281.72
						C174.107,280.698,173.279,279.869,172.257,279.869L172.257,279.869z"/>
				</g>
			</g>
		</g>
		<g>
			<g>
				<path style="fill:#FFFFFF;" d="M143.237,382.457c-0.361,0-0.653-0.293-0.653-0.653v-74.485c0-0.36,0.292-0.653,0.653-0.653
					h24.299c0.361,0,0.653,0.293,0.653,0.653v74.485c0,0.36-0.292,0.653-0.653,0.653H143.237z"/>
				<g>
					<path d="M167.536,307.319v74.485h-24.299v-74.485H167.536 M167.536,306.013h-24.299c-0.722,0-1.307,0.585-1.307,1.307v74.485
						c0,0.722,0.585,1.307,1.307,1.307h24.299c0.722,0,1.307-0.585,1.307-1.307v-74.485
						C168.842,306.598,168.257,306.013,167.536,306.013L167.536,306.013z"/>
				</g>
			</g>
			<g>
				<path style="fill:#FFFFFF;" d="M143.237,307.972c-0.258,0-0.492-0.152-0.597-0.388l-4.722-10.641
					c-0.09-0.202-0.071-0.436,0.049-0.622c0.12-0.184,0.326-0.296,0.548-0.296h33.741c0.221,0,0.427,0.112,0.548,0.296
					c0.12,0.186,0.139,0.419,0.049,0.622l-4.721,10.641c-0.105,0.236-0.339,0.388-0.597,0.388H143.237z"/>
				<path d="M172.257,296.679l-4.721,10.641h-24.299l-4.721-10.641H172.257 M172.257,295.372h-33.741
					c-0.442,0-0.854,0.224-1.095,0.594c-0.241,0.371-0.278,0.838-0.099,1.242l4.721,10.641c0.21,0.472,0.678,0.777,1.194,0.777
					h24.299c0.517,0,0.985-0.304,1.194-0.777l4.721-10.641c0.179-0.404,0.142-0.872-0.099-1.242
					C173.111,295.596,172.699,295.372,172.257,295.372L172.257,295.372z"/>
			</g>
			<g>
				<path style="fill:#FFFFFF;" d="M138.515,297.332c-0.361,0-0.653-0.293-0.653-0.653V281.72c0-0.36,0.292-0.653,0.653-0.653
					h33.741c0.361,0,0.653,0.293,0.653,0.653v14.959c0,0.36-0.292,0.653-0.653,0.653H138.515z"/>
				<path d="M172.257,281.72v14.959h-33.741V281.72H172.257 M172.257,280.413h-33.741c-0.722,0-1.307,0.585-1.307,1.307v14.959
					c0,0.722,0.585,1.307,1.307,1.307h33.741c0.722,0,1.307-0.585,1.307-1.307V281.72
					C173.563,280.998,172.978,280.413,172.257,280.413L172.257,280.413z"/>
			</g>
			<g>
				<path style="fill:#FFFFFF;" d="M148.131,281.04c-0.361,0-0.653-0.293-0.653-0.653v-9.771c0-0.36,0.292-0.653,0.653-0.653h14.511
					c0.361,0,0.653,0.293,0.653,0.653v9.771c0,0.36-0.292,0.653-0.653,0.653H148.131z"/>
				<path d="M162.641,270.616v9.77h-14.511v-9.77H162.641 M162.641,269.31h-14.511c-0.722,0-1.307,0.585-1.307,1.307v9.77
					c0,0.722,0.585,1.307,1.307,1.307h14.511c0.722,0,1.307-0.585,1.307-1.307v-9.77C163.948,269.895,163.363,269.31,162.641,269.31
					L162.641,269.31z"/>
			</g>
			<g>
				<path style="fill:#FFFFFF;" d="M146.434,271.269c-0.361,0-0.653-0.293-0.653-0.653v-6.631c0-0.36,0.292-0.653,0.653-0.653
					h17.903c0.361,0,0.653,0.293,0.653,0.653v6.631c0,0.36-0.292,0.653-0.653,0.653H146.434z"/>
				<path d="M164.338,263.985v6.631h-17.903v-6.631H164.338 M164.338,262.679h-17.903c-0.722,0-1.307,0.585-1.307,1.307v6.631
					c0,0.722,0.585,1.307,1.307,1.307h17.903c0.722,0,1.307-0.585,1.307-1.307v-6.631
					C165.644,263.264,165.059,262.679,164.338,262.679L164.338,262.679z"/>
			</g>
			<g>
				<path style="fill:#FFFFFF;" d="M150.598,263.096c-0.361,0-0.653-0.293-0.653-0.653v-9.759c0-0.361,0.292-0.653,0.653-0.653
					h9.576c0.361,0,0.653,0.292,0.653,0.653v9.759c0,0.36-0.292,0.653-0.653,0.653H150.598z"/>
				<path d="M160.174,252.684v9.759h-9.576v-9.759H160.174 M160.174,251.378h-9.576c-0.722,0-1.307,0.585-1.307,1.307v9.759
					c0,0.722,0.585,1.307,1.307,1.307h9.576c0.722,0,1.307-0.585,1.307-1.307v-9.759
					C161.48,251.963,160.895,251.378,160.174,251.378L160.174,251.378z"/>
			</g>
			<g>
				<path style="fill:#FFFFFF;" d="M150.598,253.337c-0.361,0-0.653-0.292-0.653-0.653v-9.407c0-0.154,0.054-0.304,0.154-0.422
					l4.788-5.663c0.124-0.147,0.307-0.231,0.499-0.231c0.192,0,0.375,0.084,0.499,0.231l4.788,5.663
					c0.1,0.118,0.154,0.267,0.154,0.422v9.407c0,0.361-0.292,0.653-0.653,0.653H150.598z"/>
				<path d="M155.386,237.615l4.788,5.662v9.407h-9.576v-9.407L155.386,237.615 M155.386,236.308c-0.384,0-0.749,0.169-0.998,0.463
					l-4.788,5.662c-0.199,0.236-0.309,0.535-0.309,0.844v9.407c0,0.722,0.585,1.307,1.307,1.307h9.576
					c0.722,0,1.307-0.585,1.307-1.307v-9.407c0-0.309-0.109-0.608-0.309-0.844l-4.788-5.662
					C156.135,236.478,155.77,236.308,155.386,236.308L155.386,236.308z"/>
			</g>
			<g>
				<path style="fill:#FFFFFF;" d="M131.05,388.011c-0.361,0-0.653-0.293-0.653-0.653v-5.554c0-0.36,0.292-0.653,0.653-0.653h48.672
					c0.361,0,0.653,0.293,0.653,0.653v5.554c0,0.36-0.292,0.653-0.653,0.653H131.05z"/>
				<g>
					<path d="M179.722,381.804v5.554H131.05v-5.554H179.722 M179.722,380.498H131.05c-0.722,0-1.307,0.585-1.307,1.307v5.554
						c0,0.722,0.585,1.307,1.307,1.307h48.672c0.722,0,1.307-0.585,1.307-1.307v-5.554
						C181.028,381.083,180.443,380.498,179.722,380.498L179.722,380.498z"/>
				</g>
			</g>
		</g>
	</g>
	<g>
		<g>
			<g>
				<path style="fill:#9FDBEB;" d="M235.395,328.134c-0.072,0-0.145-0.008-0.216-0.025c-9.39-2.259-14.561-5.708-14.561-9.714
					c0-4.005,5.171-7.454,14.561-9.713c0.072-0.017,0.145-0.025,0.216-0.025c0.317,0,0.619,0.164,0.789,0.442
					c1.744,2.851,3.844,5.781,6.244,8.709c0.28,0.341,0.28,0.833,0,1.173c-2.403,2.934-4.504,5.865-6.244,8.711
					C236.013,327.971,235.712,328.134,235.395,328.134z"/>
				<path d="M235.394,309.582c1.711,2.798,3.825,5.771,6.318,8.813c-2.492,3.043-4.606,6.016-6.318,8.814
					c-8.416-2.023-13.852-5.218-13.852-8.814C221.543,314.799,226.978,311.605,235.394,309.582 M235.395,307.731
					c-0.144,0-0.289,0.017-0.433,0.051c-9.847,2.367-15.27,6.136-15.27,10.613c0,4.476,5.423,8.245,15.27,10.613
					c0.144,0.035,0.289,0.051,0.433,0.051c0.634,0,1.237-0.327,1.578-0.885c1.721-2.813,3.797-5.709,6.171-8.607
					c0.559-0.682,0.559-1.663,0-2.345c-2.374-2.899-4.451-5.794-6.171-8.606C236.632,308.058,236.029,307.731,235.395,307.731
					L235.395,307.731z"/>
			</g>
			<g>
				<path style="fill:#9FDBEB;" d="M277.909,328.134c-0.317,0-0.619-0.164-0.789-0.442c-1.739-2.843-3.84-5.775-6.244-8.711
					c-0.28-0.341-0.28-0.833,0-1.173c2.401-2.93,4.502-5.861,6.244-8.709c0.17-0.278,0.472-0.442,0.789-0.442
					c0.072,0,0.145,0.008,0.217,0.025c9.39,2.259,14.561,5.708,14.561,9.713c0,4.006-5.171,7.455-14.561,9.714
					C278.053,328.126,277.981,328.134,277.909,328.134z"/>
				<path d="M277.909,309.582c8.416,2.023,13.852,5.218,13.852,8.813c0,3.596-5.436,6.79-13.852,8.814
					c-1.712-2.798-3.825-5.771-6.318-8.814C274.084,315.352,276.198,312.38,277.909,309.582 M277.909,307.731
					c-0.634,0-1.237,0.327-1.578,0.885c-1.721,2.813-3.797,5.709-6.171,8.607c-0.559,0.682-0.559,1.663,0,2.345
					c2.373,2.898,4.45,5.793,6.171,8.607c0.341,0.558,0.944,0.885,1.578,0.885c0.144,0,0.289-0.017,0.433-0.051
					c9.847-2.367,15.27-6.136,15.27-10.613c0-4.476-5.423-8.245-15.27-10.613C278.198,307.748,278.052,307.731,277.909,307.731
					L277.909,307.731z"/>
			</g>
			<g>
				<path style="fill:#9FDBEB;" d="M235.314,345.353c-1.768,0-3.161-0.498-4.142-1.478c-2.825-2.824-1.605-8.914,3.434-17.149
					c0.17-0.278,0.472-0.442,0.789-0.442c0.072,0,0.144,0.008,0.216,0.025c3.196,0.769,6.752,1.351,10.567,1.73
					c0.439,0.043,0.786,0.39,0.829,0.829c0.38,3.816,0.963,7.371,1.731,10.567c0.094,0.39-0.074,0.796-0.416,1.006
					C243.069,343.655,238.571,345.353,235.314,345.353L235.314,345.353z"/>
				<path d="M235.394,327.209c3.182,0.765,6.789,1.363,10.692,1.751c0.388,3.904,0.986,7.51,1.751,10.693
					c-4.996,3.057-9.409,4.776-12.524,4.776c-1.481,0-2.67-0.389-3.488-1.207C229.286,340.681,230.885,334.581,235.394,327.209
					 M235.394,325.358c-0.634,0-1.237,0.327-1.578,0.885c-5.283,8.636-6.455,15.131-3.299,18.287
					c1.161,1.161,2.774,1.749,4.797,1.749c4.33,0,9.726-2.745,13.49-5.048c0.685-0.419,1.021-1.231,0.834-2.011
					c-0.759-3.157-1.334-6.671-1.709-10.443c-0.087-0.877-0.781-1.571-1.658-1.658c-3.773-0.375-7.286-0.95-10.443-1.709
					C235.683,325.375,235.538,325.358,235.394,325.358L235.394,325.358z"/>
			</g>
			<g>
				<path style="fill:#9FDBEB;" d="M277.909,310.507c-0.072,0-0.145-0.008-0.217-0.025c-3.2-0.77-6.755-1.352-10.567-1.731
					c-0.439-0.043-0.786-0.39-0.829-0.829c-0.379-3.816-0.961-7.371-1.73-10.568c-0.094-0.389,0.075-0.795,0.417-1.005
					c5.253-3.213,9.75-4.912,13.007-4.912c1.767,0,3.161,0.498,4.142,1.478c2.824,2.824,1.605,8.914-3.434,17.15
					C278.527,310.343,278.226,310.507,277.909,310.507z"/>
				<path d="M277.989,292.362c1.481,0,2.67,0.389,3.488,1.207c2.54,2.54,0.941,8.641-3.569,16.012
					c-3.182-0.765-6.789-1.363-10.693-1.751c-0.388-3.904-0.986-7.51-1.751-10.693C270.462,294.081,274.874,292.362,277.989,292.362
					 M277.989,290.512c-4.33,0-9.726,2.745-13.49,5.048c-0.685,0.419-1.021,1.231-0.834,2.011c0.759,3.157,1.334,6.67,1.709,10.443
					c0.087,0.877,0.781,1.571,1.658,1.658c3.772,0.375,7.285,0.95,10.443,1.709c0.144,0.035,0.289,0.051,0.433,0.051
					c0.634,0,1.237-0.327,1.578-0.885c5.283-8.636,6.455-15.131,3.299-18.287C281.626,291.1,280.012,290.512,277.989,290.512
					L277.989,290.512z"/>
			</g>
			<g>
				<path style="fill:#CEE6C1;" d="M271.591,319.32c-0.277,0-0.54-0.124-0.716-0.339c-1.163-1.42-2.482-2.932-3.923-4.496
					c-0.148-0.16-0.235-0.37-0.243-0.589c-0.084-2.06-0.223-4.07-0.413-5.975c-0.028-0.276,0.07-0.549,0.266-0.746
					c0.175-0.175,0.41-0.271,0.654-0.271c0.03,0,0.061,0.001,0.092,0.005c3.895,0.387,7.535,0.983,10.818,1.772
					c0.287,0.07,0.524,0.272,0.637,0.546c0.114,0.273,0.089,0.584-0.065,0.837c-1.785,2.92-3.936,5.92-6.391,8.917
					C272.131,319.196,271.868,319.32,271.591,319.32L271.591,319.32z"/>
				<path d="M267.217,307.83c3.904,0.388,7.51,0.986,10.693,1.751c-1.712,2.798-3.825,5.771-6.318,8.813
					c-1.231-1.502-2.561-3.019-3.958-4.536C267.549,311.788,267.41,309.772,267.217,307.83 M267.216,305.98
					c-0.488,0-0.96,0.193-1.308,0.542c-0.392,0.392-0.588,0.94-0.533,1.492c0.188,1.894,0.326,3.886,0.409,5.921
					c0.018,0.438,0.191,0.856,0.488,1.178c1.43,1.552,2.738,3.051,3.888,4.455c0.351,0.429,0.877,0.678,1.432,0.678
					c0.555,0,1.08-0.249,1.432-0.678c2.481-3.029,4.656-6.064,6.465-9.021c0.309-0.505,0.358-1.127,0.131-1.674
					c-0.227-0.547-0.701-0.952-1.277-1.091c-3.321-0.799-7.003-1.402-10.942-1.794C267.339,305.983,267.277,305.98,267.216,305.98
					L267.216,305.98z"/>
			</g>
			<g>
				<path style="fill:#CEE6C1;" d="M245.995,329.88c-3.899-0.387-7.538-0.983-10.817-1.771c-0.288-0.07-0.525-0.272-0.639-0.546
					c-0.113-0.273-0.089-0.584,0.066-0.837c1.784-2.917,3.934-5.917,6.391-8.918c0.175-0.214,0.438-0.339,0.716-0.339
					c0.277,0,0.54,0.124,0.716,0.339c1.161,1.418,2.481,2.93,3.924,4.496c0.148,0.16,0.235,0.37,0.244,0.589
					c0.084,2.055,0.222,4.066,0.411,5.975c0.028,0.276-0.07,0.549-0.266,0.746c-0.174,0.175-0.41,0.271-0.654,0.271
					C246.057,329.885,246.026,329.884,245.995,329.88z"/>
				<path d="M241.712,318.395c1.231,1.502,2.561,3.019,3.959,4.536c0.084,2.071,0.223,4.087,0.416,6.029
					c-3.904-0.388-7.51-0.986-10.692-1.751C237.106,324.411,239.22,321.438,241.712,318.395 M241.712,316.545
					c-0.555,0-1.08,0.249-1.432,0.678c-2.481,3.029-4.656,6.063-6.465,9.02c-0.309,0.505-0.358,1.127-0.131,1.674
					c0.227,0.547,0.701,0.952,1.277,1.091c3.32,0.798,7.002,1.402,10.942,1.794c0.061,0.006,0.122,0.009,0.183,0.009
					c0.488,0,0.96-0.193,1.308-0.542c0.392-0.392,0.588-0.94,0.533-1.492c-0.188-1.892-0.326-3.884-0.409-5.921
					c-0.018-0.438-0.191-0.856-0.488-1.179c-1.43-1.552-2.738-3.051-3.888-4.455C242.792,316.794,242.267,316.545,241.712,316.545
					L241.712,316.545z"/>
			</g>
			<g>
				<path style="fill:#9FDBEB;" d="M235.395,310.507c-0.317,0-0.619-0.164-0.789-0.442c-5.038-8.235-6.258-14.326-3.434-17.15
					c0.981-0.981,2.375-1.478,4.142-1.478c3.257,0,7.755,1.699,13.008,4.912c0.342,0.21,0.51,0.616,0.416,1.005
					c-0.769,3.2-1.351,6.755-1.731,10.568c-0.043,0.439-0.39,0.786-0.829,0.829c-3.818,0.381-7.373,0.963-10.567,1.731
					C235.539,310.499,235.466,310.507,235.395,310.507z"/>
				<path d="M235.314,292.362c3.116,0,7.528,1.72,12.524,4.776c-0.765,3.182-1.363,6.789-1.751,10.693
					c-3.904,0.388-7.51,0.986-10.692,1.751c-4.51-7.372-6.109-13.472-3.569-16.012C232.644,292.751,233.833,292.362,235.314,292.362
					 M235.314,290.512c-2.022,0-3.636,0.589-4.797,1.749c-3.156,3.156-1.985,9.65,3.299,18.287c0.341,0.558,0.944,0.885,1.578,0.885
					c0.144,0,0.289-0.017,0.433-0.051c3.157-0.759,6.67-1.334,10.443-1.709c0.877-0.087,1.571-0.781,1.658-1.658
					c0.375-3.772,0.95-7.286,1.709-10.443c0.188-0.78-0.149-1.592-0.834-2.011C245.04,293.257,239.644,290.512,235.314,290.512
					L235.314,290.512z"/>
			</g>
			<g>
				<path style="fill:#9FDBEB;" d="M277.988,345.354c-3.257-0.001-7.754-1.7-13.006-4.913c-0.342-0.21-0.511-0.616-0.417-1.006
					c0.769-3.195,1.351-6.75,1.73-10.567c0.043-0.439,0.39-0.786,0.829-0.829c3.817-0.38,7.372-0.961,10.567-1.73
					c0.072-0.017,0.145-0.025,0.217-0.025c0.317,0,0.618,0.164,0.789,0.442c5.038,8.236,6.258,14.326,3.434,17.149
					c-0.981,0.981-2.375,1.479-4.142,1.479C277.988,345.354,277.988,345.354,277.988,345.354z"/>
				<path d="M277.909,327.209c4.51,7.372,6.109,13.472,3.569,16.013c-0.819,0.819-2.007,1.207-3.488,1.207
					c-3.116,0-7.528-1.72-12.524-4.776c0.765-3.182,1.363-6.789,1.751-10.693C271.12,328.572,274.727,327.974,277.909,327.209
					 M277.909,325.358c-0.144,0-0.289,0.017-0.433,0.051c-3.158,0.759-6.671,1.334-10.443,1.709
					c-0.877,0.087-1.571,0.781-1.658,1.658c-0.375,3.772-0.95,7.286-1.709,10.443c-0.188,0.78,0.149,1.592,0.834,2.011
					c3.764,2.303,9.16,5.048,13.49,5.048c2.022,0,3.636-0.589,4.797-1.749c3.156-3.156,1.985-9.65-3.299-18.287
					C279.146,325.685,278.543,325.358,277.909,325.358L277.909,325.358z"/>
			</g>
			<g>
				<path style="fill:#CEE6C1;" d="M241.712,319.32c-0.277,0-0.54-0.124-0.716-0.339c-2.453-2.995-4.603-5.995-6.391-8.917
					c-0.155-0.253-0.179-0.564-0.066-0.837c0.113-0.273,0.351-0.476,0.639-0.546c3.275-0.787,6.914-1.383,10.817-1.772
					c0.031-0.004,0.061-0.005,0.092-0.005c0.244,0,0.48,0.096,0.654,0.271c0.196,0.196,0.294,0.47,0.266,0.746
					c-0.189,1.911-0.328,3.922-0.411,5.975c-0.009,0.219-0.096,0.429-0.244,0.589c-1.443,1.566-2.763,3.078-3.924,4.496
					C242.252,319.196,241.989,319.32,241.712,319.32z"/>
				<path d="M246.087,307.831h0.006 M246.087,307.831c-0.193,1.941-0.332,3.958-0.416,6.029c-1.398,1.517-2.728,3.034-3.959,4.536
					c-2.492-3.043-4.606-6.016-6.318-8.813C238.577,308.817,242.183,308.219,246.087,307.831 M246.087,305.98
					c-0.014,0-0.028,0-0.042,0l-0.001,0h-0.001c-0.056,0.001-0.111,0.005-0.165,0.011c-3.931,0.392-7.604,0.994-10.917,1.791
					c-0.576,0.138-1.05,0.544-1.277,1.091c-0.227,0.547-0.178,1.169,0.131,1.674c1.808,2.956,3.983,5.991,6.465,9.02
					c0.351,0.429,0.877,0.678,1.432,0.678c0.555,0,1.08-0.249,1.432-0.678c1.15-1.404,2.458-2.903,3.888-4.455
					c0.297-0.323,0.47-0.74,0.488-1.179c0.081-1.998,0.215-3.953,0.398-5.813c0.015-0.095,0.023-0.192,0.023-0.291
					c0-1.022-0.825-1.85-1.847-1.851C246.091,305.98,246.089,305.98,246.087,305.98L246.087,305.98z"/>
			</g>
			<g>
				<path style="fill:#CEE6C1;" d="M267.216,329.885c-0.245,0-0.48-0.096-0.654-0.271c-0.196-0.196-0.294-0.47-0.266-0.746
					c0.19-1.902,0.329-3.913,0.413-5.975c0.008-0.219,0.095-0.429,0.243-0.589c1.441-1.564,2.76-3.076,3.923-4.496
					c0.176-0.214,0.439-0.339,0.716-0.339s0.54,0.124,0.716,0.339c2.459,3.002,4.61,6.003,6.391,8.918
					c0.154,0.253,0.18,0.564,0.065,0.837c-0.113,0.273-0.351,0.476-0.637,0.546c-3.277,0.788-6.917,1.383-10.818,1.771
					C267.278,329.884,267.246,329.885,267.216,329.885z"/>
				<path d="M271.591,318.395c2.492,3.043,4.606,6.016,6.318,8.814c-3.182,0.765-6.789,1.363-10.693,1.751
					c0.193-1.941,0.332-3.958,0.416-6.029C269.03,321.415,270.361,319.898,271.591,318.395 M271.591,316.545
					c-0.555,0-1.08,0.249-1.432,0.678c-1.15,1.404-2.458,2.903-3.888,4.455c-0.297,0.323-0.47,0.74-0.488,1.179
					c-0.083,2.035-0.22,4.027-0.409,5.921c-0.055,0.552,0.141,1.099,0.533,1.492c0.349,0.349,0.82,0.542,1.308,0.542
					c0.061,0,0.122-0.003,0.183-0.009c3.939-0.392,7.621-0.995,10.942-1.794c0.576-0.138,1.05-0.544,1.277-1.091
					c0.227-0.547,0.178-1.169-0.131-1.674c-1.809-2.957-3.984-5.992-6.465-9.02C272.671,316.794,272.146,316.545,271.591,316.545
					L271.591,316.545z"/>
			</g>
			<g>
				<path style="fill:#FFFAC2;" d="M245.671,323.856c-0.253,0-0.502-0.104-0.681-0.299c-1.466-1.592-2.81-3.131-3.994-4.576
					c-0.28-0.341-0.28-0.833,0-1.173c1.184-1.445,2.528-2.984,3.994-4.576c0.179-0.195,0.428-0.299,0.681-0.299
					c0.119,0,0.24,0.023,0.354,0.07c0.358,0.149,0.586,0.506,0.57,0.893c-0.063,1.531-0.095,3.045-0.095,4.499
					c0,1.455,0.032,2.969,0.095,4.499c0.016,0.387-0.212,0.743-0.57,0.893C245.911,323.833,245.79,323.856,245.671,323.856z"/>
				<g>
					<path d="M245.671,313.859h0.006 M245.671,313.859c-0.061,1.486-0.095,2.998-0.095,4.536c0,1.538,0.035,3.05,0.095,4.536
						c-1.398-1.517-2.728-3.034-3.959-4.536C242.943,316.893,244.273,315.376,245.671,313.859 M245.671,312.009
						c-0.034,0-0.068,0.001-0.102,0.003c-0.384,0.021-0.737,0.159-1.024,0.379c-0.071,0.054-0.138,0.114-0.202,0.18
						c0,0-0.001,0.001-0.001,0.001s-0.001,0.001-0.001,0.001c-0.012,0.013-0.025,0.026-0.037,0.039
						c-1.476,1.602-2.83,3.154-4.024,4.612c-0.559,0.682-0.559,1.663,0,2.345c1.196,1.46,2.551,3.013,4.029,4.617
						c0.358,0.388,0.855,0.597,1.361,0.597c0.238,0,0.478-0.046,0.708-0.141c0.717-0.297,1.173-1.01,1.141-1.785
						c-0.062-1.525-0.094-3.026-0.094-4.461c0-1.401,0.03-2.865,0.089-4.353c0.006-0.06,0.009-0.121,0.009-0.183
						c0-1.015-0.814-1.839-1.827-1.85C245.689,312.009,245.68,312.009,245.671,312.009L245.671,312.009z"/>
				</g>
			</g>
			<g>
				<path style="fill:#FFFAC2;" d="M267.633,323.856c-0.119,0-0.24-0.023-0.354-0.07c-0.358-0.149-0.586-0.505-0.57-0.893
					c0.063-1.567,0.094-3.038,0.094-4.499c0-1.459-0.031-2.93-0.094-4.499c-0.016-0.388,0.212-0.743,0.57-0.893
					c0.114-0.047,0.235-0.07,0.354-0.07c0.253,0,0.501,0.104,0.681,0.299c1.465,1.589,2.808,3.129,3.993,4.576
					c0.28,0.341,0.28,0.833,0,1.173c-1.184,1.447-2.528,2.987-3.993,4.576C268.134,323.753,267.886,323.856,267.633,323.856z"/>
				<g>
					<path d="M267.633,313.859c1.397,1.517,2.728,3.034,3.958,4.536c-1.231,1.502-2.561,3.019-3.958,4.536
						c0.061-1.486,0.095-2.998,0.095-4.536C267.728,316.857,267.693,315.345,267.633,313.859 M267.632,312.009
						c-0.238,0-0.478,0.046-0.707,0.141c-0.717,0.297-1.173,1.01-1.141,1.785c0.062,1.523,0.093,3.024,0.093,4.461
						c0,1.437-0.031,2.938-0.093,4.461c-0.032,0.775,0.424,1.488,1.141,1.785c0.229,0.095,0.469,0.141,0.707,0.141
						c0.507,0,1.004-0.208,1.362-0.597c1.478-1.605,2.834-3.158,4.029-4.617c0.559-0.682,0.559-1.663,0-2.345
						c-1.195-1.459-2.551-3.013-4.029-4.617C268.636,312.217,268.139,312.009,267.632,312.009L267.632,312.009z"/>
				</g>
			</g>
			<g>
				<path style="fill:#9FDBEB;" d="M256.652,354.43c-4.006,0-7.456-5.171-9.713-14.561c-0.094-0.39,0.074-0.796,0.417-1.006
					c2.843-1.739,5.774-3.84,8.71-6.243c0.171-0.14,0.378-0.21,0.586-0.21s0.416,0.07,0.586,0.21
					c2.937,2.405,5.869,4.506,8.711,6.243c0.342,0.208,0.511,0.616,0.417,1.006C264.107,349.259,260.657,354.43,256.652,354.43z"/>
				<path d="M256.652,333.335c3.043,2.492,6.016,4.606,8.813,6.318c-2.023,8.416-5.217,13.852-8.813,13.852
					s-6.79-5.436-8.814-13.852C250.636,337.941,253.609,335.827,256.652,333.335 M256.652,331.484c-0.416,0-0.832,0.14-1.173,0.419
					c-2.898,2.374-5.794,4.45-8.607,6.171c-0.685,0.419-1.021,1.231-0.834,2.011c2.367,9.847,6.136,15.27,10.613,15.27
					c4.476,0,8.245-5.423,10.613-15.27c0.188-0.78-0.149-1.592-0.834-2.011c-2.812-1.72-5.708-3.797-8.606-6.171
					C257.483,331.624,257.068,331.484,256.652,331.484L256.652,331.484z"/>
			</g>
			<g>
				<path style="fill:#9FDBEB;" d="M256.652,304.381c-0.208,0-0.416-0.07-0.586-0.21c-2.929-2.399-5.859-4.5-8.711-6.244
					c-0.342-0.21-0.51-0.616-0.416-1.006c2.257-9.389,5.707-14.56,9.713-14.56c4.005,0,7.455,5.171,9.714,14.56
					c0.094,0.39-0.075,0.796-0.417,1.006c-2.851,1.743-5.781,3.844-8.711,6.244C257.068,304.311,256.86,304.381,256.652,304.381z"/>
				<path d="M256.652,283.286c3.596,0,6.79,5.436,8.814,13.852c-2.798,1.712-5.771,3.825-8.814,6.318
					c-3.043-2.492-6.016-4.606-8.814-6.318C249.862,288.722,253.056,283.286,256.652,283.286 M256.652,281.436
					c-4.476,0-8.245,5.423-10.613,15.27c-0.188,0.78,0.149,1.592,0.834,2.011c2.813,1.721,5.708,3.797,8.607,6.171
					c0.341,0.279,0.757,0.419,1.173,0.419s0.832-0.14,1.173-0.419c2.899-2.374,5.795-4.451,8.607-6.171
					c0.685-0.419,1.021-1.231,0.834-2.011C264.897,286.858,261.128,281.436,256.652,281.436L256.652,281.436z"/>
			</g>
			<g>
				<path style="fill:#CEE6C1;" d="M247.838,340.578c-0.12,0-0.24-0.023-0.354-0.071c-0.273-0.113-0.477-0.351-0.545-0.637
					c-0.789-3.279-1.385-6.918-1.773-10.818c-0.028-0.276,0.07-0.549,0.266-0.746c0.175-0.175,0.41-0.271,0.654-0.271
					c0.031,0,0.061,0.001,0.092,0.005c1.903,0.19,3.913,0.329,5.975,0.413c0.219,0.008,0.428,0.095,0.589,0.243
					c1.557,1.435,3.069,2.755,4.496,3.924c0.214,0.176,0.34,0.439,0.34,0.716c-0.001,0.277-0.125,0.54-0.34,0.716
					c-3.002,2.458-6.002,4.607-8.917,6.39C248.174,340.532,248.007,340.578,247.838,340.578z"/>
				<path d="M246.087,328.96c1.941,0.193,3.958,0.332,6.029,0.416c1.517,1.398,3.034,2.728,4.536,3.959
					c-3.043,2.492-6.016,4.606-8.814,6.318C247.073,336.47,246.475,332.864,246.087,328.96 M246.087,327.11
					c-0.488,0-0.96,0.193-1.308,0.542c-0.392,0.392-0.588,0.94-0.533,1.492c0.392,3.94,0.995,7.621,1.794,10.942
					c0.138,0.576,0.544,1.05,1.091,1.277c0.228,0.094,0.469,0.141,0.708,0.141c0.336,0,0.671-0.092,0.966-0.272
					c2.957-1.809,5.992-3.984,9.02-6.465c0.429-0.351,0.678-0.877,0.678-1.432c0-0.555-0.249-1.08-0.678-1.432
					c-1.406-1.152-2.905-2.46-4.455-3.888c-0.323-0.297-0.74-0.47-1.179-0.488c-2.035-0.083-4.027-0.22-5.921-0.409
					C246.209,327.113,246.148,327.11,246.087,327.11L246.087,327.11z"/>
			</g>
			<g>
				<path style="fill:#CEE6C1;" d="M267.125,308.751c-1.908-0.189-3.918-0.328-5.973-0.412c-0.219-0.008-0.428-0.095-0.589-0.243
					c-1.564-1.44-3.077-2.76-4.497-3.924c-0.214-0.176-0.339-0.439-0.339-0.716s0.125-0.54,0.339-0.716
					c2.995-2.454,5.995-4.605,8.917-6.391c0.148-0.09,0.314-0.136,0.483-0.136c0.12,0,0.241,0.023,0.354,0.071
					c0.273,0.113,0.476,0.351,0.546,0.639c0.788,3.278,1.384,6.918,1.771,10.817c0.028,0.276-0.07,0.549-0.266,0.746
					c-0.175,0.175-0.41,0.271-0.654,0.271C267.186,308.755,267.155,308.754,267.125,308.751z"/>
				<path d="M265.465,297.138c0.765,3.182,1.363,6.789,1.751,10.693c-1.941-0.193-3.958-0.332-6.028-0.416
					c-1.517-1.398-3.034-2.728-4.536-3.959C259.695,300.963,262.667,298.849,265.465,297.138 M265.465,295.287
					c-0.336,0-0.671,0.092-0.966,0.272c-2.956,1.808-5.991,3.983-9.02,6.465c-0.429,0.351-0.678,0.877-0.678,1.432
					c0,0.555,0.249,1.08,0.678,1.432c1.404,1.15,2.903,2.459,4.455,3.888c0.323,0.297,0.74,0.47,1.178,0.488
					c2.037,0.083,4.029,0.22,5.921,0.409c0.061,0.006,0.122,0.009,0.183,0.009c0.488,0,0.96-0.193,1.308-0.542
					c0.392-0.392,0.588-0.94,0.533-1.492c-0.392-3.94-0.995-7.622-1.794-10.942c-0.138-0.576-0.544-1.05-1.091-1.277
					C265.946,295.334,265.705,295.287,265.465,295.287L265.465,295.287z"/>
			</g>
			<g>
				<path style="fill:#FFFAC2;" d="M267.633,314.784c-0.253,0-0.501-0.104-0.681-0.298c-1.183-1.283-2.175-2.322-3.123-3.269
					c-0.96-0.96-1.999-1.953-3.269-3.123c-0.284-0.264-0.376-0.677-0.227-1.035c0.143-0.347,0.481-0.571,0.854-0.571
					c0.012,0,0.025,0,0.037,0.001c2.092,0.084,4.137,0.225,6.082,0.419c0.439,0.043,0.786,0.39,0.829,0.829
					c0.194,1.94,0.336,3.987,0.42,6.083c0.016,0.387-0.212,0.743-0.57,0.893C267.873,314.761,267.752,314.784,267.633,314.784z"/>
				<g>
					<path d="M261.188,307.414c2.071,0.084,4.087,0.223,6.028,0.416c0.193,1.941,0.332,3.958,0.416,6.029
						c-1.014-1.101-2.054-2.201-3.149-3.296C263.389,309.469,262.289,308.428,261.188,307.414 M261.188,305.564
						c-0.746,0-1.422,0.449-1.709,1.143c-0.297,0.717-0.115,1.543,0.456,2.069c1.252,1.154,2.282,2.138,3.241,3.097
						c0.957,0.957,1.941,1.987,3.097,3.241c0.358,0.388,0.855,0.597,1.361,0.597c0.238,0,0.478-0.046,0.708-0.141
						c0.717-0.297,1.173-1.01,1.141-1.785c-0.086-2.107-0.228-4.171-0.424-6.137c-0.087-0.877-0.781-1.571-1.658-1.658
						c-1.963-0.195-4.028-0.338-6.136-0.424C261.238,305.564,261.213,305.564,261.188,305.564L261.188,305.564z"/>
				</g>
			</g>
			<g>
				<path style="fill:#FFFAC2;" d="M252.078,330.301c-2.098-0.086-4.144-0.227-6.084-0.42c-0.439-0.043-0.785-0.39-0.828-0.829
					c-0.193-1.945-0.334-3.991-0.42-6.083c-0.016-0.388,0.212-0.743,0.571-0.893c0.114-0.047,0.234-0.07,0.354-0.07
					c0.253,0,0.502,0.105,0.681,0.299c1.154,1.253,2.146,2.292,3.122,3.269c0.957,0.958,1.995,1.949,3.269,3.123
					c0.286,0.264,0.377,0.676,0.228,1.035c-0.143,0.347-0.482,0.571-0.855,0.571C252.103,330.302,252.091,330.302,252.078,330.301z"
					/>
				<g>
					<path d="M245.671,322.932c1.014,1.101,2.054,2.201,3.149,3.296c1.095,1.095,2.195,2.135,3.296,3.149
						c-2.071-0.084-4.087-0.223-6.029-0.416C245.894,327.019,245.755,325.002,245.671,322.932 M245.67,321.081
						c-0.238,0-0.478,0.046-0.708,0.141c-0.717,0.297-1.173,1.01-1.141,1.785c0.086,2.108,0.228,4.173,0.424,6.136
						c0.087,0.877,0.781,1.571,1.658,1.658c1.965,0.195,4.03,0.338,6.136,0.424c0.025,0.001,0.051,0.002,0.076,0.002
						c0.746,0,1.422-0.449,1.709-1.143c0.297-0.717,0.115-1.543-0.456-2.069c-1.254-1.155-2.283-2.139-3.241-3.096
						c-0.957-0.957-1.941-1.987-3.097-3.241C246.674,321.289,246.177,321.081,245.67,321.081L245.67,321.081z"/>
				</g>
			</g>
			<g>
				<path style="fill:#CEE6C1;" d="M246.087,308.755c-0.244,0-0.48-0.096-0.654-0.271c-0.196-0.196-0.294-0.47-0.266-0.746
					c0.388-3.897,0.984-7.537,1.773-10.817c0.069-0.288,0.272-0.525,0.545-0.639c0.114-0.048,0.234-0.071,0.354-0.071
					c0.168,0,0.336,0.046,0.483,0.136c2.923,1.789,5.923,3.94,8.917,6.391c0.214,0.176,0.339,0.439,0.34,0.716
					c0,0.277-0.125,0.54-0.34,0.716c-1.42,1.165-2.933,2.484-4.496,3.924c-0.161,0.148-0.37,0.235-0.589,0.243
					c-2.055,0.084-4.066,0.223-5.975,0.412C246.148,308.754,246.117,308.755,246.087,308.755z"/>
				<path d="M247.838,297.138c2.798,1.712,5.771,3.825,8.814,6.318c-1.502,1.231-3.019,2.561-4.536,3.959
					c-2.071,0.084-4.087,0.223-6.029,0.416C246.475,303.927,247.073,300.32,247.838,297.138 M247.838,295.287
					c-0.24,0-0.481,0.047-0.708,0.141c-0.547,0.227-0.952,0.701-1.091,1.277c-0.799,3.321-1.402,7.002-1.794,10.942
					c-0.055,0.552,0.141,1.099,0.533,1.492c0.349,0.349,0.82,0.542,1.308,0.542c0.061,0,0.122-0.003,0.183-0.009
					c1.894-0.188,3.886-0.326,5.921-0.409c0.438-0.018,0.856-0.191,1.179-0.488c1.552-1.43,3.051-2.738,4.455-3.888
					c0.429-0.351,0.678-0.877,0.678-1.432c0-0.555-0.249-1.08-0.678-1.432c-3.029-2.481-6.064-4.656-9.02-6.465
					C248.509,295.379,248.175,295.287,247.838,295.287L247.838,295.287z"/>
			</g>
			<g>
				<path style="fill:#CEE6C1;" d="M265.466,340.578c-0.167,0-0.335-0.046-0.483-0.136c-2.913-1.781-5.914-3.931-8.917-6.39
					c-0.214-0.176-0.339-0.439-0.339-0.716s0.124-0.54,0.339-0.716c1.42-1.164,2.933-2.484,4.497-3.924
					c0.161-0.148,0.37-0.235,0.589-0.243c2.061-0.084,4.071-0.223,5.973-0.413c0.03-0.004,0.061-0.005,0.092-0.005
					c0.245,0,0.479,0.096,0.654,0.271c0.196,0.196,0.294,0.47,0.266,0.746c-0.387,3.9-0.983,7.54-1.771,10.818
					c-0.07,0.287-0.272,0.524-0.546,0.637C265.707,340.555,265.586,340.578,265.466,340.578z"/>
				<path d="M267.217,328.96h0.006 M267.217,328.96c-0.388,3.904-0.986,7.51-1.751,10.693c-2.798-1.712-5.771-3.825-8.813-6.318
					c1.503-1.231,3.019-2.561,4.536-3.959C263.259,329.292,265.275,329.153,267.217,328.96 M267.217,327.11
					c-0.015,0-0.03,0-0.044,0.001c0,0-0.001,0-0.001,0l0,0c-0.054,0.001-0.108,0.005-0.161,0.011
					c-1.884,0.187-3.868,0.324-5.897,0.406c-0.438,0.018-0.856,0.191-1.179,0.488c-1.552,1.429-3.05,2.738-4.455,3.888
					c-0.429,0.351-0.678,0.877-0.678,1.432s0.249,1.08,0.678,1.432c3.029,2.481,6.064,4.656,9.02,6.465
					c0.295,0.18,0.629,0.272,0.966,0.272c0.24,0,0.481-0.047,0.708-0.141c0.547-0.227,0.952-0.701,1.091-1.277
					c0.791-3.29,1.391-6.934,1.783-10.832c0.015-0.095,0.023-0.193,0.023-0.293c0-1.022-0.825-1.85-1.847-1.851
					C267.221,327.11,267.219,327.11,267.217,327.11L267.217,327.11z"/>
			</g>
			<g>
				<path style="fill:#FFFAC2;" d="M261.189,330.302c-0.373,0-0.711-0.224-0.854-0.571c-0.149-0.358-0.058-0.771,0.227-1.035
					c1.27-1.17,2.308-2.163,3.269-3.123c0.966-0.966,1.959-2.005,3.123-3.269c0.18-0.195,0.428-0.299,0.681-0.299
					c0.119,0,0.24,0.023,0.354,0.07c0.358,0.149,0.586,0.505,0.57,0.893c-0.086,2.099-0.227,4.146-0.42,6.083
					c-0.043,0.439-0.39,0.786-0.829,0.829c-1.937,0.194-3.984,0.335-6.082,0.42C261.214,330.302,261.201,330.302,261.189,330.302z"
					/>
				<g>
					<path d="M267.633,322.932h0.006 M267.633,322.932c-0.084,2.071-0.223,4.087-0.416,6.029c-1.941,0.193-3.958,0.332-6.028,0.416
						c1.101-1.014,2.201-2.054,3.296-3.149C265.579,325.133,266.619,324.032,267.633,322.932 M267.633,321.081
						c-0.033,0-0.065,0.001-0.098,0.003c-0.389,0.02-0.746,0.16-1.035,0.384c-0.072,0.056-0.141,0.117-0.205,0.184
						c-0.01,0.01-0.019,0.02-0.029,0.031c-1.154,1.253-2.137,2.281-3.092,3.237c-0.959,0.959-1.989,1.943-3.241,3.096
						c-0.571,0.526-0.753,1.352-0.456,2.069c0.287,0.694,0.964,1.143,1.709,1.143c0.025,0,0.05,0,0.076-0.002
						c2.109-0.086,4.173-0.228,6.136-0.424c0.877-0.087,1.571-0.781,1.658-1.658c0.192-1.931,0.333-3.958,0.419-6.027
						c0.006-0.061,0.009-0.122,0.009-0.184c0-1.016-0.815-1.84-1.828-1.85C267.65,321.081,267.642,321.081,267.633,321.081
						L267.633,321.081z"/>
				</g>
			</g>
			<g>
				<path style="fill:#FFFAC2;" d="M245.671,314.784c-0.119,0-0.24-0.023-0.354-0.07c-0.358-0.149-0.586-0.505-0.57-0.893
					c0.085-2.089,0.227-4.136,0.42-6.083c0.043-0.439,0.39-0.786,0.829-0.829c1.946-0.194,3.992-0.335,6.083-0.419
					c0.013-0.001,0.025-0.001,0.037-0.001c0.373,0,0.711,0.224,0.855,0.571c0.149,0.359,0.058,0.771-0.228,1.035
					c-1.266,1.167-2.305,2.159-3.269,3.123c-0.957,0.957-1.949,1.995-3.123,3.269C246.172,314.681,245.924,314.784,245.671,314.784z
					"/>
				<g>
					<path d="M252.115,307.414h0.006 M252.115,307.414c-1.101,1.014-2.201,2.054-3.296,3.149c-1.095,1.095-2.135,2.195-3.149,3.296
						c0.084-2.071,0.223-4.087,0.416-6.029C248.028,307.638,250.045,307.499,252.115,307.414 M252.116,305.564
						c-0.012,0-0.023,0-0.035,0c-0.018,0-0.035,0.001-0.052,0.002c-2.103,0.086-4.163,0.228-6.125,0.423
						c-0.877,0.087-1.571,0.781-1.658,1.658c-0.195,1.963-0.338,4.028-0.424,6.136c-0.032,0.775,0.424,1.488,1.141,1.785
						c0.229,0.095,0.469,0.141,0.708,0.141c0.507,0,1.004-0.208,1.361-0.597c1.155-1.253,2.139-2.283,3.096-3.241
						c0.948-0.948,1.966-1.921,3.199-3.058c0.393-0.339,0.642-0.841,0.642-1.4c0-1.022-0.825-1.85-1.846-1.851
						C252.121,305.564,252.118,305.564,252.116,305.564L252.116,305.564z"/>
				</g>
			</g>
			<g>
				<path style="fill:#FFFAC2;" d="M256.652,334.261c-0.208,0-0.416-0.07-0.587-0.21c-1.454-1.192-2.994-2.535-4.577-3.994
					c-0.285-0.263-0.376-0.676-0.228-1.035c0.143-0.347,0.482-0.571,0.855-0.571c0.012,0,0.025,0,0.037,0.001
					c1.567,0.063,3.039,0.094,4.499,0.094c1.46,0,2.931-0.031,4.499-0.094c0.012-0.001,0.025-0.001,0.037-0.001
					c0.374,0,0.712,0.224,0.855,0.571c0.148,0.359,0.057,0.772-0.229,1.035c-1.589,1.464-3.129,2.807-4.577,3.994
					C257.068,334.191,256.86,334.261,256.652,334.261z"/>
				<g>
					<path d="M261.188,329.376c-1.517,1.398-3.034,2.728-4.536,3.959c-1.502-1.231-3.019-2.561-4.536-3.959
						c1.486,0.061,2.998,0.095,4.536,0.095C258.19,329.471,259.702,329.437,261.188,329.376 M261.189,327.526
						c-0.025,0-0.05,0-0.076,0.002c-1.524,0.062-3.025,0.094-4.461,0.094s-2.937-0.031-4.461-0.094
						c-0.025-0.001-0.051-0.002-0.076-0.002c-0.746,0-1.422,0.449-1.709,1.143c-0.297,0.717-0.115,1.543,0.456,2.069
						c1.603,1.477,3.156,2.832,4.618,4.029c0.341,0.279,0.757,0.419,1.173,0.419s0.832-0.14,1.173-0.419
						c1.46-1.196,3.013-2.551,4.618-4.029c0.571-0.526,0.753-1.352,0.456-2.069C262.611,327.975,261.934,327.526,261.189,327.526
						L261.189,327.526z"/>
				</g>
			</g>
			<g>
				<path style="fill:#FFFAC2;" d="M261.151,308.339c-1.569-0.063-3.04-0.094-4.499-0.094c-1.46,0-2.932,0.031-4.499,0.094
					c-0.013,0.001-0.025,0.001-0.037,0.001c-0.373,0-0.711-0.224-0.855-0.571c-0.149-0.359-0.057-0.772,0.228-1.035
					c1.589-1.463,3.129-2.807,4.577-3.994c0.17-0.14,0.379-0.21,0.587-0.21s0.416,0.07,0.586,0.21
					c1.448,1.187,2.988,2.53,4.577,3.994c0.286,0.263,0.377,0.676,0.229,1.035c-0.143,0.347-0.482,0.571-0.855,0.571
					C261.177,308.34,261.163,308.34,261.151,308.339z"/>
				<g>
					<path d="M256.652,303.456c1.502,1.231,3.019,2.561,4.536,3.959c-1.486-0.061-2.998-0.095-4.536-0.095
						c-1.538,0-3.05,0.035-4.536,0.095C253.633,306.017,255.149,304.686,256.652,303.456 M256.652,301.605
						c-0.416,0-0.832,0.14-1.173,0.419c-1.46,1.196-3.013,2.551-4.617,4.029c-0.571,0.526-0.753,1.352-0.456,2.069
						c0.287,0.694,0.964,1.143,1.709,1.143c0.025,0,0.05,0,0.076-0.002c1.524-0.062,3.025-0.094,4.461-0.094
						s2.937,0.031,4.461,0.094c0.025,0.001,0.051,0.002,0.076,0.002c0.746,0,1.422-0.449,1.709-1.143
						c0.297-0.717,0.115-1.543-0.456-2.069c-1.604-1.478-3.158-2.833-4.617-4.029C257.483,301.745,257.068,301.605,256.652,301.605
						L256.652,301.605z"/>
				</g>
			</g>
			<g>
				<path style="fill:#FFFAC2;" d="M256.652,330.397c-1.486,0-2.981-0.031-4.574-0.096c-0.219-0.008-0.428-0.095-0.59-0.243
					c-1.292-1.192-2.348-2.2-3.323-3.176c-0.995-0.995-2.004-2.052-3.175-3.324c-0.148-0.161-0.235-0.37-0.244-0.589
					c-0.063-1.554-0.096-3.093-0.096-4.573c0-1.479,0.033-3.018,0.096-4.573c0.009-0.219,0.096-0.429,0.245-0.589
					c1.19-1.292,2.199-2.348,3.175-3.323c0.981-0.982,2.037-1.99,3.323-3.176c0.161-0.148,0.37-0.235,0.59-0.243
					c1.593-0.065,3.088-0.096,4.574-0.096c1.485,0,2.981,0.031,4.574,0.096c0.219,0.008,0.429,0.095,0.59,0.243
					c1.288,1.189,2.343,2.198,3.322,3.176c0.965,0.964,1.975,2.02,3.176,3.322c0.148,0.161,0.235,0.371,0.243,0.59
					c0.065,1.593,0.096,3.089,0.096,4.573c0,1.486-0.031,2.982-0.096,4.573c-0.008,0.219-0.095,0.428-0.243,0.589
					c-1.182,1.283-2.19,2.339-3.176,3.324c-0.978,0.978-2.034,1.987-3.322,3.176c-0.161,0.148-0.371,0.235-0.59,0.243
					C259.633,330.366,258.137,330.397,256.652,330.397z"/>
				<path d="M256.652,307.319c1.538,0,3.05,0.035,4.536,0.095c1.101,1.014,2.201,2.054,3.296,3.149
					c1.095,1.095,2.135,2.195,3.149,3.296c0.061,1.486,0.095,2.998,0.095,4.536c0,1.538-0.035,3.05-0.095,4.536
					c-1.014,1.101-2.054,2.201-3.149,3.296c-1.095,1.095-2.195,2.135-3.296,3.149c-1.486,0.061-2.998,0.095-4.536,0.095
					c-1.538,0-3.05-0.035-4.536-0.095c-1.101-1.014-2.201-2.054-3.296-3.149c-1.095-1.095-2.135-2.195-3.149-3.296
					c-0.061-1.486-0.095-2.998-0.095-4.536c0-1.538,0.035-3.05,0.095-4.536c1.014-1.101,2.054-2.201,3.149-3.296
					c1.095-1.095,2.195-2.135,3.296-3.149C253.602,307.354,255.114,307.319,256.652,307.319 M256.652,305.469
					c-1.486,0-3.037,0.033-4.612,0.097c-0.438,0.018-0.856,0.191-1.179,0.488c-1.29,1.189-2.355,2.206-3.35,3.201
					c-0.994,0.994-2.012,2.059-3.202,3.351c-0.297,0.323-0.47,0.74-0.488,1.179c-0.064,1.575-0.097,3.127-0.097,4.612
					s0.033,3.036,0.097,4.612c0.018,0.438,0.191,0.856,0.488,1.178c1.19,1.292,2.208,2.357,3.202,3.351
					c0.994,0.994,2.059,2.011,3.35,3.201c0.323,0.297,0.74,0.47,1.179,0.488c1.574,0.064,3.126,0.097,4.612,0.097
					c1.486,0,3.037-0.033,4.612-0.097c0.438-0.018,0.856-0.191,1.179-0.488c1.29-1.188,2.354-2.206,3.35-3.201
					c0.993-0.993,2.011-2.058,3.202-3.351c0.297-0.323,0.47-0.74,0.488-1.179c0.064-1.573,0.097-3.124,0.097-4.612
					s-0.033-3.039-0.097-4.612c-0.018-0.438-0.191-0.856-0.488-1.179c-1.19-1.292-2.208-2.356-3.201-3.35
					c-0.996-0.996-2.06-2.013-3.35-3.202c-0.323-0.297-0.74-0.47-1.179-0.488C259.689,305.501,258.138,305.469,256.652,305.469
					L256.652,305.469z"/>
			</g>
		</g>
		
			<circle style="fill:#00AEEF;stroke:#000000;stroke-width:0.5319;stroke-linecap:round;stroke-linejoin:round;stroke-miterlimit:10;" cx="256.652" cy="318.395" r="3.883"/>
	</g>
	<g>
		
			<line style="fill:none;stroke:#FFF200;stroke-width:0.5319;stroke-linecap:round;stroke-linejoin:round;stroke-miterlimit:10;" x1="252.456" y1="220.086" x2="252.456" y2="275.502"/>
		
			<line style="fill:none;stroke:#FFF200;stroke-width:0.5319;stroke-linecap:round;stroke-linejoin:round;stroke-miterlimit:10;" x1="265.417" y1="220.086" x2="265.417" y2="247.794"/>
		
			<line style="fill:none;stroke:#FFF200;stroke-width:0.5319;stroke-linecap:round;stroke-linejoin:round;stroke-miterlimit:10;" x1="275.969" y1="217.413" x2="281.727" y2="272.724"/>
		
			<line style="fill:none;stroke:#FFF200;stroke-width:0.5319;stroke-linecap:round;stroke-linejoin:round;stroke-miterlimit:10;" x1="285.222" y1="215.151" x2="293.652" y2="241.265"/>
		
			<line style="fill:none;stroke:#FFF200;stroke-width:0.5319;stroke-linecap:round;stroke-linejoin:round;stroke-miterlimit:10;" x1="296.12" y1="208.571" x2="317.093" y2="260.798"/>
		
			<line style="fill:none;stroke:#FFF200;stroke-width:0.5319;stroke-linecap:round;stroke-linejoin:round;stroke-miterlimit:10;" x1="304.139" y1="203.431" x2="320.588" y2="225.226"/>
		
			<line style="fill:none;stroke:#FFF200;stroke-width:0.5319;stroke-linecap:round;stroke-linejoin:round;stroke-miterlimit:10;" x1="313.186" y1="195.823" x2="349.58" y2="236.124"/>
		
			<line style="fill:none;stroke:#FFF200;stroke-width:0.5319;stroke-linecap:round;stroke-linejoin:round;stroke-miterlimit:10;" x1="319.56" y1="187.598" x2="340.533" y2="204.459"/>
		
			<line style="fill:none;stroke:#FFF200;stroke-width:0.5319;stroke-linecap:round;stroke-linejoin:round;stroke-miterlimit:10;" x1="325.523" y1="178.346" x2="374.049" y2="206.104"/>
		
			<line style="fill:none;stroke:#FFF200;stroke-width:0.5319;stroke-linecap:round;stroke-linejoin:round;stroke-miterlimit:10;" x1="252.456" y1="220.086" x2="252.456" y2="275.502"/>
		
			<line style="fill:none;stroke:#FFF200;stroke-width:0.5319;stroke-linecap:round;stroke-linejoin:round;stroke-miterlimit:10;" x1="242.644" y1="220.086" x2="239.497" y2="247.615"/>
		
			<line style="fill:none;stroke:#FFF200;stroke-width:0.5319;stroke-linecap:round;stroke-linejoin:round;stroke-miterlimit:10;" x1="232.463" y1="216.232" x2="218.566" y2="270.078"/>
		
			<line style="fill:none;stroke:#FFF200;stroke-width:0.5319;stroke-linecap:round;stroke-linejoin:round;stroke-miterlimit:10;" x1="223.527" y1="212.934" x2="212.186" y2="237.922"/>
		
			<line style="fill:none;stroke:#FFF200;stroke-width:0.5319;stroke-linecap:round;stroke-linejoin:round;stroke-miterlimit:10;" x1="213.446" y1="209.343" x2="185.227" y2="258.038"/>
		
			<line style="fill:none;stroke:#FFF200;stroke-width:0.5319;stroke-linecap:round;stroke-linejoin:round;stroke-miterlimit:10;" x1="206.063" y1="203.326" x2="189.531" y2="225.059"/>
		
			<line style="fill:none;stroke:#FFF200;stroke-width:0.5319;stroke-linecap:round;stroke-linejoin:round;stroke-miterlimit:10;" x1="198.053" y1="196.65" x2="159.49" y2="234.881"/>
		
			<line style="fill:none;stroke:#FFF200;stroke-width:0.5319;stroke-linecap:round;stroke-linejoin:round;stroke-miterlimit:10;" x1="190.701" y1="187.435" x2="169.665" y2="204.217"/>
		
			<line style="fill:none;stroke:#FFF200;stroke-width:0.5319;stroke-linecap:round;stroke-linejoin:round;stroke-miterlimit:10;" x1="186.581" y1="180.092" x2="137.951" y2="207.667"/>
	</g>
	
		<circle style="fill:#FFF200;stroke:#000000;stroke-width:0.596;stroke-linecap:round;stroke-linejoin:round;stroke-miterlimit:10;" cx="256" cy="140.265" r="71.695"/>
	<g>
		<polygon style="stroke:#000000;stroke-width:0.5319;stroke-linecap:round;stroke-linejoin:round;stroke-miterlimit:10;" points="
			310.405,152.643 201.595,152.643 209.861,141.007 303.23,141.007 		"/>
		
			<path style="fill:#FFFFFF;stroke:#000000;stroke-width:0.5319;stroke-linecap:round;stroke-linejoin:round;stroke-miterlimit:10;" d="
			M286.142,110.286c0,0-4.318,4.318-14.188-2.673c-6.374-4.318-14.416,3.992-14.416,3.992v37.337c0,0,5.163-6.58,11.949-6.58
			c6.785,0,15.627,3.907,24.057,4.935s10.075,0.206,14.393,3.907l2.467,1.439L286.142,110.286z"/>
		
			<line style="fill:none;stroke:#000000;stroke-width:0.5319;stroke-linecap:round;stroke-linejoin:round;stroke-miterlimit:10;" x1="286.347" y1="119.539" x2="281.207" y2="118.305"/>
		
			<path style="fill:none;stroke:#000000;stroke-width:0.5319;stroke-linecap:round;stroke-linejoin:round;stroke-miterlimit:10;" d="
			M278.945,118.305c0,0-6.374-3.29-12.131-1.851"/>
		
			<line style="fill:none;stroke:#000000;stroke-width:0.5319;stroke-linecap:round;stroke-linejoin:round;stroke-miterlimit:10;" x1="261.262" y1="118.305" x2="264.141" y2="117.198"/>
		
			<line style="fill:none;stroke:#000000;stroke-width:0.5839;stroke-linecap:round;stroke-linejoin:round;stroke-miterlimit:10;" x1="291.488" y1="128.42" x2="285.294" y2="127.186"/>
		
			<path style="fill:none;stroke:#000000;stroke-width:0.5839;stroke-linecap:round;stroke-linejoin:round;stroke-miterlimit:10;" d="
			M282.569,127.186c0,0-6.107-3.29-13.044-1.851"/>
		
			<line style="fill:none;stroke:#000000;stroke-width:0.5839;stroke-linecap:round;stroke-linejoin:round;stroke-miterlimit:10;" x1="261.262" y1="127.186" x2="265.78" y2="126.079"/>
		
			<line style="fill:none;stroke:#000000;stroke-width:0.5839;stroke-linecap:round;stroke-linejoin:round;stroke-miterlimit:10;" x1="295.684" y1="138.103" x2="286.343" y2="135.82"/>
		
			<path style="fill:none;stroke:#000000;stroke-width:0.5839;stroke-linecap:round;stroke-linejoin:round;stroke-miterlimit:10;" d="
			M283.618,135.82c0,0-5.582-3.29-12.519-1.851"/>
		
			<line style="fill:none;stroke:#000000;stroke-width:0.5839;stroke-linecap:round;stroke-linejoin:round;stroke-miterlimit:10;" x1="262.311" y1="135.82" x2="267.353" y2="134.713"/>
		
			<path style="fill:#FFFFFF;stroke:#000000;stroke-width:0.5319;stroke-linecap:round;stroke-linejoin:round;stroke-miterlimit:10;" d="
			M228.712,110.286c0,0,4.318,4.318,14.188-2.673c6.374-4.318,14.416,3.992,14.416,3.992v37.337c0,0-5.163-6.58-11.949-6.58
			s-15.627,3.907-24.057,4.935s-16.336,1.674-16.336,1.674L228.712,110.286z"/>
		
			<line style="fill:none;stroke:#000000;stroke-width:0.5319;stroke-linecap:round;stroke-linejoin:round;stroke-miterlimit:10;" x1="228.507" y1="119.539" x2="233.647" y2="118.305"/>
		
			<path style="fill:none;stroke:#000000;stroke-width:0.5319;stroke-linecap:round;stroke-linejoin:round;stroke-miterlimit:10;" d="
			M235.909,118.305c0,0,6.374-3.29,12.131-1.851"/>
		
			<line style="fill:none;stroke:#000000;stroke-width:0.5319;stroke-linecap:round;stroke-linejoin:round;stroke-miterlimit:10;" x1="253.592" y1="118.305" x2="250.713" y2="117.198"/>
		
			<line style="fill:none;stroke:#000000;stroke-width:0.5839;stroke-linecap:round;stroke-linejoin:round;stroke-miterlimit:10;" x1="223.366" y1="128.42" x2="229.56" y2="127.186"/>
		
			<path style="fill:none;stroke:#000000;stroke-width:0.5839;stroke-linecap:round;stroke-linejoin:round;stroke-miterlimit:10;" d="
			M232.285,127.186c0,0,6.107-3.29,13.044-1.851"/>
		
			<line style="fill:none;stroke:#000000;stroke-width:0.5839;stroke-linecap:round;stroke-linejoin:round;stroke-miterlimit:10;" x1="253.592" y1="127.186" x2="249.074" y2="126.079"/>
		
			<line style="fill:none;stroke:#000000;stroke-width:0.5839;stroke-linecap:round;stroke-linejoin:round;stroke-miterlimit:10;" x1="219.17" y1="138.103" x2="228.511" y2="135.82"/>
		
			<path style="fill:none;stroke:#000000;stroke-width:0.5839;stroke-linecap:round;stroke-linejoin:round;stroke-miterlimit:10;" d="
			M231.236,135.82c0,0,5.582-3.29,12.519-1.851"/>
		
			<line style="fill:none;stroke:#000000;stroke-width:0.5839;stroke-linecap:round;stroke-linejoin:round;stroke-miterlimit:10;" x1="252.543" y1="135.82" x2="247.501" y2="134.713"/>
	</g>
	<g>
		<path d="M209.295,166.648v2.4h-3.484c-0.66,0-0.99-0.263-0.99-0.788v-0.455l-0.014-0.311v-6.484l1.923-2.031v6.766
			c0,0.535,0.089,0.826,0.267,0.875c0.067,0.019,0.222,0.029,0.463,0.029H209.295z"/>
		<path d="M219.017,166.648v2.4h-2.978l-0.708,1.554l-4.149-2.371l-0.542,0.817h-2.06v-2.4h2.754c0.188-0.68,0.542-1.32,1.063-1.923
			c0.742-0.848,1.716-1.272,2.92-1.272c0.66,0,1.055,0.166,1.186,0.499c0.019,0.082,0.034,0.246,0.043,0.492l0.014,0.426v1.778
			H219.017z M215.193,167.791v-1.706c0-0.405-0.26-0.607-0.781-0.607c-0.386,0-0.694,0.065-0.925,0.195
			c-0.231,0.13-0.487,0.352-0.766,0.665L215.193,167.791z"/>
		<path d="M225.155,166.648v2.4h-3.238c-0.376,0-0.629-0.019-0.759-0.058c-0.255-0.082-0.407-0.26-0.455-0.535l-0.39,0.593h-1.981
			v-2.4h2.371v-5.595l1.923-2.089l0.014,7.272c0,0.178,0.035,0.292,0.105,0.34c0.07,0.048,0.196,0.072,0.38,0.072H225.155z"/>
		<path d="M233.793,166.648l-0.904,2.4h-8.421v-2.4h2.617c-0.116-0.304-0.173-0.578-0.173-0.824c0-0.525,0.231-1.118,0.694-1.778
			c0.771-1.099,1.6-1.648,2.487-1.648c0.602,0,1.14,0.272,1.612,0.817c0.366,0.414,0.643,0.988,0.831,1.72
			c-0.699-0.477-1.39-0.716-2.075-0.716c-0.549,0-1.058,0.164-1.525,0.492c-0.164,0.12-0.381,0.318-0.651,0.593
			c0.366,0.501,0.865,0.949,1.496,1.345H233.793z"/>
		<path d="M246.552,169.048l-0.13,0.296l-0.535,1.157l-0.708,1.373c-0.978,0.612-1.916,1.031-2.812,1.258
			c-0.477,0.12-0.913,0.181-1.308,0.181c-0.8,0-1.466-0.289-1.999-0.867c-0.533-0.578-0.799-1.272-0.799-2.082
			c0-1.075,0.405-2.47,1.214-4.185l-0.043,0.217c-0.13,0.646-0.195,1.253-0.195,1.822c0,1.335,0.431,2.19,1.294,2.566
			c0.304,0.135,0.614,0.202,0.933,0.202c0.549,0,1.166-0.181,1.851-0.542c0.371-0.207,0.74-0.48,1.106-0.817
			c-0.781-0.443-1.629-0.665-2.545-0.665l1.084-2.313h5.031c-0.188-0.66-0.455-1.164-0.802-1.511l1.381-1.894
			c0.612,0.742,0.918,1.566,0.918,2.472c0,0.506-0.154,1.178-0.463,2.017c-0.169,0.472-0.347,0.911-0.535,1.316H246.552z
			 M239.417,175.916l1.214-1.063l0.86,0.723l0.795-0.723l1.511,1.402l-1.135,1.055l-0.86-0.745l-0.831,0.745L239.417,175.916z
			 M249.205,160.923l-1.128,1.063l-1.583-1.359l1.157-1.084L249.205,160.923z"/>
		<path d="M253.846,166.648c-0.169-0.52-0.41-0.925-0.723-1.214c-0.27-0.255-0.684-0.492-1.243-0.708l0.889-1.879
			c0.472,0.198,0.846,0.395,1.12,0.593c0.92,0.67,1.381,1.499,1.381,2.487c0,0.511-0.135,1.104-0.405,1.778l-0.528,1.345h-4.207
			l0.564-2.4H253.846z"/>
		<path d="M258.58,164.624c0.79,1.224,1.186,2.26,1.186,3.108c0,0.549-0.118,1.171-0.354,1.865
			c-0.227,0.651-0.508,1.222-0.846,1.713c-0.66,0.969-1.282,1.453-1.865,1.453c-0.651,0-1.465-0.786-2.443-2.357
			c0.525,0.169,0.949,0.253,1.272,0.253c0.593,0,1.186-0.217,1.778-0.651c0.434-0.323,0.834-0.846,1.2-1.569l0.072-0.145
			c-0.169-0.386-0.383-0.788-0.643-1.207c-0.26-0.419-0.484-0.723-0.672-0.911L258.58,164.624z M258.949,162.21l-1.135,1.063
			l-1.576-1.345l1.157-1.084L258.949,162.21z"/>
		<path d="M272.922,169.048l-0.13,0.296l-0.535,1.157l-0.708,1.373c-0.978,0.612-1.916,1.031-2.812,1.258
			c-0.477,0.12-0.913,0.181-1.308,0.181c-0.8,0-1.466-0.289-1.999-0.867c-0.533-0.578-0.799-1.272-0.799-2.082
			c0-1.075,0.405-2.47,1.214-4.185l-0.043,0.217c-0.13,0.646-0.195,1.253-0.195,1.822c0,1.335,0.431,2.19,1.294,2.566
			c0.304,0.135,0.614,0.202,0.932,0.202c0.549,0,1.166-0.181,1.851-0.542c0.371-0.207,0.74-0.48,1.106-0.817
			c-0.781-0.443-1.629-0.665-2.544-0.665l1.084-2.313h5.031c-0.188-0.66-0.455-1.164-0.802-1.511l1.381-1.894
			c0.612,0.742,0.918,1.566,0.918,2.472c0,0.506-0.154,1.178-0.463,2.017c-0.169,0.472-0.347,0.911-0.535,1.316H272.922z
			 M265.787,175.916l1.214-1.063l0.86,0.723l0.795-0.723l1.511,1.402l-1.135,1.055l-0.86-0.745l-0.831,0.745L265.787,175.916z
			 M275.915,171.636l-1.142,1.07l-1.583-1.366l1.171-1.077L275.915,171.636z"/>
		<path d="M278.958,164.624c0.79,1.224,1.186,2.26,1.186,3.108c0,0.549-0.118,1.171-0.354,1.865
			c-0.227,0.651-0.508,1.222-0.846,1.713c-0.66,0.969-1.282,1.453-1.865,1.453c-0.651,0-1.465-0.786-2.443-2.357
			c0.525,0.169,0.949,0.253,1.272,0.253c0.593,0,1.186-0.217,1.778-0.651c0.434-0.323,0.834-0.846,1.2-1.569l0.072-0.145
			c-0.169-0.386-0.383-0.788-0.643-1.207c-0.26-0.419-0.484-0.723-0.672-0.911L278.958,164.624z"/>
		<path d="M292.563,169.048l-0.094,0.253l-0.289,0.918c-0.053,0.169-0.118,0.352-0.195,0.549c-0.019,0.048-0.08,0.186-0.181,0.412
			c-0.549,0.376-1.031,0.658-1.446,0.846c-0.93,0.424-1.759,0.636-2.487,0.636c-0.829,0-1.513-0.292-2.053-0.875
			c-0.54-0.583-0.81-1.289-0.81-2.118c0-1.084,0.395-2.492,1.186-4.222c-0.159,0.949-0.239,1.745-0.239,2.385
			c0,0.742,0.178,1.33,0.535,1.764c0.386,0.463,0.945,0.694,1.677,0.694c1.002,0,1.988-0.439,2.957-1.316l-0.13-7.923l1.966-2.089
			v7.684h2.342v2.4H292.563z"/>
		<path d="M300.948,169.048h-6.332v-2.4h6.072v-0.499l-0.051-0.448l-0.029-0.21l-0.47,0.622h-1.099l-0.47-0.014
			c-0.188-0.01-0.364-0.022-0.528-0.036c-0.164-0.014-0.33-0.089-0.499-0.224c-0.284-0.251-0.426-0.636-0.426-1.157
			c0-0.651,0.193-1.282,0.578-1.894c0.602-0.959,1.21-1.439,1.822-1.439c0.839,0,1.508,0.764,2.01,2.292
			c0.207,0.636,0.311,1.279,0.311,1.93c0,0.718-0.137,1.482-0.412,2.292C301.338,168.128,301.179,168.523,300.948,169.048z
			 M301.526,159.543l-1.214,1.055l-0.853-0.716l-0.788,0.716l-1.511-1.395l1.128-1.048l0.86,0.737l0.824-0.737L301.526,159.543z
			 M300.363,163.938c-0.13-0.622-0.426-0.933-0.889-0.933c-0.198,0-0.373,0.063-0.528,0.188c-0.154,0.125-0.231,0.282-0.231,0.47
			c0,0.145,0.084,0.231,0.253,0.26h0.34l0.369,0.014H300.363z"/>
		<path d="M306.341,169.048h-0.932c-0.81,0-1.383-0.089-1.72-0.267c-0.236-0.116-0.43-0.307-0.582-0.575
			c-0.152-0.267-0.228-0.539-0.228-0.813c0-0.892,0.359-1.889,1.077-2.993c0.13-0.188,0.27-0.376,0.419-0.564
			c0.371-0.453,0.74-0.679,1.106-0.679c0.414,0,0.824,0.277,1.229,0.831c0.463,0.641,0.793,1.434,0.99,2.378
			c0.111,0.525,0.166,1,0.166,1.424c0,0.781-0.165,1.558-0.495,2.331c-0.33,0.773-0.772,1.447-1.326,2.02
			c-0.405,0.414-0.795,0.622-1.171,0.622c-0.294,0-0.643-0.183-1.048-0.549c-0.376-0.333-0.795-0.851-1.258-1.554l-0.123-0.173
			l0.181,0.043c0.434,0.106,0.798,0.159,1.092,0.159c0.602,0,1.147-0.166,1.634-0.499
			C305.765,169.901,306.095,169.521,306.341,169.048z M306.203,166.648c-0.154-0.964-0.465-1.446-0.933-1.446
			c-0.227,0-0.418,0.093-0.575,0.278s-0.235,0.392-0.235,0.618c0,0.366,0.222,0.549,0.665,0.549H306.203z"/>
	</g>
	<g>
		<rect x="76.368" y="409.254" style="fill:#FFF200;" width="359.265" height="70.512"/>
		<path d="M434.399,410.488v68.045H77.601v-68.045H434.399 M436.866,408.021h-2.467H77.601h-2.467v2.467v68.045V481h2.467h356.798
			h2.467v-2.467v-68.045V408.021L436.866,408.021z"/>
	</g>
	<g>
		<path d="M390.329,448.165v2h-3.879v-2H390.329z"/>
		<path d="M393.943,444.045c0.892,0.586,1.593,1.101,2.102,1.542c0.442,0.378,0.843,0.785,1.205,1.223
			c0.249,0.297,0.373,0.556,0.373,0.777c0,0.253-0.153,0.709-0.458,1.367l-0.163,0.349l-0.38,0.861h-6.934v-2h2.157l-0.012-0.283
			c-0.016-0.297,0.048-0.607,0.193-0.931c0.145-0.323,0.331-0.593,0.56-0.81c0.076-0.072,0.208-0.183,0.398-0.331
			c-0.117-0.064-0.175-0.158-0.175-0.283c0-0.072,0.063-0.187,0.187-0.343l0.211-0.271L393.943,444.045z M394.341,448.165
			l0.036-0.259c0-0.277-0.063-0.52-0.187-0.729c-0.145-0.237-0.353-0.355-0.626-0.355c-0.189,0-0.346,0.068-0.47,0.205
			c-0.124,0.137-0.187,0.299-0.187,0.488c0,0.261,0.112,0.45,0.337,0.566c0.112,0.056,0.337,0.084,0.675,0.084H394.341z
			 M396.449,448.165c-0.088-0.221-0.24-0.459-0.454-0.714c-0.216-0.255-0.446-0.465-0.69-0.63c0,0.502-0.099,0.95-0.295,1.343
			H396.449z"/>
	</g>
	<g>
		<path d="M91.407,448.527l0.699-1.602l0.283-0.59l0.301-0.584c0.153-0.213,0.386-0.319,0.699-0.319
			c0.587,0,1.265,0.514,2.036,1.542c0.337,0.446,0.552,0.787,0.645,1.024c0.057,0.164,0.084,0.333,0.084,0.506
			c0,0.133-0.02,0.277-0.06,0.434l-0.271,0.687l-0.271,0.729l-0.078,0.175h-4.181l0.175,2.602c0,0.149-0.141,0.502-0.422,1.06
			l-0.614,1.223l-0.036-0.343l-0.151-1.06l-0.139-1.211l-0.12-0.916l-0.036-0.404c0-0.321,0.227-0.996,0.681-2.024
			c0.277-0.634,0.494-0.952,0.651-0.952L91.407,448.527z M95.034,448.527c-0.208-0.354-0.463-0.67-0.763-0.949
			c-0.299-0.279-0.554-0.419-0.767-0.419c-0.225,0-0.472,0.263-0.741,0.789l-0.295,0.578H95.034z"/>
	</g>
	<g>
		<path d="M179.699,453.827l0.154,3.286h-0.389c-0.075-0.579-0.177-0.992-0.306-1.24c-0.212-0.399-0.493-0.694-0.843-0.884
			c-0.352-0.189-0.813-0.284-1.386-0.284h-1.953v10.705c0,0.861,0.093,1.399,0.277,1.612c0.258,0.289,0.657,0.434,1.195,0.434h0.481
			v0.383h-5.878v-0.383h0.492c0.586,0,1.001-0.179,1.247-0.537c0.149-0.22,0.224-0.723,0.224-1.508v-10.705h-1.666
			c-0.647,0-1.107,0.049-1.379,0.145c-0.354,0.131-0.658,0.382-0.91,0.754c-0.253,0.372-0.402,0.875-0.451,1.508h-0.388l0.164-3.286
			H179.699z"/>
		<path d="M188.276,463.147h-5.366l-0.941,2.211c-0.231,0.545-0.347,0.951-0.347,1.219c0,0.214,0.1,0.402,0.301,0.563
			c0.201,0.162,0.635,0.267,1.304,0.315v0.383h-4.365v-0.383c0.578-0.103,0.954-0.237,1.124-0.403
			c0.348-0.33,0.733-1.002,1.155-2.014l4.876-11.531h0.358l4.825,11.655c0.388,0.937,0.741,1.545,1.058,1.823
			c0.317,0.279,0.758,0.436,1.324,0.47v0.383h-5.47v-0.383c0.553-0.027,0.925-0.12,1.12-0.279c0.194-0.158,0.29-0.351,0.29-0.578
			c0-0.303-0.136-0.782-0.408-1.436L188.276,463.147z M187.99,462.383l-2.352-5.663l-2.412,5.663H187.99z"/>
		<path d="M200.277,467.455v0.383h-5.938v-0.383h0.49c0.572,0,0.988-0.169,1.247-0.506c0.164-0.22,0.246-0.751,0.246-1.592v-9.051
			c0-0.71-0.045-1.178-0.134-1.405c-0.067-0.172-0.207-0.32-0.418-0.444c-0.3-0.166-0.613-0.248-0.941-0.248h-0.49v-0.383h5.938
			v0.383h-0.5c-0.566,0-0.978,0.169-1.237,0.507c-0.17,0.22-0.255,0.751-0.255,1.591v9.051c0,0.71,0.045,1.178,0.133,1.405
			c0.069,0.172,0.211,0.32,0.43,0.445c0.293,0.165,0.602,0.248,0.93,0.248H200.277z"/>
		<path d="M212.831,453.827l-9.108,13.164h5.684c0.872,0,1.541-0.193,2.008-0.579c0.466-0.386,0.881-1.167,1.242-2.346l0.337,0.062
			l-0.654,3.71h-11.285v-0.383l8.893-12.791h-4.436c-0.736,0-1.27,0.081-1.6,0.243c-0.33,0.162-0.583,0.396-0.757,0.702
			c-0.173,0.307-0.333,0.88-0.475,1.72h-0.389l0.287-3.503H212.831z"/>
		<path d="M228.798,454.209v-0.383h4.906v0.383h-0.52c-0.546,0-0.965,0.231-1.258,0.692c-0.143,0.214-0.214,0.71-0.214,1.488v5.683
			c0,1.405-0.139,2.495-0.414,3.27c-0.276,0.775-0.818,1.44-1.625,1.994c-0.807,0.554-1.906,0.832-3.296,0.832
			c-1.513,0-2.661-0.265-3.446-0.796c-0.783-0.53-1.339-1.243-1.666-2.138c-0.218-0.613-0.326-1.764-0.326-3.451v-5.476
			c0-0.861-0.118-1.426-0.353-1.695c-0.235-0.269-0.614-0.403-1.14-0.403h-0.522v-0.383h5.99v0.383h-0.531
			c-0.572,0-0.981,0.183-1.226,0.548c-0.17,0.248-0.255,0.764-0.255,1.55v6.107c0,0.544,0.049,1.167,0.148,1.87
			c0.099,0.702,0.277,1.25,0.536,1.643c0.259,0.393,0.633,0.716,1.119,0.971c0.488,0.255,1.086,0.383,1.795,0.383
			c0.906,0,1.717-0.2,2.432-0.599c0.716-0.399,1.205-0.911,1.466-1.534c0.263-0.623,0.394-1.679,0.394-3.167v-5.673
			c0-0.875-0.095-1.422-0.286-1.643c-0.266-0.303-0.661-0.455-1.187-0.455H228.798z"/>
		<path d="M233.653,453.827h3.761l8.475,10.508v-8.08c0-0.861-0.095-1.398-0.286-1.612c-0.253-0.289-0.652-0.434-1.196-0.434h-0.481
			v-0.383h4.825v0.383h-0.49c-0.587,0-1.002,0.18-1.248,0.537c-0.149,0.22-0.224,0.723-0.224,1.508v11.81h-0.369l-9.138-11.283
			v8.628c0,0.861,0.092,1.399,0.276,1.612c0.259,0.289,0.658,0.434,1.196,0.434h0.49v0.383h-4.825v-0.383h0.481
			c0.593,0,1.012-0.179,1.258-0.537c0.149-0.22,0.224-0.723,0.224-1.508v-9.743c-0.401-0.475-0.707-0.789-0.914-0.94
			c-0.208-0.152-0.513-0.293-0.914-0.424c-0.199-0.061-0.498-0.093-0.9-0.093V453.827z"/>
		<path d="M255.508,467.455v0.383h-5.938v-0.383h0.49c0.572,0,0.988-0.169,1.247-0.506c0.164-0.22,0.246-0.751,0.246-1.592v-9.051
			c0-0.71-0.045-1.178-0.134-1.405c-0.067-0.172-0.207-0.32-0.418-0.444c-0.3-0.166-0.613-0.248-0.941-0.248h-0.49v-0.383h5.938
			v0.383h-0.5c-0.566,0-0.978,0.169-1.237,0.507c-0.17,0.22-0.255,0.751-0.255,1.591v9.051c0,0.71,0.045,1.178,0.133,1.405
			c0.069,0.172,0.211,0.32,0.43,0.445c0.293,0.165,0.602,0.248,0.93,0.248H255.508z"/>
		<path d="M270.884,453.827v0.383c-0.49,0.09-0.863,0.248-1.114,0.475c-0.361,0.337-0.682,0.854-0.961,1.55l-4.835,11.924h-0.378
			l-5.193-12.079c-0.266-0.62-0.453-0.999-0.563-1.137c-0.17-0.213-0.38-0.381-0.629-0.501c-0.248-0.12-0.584-0.198-1.006-0.233
			v-0.383h5.663v0.383c-0.64,0.062-1.057,0.172-1.247,0.331c-0.19,0.158-0.286,0.361-0.286,0.61c0,0.345,0.157,0.882,0.47,1.612
			l3.526,8.214l3.271-8.111c0.32-0.799,0.481-1.354,0.481-1.663c0-0.2-0.099-0.391-0.296-0.573
			c-0.198-0.183-0.531-0.312-1.002-0.387c-0.034-0.007-0.092-0.017-0.173-0.031v-0.383H270.884z"/>
		<path d="M275.514,454.592v5.538h3.047c0.79,0,1.318-0.12,1.584-0.361c0.354-0.317,0.552-0.875,0.593-1.674h0.378v4.877h-0.378
			c-0.095-0.682-0.19-1.119-0.286-1.312c-0.123-0.241-0.324-0.431-0.604-0.568c-0.28-0.138-0.708-0.207-1.288-0.207h-3.047v4.619
			c0,0.62,0.028,0.997,0.082,1.131c0.055,0.134,0.151,0.241,0.287,0.32c0.136,0.079,0.395,0.119,0.777,0.119h2.351
			c0.784,0,1.353-0.055,1.707-0.166c0.354-0.11,0.695-0.327,1.023-0.651c0.422-0.427,0.854-1.071,1.298-1.932h0.41l-1.196,3.513
			h-10.683v-0.383h0.492c0.327,0,0.636-0.079,0.93-0.237c0.218-0.11,0.366-0.275,0.445-0.496s0.117-0.672,0.117-1.354v-9.103
			c0-0.889-0.088-1.436-0.265-1.643c-0.246-0.275-0.654-0.413-1.226-0.413h-0.492v-0.383h10.683l0.153,3.069h-0.399
			c-0.142-0.737-0.301-1.243-0.475-1.519c-0.173-0.275-0.431-0.486-0.772-0.63c-0.272-0.104-0.753-0.155-1.441-0.155H275.514z"/>
		<path d="M298.075,467.838h-3.701l-4.691-6.551c-0.348,0.014-0.63,0.021-0.848,0.021c-0.089,0-0.184-0.002-0.287-0.005
			c-0.102-0.003-0.208-0.008-0.317-0.016v4.071c0,0.882,0.095,1.43,0.287,1.643c0.259,0.303,0.647,0.454,1.165,0.454h0.542v0.383
			h-5.94v-0.383h0.522c0.586,0,1.005-0.193,1.257-0.578c0.143-0.213,0.214-0.72,0.214-1.519v-9.051c0-0.882-0.095-1.429-0.286-1.643
			c-0.266-0.303-0.661-0.455-1.185-0.455h-0.522v-0.383h5.049c1.472,0,2.558,0.109,3.257,0.326c0.699,0.217,1.292,0.616,1.778,1.198
			c0.488,0.583,0.731,1.276,0.731,2.082c0,0.861-0.278,1.608-0.834,2.242c-0.555,0.634-1.416,1.081-2.581,1.343l2.863,4.02
			c0.654,0.923,1.216,1.536,1.687,1.839c0.47,0.303,1.083,0.496,1.84,0.578V467.838z M288.23,460.636
			c0.129,0,0.242,0.002,0.337,0.005c0.095,0.004,0.173,0.005,0.235,0.005c1.323,0,2.319-0.289,2.99-0.868
			c0.671-0.578,1.007-1.316,1.007-2.211c0-0.875-0.271-1.586-0.813-2.134c-0.541-0.548-1.259-0.822-2.152-0.822
			c-0.395,0-0.93,0.066-1.605,0.196V460.636z"/>
		<path d="M307.489,453.507v4.846h-0.378c-0.123-0.93-0.342-1.67-0.659-2.222c-0.317-0.551-0.769-0.988-1.354-1.312
			c-0.587-0.323-1.193-0.486-1.82-0.486c-0.708,0-1.294,0.219-1.758,0.656c-0.464,0.437-0.695,0.935-0.695,1.493
			c0,0.427,0.147,0.816,0.44,1.167c0.423,0.516,1.428,1.205,3.016,2.066c1.295,0.703,2.179,1.242,2.653,1.617
			c0.473,0.375,0.839,0.818,1.094,1.328c0.255,0.51,0.383,1.043,0.383,1.601c0,1.061-0.407,1.975-1.222,2.743
			c-0.814,0.768-1.863,1.152-3.143,1.152c-0.402,0-0.781-0.031-1.135-0.093c-0.211-0.034-0.649-0.16-1.313-0.377
			c-0.665-0.217-1.086-0.325-1.263-0.325c-0.171,0-0.305,0.052-0.404,0.155c-0.099,0.104-0.172,0.317-0.22,0.641h-0.378v-4.805
			h0.378c0.177,1.006,0.416,1.758,0.716,2.258s0.758,0.914,1.375,1.245c0.617,0.33,1.294,0.496,2.03,0.496
			c0.852,0,1.524-0.228,2.018-0.682c0.494-0.455,0.742-0.992,0.742-1.612c0-0.345-0.094-0.692-0.282-1.043
			c-0.187-0.352-0.478-0.679-0.873-0.982c-0.266-0.207-0.992-0.646-2.178-1.317c-1.186-0.672-2.029-1.207-2.529-1.607
			c-0.501-0.399-0.882-0.84-1.141-1.322c-0.259-0.483-0.388-1.013-0.388-1.592c0-1.005,0.382-1.872,1.145-2.599
			c0.764-0.727,1.735-1.09,2.913-1.09c0.736,0,1.517,0.183,2.342,0.548c0.381,0.172,0.651,0.258,0.807,0.258
			c0.177,0,0.322-0.054,0.434-0.16c0.113-0.107,0.204-0.322,0.271-0.646H307.489z"/>
		<path d="M315.995,467.455v0.383h-5.938v-0.383h0.49c0.572,0,0.988-0.169,1.247-0.506c0.164-0.22,0.246-0.751,0.246-1.592v-9.051
			c0-0.71-0.045-1.178-0.134-1.405c-0.067-0.172-0.207-0.32-0.418-0.444c-0.3-0.166-0.613-0.248-0.941-0.248h-0.49v-0.383h5.938
			v0.383h-0.5c-0.566,0-0.978,0.169-1.237,0.507c-0.17,0.22-0.255,0.751-0.255,1.591v9.051c0,0.71,0.045,1.178,0.133,1.405
			c0.069,0.172,0.211,0.32,0.43,0.445c0.293,0.165,0.602,0.248,0.93,0.248H315.995z"/>
		<path d="M328.618,453.827l0.154,3.286h-0.389c-0.075-0.579-0.177-0.992-0.306-1.24c-0.212-0.399-0.493-0.694-0.843-0.884
			c-0.352-0.189-0.813-0.284-1.385-0.284h-1.953v10.705c0,0.861,0.093,1.399,0.277,1.612c0.258,0.289,0.657,0.434,1.195,0.434h0.481
			v0.383h-5.878v-0.383h0.492c0.586,0,1.001-0.179,1.247-0.537c0.149-0.22,0.224-0.723,0.224-1.508v-10.705h-1.666
			c-0.647,0-1.107,0.049-1.379,0.145c-0.354,0.131-0.658,0.382-0.91,0.754c-0.253,0.372-0.402,0.875-0.451,1.508h-0.388l0.164-3.286
			H328.618z"/>
		<path d="M339.271,453.827h4.835v0.383h-0.265c-0.177,0-0.436,0.08-0.777,0.238c-0.341,0.158-0.651,0.386-0.93,0.682
			c-0.28,0.296-0.624,0.778-1.033,1.446l-3.343,5.321v3.513c0,0.861,0.096,1.399,0.287,1.612c0.259,0.289,0.667,0.434,1.226,0.434
			h0.449v0.383h-5.888v-0.383h0.492c0.586,0,1.001-0.179,1.247-0.537c0.149-0.22,0.224-0.723,0.224-1.508v-3.317l-3.802-5.869
			c-0.449-0.689-0.755-1.119-0.914-1.292c-0.16-0.172-0.493-0.379-0.998-0.62c-0.136-0.069-0.334-0.104-0.593-0.104v-0.383h5.929
			v0.383h-0.306c-0.32,0-0.616,0.076-0.884,0.227c-0.27,0.152-0.404,0.379-0.404,0.682c0,0.248,0.207,0.696,0.623,1.343l2.894,4.516
			l2.718-4.319c0.41-0.648,0.614-1.129,0.614-1.446c0-0.193-0.051-0.365-0.148-0.517c-0.1-0.151-0.241-0.27-0.425-0.357
			c-0.183-0.086-0.459-0.129-0.828-0.129V453.827z"/>
	</g>
	<g>
		<path d="M101.449,440.013v8.135c0,0.611,0.027,1.001,0.08,1.17c0.053,0.169,0.165,0.307,0.334,0.415
			c0.17,0.107,0.441,0.161,0.813,0.161h0.225v0.272h-5.182v-0.272h0.261c0.42,0,0.72-0.049,0.899-0.146
			c0.18-0.098,0.3-0.233,0.364-0.404c0.063-0.171,0.094-0.57,0.094-1.196v-5.157c0-0.46-0.022-0.747-0.065-0.862
			c-0.043-0.114-0.125-0.213-0.243-0.293c-0.118-0.081-0.255-0.121-0.41-0.121c-0.247,0-0.547,0.078-0.9,0.235l-0.131-0.264
			l3.622-1.673H101.449z"/>
		<path d="M104.498,450.371v-0.205c0.802-0.186,1.483-0.46,2.042-0.822s1.002-0.809,1.329-1.342
			c0.326-0.533,0.554-1.147,0.686-1.842c-0.3,0.157-0.555,0.266-0.766,0.326c-0.21,0.061-0.431,0.092-0.664,0.092
			c-0.745,0-1.365-0.271-1.861-0.814c-0.496-0.543-0.743-1.286-0.743-2.23c0-0.655,0.134-1.255,0.402-1.801
			c0.269-0.545,0.652-0.969,1.151-1.269c0.498-0.301,1.016-0.451,1.553-0.451c0.576,0,1.119,0.166,1.632,0.499
			c0.513,0.333,0.922,0.814,1.226,1.445c0.305,0.631,0.458,1.35,0.458,2.157c0,1.046-0.248,2.049-0.745,3.007
			c-0.495,0.959-1.235,1.728-2.217,2.307C107,450.008,105.838,450.322,104.498,450.371z M108.663,445.544
			c0.048-0.548,0.072-1.029,0.072-1.445c0-0.89-0.101-1.719-0.305-2.487c-0.116-0.425-0.288-0.739-0.514-0.939
			c-0.122-0.107-0.278-0.161-0.472-0.161c-0.242,0-0.43,0.105-0.566,0.316c-0.188,0.289-0.283,0.839-0.283,1.651
			c0,1.355,0.16,2.289,0.48,2.802c0.208,0.333,0.489,0.499,0.842,0.499C108.104,445.779,108.354,445.7,108.663,445.544z"/>
		<path d="M111.93,450.371v-0.205c0.802-0.186,1.483-0.46,2.042-0.822s1.002-0.809,1.329-1.342c0.326-0.533,0.554-1.147,0.686-1.842
			c-0.3,0.157-0.555,0.266-0.766,0.326c-0.21,0.061-0.431,0.092-0.664,0.092c-0.745,0-1.365-0.271-1.861-0.814
			c-0.496-0.543-0.743-1.286-0.743-2.23c0-0.655,0.134-1.255,0.402-1.801c0.269-0.545,0.652-0.969,1.151-1.269
			c0.498-0.301,1.016-0.451,1.553-0.451c0.576,0,1.119,0.166,1.632,0.499c0.513,0.333,0.922,0.814,1.226,1.445
			c0.305,0.631,0.458,1.35,0.458,2.157c0,1.046-0.248,2.049-0.745,3.007c-0.495,0.959-1.235,1.728-2.217,2.307
			C114.431,450.008,113.269,450.322,111.93,450.371z M116.095,445.544c0.048-0.548,0.072-1.029,0.072-1.445
			c0-0.89-0.101-1.719-0.305-2.487c-0.116-0.425-0.288-0.739-0.514-0.939c-0.122-0.107-0.278-0.161-0.472-0.161
			c-0.242,0-0.43,0.105-0.566,0.316c-0.188,0.289-0.283,0.839-0.283,1.651c0,1.355,0.16,2.289,0.48,2.802
			c0.208,0.333,0.489,0.499,0.842,0.499C115.535,445.779,115.785,445.7,116.095,445.544z"/>
		<path d="M121.103,445.177v-0.257c0.552-0.161,0.934-0.311,1.147-0.451c0.213-0.139,0.396-0.352,0.552-0.638
			c0.154-0.286,0.233-0.576,0.233-0.869c0-0.406-0.147-0.755-0.44-1.046c-0.293-0.291-0.657-0.436-1.092-0.436
			c-0.678,0-1.254,0.362-1.728,1.086l-0.269-0.095c0.348-0.817,0.795-1.431,1.339-1.842c0.545-0.411,1.151-0.616,1.818-0.616
			c0.683,0,1.245,0.21,1.688,0.631c0.442,0.42,0.664,0.912,0.664,1.474c0,0.367-0.102,0.72-0.308,1.06
			c-0.206,0.34-0.529,0.639-0.969,0.899c0.566,0.278,0.998,0.622,1.295,1.031s0.447,0.92,0.447,1.537
			c0,1.037-0.372,1.918-1.114,2.645c-0.743,0.726-1.739,1.089-2.987,1.089c-0.833,0-1.44-0.139-1.822-0.418
			c-0.276-0.196-0.413-0.448-0.413-0.755c0-0.225,0.08-0.417,0.24-0.576c0.159-0.159,0.343-0.239,0.551-0.239
			c0.16,0,0.31,0.034,0.451,0.103c0.077,0.039,0.352,0.253,0.824,0.642c0.471,0.389,0.913,0.583,1.324,0.583
			c0.358,0,0.665-0.143,0.922-0.429c0.257-0.286,0.384-0.649,0.384-1.09c0-0.67-0.233-1.287-0.696-1.852
			C122.677,445.782,121.998,445.393,121.103,445.177z"/>
	</g>
	<g>
		<path d="M403.354,440.013v8.135c0,0.611,0.026,1.001,0.079,1.17c0.053,0.169,0.165,0.307,0.334,0.415
			c0.17,0.107,0.441,0.161,0.813,0.161h0.225v0.272h-5.182v-0.272h0.261c0.42,0,0.72-0.049,0.899-0.146
			c0.18-0.098,0.3-0.233,0.364-0.404c0.063-0.171,0.094-0.57,0.094-1.196v-5.157c0-0.46-0.022-0.747-0.065-0.862
			c-0.043-0.114-0.125-0.213-0.243-0.293s-0.255-0.121-0.41-0.121c-0.247,0-0.547,0.078-0.9,0.235l-0.131-0.264l3.622-1.673H403.354
			z"/>
		<path d="M406.315,446.417l4.675-6.404h0.886v6.404h0.899v1.519h-0.899v2.23h-1.996v-2.23h-3.564V446.417z M407.02,446.417h2.859
			v-3.925L407.02,446.417z"/>
		<path d="M418.218,440.013v8.135c0,0.611,0.027,1.001,0.08,1.17c0.053,0.169,0.165,0.307,0.334,0.415
			c0.17,0.107,0.441,0.161,0.813,0.161h0.225v0.272h-5.182v-0.272h0.261c0.42,0,0.72-0.049,0.899-0.146
			c0.18-0.098,0.3-0.233,0.364-0.404c0.063-0.171,0.094-0.57,0.094-1.196v-5.157c0-0.46-0.022-0.747-0.065-0.862
			c-0.043-0.114-0.125-0.213-0.243-0.293s-0.255-0.121-0.41-0.121c-0.247,0-0.547,0.078-0.9,0.235l-0.131-0.264l3.622-1.673H418.218
			z"/>
		<path d="M421.179,446.417l4.675-6.404h0.885v6.404h0.899v1.519h-0.899v2.23h-1.996v-2.23h-3.564V446.417z M421.884,446.417h2.859
			v-3.925L421.884,446.417z"/>
	</g>
	<g>
		<g>
			<path d="M174.678,419.929l-1.98-2.009l-1.98,2.009l1.98,1.98L174.678,419.929z M235.854,428.719v3.555h-14.308l2.821-2.396
				c0.327-0.262,0.702-0.393,1.126-0.393c0.366,0.04,0.621,0.134,0.765,0.283c0.164,0.139,0.289,0.363,0.375,0.671
				c0.202-0.39,0.303-0.642,0.303-0.756c0-0.19-0.039-0.375-0.116-0.556c-0.067-0.2-0.14-0.328-0.217-0.385
				c-0.222-0.276-0.467-0.413-0.737-0.413l-0.477,0.029l0.101-0.174c0.058-0.116,0.087-0.231,0.087-0.347
				c0-0.385-0.227-0.79-0.679-1.215c-0.366-0.337-0.655-0.545-0.867-0.622c-0.145-0.087-0.275-0.145-0.39-0.174l-0.361-0.159
				l-1.142-0.448l-0.564-0.275l-0.535-0.318c-0.366-0.251-0.65-0.723-0.853-1.417l-0.231,0.446L219.725,424l-0.246,0.316
				l-0.275,0.273c-0.366,0.365-0.679,0.59-0.939,0.676c-0.173,0.096-0.496,0.216-0.968,0.359l-1.069,0.36
				c-0.27,0.115-0.549,0.331-0.838,0.647c-0.414,0.47-0.621,0.873-0.621,1.208l0.058,0.316l0.058,0.173h-0.289
				c-0.337,0-0.629,0.125-0.874,0.376c-0.246,0.251-0.369,0.549-0.369,0.896l0.087,0.491l0.202,0.347
				c0.318-0.578,0.703-0.896,1.156-0.954c0.241,0,0.465,0.041,0.672,0.123c0.207,0.082,0.359,0.171,0.455,0.267l1.518,1.33
				l1.676-1.387l-2.096-1.778l0.087-0.116l0.217-0.275l0.289-0.289c0.395-0.202,0.689-0.304,0.882-0.304l0.665-0.145l0.405-0.275
				l0.26-0.26l0.246-0.26l0.26,0.239l0.39,0.344l0.289,0.179c0.077,0.06,0.164,0.1,0.26,0.119h0.405
				c0.154,0.048,0.27,0.087,0.347,0.116c0.077,0.029,0.14,0.058,0.188,0.087c0.145,0.087,0.246,0.173,0.304,0.26l0.202,0.304
				l0.26,0.448l-4.596,4.061h-41.897l-0.289-0.867l-0.39-0.968l-0.217-0.405l-0.217-0.361c-0.52-0.694-1.253-1.455-2.197-2.283
				l-0.737-0.65c0.077,0.125,0.13,0.265,0.159,0.419l0.087,0.361c0.038,0.106,0.058,0.222,0.058,0.347l0.014,0.318l-0.058,0.65
				l-0.173,0.679c-0.318,0.742-0.675,1.267-1.069,1.575l0.838,0.289c0.539,0.212,1.014,0.701,1.424,1.467
				c0.409,0.766,0.614,1.583,0.614,2.45v0.462c-0.145,1.416-0.798,2.573-1.958,3.469c-1.093,0.848-2.384,1.272-3.874,1.272h-0.348
				c-0.029-0.039-0.208-0.058-0.537-0.058l-0.856-0.116l0.795,0.26c1.233,0.414,2.365,0.621,3.396,0.621
				c1.069,0,2.018-0.227,2.847-0.679l0.65-0.448l0.593-0.506l0.289-0.304l0.231-0.275c0.173-0.183,0.303-0.371,0.39-0.564
				c0.164-0.251,0.279-0.472,0.347-0.665c0.077-0.164,0.125-0.309,0.145-0.434l0.101-0.39c0.202-0.549,0.303-1.127,0.303-1.734
				v-0.332h42.186l1.214-1.214l1.358,1.214h16.765v-10.333l-3.497,3.469L235.854,428.719z M231.229,420.308l1.807,1.864l1.85-1.866
				l-1.85-1.834L231.229,420.308z M234.885,420.306l1.85,1.834l1.778-1.861l-1.778-1.839L234.885,420.306z M257.156,419.253
				l-1.778-1.839l-1.845,1.876l1.845,1.853L257.156,419.253z M253.533,419.29l-1.835-1.843l-1.797,1.835l1.778,1.893L253.533,419.29
				z M304.299,426.245c-0.462,0.145-1.171,0.318-2.124,0.521c-1.513,0.472-2.635,1.22-3.367,2.241
				c-0.164,0.164-0.304,0.564-0.419,1.2c-0.116,0.636-0.173,1.138-0.173,1.504l0.029,0.564h-11.937l2.821-2.396
				c0.327-0.262,0.703-0.393,1.126-0.393c0.366,0.04,0.621,0.134,0.765,0.283c0.163,0.139,0.289,0.363,0.375,0.671
				c0.202-0.39,0.303-0.642,0.303-0.756c0-0.19-0.039-0.375-0.116-0.556c-0.068-0.2-0.14-0.328-0.217-0.385
				c-0.222-0.276-0.467-0.413-0.737-0.413l-0.477,0.029l0.101-0.174c0.058-0.116,0.087-0.231,0.087-0.347
				c0-0.385-0.227-0.79-0.679-1.215c-0.366-0.337-0.655-0.545-0.867-0.622c-0.145-0.087-0.275-0.145-0.39-0.174l-0.361-0.159
				l-1.142-0.448l-0.564-0.275l-0.535-0.318c-0.366-0.251-0.65-0.723-0.853-1.417l-0.231,0.446L284.485,424l-0.246,0.316
				l-0.275,0.273c-0.366,0.365-0.679,0.59-0.939,0.676c-0.173,0.096-0.496,0.216-0.968,0.359l-1.069,0.36
				c-0.27,0.115-0.549,0.331-0.838,0.647c-0.414,0.47-0.621,0.873-0.621,1.208l0.058,0.316l0.058,0.173h-0.289
				c-0.337,0-0.629,0.125-0.874,0.376c-0.246,0.251-0.369,0.549-0.369,0.896l0.087,0.491l0.202,0.347
				c0.318-0.578,0.703-0.896,1.156-0.954c0.241,0,0.465,0.041,0.672,0.123c0.207,0.082,0.359,0.171,0.455,0.267l1.517,1.33
				l1.676-1.387l-2.096-1.778l0.087-0.116l0.217-0.275l0.289-0.289c0.395-0.202,0.689-0.304,0.882-0.304l0.665-0.145l0.405-0.275
				l0.26-0.26l0.246-0.26l0.26,0.239l0.39,0.344l0.289,0.179c0.077,0.06,0.164,0.1,0.26,0.119h0.405
				c0.154,0.048,0.27,0.087,0.347,0.116c0.077,0.029,0.14,0.058,0.188,0.087c0.145,0.087,0.246,0.173,0.303,0.26l0.202,0.304
				l0.26,0.448l-4.596,4.061h-24.41v-10.781l-3.526,2.544l0.925,0.896v1.922l-0.462-0.173c-0.048-0.048-0.164-0.072-0.347-0.072
				c-0.077-0.048-0.251-0.072-0.52-0.072h-0.448c-1.243,0-2.312,0.476-3.208,1.428c-0.26,0.279-0.482,0.592-0.665,0.938
				l-0.217,0.404l-0.116,0.332l-0.145,0.462l-0.043,0.462l-0.058,0.664v3.65h33.89l1.214-1.214l1.359,1.214h19.453v-9.441
				l-0.593,0.405C305.07,425.965,304.762,426.1,304.299,426.245z M256.13,432.274h-3.772v-1.127c0-0.645,0.241-1.202,0.723-1.669
				c0.482-0.467,1.04-0.701,1.676-0.701c0.52,0,0.978,0.14,1.373,0.419V432.274z M303.605,432.274h-3.078l-0.058-0.419v-0.419
				c0-0.53,0.164-1.031,0.491-1.503c0.462-0.453,0.718-0.689,0.766-0.708l0.593-0.188l0.78-0.173l0.506-0.116V432.274z
				 M333.825,439.728l1.835,1.806l1.893-1.893l-1.893-1.835L333.825,439.728z M345.242,432.274H341.6
				c-0.251-1.06-0.414-1.7-0.491-1.922l-0.535-1.33c-0.385-0.607-0.737-1.069-1.055-1.387c-0.318-0.347-0.708-0.616-1.171-0.809
				c-0.337-0.183-0.766-0.318-1.286-0.405c-0.241-0.106-0.877-0.159-1.908-0.159h-0.434l-0.665-0.072l-0.491-0.087l-0.433-0.116
				c-0.723-0.357-1.185-0.623-1.387-0.797l-0.593-0.521v2.459c0,0.559,0.181,0.964,0.542,1.215c0.361,0.251,1.158,0.376,2.392,0.376
				h1.691l0.723,0.073c0.472,0.069,0.824,0.142,1.055,0.22c0.588,0.215,1.012,0.47,1.272,0.764c0.453,0.499,0.737,0.989,0.853,1.469
				l0.202,1.028h-26.765v-15.8l-3.483,3.495l1.156,0.708v14.198h29.511c0.116,0.905,0.462,1.619,1.041,2.139l0.506,0.419
				l0.491,0.304c0.318,0.164,0.655,0.246,1.012,0.246c-0.491-0.462-0.838-0.954-1.041-1.474l-0.217-0.462l-0.101-0.361
				c-0.068-0.241-0.116-0.511-0.145-0.809h3.396V432.274z"/>
		</g>
	</g>
	<rect x="129.113" y="444.62" width="253.774" height="3.701"/>
</g>
</svg>
