<?xml version="1.0" encoding="iso-8859-1"?>
<!-- Generator: Adobe Illustrator 23.0.1, SVG Export Plug-In . SVG Version: 6.00 Build 0)  -->
<svg version="1.1" id="Layer_1" xmlns="http://www.w3.org/2000/svg" xmlns:xlink="http://www.w3.org/1999/xlink" x="0px" y="0px"
	 viewBox="0 0 512 512" style="enable-background:new 0 0 512 512;" xml:space="preserve">
<g>
	<path style="fill:#B11116;" d="M345.441,31c0,0-45.828,16.234-88.22,16.234c-0.416,0-0.821,0.057-1.221,0.139
		c-0.4-0.083-0.805-0.139-1.221-0.139c-42.392,0-88.22-16.234-88.22-16.234c-32.468,67.151-112.902,78.098-112.902,78.098
		C64.557,398.483,256,481,256,481s191.443-82.517,202.342-371.902C458.342,109.098,377.909,98.151,345.441,31z"/>
	<path style="fill:#FFFBCC;" d="M335.996,54.76c0,0-40.988,14.52-78.904,14.52c-0.372,0-0.734,0.051-1.092,0.125
		c-0.358-0.074-0.72-0.125-1.092-0.125c-37.915,0-78.904-14.52-78.904-14.52c-29.04,60.06-100.979,69.851-100.979,69.851
		C84.773,383.437,256,457.24,256,457.24s171.227-73.803,180.975-332.629C436.975,124.611,365.036,114.819,335.996,54.76z"/>
	
		<circle style="fill:#F7941D;stroke:#000000;stroke-width:1.846;stroke-linecap:round;stroke-linejoin:round;stroke-miterlimit:10;" cx="255.01" cy="203.589" r="44.11"/>
	<path d="M354.971,226.431h-9.405l-2.475-8.982c-15.345-1.485-17.82-5.94-45.045-22.77s-42.046,0-42.046,0s-14.822-16.83-42.046,0
		s-29.7,21.285-45.045,22.77l-2.475,8.982h-9.405l-25.245,83.747H256h124.216L354.971,226.431z"/>
	<path style="fill:#FFFFFF;" d="M339.009,223.321c0,0-22.153-5.872-44.923-22.021c-20.429-14.489-34.85-2.985-37.601-0.466
		c-2.751-2.519-17.171-14.023-37.601,0.466c-22.77,16.149-44.923,22.021-44.923,22.021l-25.862,80.041
		c0,0,42.282-11.282,107.765-5.29h1.24c65.483-5.992,107.765,5.29,107.765,5.29L339.009,223.321z"/>
	<g>
		<path d="M183.515,241.355c-0.033-0.034-0.088-0.146-0.164-0.337l-0.717-1.856c-0.098-0.237-0.102-0.399-0.011-0.488
			c0.204-0.199,0.725-0.22,1.563-0.066c1.173,0.227,2.281,0.873,3.321,1.938c1.251,1.28,2.053,2.815,2.407,4.606
			c0.354,1.791,0.106,3.101-0.743,3.932c-0.782,0.764-1.956,1.069-3.522,0.917c-1.287-0.116-2.08-0.327-2.379-0.633
			c-0.088-0.091-0.093-0.175-0.014-0.252c-0.034,0.034,0.345-0.06,1.137-0.28c0.792-0.22,1.471-0.607,2.038-1.16
			c0.861-0.841,1.244-1.991,1.15-3.449c-0.087-1.154-0.297-1.902-0.629-2.242c-0.254-0.26-0.896-0.436-1.926-0.526
			C183.996,241.367,183.493,241.333,183.515,241.355z"/>
		<path d="M194.289,240.713c0.997-0.807,1.607-1.852,1.832-3.136c0.148-0.874,0.123-1.761-0.075-2.66
			c-1.297,0.765-2.166,1.214-2.608,1.349c-1,0.301-1.789,0.094-2.368-0.621c-0.698-0.861-1.212-1.923-1.541-3.186
			c-0.378-1.447-0.234-2.44,0.431-2.979c0.505-0.408,1.374-0.379,2.609,0.088c1.322,0.5,2.431,1.302,3.328,2.41
			c1.307,1.613,2.117,3.381,2.434,5.307c0.359,2.155-0.082,3.736-1.325,4.743c-0.579,0.468-1.389,0.738-2.433,0.808
			c-0.749,0.057-1.572,0.01-2.468-0.14c-0.719-0.131-1.103-0.228-1.152-0.29c-0.08-0.099-0.076-0.183,0.01-0.252
			c-0.074,0.06,0.302-0.036,1.128-0.287C192.916,241.616,193.649,241.232,194.289,240.713z M194.024,232.611
			c-0.1-0.123-0.485-0.259-1.156-0.409c-0.738-0.156-1.237-0.13-1.495,0.08c-0.197,0.16-0.29,0.372-0.278,0.638
			c0.012,0.266,0.102,0.504,0.272,0.713c0.209,0.258,0.663,0.227,1.361-0.094c0.496-0.218,0.916-0.467,1.261-0.746
			C194.062,232.733,194.074,232.673,194.024,232.611z"/>
		<path d="M192.469,222.42c-0.044-0.065-0.067-0.184-0.068-0.355l-0.028-1.1c-0.01-0.128,0.025-0.218,0.103-0.272
			c0.066-0.044,0.173-0.069,0.322-0.074l1.871-0.033c0.172-0.001,0.27,0.017,0.297,0.057c0.035,0.053,0.054,0.164,0.055,0.335
			l-0.005,1.18c0.001,0.114-0.058,0.211-0.175,0.291c-0.04,0.026-0.18,0.045-0.422,0.055l-1.548,0.044
			C192.665,222.555,192.531,222.512,192.469,222.42z M199.727,232.168c-0.433,0.293-0.963,0.662-1.59,1.105
			c-0.627,0.445-1.039,0.733-1.236,0.866c-0.892,0.603-1.422,0.781-1.591,0.532l-1.225-1.811l-0.16-0.236
			c-0.004-0.035,0.072-0.106,0.229-0.213c0.38-0.257,1.024-0.684,1.932-1.279c0.907-0.595,1.545-1.016,1.912-1.266l1.063-0.719
			c-1.242,0.172-2.118,0.248-2.628,0.23c-0.853-0.015-1.426-0.241-1.718-0.674c-0.257-0.38-0.412-1.203-0.466-2.467
			c-0.059-1.528,0.266-2.533,0.974-3.013c0.577-0.391,1.461-0.3,2.651,0.272c1.248,0.628,2.294,1.565,3.137,2.811
			c0.631,0.932,1.385,2.075,2.265,3.431L199.727,232.168z M195.803,225.184c-0.315,0.214-0.526,0.495-0.633,0.845
			s-0.063,0.67,0.132,0.958c0.169,0.249,1.462,0.139,3.879-0.331c-0.981-0.713-1.605-1.142-1.874-1.285
			C196.645,225.016,196.144,224.954,195.803,225.184z"/>
		<path d="M201.79,230.472c-0.212,0.007-0.503-0.312-0.872-0.959l-0.69-1.221c-0.098-0.181,0.138-0.426,0.709-0.736
			c0.195-0.106,0.58-0.293,1.156-0.561c0.576-0.267,0.961-0.453,1.156-0.56c0.641-0.348,0.927-0.584,0.859-0.71
			c-1.163-0.648-1.85-1.167-2.062-1.557c-0.325-0.598-0.359-1.491-0.101-2.676c0.297-1.278,0.821-2.122,1.572-2.53
			c0.919-0.499,1.939-0.495,3.063,0.013c0.864,0.396,1.405,0.797,1.625,1.2c0.03,0.056,0.003,0.106-0.08,0.152
			c-1.18-0.116-2.049-0.023-2.605,0.279c-0.488,0.265-0.909,0.584-1.265,0.957c-0.356,0.374-0.5,0.623-0.432,0.748
			c0.181,0.335,0.787,0.636,1.817,0.906c1.252,0.348,2.358,0.26,3.318-0.261c0.32-0.174,0.761-0.499,1.323-0.975
			c0.562-0.476,0.829-0.707,0.801-0.691c0.084-0.045,0.148-0.026,0.193,0.057c0.038,0.07,0.06,0.193,0.066,0.37l0.093,2.112
			c0.015,0.424-0.899,1.282-2.741,2.57c-1.544,1.073-3.075,2.022-4.592,2.845c0.056-0.03-0.396,0.234-1.355,0.791
			C202.264,230.315,201.946,230.46,201.79,230.472z M200.926,217.829c-0.038-0.07-0.062-0.164-0.073-0.285l-0.139-1.6
			c-0.01-0.085,0.02-0.146,0.089-0.184c0.097-0.053,0.178-0.088,0.241-0.104l1.809-0.252c0.154-0.047,0.254-0.03,0.3,0.053
			c0.023,0.043,0.035,0.099,0.038,0.169l0.26,1.724c0.025,0.113-0.011,0.196-0.108,0.248c-0.056,0.03-0.126,0.05-0.211,0.061
			l-1.969,0.257C201.043,217.927,200.964,217.898,200.926,217.829z"/>
		<path d="M228.654,213.22c-0.024-0.075-0.019-0.168,0.013-0.277l0.396-2.067c0.044-0.23,0.111-0.36,0.202-0.388
			c0.347-0.109,0.858,0.22,1.531,0.988c0.781,0.9,1.39,2.046,1.827,3.436c0.228,0.725,0.286,1.28,0.174,1.664
			c-0.191,0.607-0.825,1.206-1.902,1.793c-1.255,0.71-3.242,1.492-5.962,2.346c-1.527,0.48-2.818,0.558-3.874,0.234
			c-1.057-0.323-1.758-1.036-2.105-2.14c-0.218-0.694-0.256-1.555-0.113-2.579c0.141-0.924,0.302-1.414,0.483-1.471
			c0.106-0.034,0.175,0.003,0.209,0.108c0.057,0.182,0.1,0.463,0.128,0.844c0.029,0.382,0.069,0.655,0.121,0.822
			c0.546,1.737,2.315,2.136,5.307,1.196c0.982-0.309,2.129-0.753,3.442-1.331c1.559-0.689,2.304-1.148,2.233-1.375
			c-0.1-0.317-0.474-0.689-1.123-1.116C228.992,213.479,228.663,213.251,228.654,213.22z M225.936,223.987
			c-0.024-0.076-0.032-0.156-0.026-0.241l0.15-1.741c0.013-0.17,0.049-0.265,0.11-0.283c0.075-0.024,0.156-0.033,0.241-0.026
			l2.431,0.207c0.135,0.008,0.212,0.042,0.231,0.102l-0.004,0.225l-0.197,1.83c-0.007,0.135-0.064,0.219-0.17,0.253
			c0.015-0.005-0.075-0.002-0.271,0.01l-2.251-0.189C226.051,224.142,225.969,224.092,225.936,223.987z"/>
		<path d="M238.692,213.125c-0.009-0.046,0.009-0.171,0.052-0.372l0.439-1.941c0.05-0.251,0.137-0.388,0.262-0.411
			c0.28-0.052,0.726,0.22,1.335,0.817c0.848,0.842,1.407,1.995,1.677,3.459c0.325,1.761,0.136,3.482-0.568,5.167
			c-0.703,1.684-1.64,2.634-2.808,2.85c-1.075,0.198-2.22-0.202-3.435-1.202c-1.004-0.813-1.545-1.43-1.622-1.85
			c-0.023-0.126,0.02-0.197,0.129-0.218c-0.046,0.009,0.32,0.142,1.101,0.401c0.78,0.258,1.56,0.315,2.339,0.172
			c1.183-0.219,2.142-0.96,2.876-2.223c0.571-1.007,0.813-1.745,0.727-2.212c-0.066-0.359-0.502-0.862-1.306-1.511
			S238.686,213.094,238.692,213.125z"/>
		<path d="M246.718,218.719c1.278-0.109,2.37-0.631,3.276-1.567c0.613-0.641,1.09-1.388,1.43-2.245
			c-1.502-0.094-2.474-0.21-2.915-0.347c-0.997-0.312-1.534-0.926-1.612-1.842c-0.094-1.105,0.076-2.272,0.512-3.502
			c0.5-1.41,1.176-2.151,2.028-2.224c0.647-0.055,1.351,0.457,2.111,1.537c0.814,1.154,1.281,2.442,1.402,3.862
			c0.176,2.068-0.145,3.987-0.963,5.758c-0.912,1.985-2.165,3.045-3.758,3.182c-0.742,0.063-1.564-0.169-2.468-0.696
			c-0.652-0.373-1.307-0.874-1.965-1.501c-0.521-0.512-0.784-0.807-0.791-0.887c-0.011-0.127,0.039-0.193,0.149-0.203
			c-0.095,0.008,0.27,0.139,1.095,0.395C245.075,218.696,245.898,218.789,246.718,218.719z M251.046,211.863
			c-0.013-0.158-0.256-0.486-0.728-0.987c-0.523-0.543-0.95-0.801-1.282-0.773c-0.253,0.022-0.449,0.146-0.588,0.372
			c-0.14,0.227-0.198,0.475-0.175,0.742c0.028,0.332,0.421,0.561,1.179,0.686c0.533,0.098,1.02,0.128,1.462,0.09
			C251.009,211.986,251.053,211.943,251.046,211.863z"/>
		<path d="M265.071,206.029c0.003-0.047,0.047-0.124,0.134-0.229l1.042-1.359c0.087-0.105,0.154-0.157,0.201-0.154
			c0.189,0.013,0.334,1.078,0.431,3.196c0.118,2.278,0.255,3.565,0.41,3.86c0.284,0.511,0.653,0.814,1.107,0.907
			c0.25,0.048,0.494,0.097,0.728,0.144c0.014,0.033,0.021,0.057,0.019,0.073l-0.151,2.276c-0.015,0.237-0.104,0.366-0.264,0.388
			c-0.241,0.031-0.463,0.041-0.668,0.027c-0.712-0.047-1.228-0.399-1.549-1.056c-0.166-0.376-0.302-0.98-0.404-1.813
			c-0.085-0.64-0.198-0.966-0.34-0.975c-0.079-0.006-0.302,0.364-0.669,1.11c-0.367,0.746-0.787,1.103-1.262,1.071
			c-0.459-0.03-1.102-0.255-1.932-0.676c-0.999-0.495-1.484-0.963-1.455-1.406c0.08-1.202,0.527-2.188,1.34-2.959
			c0.559-0.535,1.286-0.954,2.179-1.261c0.779-0.265,1.168-0.383,1.166-0.351c0.014-0.189,0.004-0.353-0.027-0.49
			C265.078,206.216,265.066,206.108,265.071,206.029z M265.772,210.528c0.003-0.031-0.014-0.152-0.046-0.361l-0.358-2.142
			c-1.976,0.821-2.97,1.319-2.982,1.493c-0.008,0.127,0.341,0.367,1.048,0.724c0.706,0.357,1.273,0.549,1.7,0.577
			C265.546,210.846,265.758,210.75,265.772,210.528z M262.911,202.694c0.001-0.015,0.044-0.075,0.13-0.182l0.751-0.902
			c0.103-0.12,0.179-0.179,0.225-0.176c0.064,0.005,0.149,0.042,0.255,0.112l1.389,0.949c0.183,0.124,0.297,0.187,0.345,0.189
			c0.062,0.005,0.146-0.053,0.249-0.174l0.594-0.698c0.103-0.12,0.194-0.178,0.274-0.173c0.078,0.006,0.156,0.035,0.233,0.087
			l1.64,1.109c0.122,0.088,0.181,0.155,0.178,0.203c-0.007,0.095-0.054,0.202-0.141,0.324l-0.679,0.907
			c-0.055,0.108-0.13,0.159-0.224,0.152c-0.079-0.005-0.172-0.043-0.278-0.113l-1.479-1.027c-0.153-0.105-0.26-0.16-0.323-0.164
			c-0.064-0.005-0.13,0.031-0.197,0.105l-0.749,0.879c-0.07,0.091-0.136,0.134-0.199,0.13c-0.063-0.004-0.156-0.049-0.276-0.137
			l-1.499-1.099C262.978,202.89,262.904,202.79,262.911,202.694z"/>
		<path d="M267.675,215.015c-0.071-0.059-0.102-0.167-0.095-0.327c-0.001-0.097,0.021-0.245,0.068-0.447
			c0.068-0.23,0.104-0.368,0.11-0.416l0.217-1.433c0.023-0.157,0.209-0.209,0.553-0.158c0.578,0.088,1.444,0.239,2.599,0.452
			c1.152,0.214,2.019,0.364,2.599,0.451c1.065,0.16,1.612,0.147,1.64-0.041c0.033-0.219-0.143-0.722-0.529-1.509
			c-0.386-0.787-0.574-1.212-0.565-1.275c0.005-0.031,0.076-0.132,0.214-0.304l1.411-1.71c0.097-0.113,0.16-0.167,0.193-0.162
			c0.329,0.049,0.615,0.773,0.861,2.172c0.246,1.399,0.31,2.746,0.195,4.042c-0.042,0.378-0.074,0.654-0.101,0.826
			c-0.103,0.689-0.415,1.051-0.933,1.085c-0.177,0.006-1.354-0.156-3.531-0.484L267.675,215.015z M270.117,219.54
			c0.002-0.015,0.038-0.09,0.106-0.224l0.854-1.36c0.103-0.161,0.195-0.235,0.274-0.223c0.078,0.012,0.168,0.049,0.271,0.113
			l1.583,0.983c0.132,0.084,0.19,0.173,0.176,0.267c-0.013,0.078-0.049,0.168-0.113,0.272l-0.908,1.401
			c-0.048,0.104-0.111,0.151-0.189,0.139s-0.169-0.049-0.272-0.113l-1.582-0.983C270.169,219.724,270.103,219.635,270.117,219.54z"
			/>
		<path d="M275.827,216.368c0.132-0.424,0.234-0.791,0.306-1.1l0.415-1.782c0.011-0.046,0.032-0.066,0.063-0.058
			c0.031,0.007,0.095,0.046,0.191,0.118c0.098,0.072,0.169,0.112,0.216,0.123c0.154,0.036,0.821,0.179,1.998,0.429
			c1.178,0.249,2.121,0.457,2.831,0.623c1.265,0.295,1.912,0.381,1.941,0.257c0.061-0.262-0.046-0.796-0.323-1.6
			c-0.277-0.804-0.418-1.191-0.425-1.16c0.008-0.031,0.107-0.146,0.3-0.345l1.373-1.388c0.193-0.198,0.312-0.293,0.359-0.282
			c0.479,0.111,0.745,0.987,0.803,2.627c0.039,1.506-0.097,2.929-0.41,4.271c-0.172,0.741-0.503,1.112-0.99,1.112
			c-0.197,0.003-1.344-0.24-3.442-0.729C279.566,217.141,277.832,216.77,275.827,216.368z M278.543,222.197
			c-0.062-0.015-0.134-0.088-0.217-0.22l-0.946-1.49c-0.082-0.132-0.115-0.238-0.098-0.315c0.012-0.046,0.095-0.125,0.25-0.234
			l1.031-0.761c0.175-0.122,0.293-0.175,0.355-0.161c0.062,0.014,0.13,0.072,0.205,0.17l0.818,1.093
			c0.137,0.178,0.199,0.266,0.184,0.262c0.123,0.029,0.244,0,0.362-0.087l0.769-0.577c0.156-0.109,0.256-0.16,0.303-0.149
			c0.062,0.014,0.135,0.081,0.222,0.198l0.949,1.368c0.126,0.16,0.182,0.27,0.167,0.332c-0.015,0.062-0.102,0.156-0.26,0.281
			l-1.094,0.818c-0.155,0.11-0.272,0.157-0.348,0.138c-0.032-0.007-0.116-0.1-0.253-0.277l-0.766-1.008
			c-0.077-0.083-0.148-0.132-0.209-0.146c-0.077-0.018-0.175,0.015-0.292,0.102l-0.787,0.548
			C278.766,222.184,278.652,222.222,278.543,222.197z"/>
		<path d="M291.063,211.873c-0.27,0.778-0.953,1.974-2.052,3.589c1.212-0.4,2.425-0.8,3.637-1.201
			c1.443-0.438,2.412-0.57,2.906-0.399c0.807,0.281,1.427,0.815,1.858,1.602c0.503,0.914,0.571,1.901,0.202,2.963
			c-0.583,1.675-1.464,2.594-2.642,2.754c-0.779,0.115-2.095-0.15-3.95-0.795l-7.548-2.674c-0.187-0.333,0.007-1.322,0.579-2.968
			c0.307,0.275,0.812,0.534,1.516,0.778c0.313,0.109,0.659,0.213,1.036,0.31c0.377,0.098,0.652,0.101,0.826,0.011
			c0.174-0.091,0.319-0.301,0.433-0.629c0.031-0.09,0.089-0.279,0.172-0.569c0.084-0.289,0.16-0.531,0.228-0.726
			c0.499-1.436,0.942-3.412,1.33-5.926c0.057-0.164,0.41-0.481,1.061-0.952c0.649-0.47,1.041-0.682,1.177-0.634
			c0.089,0.031,0.259,0.521,0.507,1.471c0.248,0.95,0.355,1.477,0.318,1.582c-0.036,0.105-0.25,0.299-0.642,0.582
			c-0.392,0.283-0.593,0.44-0.604,0.47c-0.051,0.149-0.11,0.38-0.178,0.692C291.168,211.515,291.111,211.739,291.063,211.873z
			 M296.218,218.319c0.095-0.269-0.167-0.675-0.784-1.216c-0.617-0.541-1.225-0.916-1.822-1.123
			c-0.568-0.198-1.272-0.199-2.111-0.005c-0.704,0.191-1.417,0.388-2.142,0.589c0.692,0.375,1.771,0.817,3.237,1.326
			c1.168,0.406,1.916,0.641,2.246,0.705C295.634,218.77,296.094,218.678,296.218,218.319z"/>
		<path d="M304.685,226.63c-0.528-0.29-0.891-0.715-1.09-1.275c-0.198-0.561-0.157-1.098,0.126-1.612
			c0.373-0.681,1.132-1.357,2.279-2.029c0.856-0.506,1.848-0.964,2.977-1.375c0.948-0.346,1.451-0.504,1.507-0.474
			c0.041,0.023,0.141,0.268,0.302,0.735c0.235,0.689,0.483,1.323,0.745,1.9c0.385,0.88,0.591,1.345,0.617,1.396
			c0.17,0.545,0.163,0.984-0.018,1.318c-0.61,1.111-1.691,1.796-3.243,2.055C307.335,227.529,305.934,227.316,304.685,226.63z
			 M309.685,225.418c0.023-0.042-0.224-0.67-0.741-1.884c-0.517-1.214-0.79-1.829-0.818-1.844c-0.11-0.062-0.485,0.086-1.121,0.441
			c-0.638,0.355-1.048,0.699-1.232,1.032c-0.305,0.556,0.029,1.1,1.002,1.634c0.485,0.267,1.073,0.472,1.762,0.615
			S309.61,225.557,309.685,225.418z M308.992,215.768c0.03-0.056,0.136-0.133,0.318-0.233l1.303-0.747
			c0.139-0.087,0.242-0.111,0.311-0.073c0.07,0.039,0.137,0.112,0.205,0.22l0.889,1.491c0.065,0.145,0.139,0.24,0.222,0.285
			c0.07,0.039,0.18,0.017,0.333-0.062l0.879-0.466c0.231-0.126,0.382-0.169,0.451-0.131c0.097,0.053,0.169,0.12,0.217,0.2
			l0.932,1.46c0.101,0.146,0.132,0.253,0.095,0.323c-0.039,0.07-0.127,0.148-0.265,0.235l-1.306,0.801
			c-0.195,0.092-0.306,0.13-0.334,0.115c-0.056-0.031-0.137-0.13-0.245-0.297l-0.945-1.44c-0.107-0.167-0.182-0.262-0.222-0.285
			c-0.056-0.031-0.174,0.004-0.356,0.103l-0.944,0.484c-0.173,0.086-0.294,0.109-0.363,0.072c-0.112-0.061-0.197-0.153-0.255-0.276
			l-0.848-1.469C308.979,215.941,308.955,215.838,308.992,215.768z"/>
		<path d="M318.897,226.846c0.035-0.052,0.114-0.114,0.238-0.185l1.746-0.949c0.215-0.123,0.356-0.162,0.422-0.118
			c0.263,0.175,0.16,1.088-0.309,2.735c-0.549,1.879-1.36,3.624-2.432,5.231c-0.14,0.212-0.362,0.35-0.661,0.416
			c-0.302,0.066-0.577,0.044-0.828-0.066l-1.732-0.699c-1.007-0.404-1.628-0.685-1.866-0.843c-0.75-0.501-1.168-0.989-1.251-1.464
			c-0.084-0.474,0.116-1.073,0.599-1.798c0.184-0.277,0.507-0.661,0.969-1.153c0.557-0.58,0.903-0.826,1.034-0.739
			c0.105,0.071,0.089,0.279-0.046,0.626c-0.193,0.461-0.296,0.801-0.309,1.022c-0.017,0.425,0.171,0.771,0.567,1.034
			c0.594,0.395,1.237,0.729,1.931,1.002c0.693,0.273,1.076,0.356,1.147,0.25c0.272-0.409,0.48-1.241,0.623-2.498
			C318.878,227.395,318.932,226.794,318.897,226.846z"/>
		<path d="M320.958,237.045l-4.042-3.162l1.471-2.016c0.136-0.175,0.305-0.185,0.504-0.03c0.313,0.243,0.866,0.66,1.659,1.254
			c0.791,0.595,1.344,1.012,1.657,1.255c0.739,0.572,1.183,0.891,1.333,0.957c0.149,0.066,0.287,0.017,0.413-0.146
			c0.214-0.276,0.944-1.418,2.19-3.428c1.246-2.01,1.996-3.177,2.248-3.503c0.039-0.05,0.174-0.096,0.406-0.136l1.968-0.368
			c0.165-0.033,0.273-0.03,0.323,0.01c0.113,0.087-0.081,0.558-0.582,1.412c-0.555,0.974-1.292,2.055-2.213,3.245l-4.434,5.763
			c-0.291,0.375-0.611,0.478-0.96,0.307C322.708,238.37,322.06,237.898,320.958,237.045z"/>
		<path d="M321.467,242.65c0.01-0.012,0.081-0.054,0.211-0.129l1.462-0.667c0.176-0.076,0.293-0.088,0.352-0.035
			c0.059,0.052,0.114,0.133,0.164,0.244l0.78,1.691c0.064,0.142,0.064,0.249,0,0.32c-0.053,0.059-0.134,0.113-0.244,0.164
			l-1.528,0.67c-0.099,0.061-0.176,0.066-0.236,0.013c-0.058-0.053-0.113-0.134-0.164-0.244l-0.779-1.692
			C321.409,242.833,321.403,242.721,321.467,242.65z M322.192,237.329c0-0.022,0.153-0.204,0.46-0.546l1.063-1.183
			c0.106-0.118,0.253-0.092,0.442,0.077c0.436,0.392,1.076,0.994,1.921,1.807c0.845,0.813,1.486,1.415,1.922,1.808
			c0.731,0.656,1.191,0.879,1.382,0.666c0.148-0.164,0.279-0.648,0.393-1.451c0.114-0.802,0.193-1.227,0.236-1.274
			c0.021-0.023,0.135-0.069,0.346-0.136l2.118-0.651c0.144-0.042,0.227-0.051,0.25-0.03c0.259,0.232,0.122,1.003-0.415,2.31
			c-0.568,1.365-1.273,2.518-2.121,3.461c-0.529,0.59-0.898,0.928-1.107,1.018c-0.307,0.106-0.702-0.014-1.179-0.358
			c-0.315-0.218-1.085-0.879-2.309-1.98c-1.839-1.652-2.693-2.42-2.563-2.304C322.465,238.033,322.186,237.621,322.192,237.329z"/>
	</g>
	<g>
		<path d="M150.257,192.958l-9.991-12.218l2.326-1.903l3.932,4.81l4.558-3.727l-3.932-4.81l2.326-1.902l9.991,12.218l-2.326,1.902
			l-4.368-5.342l-4.558,3.728l4.369,5.342L150.257,192.958z"/>
		<path d="M156.46,177.881c-0.906-1.328-1.479-2.571-1.719-3.728c-0.173-0.855-0.198-1.71-0.074-2.568
			c0.123-0.858,0.386-1.611,0.788-2.258c0.532-0.866,1.297-1.641,2.299-2.323c1.812-1.235,3.668-1.627,5.568-1.178
			c1.9,0.451,3.574,1.737,5.022,3.86c1.436,2.106,2.019,4.12,1.751,6.045c-0.269,1.925-1.306,3.503-3.112,4.734
			c-1.829,1.246-3.686,1.646-5.572,1.199C159.526,181.218,157.875,179.957,156.46,177.881z M158.957,176.048
			c1.007,1.476,2.092,2.376,3.254,2.7c1.163,0.324,2.239,0.148,3.229-0.527c0.99-0.675,1.544-1.607,1.663-2.796
			c0.119-1.188-0.337-2.539-1.368-4.051c-1.019-1.495-2.088-2.399-3.207-2.713c-1.12-0.314-2.191-0.122-3.214,0.575
			c-1.023,0.698-1.594,1.633-1.713,2.804C157.482,173.212,157.934,174.547,158.957,176.048z"/>
		<path d="M166.469,161.613l4.794-2.679c1.081-0.603,1.954-0.976,2.62-1.118c0.895-0.188,1.785-0.13,2.667,0.175
			c0.883,0.304,1.713,0.817,2.488,1.539c0.775,0.721,1.524,1.728,2.245,3.018c0.633,1.135,1.047,2.186,1.239,3.156
			c0.235,1.184,0.225,2.255-0.031,3.212c-0.192,0.724-0.602,1.434-1.229,2.13c-0.47,0.517-1.19,1.047-2.159,1.588l-4.936,2.757
			L166.469,161.613z M170.395,162.478l5.098,9.126l1.959-1.094c0.732-0.409,1.237-0.748,1.513-1.017
			c0.363-0.351,0.609-0.74,0.739-1.165c0.13-0.426,0.112-0.998-0.056-1.714c-0.167-0.716-0.549-1.607-1.144-2.672
			c-0.595-1.065-1.141-1.833-1.637-2.305c-0.495-0.471-0.992-0.777-1.49-0.918c-0.497-0.141-1.023-0.131-1.576,0.03
			c-0.415,0.117-1.158,0.474-2.227,1.071L170.395,162.478z"/>
		<path d="M186.707,168.52l-6.516-14.375l10.05-4.556l1.102,2.431l-7.313,3.315l1.444,3.188l6.805-3.085l1.098,2.423l-6.805,3.084
			l1.774,3.913l7.572-3.432l1.098,2.422L186.707,168.52z"/>
		<path d="M198.726,163.268l-5.688-14.723l2.803-1.082l5.687,14.722L198.726,163.268z"/>
		<path d="M198.805,146.274l5.235-1.661c1.18-0.375,2.111-0.565,2.791-0.569c0.915-0.004,1.774,0.231,2.578,0.707
			c0.804,0.475,1.514,1.144,2.128,2.007c0.614,0.862,1.146,1.999,1.593,3.408c0.393,1.238,0.587,2.352,0.581,3.34
			c-0.008,1.207-0.232,2.254-0.676,3.14c-0.334,0.67-0.877,1.284-1.631,1.839c-0.565,0.413-1.376,0.787-2.434,1.122l-5.389,1.711
			L198.805,146.274z M202.477,147.909l3.163,9.965l2.138-0.679c0.8-0.254,1.362-0.485,1.687-0.693
			c0.425-0.271,0.744-0.602,0.958-0.993c0.213-0.392,0.309-0.955,0.289-1.691c-0.02-0.735-0.215-1.684-0.584-2.847
			c-0.369-1.163-0.749-2.024-1.14-2.586c-0.391-0.561-0.816-0.961-1.276-1.199c-0.459-0.239-0.975-0.335-1.55-0.287
			c-0.43,0.031-1.229,0.232-2.397,0.602L202.477,147.909z"/>
		<path d="M230.315,154.208l-3.192,0.704l-2.041-3.221l-5.809,1.282l-0.427,3.766l-3.113,0.686l2.26-16.662l3.103-0.684
			L230.315,154.208z M223.567,149.302l-3.264-5.278l-0.701,6.153L223.567,149.302z"/>
		<path d="M231.186,154.123l-1.989-15.657l2.981-0.379l0.783,6.163l5.841-0.742l-0.783-6.162l2.981-0.379l1.99,15.658l-2.981,0.378
			l-0.87-6.846l-5.841,0.742l0.87,6.847L231.186,154.123z"/>
		<path d="M250.216,136.436l3.004-0.053l0.15,8.547c0.024,1.356,0.076,2.234,0.158,2.635c0.14,0.643,0.455,1.156,0.946,1.539
			s1.155,0.567,1.994,0.552c0.853-0.015,1.493-0.212,1.918-0.589c0.427-0.377,0.68-0.835,0.758-1.376
			c0.079-0.539,0.106-1.434,0.085-2.683l-0.154-8.73l3.004-0.052l0.147,8.288c0.033,1.895-0.025,3.235-0.174,4.02
			c-0.148,0.785-0.436,1.45-0.862,1.996c-0.427,0.545-1.004,0.985-1.729,1.317c-0.725,0.333-1.676,0.509-2.854,0.53
			c-1.421,0.025-2.502-0.131-3.242-0.465c-0.741-0.335-1.328-0.777-1.764-1.325c-0.437-0.549-0.728-1.127-0.873-1.734
			c-0.212-0.901-0.334-2.234-0.365-4L250.216,136.436z"/>
		<path d="M264.848,152.186l1.361-15.725l2.913,0.252l5.159,11.026l0.91-10.501l2.78,0.241l-1.361,15.725l-3.004-0.26l-5.089-10.772
			l-0.888,10.255L264.848,152.186z"/>
		<path d="M279.037,153.626l2.333-15.61l2.972,0.444l-2.334,15.611L279.037,153.626z"/>
		<path d="M287.937,155.131l-1.965-16.539l3.189,0.669l1.288,12.206l5.965-10.685l3.119,0.655l-8.456,14.353L287.937,155.131z"/>
		<path d="M297.053,157.141l4.513-15.124l10.573,3.156l-0.763,2.558l-7.695-2.296l-1.001,3.354l7.159,2.136l-0.76,2.548
			l-7.159-2.137l-1.229,4.117l7.967,2.377l-0.761,2.548L297.053,157.141z"/>
		<path d="M309.627,160.972l5.795-14.681l5.883,2.323c1.479,0.584,2.502,1.14,3.068,1.668c0.567,0.529,0.918,1.209,1.056,2.043
			c0.135,0.833,0.033,1.684-0.309,2.552c-0.435,1.101-1.1,1.89-1.993,2.367s-1.986,0.568-3.274,0.277
			c0.456,0.612,0.793,1.22,1.009,1.822c0.218,0.602,0.434,1.606,0.651,3.012l0.56,3.531l-3.343-1.32l-0.759-3.992
			c-0.268-1.425-0.475-2.338-0.622-2.74c-0.147-0.401-0.346-0.715-0.599-0.943c-0.251-0.226-0.699-0.467-1.341-0.72l-0.567-0.223
			l-2.42,6.128L309.627,160.972z M315.767,153.604l2.068,0.816c1.341,0.53,2.201,0.8,2.582,0.811
			c0.381,0.012,0.724-0.092,1.029-0.311c0.306-0.219,0.545-0.549,0.718-0.99c0.195-0.493,0.228-0.942,0.1-1.344
			c-0.129-0.401-0.404-0.732-0.826-0.991c-0.213-0.123-0.887-0.408-2.02-0.856l-2.181-0.86L315.767,153.604z"/>
		<path d="M324.443,161.383l2.753,1.03c-0.305,1.011-0.326,1.854-0.061,2.531c0.265,0.676,0.807,1.217,1.625,1.623
			c0.866,0.43,1.616,0.56,2.249,0.39c0.632-0.171,1.079-0.517,1.336-1.038c0.166-0.334,0.215-0.664,0.147-0.991
			c-0.069-0.326-0.29-0.69-0.665-1.092c-0.257-0.273-0.874-0.834-1.848-1.687c-1.254-1.095-2.035-2.064-2.343-2.905
			c-0.432-1.184-0.37-2.336,0.185-3.454c0.357-0.72,0.884-1.298,1.58-1.734c0.696-0.435,1.487-0.637,2.374-0.606
			c0.888,0.032,1.843,0.302,2.867,0.81c1.674,0.83,2.74,1.845,3.199,3.042c0.459,1.198,0.388,2.457-0.214,3.776l-2.753-1.21
			c0.246-0.784,0.257-1.429,0.037-1.936c-0.221-0.507-0.711-0.947-1.469-1.324c-0.782-0.388-1.478-0.521-2.09-0.4
			c-0.393,0.077-0.682,0.299-0.863,0.665c-0.166,0.335-0.174,0.687-0.025,1.057c0.189,0.471,0.857,1.195,2.003,2.173
			c1.147,0.977,1.947,1.797,2.402,2.459c0.452,0.662,0.706,1.384,0.76,2.169c0.052,0.783-0.143,1.622-0.586,2.516
			c-0.402,0.81-0.992,1.464-1.766,1.961c-0.775,0.496-1.637,0.724-2.583,0.683c-0.946-0.041-1.998-0.349-3.157-0.923
			c-1.685-0.836-2.775-1.892-3.268-3.166S323.833,163.051,324.443,161.383z"/>
		<path d="M334.557,172.332l7.799-13.722l2.613,1.485l-7.8,13.722L334.557,172.332z"/>
		<path d="M341.968,176.715l7.061-11.049l-3.721-2.378l1.438-2.25l9.966,6.368l-1.439,2.25l-3.712-2.372l-7.061,11.049
			L341.968,176.715z"/>
		<path d="M352.354,183.775l3.983-5.315l1.12-10.583l2.818,2.112l-0.943,7.097l6.491-2.94l2.77,2.076l-9.873,4.051l-3.971,5.299
			L352.354,183.775z"/>
	</g>
	<g>
		
			<ellipse style="fill:#D4EFFC;stroke:#000000;stroke-width:1.9592;stroke-linecap:round;stroke-linejoin:round;stroke-miterlimit:10;" cx="257.092" cy="321.474" rx="92.764" ry="95.043"/>
		
			<path style="fill:#F7941D;stroke:#000000;stroke-width:1.846;stroke-linecap:round;stroke-linejoin:round;stroke-miterlimit:10;" d="
			M305.142,387.898c0,0,27.388-22.133,33.867-46.928l-9.129-16.719c0,0-19.731,18.388-72.152,26.839
			c-52.42,8.45-66.851-8.046-66.851-8.046s5.89,33.856,20.026,47.09c14.136,13.233,14.136,13.233,14.136,13.233L305.142,387.898z"/>
		<path d="M333.973,298.012l-5.925,9.184c0,0,4.343,31.404-27.061,71.399l2.175,11.554c0,0,32.589-44.143,34.07-73.769
			c0.155-3.092,1.778-10.369,1.778-10.369L333.973,298.012z"/>
		
			<path style="fill:#FFFFFF;stroke:#000000;stroke-width:1.846;stroke-linecap:round;stroke-linejoin:round;stroke-miterlimit:10;" d="
			M312.236,367.827c0,0-52.14-64.909-129.359-29.269c0,0,64.68-34.98,64.68-99.659c0,0,52.642,19.414,61.826,76.297
			c2.853,21.331-3.961,45.419-3.961,45.419"/>
		<g>
			<path d="M257.612,292.473c-0.188,0.599-0.425,1.193-0.715,1.778c-0.117,0.236-0.194,0.392-0.232,0.467
				c-0.037,0.077-0.102,0.192-0.194,0.348s-0.181,0.296-0.263,0.418c-0.083,0.124-0.189,0.267-0.318,0.427l-0.197,0.124
				c-0.095,0.048-0.17,0.065-0.226,0.047l-0.028-0.036l-0.063-0.137l0.211-2.187l0.151-1.783l0.094-0.972l0.008-0.656
				c0.064-1.042,0.023-2.021-0.121-2.935l-0.189-1.455c-0.054-0.475-0.136-0.939-0.247-1.395l0.467-0.526l0.582-0.595
				c0.741-0.769,1.251-1.206,1.531-1.312c0.119,0.319,0.265,1.173,0.435,2.56c0.046,0.973,0.037,2.32-0.029,4.047
				c-0.061,0.754-0.141,1.432-0.242,2.032l-0.184,0.878L257.612,292.473z"/>
			<path d="M266.926,297.551l-1.371,0.677c-0.763,0.359-1.305,0.593-1.63,0.702l-1.386-1.462c-0.636-0.716-1.054-1.33-1.253-1.841
				c-0.122-0.311-0.201-0.605-0.237-0.886c-0.036-0.278-0.013-0.545,0.067-0.801l0.149-0.349c0.056-0.097,0.143-0.189,0.257-0.276
				c0.29-0.251,0.872-0.626,1.748-1.125l0.775-0.454l0.636-0.393l-0.907-1.179c-0.249-0.298-0.487-0.785-0.714-1.462l0.018-0.481
				l0.086-0.237l0.149-0.177l0.188-0.179l0.224-0.166l0.998-0.583l0.603-0.325l0.714-0.343l0.686-0.299l0.725-0.299l0.612-0.23
				l0.656-0.203c0.056,0.018,0.093,0.039,0.112,0.062l-0.062,0.283l-0.06,0.192l-0.043,0.131c-0.019,0.064-0.041,0.102-0.062,0.112
				l-0.199,0.385c-0.18,0.349-0.3,0.536-0.36,0.56c-0.188,0.178-0.555,0.331-1.104,0.457l-0.86,0.179
				c-0.06,0.192,0.166,0.605,0.679,1.239l1.147,1.386c0.159,0.225,0.202,0.45,0.132,0.674c-0.06,0.191-0.197,0.364-0.412,0.516
				l-0.652,0.441l-0.483,0.323l-1.754,1.097l-0.193,0.281c-0.037,0.12-0.025,0.234,0.039,0.341l1.439,2.176
				C266.559,296.773,266.861,297.284,266.926,297.551z"/>
			<path d="M274.677,297.819c-0.189,0.599-0.426,1.193-0.714,1.778c-0.118,0.236-0.195,0.391-0.232,0.467
				c-0.038,0.077-0.102,0.192-0.195,0.348c-0.093,0.155-0.18,0.295-0.263,0.418c-0.081,0.124-0.188,0.267-0.317,0.427l-0.197,0.123
				c-0.095,0.049-0.17,0.066-0.225,0.048l-0.028-0.036l-0.062-0.137l0.209-2.187l0.151-1.784l0.095-0.971l0.008-0.656
				c0.064-1.043,0.023-2.022-0.122-2.935l-0.19-1.456c-0.052-0.474-0.135-0.938-0.247-1.394l0.468-0.526l0.582-0.595
				c0.741-0.769,1.251-1.206,1.529-1.312c0.12,0.318,0.265,1.173,0.437,2.56c0.046,0.973,0.037,2.32-0.031,4.047
				c-0.06,0.754-0.14,1.431-0.242,2.032l-0.182,0.878L274.677,297.819z"/>
			<path d="M288.608,295.941c-0.234,0.042-0.495,0.165-0.789,0.372l-0.251,0.171l-0.31,0.232l-0.357,0.297l-1.804,2.148l-1.05,1.541
				l-0.77,1.154l-0.708,1.162l-0.52,0.904c-0.126,0.233-0.255,0.328-0.393,0.285l-0.048-0.095l-0.114-0.311
				c0.077-0.583,0.097-1.485,0.06-2.709c0.039-1.638-0.037-2.896-0.228-3.772c-0.137-1.527-0.354-2.543-0.652-3.048
				c-0.059-0.15-0.141-0.307-0.247-0.473c-0.087-0.168-0.17-0.3-0.246-0.393c0.091-0.287,0.381-0.921,0.872-1.9
				c0.491-0.979,0.828-1.536,1.011-1.672c0.282,0.219,0.586,0.622,0.912,1.208c0.107,0.333,0.202,0.673,0.285,1.025l0.211,1.053
				l0.126,2.161l-0.066,2.311l0.938-1.604l0.623-0.976l0.22-0.326l0.193-0.282l0.238-0.255c0.485-0.541,1.075-1.102,1.765-1.685
				c0.23-0.174,0.476-0.295,0.733-0.363l0.744-0.148l-0.037,1.212L288.608,295.941z"/>
			<path d="M249.44,309.833c-0.188,0.599-0.427,1.192-0.715,1.777c-0.118,0.236-0.195,0.392-0.232,0.468
				c-0.037,0.076-0.102,0.191-0.194,0.347c-0.093,0.156-0.18,0.296-0.263,0.419c-0.082,0.123-0.189,0.266-0.318,0.427l-0.196,0.123
				c-0.095,0.049-0.17,0.065-0.226,0.047l-0.028-0.035l-0.062-0.138l0.211-2.186l0.15-1.784l0.094-0.972l0.008-0.655
				c0.063-1.043,0.023-2.022-0.121-2.936l-0.189-1.455c-0.054-0.474-0.136-0.939-0.248-1.395l0.467-0.525l0.582-0.596
				c0.742-0.769,1.252-1.206,1.53-1.311c0.12,0.317,0.265,1.172,0.436,2.56c0.046,0.972,0.037,2.32-0.03,4.047
				c-0.06,0.754-0.141,1.431-0.241,2.032l-0.184,0.877L249.44,309.833z"/>
			<path d="M260.752,314.667c-0.166,0.307-0.598,0.735-1.296,1.28c-0.651,0.508-1.061,0.778-1.229,0.814
				c-0.147-0.205-0.257-0.404-0.334-0.598c-0.074-0.195-0.148-0.488-0.219-0.879c-0.028-0.44,0.024-1.296,0.16-2.571
				c0.136-0.685,0.364-1.537,0.682-2.552l0.199-0.636l-0.444,0.322l-0.269,0.232l-0.485,0.414c-0.275,0.204-0.62,0.294-1.034,0.27
				l-0.398-0.073c-0.584-0.183-1.065-0.578-1.446-1.183c-0.381-0.608-0.491-1.166-0.331-1.678c0.296-0.944,0.806-1.881,1.533-2.812
				c0.727-0.931,1.549-1.645,2.467-2.138c0.199-0.104,0.414-0.17,0.64-0.194l0.278-0.006c0.135-0.01,0.263,0.003,0.383,0.042
				c0.416,0.13,0.752,0.409,1.009,0.836c0.256,0.427,0.383,0.913,0.379,1.456l-0.186,2.023l-0.335,2.331
				c-0.114,0.781-0.166,1.371-0.159,1.768c0.004,0.827,0.06,1.547,0.166,2.16l0.05,0.424l0.066,0.297L260.752,314.667z
				 M258.767,307.723c0.101-0.32,0.13-0.684,0.091-1.091c-0.076-0.428-0.271-0.8-0.584-1.119l-0.141-0.056
				c-0.271-0.085-0.614-0.044-1.027,0.126c-0.339,0.157-0.571,0.308-0.696,0.453c-0.062,0.113,0.075,0.376,0.412,0.788
				c0.21,0.197,0.605,0.509,1.181,0.937l0.164,0.065l0.279,0.034C258.573,307.874,258.681,307.827,258.767,307.723z"/>
			<path d="M271.163,317.928c-0.168,0.308-0.599,0.735-1.297,1.28c-0.651,0.508-1.06,0.778-1.23,0.813
				c-0.147-0.204-0.257-0.403-0.333-0.597c-0.075-0.195-0.147-0.488-0.219-0.879c-0.029-0.44,0.023-1.296,0.16-2.571
				c0.135-0.686,0.363-1.537,0.681-2.552l0.199-0.636l-0.443,0.322l-0.271,0.232l-0.485,0.415c-0.275,0.203-0.619,0.293-1.033,0.269
				l-0.398-0.073c-0.584-0.183-1.065-0.578-1.446-1.184c-0.381-0.607-0.491-1.165-0.331-1.677c0.296-0.944,0.806-1.88,1.532-2.812
				c0.726-0.932,1.55-1.644,2.468-2.138c0.199-0.105,0.412-0.169,0.64-0.194l0.278-0.006c0.135-0.01,0.262,0.004,0.382,0.041
				c0.416,0.131,0.751,0.41,1.008,0.837c0.257,0.427,0.385,0.913,0.381,1.456l-0.186,2.023l-0.336,2.332
				c-0.112,0.781-0.164,1.37-0.159,1.767c0.005,0.828,0.06,1.547,0.166,2.16l0.052,0.424l0.066,0.297L271.163,317.928z
				 M269.175,310.984c0.101-0.32,0.131-0.684,0.093-1.091c-0.077-0.428-0.273-0.8-0.586-1.118l-0.139-0.057
				c-0.273-0.085-0.615-0.044-1.028,0.126c-0.339,0.158-0.571,0.308-0.695,0.453c-0.062,0.113,0.075,0.375,0.412,0.788
				c0.21,0.197,0.603,0.509,1.181,0.937l0.164,0.065l0.278,0.034C268.984,311.134,269.09,311.088,269.175,310.984z"/>
			<path d="M282.866,321.555c-0.084,0.185-0.506,0.604-1.263,1.257c-0.758,0.655-1.229,0.996-1.414,1.026l-0.28-0.575l-0.118-0.3
				l-0.114-0.352l-0.141-1.23l0.014-0.839l0.133-1.354l0.24-1.308c0.095-0.472,0.209-0.918,0.34-1.342l0.971-3.266
				c-0.337,0.237-0.739,0.427-1.207,0.57l-0.308,0.062l-0.417,0.027l-0.331-0.038l-0.271-0.059c-0.505-0.158-0.92-0.38-1.247-0.666
				c-0.327-0.287-0.562-0.778-0.704-1.472l0.031-0.227l0.085-0.355l0.269-0.944l0.335-1.067l0.257-0.696l0.128,0.014l0.137,0.069
				c0.195,0.326,0.536,0.655,1.019,0.992l0.298,0.185l0.478,0.242l0.509,0.225l0.312,0.098c0.743,0.233,1.295,0.358,1.654,0.373
				c0.36,0.017,0.706-0.029,1.036-0.135l0.127,0.356l-0.266,1.101l-0.276,1.007c-0.128,0.407-0.242,0.899-0.342,1.472l-0.213,1.475
				c-0.187,1.241-0.232,2.169-0.135,2.788l0.091,0.634l0.16,0.789C282.495,320.399,282.637,320.887,282.866,321.555z"/>
		</g>
		
			<path style="fill:#2E3192;stroke:#000000;stroke-width:1.846;stroke-linecap:round;stroke-linejoin:round;stroke-miterlimit:10;" d="
			M180.127,374.152c0,0,8.676,7.11,27.045,6.814s25.775-21.627,50.068,1.778c24.294-23.405,31.7-2.074,50.068-1.778
			c18.368,0.296,26.775-6.814,26.775-6.814s-18.776,40.588-76.843,40.588S180.127,374.152,180.127,374.152z"/>
	</g>
	<g>
		<g>
			<path d="M285.795,94.696c3.073,0.472,6.145,0.946,9.218,1.416c2.634,0.403,5.272,0.784,7.903,1.209
				c1.548,0.25,2.081,1.04,1.788,2.578c-0.754,3.956-1.517,7.911-2.288,11.864c-0.318,1.632-0.139,1.949,1.592,2.333
				c2.291,0.508,4.589,0.987,6.892,1.44c1.131,0.222,1.649-0.489,1.489-1.446c-0.27-1.622-0.569-3.286-1.197-4.789
				c-0.777-1.858-0.695-2.333,1.254-2.998c3.443-1.174,6.876-2.376,10.316-3.559c0.648-0.223,1.3-0.444,1.963-0.616
				c2.517-0.655,3.414-0.118,4.282,2.305c1.155,3.223,2.382,6.42,3.611,9.615c0.567,1.474,0.324,1.989-1.171,2.934
				c-1.072,0.678-2.1,1.47-3.004,2.358c-0.869,0.854-0.688,1.805,0.294,2.533c0.732,0.543,1.449,1.142,2.259,1.538
				c2.014,0.986,2.858,0.49,3.887-1.532c0.994-1.955,2.08-3.942,3.507-5.583c3.12-3.587,8.563-4.405,13.486-1.006
				c3.006,2.076,5.961,4.184,9.515,5.328c2.125,0.684,2.319,1.847,0.995,3.659c-3.194,4.371-6.394,8.736-9.553,13.132
				c-1.107,1.54-2.06,3.19-3.152,4.741c-1.177,1.674-2.04,1.936-3.893,0.991c-3.181-1.622-6.227-3.523-9.463-5.017
				c-5.38-2.485-10.835-4.819-16.316-7.076c-6.851-2.822-14.009-4.658-21.239-6.207c-5.423-1.162-10.852-2.307-16.304-3.326
				c-1.706-0.319-3.497-0.159-5.243-0.301c-2.548-0.208-2.872-0.768-2.467-3.43c0.814-5.35,1.612-10.703,2.318-16.068
				c0.533-4.053,2.987-6.433,7.072-6.628c0.534-0.026,1.067-0.047,1.601-0.071C285.763,94.911,285.779,94.804,285.795,94.696z
				 M290.651,101.809c-3.571-0.051-6.07,2.692-5.592,6.137c0.248,1.791,1.013,2.533,2.779,2.75c1.2,0.147,2.399,0.309,3.591,0.509
				c2.005,0.338,2.995-0.416,3.16-2.484c0.072-0.906,0.042-1.821,0.151-2.721c0.432-3.571,0.136-3.948-3.408-4.161
				C291.106,101.825,290.879,101.817,290.651,101.809z M350.018,125.696c-0.045-1.787-1.762-3.279-3.737-3.247
				c-2.158,0.035-3.714,1.384-3.698,3.206c0.016,1.866,2.026,4.044,3.697,4.008C348.144,129.623,350.065,127.584,350.018,125.696z
				 M324.777,114.15c-0.058-1.688-2.379-3.882-3.987-3.768c-1.353,0.096-3.417,2.669-3.348,4.175c0.067,1.47,2.478,3.349,4.157,3.24
				C323.157,117.695,324.832,115.773,324.777,114.15z"/>
			<path d="M249.789,100.712c-0.149-2.125-0.328-4.248-0.438-6.375c-0.08-1.537,0.485-2.331,2.015-2.54
				c1.733-0.237,3.494-0.286,5.246-0.364c1.134-0.05,1.692,0.714,1.804,1.696c0.198,1.734,0.357,3.483,0.358,5.226
				c0.003,3.956-0.124,7.913-0.151,11.87c-0.017,2.436,0.049,4.873,0.084,7.31c0.027,1.821-0.398,2.28-2.245,2.368
				c-6.32,0.299-12.647,0.497-18.958,0.929c-3.179,0.218-6.329,0.854-9.491,1.309c-2.183,0.314-4.387,0.529-6.541,0.984
				c-5.509,1.165-11.003,2.407-16.487,3.686c-2.145,0.5-4.274,1.106-6.364,1.802c-1.943,0.647-3.849,1.422-5.726,2.244
				c-1.714,0.75-2.28,0.608-3.01-1.064c-1.066-2.441-2.138-4.879-3.183-7.329c-0.662-1.551-0.449-2.251,1.197-2.801
				c3.318-1.11,6.69-2.059,10.037-3.084c0.581-0.178,1.202-0.315,1.71-0.626c1.484-0.907,1.642-2.628,0.415-3.858
				c-1.996-2-3.903-2.307-6.433-1.076c-0.82,0.399-1.679,0.718-2.52,1.075c-1.453,0.618-2.931,1.185-4.35,1.872
				c-1.407,0.68-2.44,0.449-3.023-0.862c-0.894-2.009-1.772-4.026-2.64-6.047c-0.715-1.666-0.478-2.016,1.277-2.535
				c6.128-1.813,12.242-3.671,18.361-5.517c1.239-0.374,2.478-0.751,3.707-1.157c1.101-0.364,1.962-0.243,2.343,1.016
				c1.143,3.783,2.39,7.538,3.38,11.361c0.467,1.804,0.787,2.343,2.704,2.074c2.789-0.391,5.562-0.902,8.349-1.312
				c3.241-0.477,6.487-0.918,9.735-1.34c1.106-0.144,2.18-0.302,2.458-1.615c0.284-1.344-0.198-2.545-1.378-3.117
				c-2.179-1.055-4.323-1.982-6.989-1.103c-2.269,0.748-4.772,0.904-7.188,1.048c-1.977,0.118-2.504-0.599-2.716-2.574
				c-0.121-1.127-0.316-2.254-0.585-3.355c-0.549-2.244,0.305-3.604,2.533-3.892c4-0.518,8.006-0.994,11.999-1.563
				c2.987-0.426,5.802,0.206,8.443,1.451c0.932,0.439,1.888,1.466,2.212,2.432c0.891,2.654,1.49,5.409,2.135,8.141
				c0.519,2.197,0.654,2.359,2.86,2.383c0.763,0.008,1.526,0.024,2.289,0.013c2.265-0.031,2.995-0.769,2.936-3.07
				c-0.035-1.372-0.172-2.74-0.263-4.111C249.728,100.716,249.759,100.714,249.789,100.712z"/>
			<path d="M137.2,140.341c-0.677-0.469-1.311-0.757-1.736-1.232c-1.421-1.587-2.795-3.219-4.133-4.877
				c-1.148-1.422-0.95-2.425,0.805-3.558c3.648-2.356,7.337-4.65,11.022-6.95c2.772-1.73,5.574-3.414,8.343-5.15
				c1.593-0.999,2.569-0.885,3.626,0.804c2.059,3.289,4.035,6.63,5.999,9.978c1.068,1.82,1.604,1.944,3.388,0.767
				c1.067-0.704,2.188-1.356,3.354-1.872c1.782-0.789,2.163-1.939,1.231-3.604c-1.85-3.306-3.623-6.655-5.402-10.001
				c-0.497-0.935-0.422-1.762,0.683-2.262c2.01-0.908,4.032-1.792,6.01-2.765c1.14-0.561,1.866-0.303,2.402,0.804
				c0.889,1.835,1.819,3.649,2.703,5.486c2.478,5.152,4.952,10.305,7.405,15.468c1.221,2.57,0.973,2.811-1.664,4.003
				c-3.53,1.595-7.026,3.3-10.392,5.214c-7.011,3.985-13.927,8.136-20.876,12.23c-0.455,0.268-0.863,0.621-1.278,0.953
				c-1.714,1.371-2.733,1.311-3.988-0.456c-1.453-2.045-2.819-4.154-4.158-6.276c-0.865-1.371-0.674-2.299,0.598-3.114
				c2.822-1.808,5.656-3.599,8.519-5.342c1.513-0.921,2.07-1.767,1.637-2.828c-0.656-1.609-2.738-2.889-4.002-2.156
				c-2.819,1.635-5.511,3.492-8.239,5.282C138.447,139.288,137.904,139.786,137.2,140.341z"/>
			<path d="M401.598,159.173c-0.254,0.631-0.486,1.521-0.938,2.281c-2.876,4.834-6.674,8.878-10.923,12.518
				c-1.515,1.297-2.533,1.213-3.967-0.212c-6.332-6.292-12.9-12.31-20.192-17.498c-3.66-2.604-7.266-5.282-10.891-7.934
				c-1.409-1.031-1.513-1.634-0.493-3.017c3.89-5.273,7.805-10.528,11.677-15.814c0.808-1.103,1.457-2.32,2.209-3.465
				c1.116-1.7,2.021-1.849,3.521-0.586c1.458,1.228,2.947,2.423,4.332,3.73c1.507,1.422,1.569,2.412,0.233,3.943
				c-2.247,2.576-4.56,5.094-6.871,7.614c-1.06,1.156-0.889,2.182,0.698,3.392c2.665,2.031,5.412,3.961,8.005,6.079
				c3.231,2.638,6.372,5.39,9.491,8.162c1.505,1.338,2.577,1.486,3.726,0.236c1.1-1.196,0.906-2.433-0.629-3.701
				c-3.466-2.864-6.937-5.721-10.424-8.559c-1.915-1.559-2.041-2.855-0.37-4.568c1.007-1.033,2.008-2.071,3.032-3.087
				c1.046-1.038,1.912-1.141,2.984-0.087c3.752,3.687,7.633,7.273,11.074,11.237c1.857,2.139,2.938,4.958,4.318,7.497
				C401.443,157.779,401.432,158.362,401.598,159.173z"/>
			<path d="M105.557,158.641c0.071-4.98,2.061-8.698,6.242-11.55c2.931-1.999,5.466-4.602,8.067-7.055
				c1.852-1.747,2.391-1.804,4.006,0.041c5.114,5.84,10.243,11.667,15.389,17.479c1.687,1.905,1.681,2.188-0.144,3.848
				c-5.406,4.917-10.787,9.861-16.186,14.786c-0.561,0.512-1.105,1.172-1.779,1.395c-0.776,0.257-1.98,0.478-2.496,0.073
				c-5.341-4.185-10.815-8.318-12.548-15.435C105.823,161.054,105.735,159.836,105.557,158.641z M116.49,157.72
				c0.674,1.401,0.954,3.114,1.93,3.74c1.362,0.873,2.312-0.879,3.365-1.651c0.06-0.044,0.106-0.108,0.164-0.156
				c4.313-3.55,2.699-3.701,0.084-6.9c-0.141-0.172-0.329-0.319-0.522-0.433c-0.978-0.576-2.018-0.577-2.599,0.411
				C118.015,154.257,117.348,155.919,116.49,157.72z"/>
			<path d="M267.903,91.547c4.404-0.728,4.425,1.454,4.104,4.656c-0.622,6.204-1.101,12.422-1.612,18.637
				c-0.056,0.675,0.033,1.368,0.113,2.047c0.293,2.504-0.902,3.738-3.409,3.453c-0.677-0.077-1.337-0.306-2.014-0.389
				c-2.781-0.343-2.754-0.6-2.585-3.272c0.367-5.773,0.471-11.564,0.641-17.348c0.042-1.443-0.066-2.891-0.125-4.335
				c-0.103-2.539,0.963-3.601,3.572-3.527C267.043,91.48,267.499,91.522,267.903,91.547z"/>
			<path d="M120.57,131.742c0.228,0.008,0.459-0.002,0.683,0.032c1.058,0.161,2.296,0.23,2.435,1.592
				c0.132,1.298-1.08,1.552-1.991,1.814c-2.755,0.795-4.682,2.754-6.705,4.59c-0.394,0.358-0.713,0.858-1.169,1.072
				c-0.551,0.259-1.398,0.574-1.777,0.332c-0.43-0.274-0.743-1.176-0.66-1.74C112.039,134.989,116.09,131.647,120.57,131.742z"/>
			<path d="M302.067,88.501c3.764,0.157,6.322,1.92,8.144,4.747c0.348,0.54,0.284,1.682-0.065,2.259
				c-0.538,0.891-1.518,0.519-2.206-0.019c-2.459-1.923-5.336-2.439-8.336-2.664c-1.182-0.089-2.707-0.074-2.809-1.691
				c-0.093-1.483,1.396-1.614,2.435-1.955C300.234,88.847,301.291,88.681,302.067,88.501z"/>
			<path d="M107.623,142.592c0.421,0.261,1.087,0.443,1.214,0.81c0.166,0.48,0.095,1.263-0.212,1.64
				c-0.616,0.754-1.431,1.36-2.218,1.955c-1.973,1.493-3.661,3.217-4.734,5.482c-0.097,0.206-0.182,0.472-0.353,0.578
				c-0.611,0.379-1.257,0.701-1.889,1.045c-0.319-0.628-0.929-1.266-0.908-1.882c0.133-3.891,1.026-7.088,5.504-8.453
				C105.188,143.414,106.336,143.014,107.623,142.592z"/>
			<path d="M157.256,157.761c-0.705-0.15-2.013-0.289-3.202-0.742c-0.589-0.225-0.959-1.026-1.428-1.567
				c0.523-0.383,0.995-0.891,1.577-1.127c1.897-0.767,3.897-1.302,5.733-2.185c1.281-0.616,2.309-1.739,3.549-2.468
				c0.496-0.292,1.362-0.348,1.861-0.104c0.335,0.163,0.53,1.084,0.428,1.594C165.115,154.482,161.153,157.722,157.256,157.761z"/>
			<path d="M283.897,89.702c-1.295,0-2.6,0.091-3.88-0.045c-0.5-0.053-1.208-0.541-1.335-0.973c-0.104-0.356,0.4-1.103,0.826-1.366
				c5.141-3.18,7.93-3.048,12.248,0.46c0.294,0.239,0.672,0.474,0.801,0.795c0.212,0.527,0.493,1.235,0.296,1.66
				c-0.192,0.415-0.921,0.704-1.458,0.798c-0.485,0.086-1.126-0.022-1.532-0.293C288.008,89.503,285.954,89.645,283.897,89.702z"/>
			<path d="M171.049,148.8c-0.234-0.018-1.026,0.039-1.731-0.181c-0.428-0.133-0.952-0.662-1.008-1.071
				c-0.051-0.365,0.403-1.068,0.77-1.18c3.499-1.071,5.911-3.627,8.52-5.955c0.564-0.503,1.593-0.486,2.408-0.708
				c0.102,0.848,0.55,1.852,0.25,2.52C178.016,147.208,177.275,148.438,171.049,148.8z"/>
			<path d="M374.677,173.992c-2.76,0.064-7.504-2.787-7.948-6.392c-0.082-0.663-0.521-1.284-0.596-1.946
				c-0.06-0.531,0.006-1.322,0.341-1.587c0.373-0.296,1.2-0.321,1.673-0.112c0.585,0.259,1.117,0.809,1.483,1.359
				c1.551,2.334,3.571,4.118,6.027,5.435c0.267,0.143,0.593,0.264,0.759,0.492c0.369,0.507,0.999,1.169,0.883,1.594
				c-0.132,0.484-0.926,0.846-1.497,1.13C375.497,174.117,375.056,173.992,374.677,173.992z"/>
		</g>
	</g>
</g>
</svg>
