<?xml version="1.0" encoding="iso-8859-1"?>
<!-- Generator: Adobe Illustrator 23.0.1, SVG Export Plug-In . SVG Version: 6.00 Build 0)  -->
<svg version="1.1" id="Layer_1" xmlns="http://www.w3.org/2000/svg" xmlns:xlink="http://www.w3.org/1999/xlink" x="0px" y="0px"
	 viewBox="0 0 512 512" style="enable-background:new 0 0 512 512;" xml:space="preserve">
<g>
	<path style="fill:#010101;" d="M92.944,318.855c-0.376-19.223,2.553-39.457,7.181-59.519c1.89-8.194,2.328-16.626,2.096-25.008
		c-1.156-41.739-12.303-80.796-31.891-117.557c-1.009-1.893-2.545-3.234-3.994-4.687c-0.716-0.718-0.937-1.462-1.093-2.463
		c-0.784-5.035,1.274-8.494,4.845-12.057c20.618-20.568,40.969-41.404,61.383-62.176c0.854-0.869,1.719-1.114,2.903-1.232
		c4.51-0.451,8.329,0.949,12.309,3.088c29.064,15.62,59.974,25.704,92.752,29.706c44.33,5.412,85.017-5.014,122.503-28.831
		c3.015-1.915,5.911-4.019,8.83-6.081c0.805-0.569,1.582-1.004,2.604-0.854c0.383,0.056,0.792,0.069,1.171,0
		c4.334-0.792,7.314,1.069,10.223,4.244c20.392,22.255,40.944,44.363,61.457,66.507c0.489,0.528,0.713,1.052,0.699,1.78
		c-0.044,2.179-0.037,4.36-0.003,6.54c0.011,0.702-0.203,1.295-0.496,1.909c-13.829,29.071-24.036,59.337-29.9,91.019
		c-2.291,12.381-3.782,24.87-3.94,37.471c-0.11,8.737,1.041,17.347,2.825,25.927c3.378,16.24,4.811,32.711,4.957,49.295
		c0.115,13.033-0.124,26.046-1.957,38.982c-3.142,22.18-9.616,43.167-22.902,61.516c-9.356,12.922-20.806,23.713-34.325,32.337
		c-5.831,3.719-11.402,7.846-17.492,11.168c-21.324,11.632-44.031,18.733-68.292,20.474c-20.846,1.496-41.544,0.608-61.896-4.725
		c-19.883-5.21-38.444-13.462-55.665-24.595c-32.191-20.811-52.252-50.184-60.76-87.478
		C93.834,349.345,92.944,338.747,92.944,318.855z M109.742,319.627c0.005,4.576,0.241,8.592,0.578,12.603
		c1.6,19.043,6.108,37.319,14.427,54.587c1.167,2.421,1.171,2.418,3.165,0.695C223.109,305.256,318.305,223,413.514,140.757
		c0.832-0.719,1.419-1.512,1.787-2.55c3.449-9.737,7.367-19.286,11.668-28.675c0.432-0.944,0.412-1.512-0.323-2.305
		c-16.844-18.15-33.665-36.322-50.453-54.524c-0.823-0.892-1.292-0.919-2.283-0.245c-30.345,20.647-63.9,31.483-100.558,32.729
		c-16.615,0.565-33.189,0.132-49.651-2.468c-29.6-4.675-57.645-14.031-84.154-27.992c-1.024-0.539-1.631-0.56-2.52,0.347
		c-16.553,16.885-33.143,33.734-49.757,50.559c-0.842,0.853-0.962,1.435-0.372,2.527c7.601,14.076,13.94,28.7,18.979,43.89
		c6.304,19.007,10.428,38.468,12.247,58.407c1.231,13.494,1.236,27.02,0.649,40.543c-0.261,6.023-0.736,12.044-2.131,17.949
		C112.663,285.797,110.125,302.842,109.742,319.627z M409.95,153.428c-0.496-0.116-0.724,0.157-0.96,0.385
		c-3.976,3.84-8.185,7.417-12.369,11.024c-5.281,4.553-10.531,9.143-15.809,13.7c-7.008,6.05-14.04,12.074-21.045,18.127
		c-6.205,5.361-12.38,10.756-18.582,16.122c-7.213,6.241-14.444,12.461-21.66,18.699c-5.191,4.487-10.363,8.995-15.556,13.479
		c-7.092,6.124-14.201,12.229-21.294,18.352c-5.236,4.52-10.451,9.063-15.687,13.583c-7.81,6.743-15.637,13.467-23.445,20.213
		c-5.361,4.632-10.692,9.299-16.052,13.932c-7.09,6.127-14.199,12.231-21.292,18.354c-5.236,4.52-10.454,9.061-15.69,13.581
		c-7.811,6.742-15.637,13.467-23.445,20.214c-5.36,4.632-10.686,9.306-16.052,13.931c-6.759,5.827-13.546,11.622-20.317,17.436
		c-0.889,0.763-0.979,1.667-0.39,2.66c4.394,7.417,9.444,14.357,15.263,20.717c5.346,5.844,11.551,10.643,18.22,14.904
		c15.17,9.691,31.113,17.738,48.314,23.182c15.384,4.869,31.073,7.866,47.269,7.933c6.313,0.026,12.569-0.597,18.786-1.516
		c11.164-1.649,22.069-4.387,32.69-8.243c9.627-3.495,18.864-7.801,27.744-12.902c4.849-2.786,9.252-6.246,13.987-9.172
		c11.326-6.999,20.932-15.69,28.235-26.888c8.48-13.003,14.229-27.145,17.776-42.206c2.045-8.681,3.457-17.468,4.137-26.377
		c0.507-6.651,1.034-13.297,0.759-19.969c-0.278-6.734-0.744-13.456-1.483-20.162c-0.793-7.2-1.917-14.344-3.205-21.466
		c-0.674-3.724-1.809-7.361-2.16-11.145c-0.637-6.874-0.952-13.756-0.768-20.667c0.178-6.681-0.142-13.361,0.349-20.05
		c0.649-8.839,1.674-17.624,3.191-26.344c2.313-13.298,5.488-26.399,9.443-39.309C409.265,156.192,409.888,154.871,409.95,153.428z"
		/>
	<path style="fill:#FDEB23;" d="M109.742,319.627c0.383-16.785,2.921-33.83,6.902-50.678c1.395-5.904,1.869-11.925,2.131-17.949
		c0.586-13.522,0.582-27.049-0.649-40.543c-1.819-19.939-5.943-39.4-12.247-58.407c-5.039-15.191-11.377-29.815-18.979-43.89
		c-0.59-1.093-0.471-1.674,0.372-2.527c16.614-16.825,33.204-33.673,49.757-50.559c0.889-0.906,1.496-0.886,2.52-0.347
		c26.509,13.961,54.554,23.317,84.154,27.992c16.462,2.6,33.036,3.033,49.651,2.468c36.658-1.246,70.213-12.082,100.558-32.729
		c0.991-0.674,1.46-0.647,2.283,0.245c16.788,18.202,33.608,36.374,50.453,54.524c0.735,0.792,0.755,1.361,0.323,2.305
		c-4.301,9.39-8.219,18.938-11.668,28.675c-0.368,1.038-0.955,1.831-1.787,2.55C318.305,223,223.109,305.256,127.911,387.512
		c-1.994,1.723-1.998,1.726-3.165-0.695c-8.319-17.268-12.827-35.544-14.427-54.587
		C109.983,328.219,109.747,324.203,109.742,319.627z M311.392,183.806c0.04,0.032,0.076,0.069,0.121,0.092
		c0.01,0.005,0.046-0.037,0.069-0.058c-0.07,0.002-0.14,0.004-0.21,0.007c0.338-1.445-0.615-2.125-1.666-2.666
		c-1.429-0.735-2.705-0.41-3.751,0.813c-0.941-1.68-1.673-2.084-3.576-2.294c-2.681-0.296-5.029,0.801-7.453,1.626
		c-2.573,0.876-5.155,1.649-7.722-0.255c0.37,5.834,0.37,5.834-2.662,11.023c-0.169,0.289-0.404,0.557-0.5,0.868
		c-0.704,2.286-1.25,4.591,0.748,6.539c0.713,0.695-0.077,0.831-0.306,1.135c-1.319,1.746-0.904,4.034,0.962,5.026
		c0.402,0.214,0.877,0.686,0.953-0.365c0.239-3.32,1.174-4.147,4.479-4.16c4.448-0.018,4.429-0.021,5.035-4.39
		c0.119-0.859,0.027-1.217-0.97-1.151c-1.614,0.108-3.24,0.036-4.859,0.099c-0.847,0.033-1.175-0.222-1.172-1.128
		c0.005-1.321,0.529-2.373,1.344-3.331c0.817-0.961,1.448-2.009,1.35-3.319c-0.068-0.916,0.325-1.195,1.172-1.101
		c1.378,0.153,2.643-0.069,3.75-1.02c0.464-0.398,1.114-0.495,1.746-0.486c2.193,0.031,2.614,0.516,2.331,2.674
		c-0.545,4.153-1.114,8.304-1.611,12.463c-0.11,0.921-0.535,1.52-1.204,2.086c-3.838,3.242-7.684,6.477-11.463,9.789
		c-0.892,0.782-1.328,0.708-2.079-0.167c-5.391-6.272-10.834-12.499-16.274-18.729c-0.27-0.309-0.417-0.821-1.065-0.79
		c-0.737,3.188-1.438,6.394-2.238,9.575c-0.23,0.913,0.079,1.025,0.853,1.059c0.861,0.038,1.842-0.313,2.547,0.452
		c0.974,1.055,1.89,2.163,2.891,3.318c-0.36,0.173-0.551,0.271-0.748,0.358c-6.92,3.066-9.246,11.483-4.737,17.551
		c1.862,2.506,4.056,4.762,6.012,7.201c0.739,0.921,1.179,0.914,2.064,0.145c9.57-8.319,19.153-16.625,28.813-24.84
		c1.53-1.301,2.501-2.636,2.287-4.644c-0.16-1.503,0.546-1.751,1.858-1.613c1.596,0.168,3.028,0.053,4.44-1.206
		c9.382-8.365,18.862-16.62,28.348-24.867c0.869-0.756,0.941-1.163,0.158-2.048c-4.74-5.356-9.409-10.776-14.118-16.16
		c-0.262-0.299-0.4-0.836-1.042-0.748c-0.497,3.113-2.673,5.31-4.279,7.839c-4.35,6.853-4.612,11.467,0.525,17.138
		c0.632,0.698,0.489,0.994-0.134,1.538c-4.627,4.041-9.217,8.125-13.837,12.174c-0.438,0.383-0.769,0.975-1.569,1.017
		c0.462-3.072,0.836-6.119,1.4-9.131C306.876,184.209,308.859,183.125,311.392,183.806z M254.383,98.265
		c-1.973-0.116-3.877,0.387-5.805,0.658c-17.191,2.412-34.382,4.83-51.567,7.287c-0.939,0.134-1.417-0.064-1.849-0.904
		c-1.463-2.846-3.279-5.464-5.46-7.807c-0.569-0.612-0.671-1.151-0.471-1.94c0.575-2.273,1.097-4.561,1.562-6.858
		c0.398-1.969,1.062-3.896,1.225-6.135c-3.844,2.019-7.462,3.89-11.047,5.823c-0.783,0.422-1.372,0.419-2.143-0.043
		c-5.014-3.003-10.457-4.769-16.269-5.311c-9.272-0.863-18.256,0.157-26.376,5.059c-16.661,10.057-23.58,25.904-21.145,44.344
		c0.368,2.789,2.127,5.41,1.338,8.275c-0.769,2.79-1.943,5.469-2.943,8.195c-1.165,3.176-2.335,6.349-3.637,9.889
		c0.814-0.478,1.284-0.742,1.741-1.024c3.376-2.083,6.773-4.134,10.108-6.281c0.858-0.553,1.255-0.46,1.885,0.311
		c2.59,3.168,5.438,6.105,8.799,8.454c1.166,0.815,1.353,1.639,1.202,2.933c-0.801,6.875-1.511,13.76-2.256,20.642
		c-0.943,8.713-1.891,17.425-2.832,26.138c-0.605,5.595-1.202,11.191-1.812,16.871c0.674-0.504,0.701-1.226,0.917-1.833
		c6.679-18.786,13.351-37.574,19.99-56.373c0.36-1.02,0.746-1.404,1.911-1.163c2.02,0.417,4.093,0.69,6.161,0.531
		c1.242-0.095,1.883,0.332,2.455,1.43c7.025,13.475,14.099,26.925,21.164,40.38c1.468,2.796,2.95,5.584,4.653,8.808
		c0-0.788,0.036-1.054-0.005-1.307c-2.817-17.13-5.629-34.262-8.493-51.385c-0.177-1.06-0.05-1.611,0.981-2.072
		c1.993-0.89,3.868-2.03,5.578-3.383c0.938-0.742,1.599-0.732,2.602-0.064c12.324,8.21,24.682,16.371,37.039,24.531
		c0.426,0.282,0.794,0.75,1.505,0.746c-0.208-0.279-0.33-0.462-0.471-0.628c-9.663-11.438-19.319-22.881-29.009-34.295
		c-0.677-0.798-0.837-1.33-0.196-2.274c1-1.472,1.859-3.059,2.602-4.679c0.497-1.082,1.074-1.457,2.289-1.348
		c8.397,0.753,16.802,1.411,25.201,2.134c13.323,1.147,26.645,2.32,40.019,3.486c-0.221-0.557-0.683-0.49-1.033-0.603
		c-4.465-1.439-8.934-2.864-13.402-4.294c-15.904-5.088-31.804-10.188-47.718-15.242c-1.087-0.345-1.528-0.804-1.48-1.983
		c0.065-1.612,0.001-3.246-0.195-4.848c-0.167-1.358,0.307-1.931,1.577-2.412c14.887-5.634,29.754-11.323,44.613-17.031
		c2.845-1.093,5.788-1.949,8.478-3.426c0.108-0.014,0.216-0.028,0.325-0.043c-0.026-0.047-0.051-0.093-0.077-0.14
		C254.535,98.129,254.459,98.197,254.383,98.265z M187.002,285.303c-0.729-1.814-2.18-2.181-3.825-2.312
		c-2.259-0.181-4.275,0.63-6.329,1.353c-2.83,0.996-5.667,2.112-8.823-0.076c1.109,3.925,0.297,7.115-1.762,10.06
		c-0.414,0.593-0.809,1.219-1.087,1.883c-0.881,2.104-1.14,4.274,0.289,6.202c0.524,0.707,0.685,0.916,0.078,1.656
		c-1.614,1.969-0.636,4.482,1.873,5.092c0.145-3.882,1.023-4.71,4.994-4.709c0.95,0,1.902-0.032,2.85,0.011
		c0.669,0.03,0.966-0.197,1.151-0.875c1.248-4.575,1.11-4.777-3.495-4.615c-0.167,0.006-0.335,0.018-0.502,0.021
		c-2.541,0.058-3.091-0.834-1.917-3.165c0.248-0.492,0.58-0.954,0.935-1.378c0.778-0.93,1.338-1.955,1.266-3.189
		c-0.061-1.04,0.46-1.215,1.32-1.134c1.254,0.118,2.386-0.075,3.443-0.925c1.04-0.836,2.292-0.656,3.521-0.248
		c0.685,0.228,0.974,0.482,0.859,1.295c-0.644,4.534-1.238,9.075-1.795,13.621c-0.105,0.858-0.509,1.402-1.128,1.935
		c-4.657,4.011-9.324,8.012-13.91,12.103c-1.001,0.893-1.424,0.661-2.193-0.229c-8.183-9.471-16.409-18.906-24.635-28.34
		c-0.256-0.293-0.393-0.824-1.067-0.725c-0.279,4.05-0.557,8.089-0.84,12.204c0.523-0.076,0.868-0.073,1.176-0.18
		c1.638-0.567,2.699,0.026,3.819,1.333c7.087,8.276,14.294,16.449,21.396,24.713c0.901,1.048,1.373,0.921,2.301,0.105
		c6.041-5.314,12.086-10.626,18.241-15.807c1.651-1.39,2.803-2.781,2.544-5.018c-0.153-1.32,0.523-1.512,1.684-1.481
		c1.33,0.035,2.708,0.465,3.966-0.647c4.059-3.587,8.224-7.053,12.307-10.614c11.202-9.768,22.392-19.551,33.555-29.363
		c0.839-0.737,1.274-0.825,2.093,0.055c2.489,2.676,5.439,3.599,8.918,1.929c0.499-0.24,1.043-0.398,1.58-0.547
		c2.712-0.749,2.707-0.747,3.798-3.208c0.225-0.508,0.474-1.021,0.803-1.464c2.188-2.951,1.626-5.749-0.587-8.44
		c-4.47-5.436-9.207-10.652-13.803-15.985c-0.519-0.602-0.824-0.674-1.447-0.128c-6.215,5.456-12.514,10.818-18.664,16.346
		c-2.565,2.305-3.543,5.356-2.881,8.833c0.063,0.333,0.29,0.697-0.079,1.186c-1.92-2.185-3.785-4.308-5.903-6.719
		c0.643,3.973,0.432,5.398-1.624,11.499c3.326-1.478,4.708,0.952,6.346,2.883c0.325,0.384,0.628,0.795,0.999,1.129
		c0.654,0.589,0.582,0.967-0.094,1.562c-1.924,1.691-4.014,3.207-5.665,5.196c-0.636,0.766-1.102,0.773-1.81-0.068
		c-2.841-3.378-5.77-6.682-8.68-10.002c-0.259-0.295-0.415-0.777-1.021-0.78c-0.281,3.672-0.517,7.285-0.855,10.888
		c-0.12,1.278,0.343,1.639,1.472,1.277c1.333-0.428,2.216,0.088,2.945,1.173c0.371,0.552,0.823,1.072,1.322,1.511
		c0.872,0.768,0.643,1.251-0.169,1.941c-5.703,4.849-11.36,9.752-17.041,14.627c-0.274,0.236-0.472,0.647-0.948,0.566
		c-0.033-0.108-0.104-0.216-0.09-0.312c0.374-2.654,0.764-5.306,1.137-7.961c0.194-1.381,0.714-2.572,1.869-3.427
		c1.076-0.797,2.223-0.823,3.482-0.074C192.016,284.148,189.456,283.247,187.002,285.303z M323.829,126.528
		c-0.485,0.025-0.369,0.374-0.387,0.61c-0.268,3.565-0.505,7.133-0.802,10.696c-0.08,0.966,0.362,1.09,1.069,0.805
		c1.844-0.743,2.905,0.18,4.057,1.522c6.953,8.099,14.012,16.106,20.962,24.207c1.008,1.175,1.526,1.357,2.784,0.247
		c9.091-8.025,18.276-15.944,27.402-23.93c0.873-0.764,1.437-0.946,2.501-0.176c2.846,2.058,7.013,2.031,9.688,0.061
		c-2.55-0.364-4.817-1.178-6.836-2.647c-0.849-0.618-1.107-1.026-0.113-1.805c1.626-1.273,3.117-2.717,4.709-4.035
		c0.673-0.557,0.925-0.963,0.197-1.706c-1.054-1.075-2.029-2.235-2.973-3.41c-0.509-0.634-0.87-0.638-1.465-0.098
		c-1.739,1.576-3.571,3.05-5.282,4.655c-0.769,0.722-1.291,0.713-2.106,0.081c-2.168-1.683-4.499-3.133-7.11-4.03
		c-5.354-1.839-9.898-0.153-13.863,3.475c-3.025,2.767-6.422,4.395-10.59,4.179c-0.062-0.003-0.132,0.138-0.266,0.289
		c1.389,1.585,2.74,3.217,4.191,4.754c1.349,1.428,2.596,1.553,4.388,0.618c1.551-0.809,2.848-1.962,4.158-3.095
		c1.731-1.499,3.414-3.055,5.415-4.21c3.583-2.067,6.832-1.816,10.132,0.658c1.036,0.777,1.22,1.163,0.111,2.113
		c-7.467,6.401-14.899,12.845-22.258,19.369c-1.181,1.047-1.653,0.801-2.551-0.24C340.628,145.799,332.212,136.159,323.829,126.528z
		 M139.754,328.295c-0.419-1.826-1.209-3.001-2.58-3.203c-1.034-0.152-1.035-0.632-1.078-1.407c-0.144-2.58-2.393-5.439-4.642-5.477
		c1.808,2.537,1.788,3.803-0.072,6.316c-0.733,0.99-1.509,1.933-2.432,2.758c-0.365,0.326-0.721,0.721-0.928,1.157
		c-2.125,4.481-0.406,8.989,4.168,10.938c2.231,0.951,4.558,1.386,7.027,1.031c-2.374,7.039-1.57,11.151,2.746,13.818
		c-0.095-0.351-0.155-0.608-0.233-0.859c-1.314-4.219-0.39-7.776,3.051-10.652c2.142-1.791,4.215-3.665,6.324-5.495
		c3.294-2.858,3.275-2.837,0.306-6.065c-0.585-0.636-0.923-0.709-1.57-0.11c-1.516,1.403-3.116,2.715-4.66,4.089
		c-2.677,2.383-5.717,2.605-8.908,1.386c-3.079-1.176-3.571-4.757-1.047-6.883C136.543,328.526,138.092,328.242,139.754,328.295z
		 M249.865,196.537c-3.438-0.154-3.438-0.154-3.548,3.19c-0.108,3.277-0.108,3.277,3.167,3.538c3.334,0.266,3.334,0.266,3.522-3.078
		c0.192-3.419,0.192-3.419,3.559-3.143c3.338,0.274,3.338,0.274,3.484-3.056c0.147-3.363,0.147-3.363-3.226-3.702
		c-3.337-0.336-3.337-0.336-3.454,3.012C253.249,196.689,253.249,196.689,249.865,196.537z M187.585,257.865
		c0.111-2.142,0.465-1.71-2.3-1.958c-1.163-0.104-2.338-0.13-3.488-0.311c-1.117-0.176-1.46,0.239-1.475,1.314
		c-0.022,1.555-0.119,3.116-0.31,4.659c-0.125,1.016,0.143,1.401,1.194,1.411c1.499,0.014,3.006,0.103,4.494,0.284
		c1.12,0.137,1.643-0.122,1.619-1.353C187.294,260.748,187.461,259.581,187.585,257.865z M379.456,153.262
		c-3.364-0.095-3.364-0.095-3.528,3.353c-0.003,0.055-0.012,0.111-0.015,0.166c-0.159,3.141-0.159,3.141,2.886,3.367
		c3.538,0.263,3.538,0.263,3.852-3.243C382.969,153.361,382.969,153.361,379.456,153.262z"/>
	<path style="fill:#007302;" d="M409.95,153.428c-0.062,1.443-0.685,2.764-1.097,4.111c-3.955,12.911-7.13,26.011-9.443,39.309
		c-1.517,8.72-2.542,17.505-3.191,26.344c-0.491,6.689-0.171,13.37-0.349,20.05c-0.184,6.911,0.131,13.793,0.768,20.667
		c0.351,3.784,1.486,7.421,2.16,11.145c1.289,7.123,2.412,14.267,3.205,21.466c0.739,6.705,1.205,13.427,1.483,20.162
		c0.275,6.672-0.252,13.318-0.759,19.969c-0.679,8.909-2.092,17.696-4.137,26.377c-3.547,15.061-9.297,29.203-17.776,42.206
		c-7.303,11.198-16.909,19.888-28.235,26.888c-4.735,2.926-9.139,6.387-13.987,9.172c-8.88,5.101-18.117,9.408-27.744,12.902
		c-10.621,3.856-21.526,6.594-32.69,8.243c-6.217,0.918-12.473,1.542-18.786,1.516c-16.196-0.068-31.885-3.064-47.269-7.933
		c-17.201-5.444-33.144-13.491-48.314-23.182c-6.67-4.261-12.874-9.06-18.22-14.904c-5.818-6.361-10.869-13.3-15.263-20.717
		c-0.589-0.994-0.499-1.897,0.39-2.66c6.771-5.814,13.557-11.609,20.317-17.436c5.366-4.626,10.691-9.299,16.052-13.931
		c7.807-6.747,15.634-13.471,23.445-20.214c5.236-4.52,10.454-9.061,15.69-13.581c7.093-6.123,14.203-12.227,21.292-18.354
		c5.36-4.633,10.691-9.299,16.052-13.932c7.808-6.746,15.634-13.47,23.445-20.213c5.236-4.52,10.451-9.063,15.687-13.583
		c7.093-6.123,14.202-12.228,21.294-18.352c5.193-4.484,10.366-8.993,15.556-13.479c7.216-6.237,14.447-12.458,21.66-18.699
		c6.201-5.365,12.377-10.76,18.582-16.122c7.005-6.053,14.037-12.077,21.045-18.127c5.278-4.557,10.528-9.147,15.809-13.7
		c4.184-3.607,8.393-7.184,12.369-11.024C409.226,153.585,409.454,153.312,409.95,153.428z M258.406,315.477
		c-1.879-1.881-3.448-3.391-4.938-4.975c-0.629-0.669-1.284-0.932-2.197-0.931c-2.96,0.003-5.926,0.015-8.878-0.165
		c-1.954-0.119-2.135-0.108-2.132,1.854c0.027,19.343,0.058,38.686,0.088,58.029c0.001,0.335-0.009,0.672,0.011,1.006
		c0.054,0.886,0.547,1.379,1.419,1.259c3.228-0.445,6.472-0.154,9.706-0.263c0.601-0.02,1.164,0.053,1.537-0.688
		c1.195-2.375,3.602-3.467,5.712-5.537c0,2.133,0.016,3.788-0.007,5.441c-0.011,0.843,0.201,1.519,1.19,1.395
		c3.675-0.461,7.366-0.187,11.048-0.305c0.399-0.013,0.95-0.022,1.003-0.429c0.205-1.553,1.55-2.14,2.522-2.951
		c1.152-0.961,2.12-2.231,3.74-2.944c0,2.664,0.065,5.067-0.024,7.464c-0.053,1.435,0.387,2.019,1.898,1.944
		c3.733-0.187,7.473-0.256,11.21-0.367c1.377-0.041,3.013,0.439,3.247-1.764c0.027-0.258,0.435-0.49,0.687-0.709
		c1.687-1.462,3.377-2.92,5.073-4.371c0.238-0.203,0.483-0.589,0.832-0.318c0.161,0.126,0.178,0.497,0.18,0.758
		c0.013,2.18,0.05,4.362-0.008,6.54c-0.038,1.412,0.623,1.969,1.938,1.819c4.846-0.552,9.711-0.185,14.565-0.31
		c1.293-0.033,2.401-0.078,2.332-1.801c-0.018-0.442,0.387-0.631,0.686-0.886c1.357-1.16,2.634-2.425,4.06-3.492
		c1.157-0.866,2.024-2.166,3.604-2.646c0,3.548,0.032,6.957-0.015,10.364c-0.02,1.43,0.68,1.969,1.966,1.777
		c1.165-0.174,2.325-0.251,3.498-0.255c3.801-0.013,7.603-0.046,11.404-0.056c0.816-0.002,1.804-0.013,1.839-0.983
		c0.04-1.104,0.74-1.566,1.385-2.132c2.138-1.877,4.277-3.756,6.475-5.561c0.686-0.563,0.908-1.157,0.92-2.005
		c0.109-7.763-0.052-15.525,0.266-23.291c0.284-6.922,0.085-13.862,0.166-20.794c0.014-1.175-0.367-1.845-1.407-2.36
		c-2.251-1.115-4.453-2.332-6.674-3.507c-0.486-0.257-1.037-0.431-1.034-1.157c0.012-3.221,0.005-6.441,0.005-9.964
		c2.861,1.608,5.486,3.051,8.076,4.555c1.184,0.688,1.63,0.571,1.611-0.933c-0.044-3.577-0.113-7.167,0.152-10.727
		c0.111-1.493-0.338-2.362-1.289-3.317c-2.759-2.77-5.491-5.569-8.14-8.444c-0.849-0.922-1.725-1.181-2.925-1.208
		c-4.91-0.107-9.831,0.258-14.732-0.301c-1.347-0.154-1.926,0.488-1.901,1.865c0.025,1.396,0.195,2.815,0.177,3.795
		c-2.488-2.447-5.162-4.661-7.659-7.059c-0.977-0.939-1.896-1.296-3.218-1.321c-4.855-0.09-9.719,0.256-14.565-0.298
		c-1.343-0.154-1.914,0.481-1.9,1.86c0.054,5.311,0.051,10.622,0.045,15.933c-0.001,0.452,0.238,0.986,0.136,0.978
		c-2.126-1.969-4.306-3.878-6.47-5.806c-0.496-0.442-0.883-0.977-1.677-0.945c-4.47,0.182-8.925-0.296-13.391-0.368
		c-1.45-0.023-1.81,0.572-1.79,1.902c0.065,4.248,0.046,8.497,0.032,12.746c-0.001,0.386,0.253,0.874-0.041,1.065
		c-1.757-1.672-3.501-3.247-5.137-4.928c-0.732-0.751-1.483-1.017-2.506-1.018c-3.239-0.004-6.482-0.029-9.716-0.195
		c-1.776-0.091-2.062,0.024-2.066,1.834C258.402,309.593,258.406,312.312,258.406,315.477z M270.137,420.67
		c-0.259-1.685-0.722-3.314-1.328-4.899c-1.535-4.016-3.134-7.991-6.103-11.244c-0.698-0.765-0.987-0.689-1.371,0.171
		c-0.615,1.374-1.221,2.755-1.919,4.086c-0.411,0.784-0.301,1.342,0.327,1.913c0.368,0.335,0.668,0.748,0.975,1.144
		c4.112,5.302,6.373,11.445,8.094,17.833c0.336,1.247,0.684,2.49,1.122,4.083c0.825-2.669,1.566-4.942,2.23-7.237
		c1.359-4.696,3.065-9.371,6.199-13.051c2.596-3.048,2.731-5.428,0.619-8.539c-0.805-1.185-0.97-1.038-1.731-0.069
		C273.586,409.527,271.557,414.888,270.137,420.67z M251.738,433.73c1.299-1.679,2.397-3.152,3.556-4.576
		c0.643-0.79,0.669-1.445,0.161-2.377c-2.667-4.885-3.83-10.189-4.11-15.707c-0.09-1.779-0.631-3.381-1.642-4.839
		c-1.869-2.694-4.943-2.796-6.763-0.07c-1.797,2.692-3.324,5.54-4.004,8.775c-0.692,3.293,1.436,6.13,4.824,6.397
		c1.49,0.117,2.619-0.151,3.112-1.779c0.231-0.762,0.686-1.457,1.201-2.512C248.033,423.041,249.127,428.392,251.738,433.73z
		 M229.006,433.098c1.768-3.708,3.154-7.097,2.828-10.807c-0.434-4.945-1.445-9.801-3.484-14.369
		c-0.704-1.576-1.528-3.121-2.835-4.477c-0.778,1.606-1.379,3.05-2.156,4.392c-0.718,1.239-0.678,2.331-0.047,3.59
		C226.658,418.109,228.673,425.158,229.006,433.098z M296.341,419.277c-0.169-0.242-0.271-0.436-0.417-0.59
		c-1.45-1.538-2.918-3.06-4.357-4.608c-0.601-0.647-1.088-0.567-1.67,0.038c-1.351,1.406-2.721,2.796-4.126,4.148
		c-0.697,0.671-0.605,1.171,0.056,1.798c1.373,1.305,2.719,2.64,4.026,4.012c0.663,0.696,1.169,0.635,1.804-0.02
		c1.318-1.361,2.683-2.675,4.023-4.015C295.906,419.812,296.103,419.554,296.341,419.277z"/>
	<path style="fill:#FC2602;" d="M254.364,98.243c-2.69,1.478-5.634,2.334-8.478,3.427c-14.859,5.708-29.726,11.397-44.613,17.031
		c-1.27,0.481-1.743,1.054-1.577,2.412c0.197,1.602,0.26,3.236,0.195,4.848c-0.047,1.179,0.393,1.638,1.48,1.983
		c15.915,5.054,31.815,10.153,47.718,15.242c4.468,1.43,8.937,2.855,13.402,4.294c0.349,0.113,0.811,0.046,1.033,0.603
		c-13.374-1.166-26.696-2.34-40.019-3.486c-8.399-0.723-16.804-1.381-25.201-2.134c-1.215-0.109-1.792,0.265-2.289,1.348
		c-0.743,1.619-1.602,3.207-2.602,4.679c-0.641,0.944-0.482,1.476,0.196,2.274c9.69,11.415,19.346,22.858,29.009,34.295
		c0.141,0.167,0.263,0.35,0.471,0.628c-0.711,0.004-1.079-0.464-1.505-0.746c-12.358-8.16-24.715-16.321-37.039-24.531
		c-1.004-0.669-1.664-0.678-2.602,0.064c-1.71,1.353-3.586,2.494-5.578,3.383c-1.031,0.46-1.158,1.012-0.981,2.072
		c2.865,17.123,5.676,34.254,8.493,51.385c0.042,0.253,0.005,0.519,0.005,1.307c-1.703-3.224-3.185-6.012-4.653-8.808
		c-7.065-13.455-14.139-26.904-21.164-40.38c-0.572-1.098-1.213-1.525-2.455-1.43c-2.068,0.159-4.141-0.114-6.161-0.531
		c-1.165-0.241-1.55,0.143-1.911,1.163c-6.64,18.799-13.311,37.588-19.99,56.373c-0.216,0.608-0.242,1.329-0.917,1.833
		c0.61-5.679,1.207-11.275,1.812-16.871c0.942-8.713,1.889-17.425,2.832-26.138c0.745-6.881,1.455-13.767,2.256-20.642
		c0.151-1.294-0.036-2.118-1.202-2.933c-3.361-2.349-6.209-5.286-8.799-8.454c-0.631-0.771-1.027-0.864-1.885-0.311
		c-3.335,2.147-6.732,4.198-10.108,6.281c-0.458,0.282-0.927,0.546-1.741,1.024c1.302-3.539,2.472-6.713,3.637-9.889
		c1-2.726,2.174-5.405,2.943-8.195c0.79-2.866-0.969-5.486-1.338-8.275c-2.434-18.441,4.485-34.287,21.145-44.344
		c8.12-4.902,17.104-5.922,26.376-5.059c5.812,0.541,11.255,2.307,16.269,5.311c0.771,0.462,1.36,0.465,2.143,0.043
		c3.585-1.933,7.203-3.805,11.047-5.823c-0.162,2.239-0.826,4.166-1.225,6.135c-0.465,2.298-0.987,4.586-1.562,6.858
		c-0.2,0.789-0.098,1.329,0.471,1.94c2.181,2.343,3.997,4.961,5.46,7.807c0.432,0.84,0.91,1.039,1.849,0.904
		c17.185-2.457,34.376-4.875,51.567-7.287c1.928-0.27,3.832-0.774,5.805-0.658L254.364,98.243z M194.414,125.349
		c-0.948-20.722-15.833-36.88-37.139-36.866c-21.637,0.014-37.018,16.547-36.949,37.028c0.07,20.715,15.635,36.882,36.944,36.867
		C178.929,162.362,193.598,145.825,194.414,125.349z"/>
	<path style="fill:#040402;" d="M187.002,285.303c2.454-2.056,5.014-1.154,5.662,2.045c-1.259-0.749-2.406-0.722-3.482,0.074
		c-1.156,0.856-1.675,2.046-1.869,3.427c-0.373,2.654-0.762,5.306-1.137,7.961c-0.014,0.096,0.057,0.204,0.09,0.312
		c0.476,0.081,0.673-0.33,0.948-0.566c5.68-4.876,11.338-9.778,17.041-14.627c0.812-0.69,1.041-1.173,0.169-1.941
		c-0.499-0.439-0.951-0.959-1.322-1.511c-0.73-1.084-1.613-1.601-2.945-1.173c-1.129,0.363-1.592,0.002-1.472-1.277
		c0.338-3.603,0.574-7.216,0.855-10.888c0.606,0.003,0.763,0.485,1.021,0.78c2.91,3.32,5.838,6.624,8.68,10.002
		c0.708,0.841,1.174,0.834,1.81,0.068c1.651-1.989,3.741-3.505,5.665-5.196c0.676-0.594,0.748-0.973,0.094-1.562
		c-0.371-0.334-0.674-0.746-0.999-1.129c-1.638-1.931-3.019-4.361-6.346-2.883c2.056-6.101,2.267-7.526,1.624-11.499
		c2.118,2.411,3.984,4.534,5.903,6.719c0.369-0.49,0.142-0.853,0.079-1.186c-0.662-3.477,0.316-6.528,2.881-8.833
		c6.15-5.528,12.449-10.89,18.664-16.346c0.622-0.546,0.928-0.474,1.447,0.128c4.597,5.333,9.333,10.549,13.803,15.985
		c2.213,2.691,2.774,5.489,0.587,8.44c-0.329,0.443-0.578,0.956-0.803,1.464c-1.091,2.461-1.085,2.458-3.798,3.208
		c-0.537,0.148-1.081,0.307-1.58,0.547c-3.479,1.67-6.429,0.746-8.918-1.929c-0.819-0.88-1.254-0.792-2.093-0.055
		c-11.164,9.812-22.353,19.595-33.555,29.363c-4.083,3.56-8.249,7.026-12.307,10.614c-1.258,1.112-2.635,0.682-3.966,0.647
		c-1.162-0.031-1.838,0.161-1.684,1.481c0.26,2.237-0.892,3.628-2.544,5.018c-6.155,5.181-12.2,10.493-18.241,15.807
		c-0.927,0.816-1.4,0.943-2.301-0.105c-7.102-8.264-14.309-16.437-21.396-24.713c-1.12-1.308-2.181-1.9-3.819-1.333
		c-0.308,0.106-0.653,0.104-1.176,0.18c0.283-4.115,0.561-8.154,0.84-12.204c0.673-0.098,0.811,0.432,1.067,0.725
		c8.227,9.434,16.452,18.868,24.635,28.34c0.769,0.89,1.191,1.123,2.193,0.229c4.587-4.091,9.253-8.091,13.91-12.103
		c0.619-0.533,1.023-1.078,1.128-1.935c0.557-4.545,1.151-9.087,1.795-13.621c0.115-0.813-0.174-1.068-0.859-1.295
		c-1.229-0.409-2.481-0.588-3.521,0.248c-1.058,0.85-2.189,1.043-3.443,0.925c-0.86-0.081-1.381,0.094-1.32,1.134
		c0.072,1.234-0.488,2.259-1.266,3.189c-0.355,0.424-0.687,0.885-0.935,1.378c-1.173,2.332-0.623,3.223,1.917,3.165
		c0.168-0.004,0.335-0.016,0.502-0.021c4.605-0.162,4.743,0.04,3.495,4.615c-0.185,0.678-0.482,0.906-1.151,0.875
		c-0.948-0.043-1.9-0.011-2.85-0.011c-3.972,0-4.85,0.828-4.994,4.709c-2.508-0.61-3.486-3.123-1.873-5.092
		c0.607-0.741,0.445-0.95-0.078-1.656c-1.429-1.928-1.169-4.099-0.289-6.202c0.278-0.664,0.673-1.29,1.087-1.883
		c2.059-2.945,2.871-6.135,1.762-10.06c3.156,2.188,5.993,1.071,8.823,0.076c2.054-0.722,4.07-1.533,6.329-1.353
		C184.822,283.122,186.273,283.489,187.002,285.303z M222.175,267.96c0.773-0.644,1.246-1.023,1.702-1.42
		c4.634-4.03,9.281-8.045,13.882-12.112c0.74-0.655,1.144-0.775,1.811,0.082c1.13,1.451,2.375,2.816,3.61,4.182
		c1.326,1.466,3.226,1.648,4.624,0.498c1.171-0.963,1.342-2.987,0.165-4.392c-2.723-3.253-5.551-6.417-8.312-9.638
		c-0.427-0.499-0.713-0.511-1.2-0.082c-4.771,4.211-9.626,8.329-14.319,12.624C221.125,260.46,221.424,264.044,222.175,267.96z"/>
	<path style="fill:#040402;" d="M311.391,183.808c-2.532-0.683-4.515,0.4-4.989,2.935c-0.563,3.012-0.938,6.059-1.4,9.131
		c0.8-0.042,1.131-0.634,1.569-1.017c4.621-4.049,9.21-8.133,13.837-12.174c0.623-0.544,0.766-0.841,0.134-1.538
		c-5.137-5.671-4.874-10.285-0.525-17.138c1.606-2.529,3.781-4.726,4.279-7.839c0.642-0.087,0.78,0.449,1.042,0.748
		c4.709,5.384,9.378,10.803,14.118,16.16c0.784,0.885,0.712,1.292-0.158,2.048c-9.485,8.248-18.966,16.503-28.348,24.867
		c-1.412,1.259-2.844,1.374-4.44,1.206c-1.313-0.138-2.018,0.11-1.858,1.613c0.214,2.009-0.757,3.343-2.287,4.644
		c-9.66,8.214-19.243,16.52-28.813,24.84c-0.885,0.769-1.325,0.776-2.064-0.145c-1.957-2.439-4.151-4.695-6.012-7.201
		c-4.508-6.068-2.183-14.485,4.737-17.551c0.196-0.087,0.387-0.185,0.748-0.358c-1.001-1.155-1.917-2.264-2.891-3.318
		c-0.705-0.764-1.686-0.414-2.547-0.452c-0.773-0.034-1.082-0.146-0.853-1.059c0.8-3.181,1.501-6.387,2.238-9.575
		c0.648-0.032,0.796,0.481,1.065,0.79c5.439,6.23,10.883,12.457,16.274,18.729c0.752,0.875,1.188,0.948,2.079,0.167
		c3.779-3.311,7.624-6.546,11.463-9.789c0.669-0.565,1.094-1.165,1.204-2.086c0.497-4.159,1.065-8.309,1.611-12.463
		c0.283-2.159-0.138-2.644-2.331-2.674c-0.632-0.009-1.283,0.088-1.746,0.486c-1.107,0.951-2.372,1.173-3.75,1.02
		c-0.847-0.094-1.24,0.186-1.172,1.101c0.098,1.311-0.532,2.358-1.35,3.319c-0.815,0.958-1.339,2.01-1.344,3.331
		c-0.004,0.907,0.324,1.161,1.172,1.128c1.619-0.064,3.244,0.009,4.859-0.099c0.997-0.067,1.09,0.291,0.97,1.151
		c-0.606,4.37-0.587,4.372-5.035,4.39c-3.305,0.013-4.239,0.84-4.479,4.16c-0.076,1.051-0.551,0.579-0.953,0.365
		c-1.866-0.992-2.281-3.28-0.962-5.026c0.229-0.303,1.019-0.44,0.306-1.135c-1.998-1.948-1.452-4.254-0.748-6.539
		c0.096-0.311,0.331-0.579,0.5-0.868c3.032-5.19,3.032-5.19,2.662-11.023c2.567,1.905,5.149,1.131,7.722,0.255
		c2.424-0.825,4.772-1.922,7.453-1.626c1.903,0.21,2.635,0.614,3.576,2.294c1.047-1.223,2.323-1.548,3.751-0.813
		c1.052,0.541,2.004,1.221,1.666,2.666L311.391,183.808z M269.495,218.583c-0.055,1.887,1.606,3.401,3.034,5.037
		c0.39,0.446,0.677,0.076,0.971-0.181c2.022-1.763,4.037-3.534,6.079-5.273c0.502-0.427,0.504-0.707,0.057-1.197
		c-1.391-1.529-2.748-3.092-4.069-4.682c-0.467-0.562-0.903-0.655-1.592-0.453C271.319,212.611,269.444,215.154,269.495,218.583z
		 M322.612,171.799c-0.025,2.735,1.032,4.374,2.539,5.809c0.417,0.397,0.712,0.334,1.114-0.024c1.583-1.408,3.178-2.804,4.798-4.169
		c0.494-0.417,0.54-0.706,0.093-1.205c-1.637-1.827-3.227-3.696-4.846-5.539c-0.228-0.26-0.471-0.764-0.881-0.182
		C324.16,168.287,322.406,169.854,322.612,171.799z"/>
	<path style="fill:#040402;" d="M323.829,126.528c8.382,9.632,16.798,19.271,25.162,28.957c0.898,1.04,1.37,1.287,2.551,0.24
		c7.359-6.524,14.791-12.968,22.258-19.369c1.109-0.951,0.925-1.336-0.111-2.113c-3.3-2.474-6.55-2.725-10.132-0.658
		c-2.002,1.155-3.684,2.711-5.415,4.21c-1.309,1.134-2.607,2.287-4.158,3.095c-1.792,0.935-3.038,0.81-4.388-0.618
		c-1.452-1.537-2.802-3.17-4.191-4.754c0.134-0.151,0.204-0.292,0.266-0.289c4.167,0.216,7.565-1.412,10.59-4.179
		c3.965-3.628,8.508-5.314,13.863-3.475c2.61,0.897,4.941,2.347,7.11,4.03c0.815,0.632,1.337,0.641,2.106-0.081
		c1.711-1.605,3.543-3.079,5.282-4.655c0.595-0.54,0.956-0.536,1.465,0.098c0.944,1.175,1.919,2.335,2.973,3.41
		c0.728,0.743,0.476,1.149-0.197,1.706c-1.592,1.318-3.083,2.762-4.709,4.035c-0.994,0.779-0.736,1.187,0.113,1.805
		c2.019,1.469,4.286,2.283,6.836,2.647c-2.675,1.969-6.842,1.997-9.688-0.061c-1.064-0.77-1.628-0.588-2.501,0.176
		c-9.126,7.986-18.311,15.905-27.402,23.93c-1.258,1.11-1.776,0.928-2.784-0.247c-6.95-8.101-14.009-16.109-20.962-24.207
		c-1.152-1.342-2.213-2.265-4.057-1.522c-0.707,0.285-1.15,0.161-1.069-0.805c0.297-3.563,0.533-7.13,0.802-10.696
		C323.46,126.902,323.344,126.553,323.829,126.528z"/>
	<path style="fill:#040402;" d="M139.754,328.295c-1.662-0.053-3.211,0.231-4.53,1.342c-2.524,2.126-2.032,5.707,1.047,6.883
		c3.191,1.219,6.231,0.996,8.908-1.386c1.544-1.374,3.143-2.686,4.66-4.089c0.647-0.598,0.985-0.526,1.57,0.11
		c2.969,3.229,2.988,3.207-0.306,6.065c-2.109,1.83-4.182,3.705-6.324,5.495c-3.44,2.876-4.365,6.433-3.051,10.652
		c0.078,0.251,0.139,0.508,0.233,0.859c-4.317-2.668-5.121-6.779-2.746-13.818c-2.469,0.355-4.796-0.081-7.027-1.031
		c-4.574-1.949-6.293-6.457-4.168-10.938c0.207-0.436,0.563-0.831,0.928-1.157c0.923-0.825,1.7-1.768,2.432-2.758
		c1.86-2.513,1.88-3.779,0.072-6.316c2.25,0.038,4.498,2.897,4.642,5.477c0.043,0.775,0.044,1.255,1.078,1.407
		C138.545,325.294,139.335,326.469,139.754,328.295z"/>
	<path style="fill:#090804;" d="M249.865,196.537c3.384,0.152,3.384,0.152,3.503-3.238c0.117-3.348,0.117-3.348,3.454-3.012
		c3.373,0.339,3.373,0.339,3.226,3.702c-0.146,3.33-0.146,3.33-3.484,3.056c-3.367-0.277-3.367-0.277-3.559,3.143
		c-0.188,3.344-0.188,3.344-3.522,3.078c-3.275-0.262-3.275-0.262-3.167-3.538C246.427,196.382,246.427,196.382,249.865,196.537z"/>
	<path style="fill:#090804;" d="M187.585,257.865c-0.123,1.716-0.29,2.883-0.267,4.046c0.024,1.232-0.498,1.49-1.619,1.353
		c-1.488-0.182-2.994-0.27-4.494-0.284c-1.051-0.01-1.319-0.395-1.194-1.411c0.19-1.543,0.287-3.104,0.31-4.659
		c0.015-1.075,0.358-1.49,1.475-1.314c1.15,0.182,2.325,0.207,3.488,0.311C188.05,256.155,187.695,255.723,187.585,257.865z"/>
	<path style="fill:#090804;" d="M379.456,153.262c3.513,0.099,3.513,0.099,3.195,3.643c-0.315,3.507-0.315,3.507-3.852,3.243
		c-3.045-0.227-3.045-0.227-2.886-3.367c0.003-0.055,0.013-0.111,0.015-0.166C376.092,153.168,376.092,153.168,379.456,153.262z"/>
	<path style="fill:#FC2602;" d="M254.383,98.265c0.076-0.068,0.152-0.137,0.228-0.205c0.026,0.047,0.051,0.093,0.077,0.14
		c-0.108,0.014-0.216,0.028-0.325,0.043L254.383,98.265z"/>
	<path style="fill:#040402;" d="M311.372,183.847c0.07-0.002,0.14-0.004,0.21-0.007c-0.024,0.021-0.059,0.063-0.069,0.058
		c-0.044-0.023-0.081-0.06-0.121-0.091C311.391,183.808,311.372,183.847,311.372,183.847z"/>
	<path style="fill:#030303;" d="M258.406,315.477c0-3.165-0.004-5.884,0.002-8.602c0.004-1.81,0.29-1.925,2.066-1.834
		c3.234,0.166,6.477,0.191,9.716,0.195c1.023,0.001,1.775,0.266,2.506,1.018c1.636,1.681,3.381,3.256,5.137,4.928
		c0.294-0.191,0.039-0.679,0.041-1.065c0.014-4.249,0.033-8.498-0.032-12.746c-0.02-1.33,0.34-1.926,1.79-1.902
		c4.466,0.072,8.92,0.55,13.391,0.368c0.795-0.032,1.181,0.503,1.677,0.945c2.163,1.927,4.343,3.836,6.47,5.806
		c0.101,0.007-0.137-0.527-0.136-0.978c0.006-5.311,0.009-10.622-0.045-15.933c-0.014-1.38,0.557-2.014,1.9-1.86
		c4.846,0.554,9.71,0.208,14.565,0.298c1.322,0.025,2.241,0.382,3.218,1.321c2.496,2.399,5.17,4.612,7.659,7.059
		c0.018-0.979-0.152-2.399-0.177-3.795c-0.025-1.377,0.554-2.018,1.901-1.865c4.902,0.559,9.822,0.194,14.732,0.301
		c1.2,0.026,2.075,0.286,2.925,1.208c2.649,2.875,5.382,5.674,8.14,8.444c0.951,0.955,1.4,1.824,1.289,3.317
		c-0.265,3.56-0.196,7.15-0.152,10.727c0.019,1.504-0.427,1.621-1.611,0.933c-2.589-1.504-5.214-2.946-8.076-4.555
		c0,3.523,0.007,6.744-0.005,9.964c-0.003,0.726,0.548,0.9,1.034,1.157c2.221,1.176,4.423,2.392,6.674,3.507
		c1.04,0.515,1.421,1.185,1.407,2.36c-0.082,6.931,0.117,13.872-0.166,20.794c-0.318,7.766-0.157,15.528-0.266,23.291
		c-0.012,0.848-0.234,1.441-0.92,2.005c-2.198,1.805-4.337,3.684-6.475,5.561c-0.645,0.566-1.345,1.029-1.385,2.132
		c-0.035,0.969-1.023,0.981-1.839,0.983c-3.801,0.01-7.603,0.043-11.404,0.056c-1.173,0.004-2.333,0.081-3.498,0.255
		c-1.286,0.192-1.986-0.346-1.966-1.777c0.048-3.408,0.015-6.816,0.015-10.364c-1.581,0.48-2.447,1.781-3.604,2.646
		c-1.426,1.067-2.703,2.332-4.06,3.492c-0.299,0.255-0.703,0.444-0.686,0.886c0.069,1.723-1.038,1.768-2.332,1.801
		c-4.854,0.125-9.719-0.242-14.565,0.31c-1.315,0.15-1.976-0.407-1.938-1.819c0.058-2.179,0.021-4.36,0.008-6.54
		c-0.002-0.261-0.019-0.632-0.18-0.758c-0.348-0.272-0.594,0.114-0.832,0.318c-1.696,1.451-3.386,2.909-5.073,4.371
		c-0.253,0.219-0.66,0.451-0.687,0.709c-0.234,2.203-1.869,1.723-3.247,1.764c-3.737,0.111-7.476,0.18-11.21,0.367
		c-1.511,0.076-1.952-0.508-1.898-1.944c0.089-2.397,0.024-4.8,0.024-7.464c-1.62,0.713-2.588,1.983-3.74,2.944
		c-0.972,0.811-2.317,1.398-2.522,2.951c-0.054,0.407-0.604,0.416-1.003,0.429c-3.682,0.119-7.373-0.156-11.048,0.305
		c-0.988,0.124-1.201-0.551-1.19-1.395c0.022-1.654,0.007-3.308,0.007-5.441c-2.111,2.07-4.517,3.162-5.712,5.537
		c-0.373,0.741-0.936,0.667-1.537,0.688c-3.234,0.109-6.478-0.181-9.706,0.263c-0.872,0.12-1.366-0.372-1.419-1.259
		c-0.02-0.334-0.011-0.671-0.011-1.006c-0.03-19.343-0.06-38.686-0.088-58.029c-0.003-1.962,0.179-1.973,2.132-1.854
		c2.952,0.18,5.918,0.167,8.878,0.165c0.913-0.001,1.568,0.262,2.197,0.931C254.958,312.086,256.527,313.595,258.406,315.477z
		 M344.785,346.569c0-9.502-0.012-19.004,0.017-28.506c0.003-1.03-0.031-1.617-1.384-1.555c-3.795,0.172-7.597,0.19-11.397,0.22
		c-0.919,0.007-1.229,0.277-1.225,1.248c0.092,19.116,0.158,38.231,0.185,57.347c0.002,1.172,0.425,1.357,1.455,1.318
		c3.573-0.137,7.15-0.255,10.725-0.237c1.311,0.006,1.663-0.345,1.655-1.664C344.756,365.349,344.784,355.959,344.785,346.569z
		 M317.613,343.498c0-9.502-0.017-19.004,0.023-28.506c0.005-1.112-0.192-1.55-1.44-1.498c-3.74,0.154-7.486,0.187-11.229,0.214
		c-0.954,0.007-1.352,0.206-1.346,1.301c0.1,19.116,0.161,38.231,0.193,57.347c0.002,1.059,0.322,1.307,1.335,1.267
		c3.629-0.141,7.262-0.275,10.892-0.234c1.415,0.016,1.603-0.493,1.598-1.721C317.593,362.278,317.613,352.888,317.613,343.498z
		 M292.179,346.498c0-8.049-0.022-16.099,0.025-24.148c0.007-1.139-0.242-1.546-1.46-1.486c-3.069,0.15-6.145,0.183-9.218,0.2
		c-0.934,0.005-1.378,0.146-1.372,1.27c0.093,16.266,0.145,32.532,0.167,48.798c0.001,1.043,0.287,1.334,1.321,1.294
		c2.903-0.113,5.812-0.192,8.716-0.131c1.407,0.03,1.886-0.26,1.867-1.818C292.127,362.486,292.179,354.492,292.179,346.498z
		 M260.318,348.191c0.041,0,0.083,0,0.124,0c0,6.813,0.017,13.627-0.019,20.44c-0.005,0.959,0.135,1.403,1.253,1.339
		c2.507-0.142,5.022-0.173,7.535-0.184c0.889-0.004,1.242-0.207,1.24-1.204c-0.035-13.683-0.032-27.366-0.006-41.048
		c0.002-0.894-0.263-1.152-1.142-1.111c-2.509,0.117-5.023,0.219-7.534,0.193c-1.145-0.012-1.493,0.269-1.481,1.47
		C260.352,334.787,260.318,341.489,260.318,348.191z M251.352,349.508c0-6.308-0.024-12.615,0.024-18.922
		c0.008-1.019-0.22-1.352-1.282-1.293c-2.228,0.124-4.464,0.169-6.695,0.118c-1.156-0.026-1.508,0.301-1.486,1.49
		c0.085,4.576,0.054,9.154,0.068,13.731c0.025,7.87,0.083,15.741,0.045,23.611c-0.006,1.291,0.353,1.608,1.6,1.521
		c2.113-0.146,4.24-0.157,6.359-0.113c1.071,0.023,1.404-0.271,1.394-1.389C251.322,362.012,251.352,355.76,251.352,349.508z
		 M303.531,294.713c0.024,0,0.047,0,0.071,0c0,2.399,0.034,4.798-0.018,7.196c-0.019,0.866,0.212,1.17,1.121,1.159
		c3.96-0.046,7.921-0.036,11.882-0.007c0.801,0.006,1.05-0.259,1.044-1.061c-0.031-4.741-0.03-9.483,0.001-14.225
		c0.005-0.806-0.259-1.037-1.055-1.047c-3.959-0.048-7.918-0.124-11.874-0.266c-0.998-0.036-1.212,0.308-1.19,1.222
		C303.568,290.026,303.531,292.37,303.531,294.713z M330.703,297.764c0.023,0,0.047,0,0.07,0c0,2.343,0.028,4.686-0.015,7.028
		c-0.016,0.857,0.099,1.314,1.149,1.298c3.904-0.059,7.809-0.054,11.713-0.002c1.001,0.013,1.192-0.361,1.185-1.269
		c-0.04-4.629-0.033-9.259-0.004-13.889c0.005-0.813-0.149-1.18-1.087-1.188c-3.903-0.033-7.807-0.097-11.705-0.271
		c-1.225-0.055-1.347,0.439-1.323,1.432C330.74,293.189,330.703,295.477,330.703,297.764z M280.081,304.674c0.02,0,0.04,0,0.059,0
		c0,2.067,0.03,4.136-0.015,6.202c-0.017,0.788,0.208,1.071,1.032,1.061c3.296-0.041,6.594-0.042,9.89,0
		c0.861,0.011,1.162-0.229,1.151-1.127c-0.044-3.911-0.036-7.823-0.004-11.734c0.007-0.82-0.152-1.192-1.094-1.19
		c-3.296,0.004-6.593-0.044-9.887-0.164c-1.038-0.038-1.175,0.377-1.149,1.254C280.12,300.873,280.081,302.774,280.081,304.674z
		 M270.432,313.014c0-1.618-0.036-3.238,0.015-4.854c0.025-0.775-0.182-1.077-1.011-1.081c-2.789-0.015-5.578-0.095-8.366-0.179
		c-0.634-0.019-0.904,0.163-0.895,0.839c0.044,3.404,0.066,6.807,0.065,10.211c0,0.703,0.216,0.982,0.959,0.972
		c2.734-0.036,5.469-0.04,8.202,0.001c0.808,0.012,1.07-0.256,1.046-1.054C270.397,316.252,270.432,314.633,270.432,313.014z
		 M251.352,316.923c0-1.565-0.029-3.13,0.013-4.694c0.019-0.713-0.191-0.976-0.939-0.977c-2.514-0.002-5.029-0.043-7.541-0.136
		c-0.83-0.031-1.031,0.258-1.019,1.04c0.048,3.017,0.053,6.035,0.031,9.053c-0.006,0.756,0.156,1.101,1.014,1.082
		c2.458-0.053,4.918-0.06,7.376,0.002c0.945,0.024,1.112-0.361,1.08-1.18C251.313,319.719,251.352,318.32,251.352,316.923z
		 M328.236,319.044c0-3.329,0.002-6.435-0.003-9.54c-0.001-0.322,0.06-0.688-0.298-0.89c-2.537-1.431-5.075-2.859-7.811-4.399
		c0,3.434,0,6.544,0,9.653c0,0.443-0.041,0.855,0.479,1.125C323.102,316.294,325.583,317.631,328.236,319.044z M310.899,305.554
		c-0.782,0-1.563,0-2.345,0c-4.588,0-4.562-0.001-4.393,4.56c0.032,0.868,0.253,1.154,1.142,1.115
		c2.676-0.118,5.355-0.165,8.033-0.219c4.073-0.082,4.037-0.075,4.154-4.157c0.029-0.996-0.139-1.385-1.233-1.325
		C314.476,305.625,312.686,305.554,310.899,305.554z M338.233,308.573c-0.838,0-1.675,0-2.513,0c-4.583,0-4.557-0.001-4.39,4.563
		c0.032,0.873,0.262,1.15,1.145,1.111c2.676-0.117,5.355-0.163,8.034-0.217c4.151-0.083,4.125-0.076,4.153-4.332
		c0.006-0.85-0.148-1.183-1.071-1.147C341.808,308.623,340.02,308.573,338.233,308.573z M301.107,325.557
		c0-2.918,0-5.58,0.001-8.241c0-0.356-0.102-0.651-0.435-0.836c-2.06-1.147-4.117-2.297-6.378-3.559c0,2.942,0.033,5.554-0.02,8.165
		c-0.016,0.78,0.401,1.057,0.971,1.354C297.12,323.418,298.979,324.423,301.107,325.557z M286.244,314.058c-0.667,0-1.335,0-2.002,0
		c-3.804,0-3.769-0.001-3.651,3.779c0.028,0.902,0.308,1.135,1.161,1.097c2.277-0.101,4.558-0.123,6.837-0.184
		c3.368-0.091,3.368-0.094,3.421-3.458c0.002-0.111-0.002-0.224,0.018-0.333c0.142-0.782-0.255-0.932-0.946-0.915
		C289.471,314.083,287.857,314.056,286.244,314.058z M277.941,330.366c0-2.438,0.001-4.599-0.001-6.761
		c0-0.34-0.026-0.678-0.37-0.871c-1.722-0.967-3.444-1.932-5.368-3.01c0,2.499,0.004,4.666-0.004,6.833
		c-0.002,0.404,0.002,0.782,0.42,1.002C274.326,328.458,276.032,329.359,277.941,330.366z M265.445,324.746c0-0.025,0-0.049,0-0.074
		c0.67,0,1.341,0.01,2.01-0.002c2.789-0.051,2.736-0.056,2.856-2.884c0.041-0.957-0.276-1.122-1.115-1.107
		c-2.457,0.042-4.916,0.009-7.373,0.022c-0.364,0.002-0.979-0.177-1.025,0.269c-0.121,1.16-0.286,2.398,0.006,3.487
		c0.189,0.705,1.28,0.228,1.962,0.273C263.654,324.791,264.551,324.746,265.445,324.746z M258.455,332.997
		c0-2.244-0.001-4.185,0.001-6.127c0-0.391,0.022-0.783-0.397-1.014c-1.622-0.897-3.242-1.798-5.021-2.786
		c0,2.261,0.023,4.208-0.013,6.154c-0.012,0.631,0.158,1.017,0.751,1.311C255.258,331.268,256.707,332.07,258.455,332.997z
		 M246.662,327.703c0-0.019,0-0.038,0-0.057c0.67,0,1.339,0.009,2.008-0.002c2.63-0.042,2.59-0.044,2.619-2.65
		c0.009-0.817-0.213-1.064-1.015-1.05c-2.343,0.041-4.687,0.011-7.031,0.02c-0.416,0.002-0.824-0.115-0.962,0.58
		c-0.506,2.553-0.018,3.202,2.539,3.16C245.435,327.694,246.049,327.703,246.662,327.703z"/>
	<path style="fill:#030303;" d="M270.137,420.67c1.42-5.782,3.449-11.143,7.114-15.809c0.761-0.969,0.926-1.116,1.731,0.069
		c2.113,3.11,1.977,5.491-0.619,8.539c-3.134,3.68-4.84,8.355-6.199,13.051c-0.664,2.295-1.405,4.568-2.23,7.237
		c-0.438-1.593-0.786-2.836-1.122-4.083c-1.721-6.388-3.981-12.531-8.094-17.833c-0.307-0.396-0.607-0.809-0.975-1.144
		c-0.628-0.572-0.738-1.13-0.327-1.913c0.698-1.331,1.304-2.712,1.919-4.086c0.385-0.859,0.673-0.935,1.371-0.171
		c2.969,3.254,4.568,7.228,6.103,11.244C269.415,417.355,269.878,418.985,270.137,420.67z"/>
	<path style="fill:#010101;" d="M251.738,433.73c-2.611-5.337-3.705-10.689-3.667-16.688c-0.515,1.055-0.97,1.75-1.201,2.512
		c-0.492,1.628-1.621,1.896-3.112,1.779c-3.388-0.267-5.516-3.104-4.824-6.397c0.68-3.235,2.207-6.083,4.004-8.775
		c1.82-2.726,4.894-2.624,6.763,0.07c1.011,1.457,1.552,3.06,1.642,4.839c0.28,5.518,1.444,10.822,4.11,15.707
		c0.508,0.931,0.483,1.586-0.161,2.377C254.135,430.577,253.037,432.05,251.738,433.73z M245.738,415.248
		c1.991-0.007,2.696-1.23,1.985-3.55c-0.372-1.213-0.691-2.942-2.047-2.946c-1.332-0.004-2.016,1.602-2.508,2.858
		C242.425,413.503,243.695,415.255,245.738,415.248z"/>
	<path style="fill:#030303;" d="M229.006,433.098c-0.334-7.94-2.348-14.989-5.695-21.671c-0.631-1.259-0.671-2.351,0.047-3.59
		c0.778-1.342,1.378-2.786,2.156-4.392c1.307,1.355,2.131,2.901,2.835,4.477c2.04,4.568,3.05,9.424,3.484,14.369
		C232.16,426.001,230.774,429.39,229.006,433.098z"/>
	<path style="fill:#030303;" d="M296.341,419.277c-0.239,0.276-0.435,0.535-0.662,0.763c-1.34,1.34-2.705,2.654-4.023,4.015
		c-0.635,0.655-1.141,0.716-1.804,0.02c-1.306-1.371-2.653-2.707-4.026-4.012c-0.66-0.628-0.753-1.128-0.056-1.798
		c1.405-1.352,2.775-2.742,4.126-4.148c0.582-0.605,1.069-0.685,1.67-0.038c1.439,1.549,2.907,3.07,4.357,4.608
		C296.07,418.841,296.172,419.035,296.341,419.277z"/>
	<path style="fill:#FDFCFC;" d="M194.414,125.349c-0.816,20.477-15.486,37.014-37.143,37.029
		c-21.31,0.016-36.874-16.151-36.944-36.867c-0.069-20.482,15.312-37.014,36.949-37.028
		C178.581,88.469,193.466,104.626,194.414,125.349z M145.577,116.315c0.89,0,1.427,0,1.964,0c3.465,0,6.93-0.015,10.394,0.017
		c0.457,0.004,1.238-0.382,1.261,0.582c0.025,1.06,0.02,2.124-0.04,3.182c-0.036,0.629-0.426,1.03-1.095,1.029
		c-0.582,0-0.933-0.354-1.071-0.887c-0.083-0.318-0.139-0.67-0.092-0.99c0.179-1.215-0.209-1.622-1.523-1.583
		c-3.629,0.108-7.264,0.016-10.896,0.053c-0.882,0.009-1.476-0.081-2.036-0.97c-1.169-1.855-4.086-1.974-5.253-0.126
		c-0.71,1.124-1.552,1.289-2.466,1.024c-1.087-0.316-0.464-1.418-0.494-2.141c-0.09-2.182-0.033-4.37-0.033-6.83
		c-0.688,0.478-1.051,0.729-1.413,0.982c-0.799,0.558-1.874,0.9-0.911,2.294c0.405,0.586,0.054,1.101-0.974,1.043
		c-2.488-0.14-3.947,1.262-4.184,3.766c-0.058,0.61,0.02,1.234-0.056,1.841c-0.134,1.076,0.219,1.469,1.365,1.432
		c2.456-0.078,4.917,0.015,7.375-0.006c0.717-0.006,1.163,0.146,1.624,0.811c1.486,2.147,4.177,2.076,5.695-0.114
		c0.366-0.528,0.686-0.723,1.322-0.717c3.296,0.031,6.593,0.018,9.89-0.012c0.749-0.007,1.165,0.043,1.242,1.02
		c0.132,1.661,1.809,1.847,2.928,2.38c0.813,0.387,2.946-1.349,2.973-2.381c0.029-1.062,0.578-0.978,1.268-0.978
		c2.347,0.001,4.694,0.006,7.04-0.043c0.837-0.018,1.434,0.054,1.754,1.024c0.26,0.788,0.94,1.328,1.863,1.464
		c0.137-0.455-0.194-0.649-0.338-0.903c-0.589-1.041-0.755-1.709,0.894-1.598c1.78,0.12,3.578-0.036,5.362,0.052
		c1.07,0.052,1.317-0.33,1.296-1.338c-0.062-2.961-0.022-5.923-0.022-8.885c0-1.69,0-3.381,0-5.071
		c-0.92,1.252-3.65,1.532-2.052,3.878c0.13,0.191,0.018,0.547,0.018,0.827c0,1.174,0.043,2.349-0.011,3.52
		c-0.072,1.544,0.697,3.652-0.315,4.474c-0.956,0.776-2.986,0.181-4.536,0.287c-0.995,0.068-1.448-0.234-1.685-1.254
		c-0.5-2.15-1.805-3.634-4.133-3.736c-1.518-0.067-2.966-0.201-4.271-1.221c-0.186,3.198-0.186,3.183,2.799,3.267
		c0.777,0.022,1.563,0.107,2.324,0.264c0.869,0.179,1.496,0.74,1.831,1.569c0.28,0.694,0.233,1.13-0.74,1.109
		c-2.458-0.052-4.918-0.044-7.376-0.001c-0.765,0.013-0.983-0.277-0.918-0.976c0.041-0.443-0.051-0.903,0.02-1.339
		c0.192-1.18-0.383-1.373-1.414-1.349c-2.681,0.061-5.365,0.04-8.047,0.005c-0.561-0.007-1.206,0.274-1.822-0.362
		c1.303-1.018,1.524-2.999,3.408-3.457c0.102-0.025,0.169-0.383,0.172-0.587c0.017-1.087,0.008-2.175,0.008-3.752
		C150.688,109.559,148.23,112.808,145.577,116.315z M141.194,138.471c-0.723,0.49-1.234,0.798-1.703,1.162
		c-0.628,0.487-1.688,0.76-0.641,1.953c0.379,0.432,0.379,1.316-0.933,1.171c-2.254-0.25-3.869,1.191-4.191,3.396
		c-0.514,3.518-0.428,3.619,3.087,3.619c5.694,0,11.387,0.009,17.081-0.014c0.526-0.002,1.369,0.347,1.38-0.682
		c0.026-2.592,0.009-5.184,0.009-8.161c-0.918,0.918-1.533,1.551-2.168,2.161c-0.497,0.477-0.757,0.707-0.2,1.558
		c1.013,1.547,0.065,2.889-1.747,2.863c-0.725-0.011-1.461-0.072-2.174,0.021c-0.885,0.115-1.031-0.284-1.006-1.035
		c0.043-1.296,0.012-2.594,0.012-4.211c-0.771,0.726-1.264,1.165-1.728,1.633c-0.594,0.599-1.53,0.973-0.551,2.17
		c0.531,0.649,0.223,1.633-1.098,1.458c-0.659-0.088-1.348-0.113-2.005-0.025c-1.223,0.164-1.485-0.362-1.447-1.49
		C141.25,143.587,141.194,141.153,141.194,138.471z M179.301,140.977c-0.806,0.818-1.347,1.375-1.896,1.924
		c-0.533,0.532-0.944,0.804-0.31,1.814c0.992,1.58,0.011,2.809-1.902,2.81c-1.061,0-2.124-0.032-3.183,0.011
		c-0.726,0.03-1.169-0.165-1.612-0.835c-1.42-2.148-4.295-2.15-5.678,0.038c-0.925,1.463-2.218,0.683-3.287,0.705
		c-1.135,0.023-0.522-1.142-0.532-1.729c-0.065-3.713-0.033-7.427-0.033-11.141c-0.985,1.222-3.566,1.61-2.011,3.939
		c0.129,0.193,0.017,0.547,0.017,0.826c0,2.234-0.001,4.468,0,6.702c0,3.711,0,3.734,3.725,3.703
		c1.048-0.009,1.775,0.122,2.473,1.154c1.239,1.831,4.02,1.671,5.319-0.126c0.353-0.488,0.511-1.118,1.329-1.02
		c2.594,0.312,5.628-1.128,7.582,2.509C179.301,148.233,179.301,144.796,179.301,140.977z M184.657,104.426
		c-0.193,0.159-0.385,0.319-0.578,0.478c0,4.617,0.004,9.235-0.005,13.852c-0.001,0.703-0.064,1.274,0.988,1.293
		c1.128,0.02,1.092-0.578,1.087-1.362c-0.02-3.065-0.011-6.131-0.002-9.197c0.001-0.442-0.113-1.125,0.115-1.285
		c1.236-0.866,0.239-1.299-0.243-1.891C185.53,105.713,185.109,105.058,184.657,104.426z M129.812,107.011
		c0.285,0.264,0.614,0.493,0.844,0.796c0.544,0.715,0.898,0.434,1.426-0.077c0.655-0.634,0.758-1.081,0.034-1.727
		c-0.49-0.437-0.86-0.934-1.409-0.139c-0.642,0.93-1.254,0.839-1.869-0.023c-0.5-0.701-0.916-0.37-1.285,0.131
		c-0.315,0.428-0.995,0.637-0.387,1.476C128.428,109.188,128.98,107.518,129.812,107.011z M136.766,136.503
		c-0.289-0.265-0.62-0.49-0.848-0.794c-0.534-0.711-0.908-0.467-1.431,0.057c-0.615,0.617-0.814,1.079-0.047,1.724
		c0.477,0.402,0.832,0.988,1.411,0.176c0.616-0.865,1.22-0.936,1.86-0.021c0.466,0.666,0.899,0.457,1.283-0.095
		c0.303-0.435,1.03-0.625,0.425-1.476C138.176,134.329,137.599,135.947,136.766,136.503z M147.29,155.891
		c0.444-0.467,0.99-0.84,1.243-1.356c0.365-0.742-0.544-0.943-0.861-1.393c-0.405-0.576-0.793-0.125-1.047,0.215
		c-0.626,0.839-1.189,0.84-1.806-0.003c-0.66-0.901-1.045-0.187-1.545,0.244c-0.616,0.531-0.619,0.932,0.002,1.451
		c0.491,0.41,0.874,1.146,1.536,0.233c0.596-0.823,1.178-0.894,1.8-0.021C146.765,155.477,147.004,155.63,147.29,155.891z
		 M178.908,153.679c-0.357-0.399-0.674-0.774-1.012-1.128c-0.426-0.446-0.697-0.05-0.93,0.229c-0.5,0.598-0.974,0.905-1.561,0.1
		c-0.623-0.856-1.056-0.253-1.561,0.188c-0.622,0.543-0.317,0.902,0.112,1.351c0.476,0.498,0.907,0.863,1.432,0.101
		c0.515-0.748,0.997-0.698,1.538-0.019c0.224,0.281,0.495,0.707,0.938,0.311C178.225,154.489,178.527,154.098,178.908,153.679z
		 M153.24,137.242c-0.609-0.579-1.121-1.458-1.638-1.462c-0.669-0.005-1.514,0.792-1.483,1.515c0.026,0.594,0.843,1.426,1.453,1.377
		C152.128,138.627,152.622,137.809,153.24,137.242z"/>
	<path style="fill:#FAE923;" d="M222.175,267.96c-0.75-3.917-1.05-7.5,1.964-10.259c4.693-4.295,9.548-8.413,14.319-12.624
		c0.486-0.429,0.772-0.417,1.2,0.082c2.761,3.221,5.589,6.386,8.312,9.638c1.177,1.406,1.006,3.429-0.165,4.392
		c-1.399,1.151-3.298,0.968-4.624-0.498c-1.235-1.366-2.48-2.731-3.61-4.182c-0.667-0.857-1.071-0.736-1.811-0.082
		c-4.601,4.067-9.248,8.082-13.882,12.112C223.42,266.937,222.948,267.316,222.175,267.96z"/>
	<path style="fill:#FAE923;" d="M269.495,218.583c-0.051-3.429,1.824-5.972,4.481-6.75c0.69-0.202,1.125-0.109,1.592,0.453
		c1.321,1.59,2.678,3.153,4.069,4.682c0.446,0.491,0.444,0.77-0.057,1.197c-2.042,1.739-4.057,3.51-6.079,5.273
		c-0.294,0.256-0.581,0.627-0.971,0.181C271.1,221.984,269.44,220.469,269.495,218.583z"/>
	<path style="fill:#FAE923;" d="M322.612,171.799c-0.206-1.945,1.548-3.512,2.816-5.309c0.41-0.582,0.653-0.077,0.881,0.182
		c1.619,1.843,3.209,3.712,4.846,5.539c0.447,0.499,0.401,0.788-0.093,1.205c-1.62,1.365-3.215,2.761-4.798,4.169
		c-0.402,0.358-0.697,0.421-1.114,0.024C323.644,176.173,322.587,174.534,322.612,171.799z"/>
	<path style="fill:#F9F9F9;" d="M344.785,346.569c0,9.39-0.028,18.781,0.031,28.171c0.008,1.319-0.344,1.67-1.655,1.664
		c-3.575-0.018-7.151,0.1-10.725,0.237c-1.03,0.039-1.453-0.145-1.455-1.318c-0.027-19.116-0.093-38.231-0.185-57.347
		c-0.005-0.971,0.305-1.241,1.225-1.248c3.8-0.03,7.602-0.048,11.397-0.22c1.353-0.061,1.387,0.526,1.384,1.555
		C344.773,327.565,344.785,337.067,344.785,346.569z"/>
	<path style="fill:#F9F9F9;" d="M317.613,343.498c0,9.39-0.02,18.781,0.025,28.171c0.006,1.228-0.182,1.737-1.598,1.721
		c-3.63-0.041-7.263,0.093-10.892,0.234c-1.012,0.039-1.333-0.209-1.335-1.267c-0.032-19.116-0.094-38.232-0.193-57.347
		c-0.006-1.095,0.392-1.294,1.346-1.301c3.744-0.027,7.49-0.06,11.229-0.214c1.248-0.051,1.444,0.386,1.44,1.498
		C317.596,324.493,317.613,333.996,317.613,343.498z"/>
	<path style="fill:#F9F9F9;" d="M292.179,346.498c0,7.993-0.053,15.987,0.045,23.98c0.019,1.558-0.46,1.847-1.867,1.818
		c-2.904-0.061-5.813,0.018-8.716,0.131c-1.033,0.04-1.319-0.252-1.321-1.294c-0.022-16.266-0.074-32.532-0.167-48.798
		c-0.006-1.124,0.437-1.265,1.372-1.27c3.073-0.017,6.149-0.05,9.218-0.2c1.218-0.059,1.467,0.347,1.46,1.486
		C292.157,330.4,292.179,338.449,292.179,346.498z"/>
	<path style="fill:#FBFBFB;" d="M260.318,348.191c0-6.702,0.034-13.404-0.031-20.105c-0.012-1.2,0.337-1.481,1.481-1.47
		c2.511,0.026,5.025-0.076,7.534-0.193c0.879-0.041,1.144,0.217,1.142,1.111c-0.026,13.683-0.029,27.366,0.006,41.048
		c0.003,0.997-0.351,1.2-1.24,1.204c-2.512,0.011-5.027,0.042-7.535,0.184c-1.118,0.063-1.258-0.381-1.253-1.339
		c0.036-6.813,0.019-13.627,0.019-20.44C260.401,348.191,260.36,348.191,260.318,348.191z"/>
	<path style="fill:#FBFBFB;" d="M251.352,349.508c0,6.252-0.03,12.504,0.028,18.755c0.01,1.118-0.324,1.411-1.394,1.389
		c-2.119-0.045-4.246-0.034-6.359,0.113c-1.248,0.086-1.606-0.23-1.6-1.521c0.038-7.87-0.02-15.741-0.045-23.611
		c-0.014-4.577,0.017-9.155-0.068-13.731c-0.022-1.189,0.331-1.516,1.486-1.49c2.23,0.051,4.467,0.005,6.695-0.118
		c1.062-0.059,1.29,0.273,1.282,1.293C251.328,336.893,251.352,343.2,251.352,349.508z"/>
	<path style="fill:#F8F8F8;" d="M303.531,294.713c0-2.343,0.037-4.686-0.018-7.028c-0.021-0.914,0.192-1.258,1.19-1.222
		c3.956,0.143,7.915,0.218,11.874,0.266c0.796,0.01,1.06,0.241,1.055,1.047c-0.031,4.741-0.032,9.483-0.001,14.225
		c0.005,0.802-0.244,1.067-1.044,1.061c-3.96-0.03-7.921-0.039-11.882,0.007c-0.91,0.011-1.14-0.294-1.121-1.159
		c0.052-2.397,0.018-4.797,0.018-7.196C303.579,294.713,303.555,294.713,303.531,294.713z"/>
	<path style="fill:#F8F8F8;" d="M330.703,297.764c0-2.287,0.037-4.575-0.017-6.86c-0.024-0.993,0.098-1.487,1.323-1.432
		c3.898,0.174,7.803,0.238,11.705,0.271c0.938,0.008,1.092,0.375,1.087,1.188c-0.029,4.629-0.036,9.259,0.004,13.889
		c0.008,0.907-0.184,1.282-1.185,1.269c-3.904-0.052-7.809-0.057-11.713,0.002c-1.05,0.016-1.165-0.441-1.149-1.298
		c0.042-2.342,0.015-4.685,0.015-7.028C330.749,297.764,330.726,297.764,330.703,297.764z"/>
	<path style="fill:#F9F9F9;" d="M280.081,304.674c0-1.9,0.039-3.801-0.017-5.699c-0.026-0.877,0.111-1.292,1.149-1.254
		c3.293,0.12,6.591,0.168,9.887,0.164c0.942-0.001,1.101,0.37,1.094,1.19c-0.032,3.911-0.04,7.823,0.004,11.734
		c0.01,0.898-0.29,1.138-1.151,1.127c-3.296-0.041-6.594-0.041-9.89,0c-0.824,0.01-1.049-0.273-1.032-1.061
		c0.046-2.066,0.015-4.135,0.015-6.202C280.121,304.674,280.101,304.674,280.081,304.674z"/>
	<path style="fill:#F5F5F5;" d="M270.432,313.014c0,1.618-0.035,3.238,0.015,4.854c0.025,0.799-0.237,1.066-1.046,1.054
		c-2.734-0.041-5.469-0.037-8.202-0.001c-0.743,0.01-0.959-0.269-0.959-0.972c0.001-3.404-0.021-6.808-0.065-10.211
		c-0.009-0.676,0.262-0.858,0.895-0.839c2.788,0.084,5.577,0.164,8.366,0.179c0.829,0.005,1.035,0.306,1.011,1.081
		C270.396,309.777,270.432,311.396,270.432,313.014z"/>
	<path style="fill:#FBFBFB;" d="M251.352,316.923c0,1.397-0.039,2.796,0.015,4.191c0.032,0.82-0.135,1.204-1.08,1.18
		c-2.457-0.062-4.918-0.056-7.376-0.002c-0.858,0.019-1.019-0.326-1.014-1.082c0.022-3.018,0.017-6.036-0.031-9.053
		c-0.012-0.783,0.188-1.071,1.019-1.04c2.512,0.093,5.027,0.134,7.541,0.136c0.749,0.001,0.958,0.264,0.939,0.977
		C251.323,313.793,251.352,315.358,251.352,316.923z"/>
	<path style="fill:#FBFBFB;" d="M328.236,319.044c-2.654-1.413-5.135-2.749-7.634-4.051c-0.52-0.271-0.479-0.682-0.479-1.125
		c0.001-3.109,0-6.219,0-9.653c2.736,1.54,5.274,2.968,7.811,4.399c0.358,0.202,0.298,0.568,0.298,0.89
		C328.239,312.609,328.236,315.715,328.236,319.044z"/>
	<path style="fill:#F8F8F8;" d="M310.899,305.554c1.787,0,3.577,0.072,5.358-0.027c1.094-0.06,1.261,0.329,1.233,1.325
		c-0.117,4.082-0.082,4.076-4.154,4.157c-2.678,0.054-5.358,0.101-8.033,0.219c-0.888,0.039-1.109-0.247-1.142-1.115
		c-0.169-4.56-0.194-4.56,4.393-4.56C309.336,305.554,310.118,305.554,310.899,305.554z"/>
	<path style="fill:#F8F8F8;" d="M338.233,308.573c1.787,0,3.575,0.05,5.359-0.021c0.923-0.037,1.077,0.297,1.071,1.147
		c-0.029,4.256-0.003,4.249-4.153,4.332c-2.678,0.053-5.358,0.1-8.034,0.217c-0.883,0.038-1.113-0.238-1.145-1.111
		c-0.168-4.564-0.194-4.563,4.39-4.563C336.558,308.573,337.395,308.573,338.233,308.573z"/>
	<path style="fill:#F9F9F9;" d="M301.107,325.557c-2.127-1.134-3.987-2.14-5.861-3.117c-0.57-0.297-0.987-0.573-0.971-1.354
		c0.053-2.611,0.02-5.223,0.02-8.165c2.261,1.262,4.319,2.412,6.378,3.559c0.333,0.185,0.435,0.48,0.435,0.836
		C301.106,319.978,301.107,322.639,301.107,325.557z"/>
	<path style="fill:#F5F5F5;" d="M286.244,314.057c1.613-0.001,3.226,0.025,4.838-0.013c0.69-0.016,1.087,0.134,0.946,0.915
		c-0.02,0.109-0.016,0.222-0.018,0.333c-0.053,3.363-0.053,3.366-3.421,3.458c-2.279,0.062-4.56,0.083-6.837,0.184
		c-0.853,0.038-1.133-0.196-1.161-1.097c-0.118-3.78-0.153-3.779,3.651-3.779C284.909,314.058,285.577,314.058,286.244,314.057z"/>
	<path style="fill:#F8F8F8;" d="M277.941,330.366c-1.909-1.007-3.615-1.908-5.322-2.807c-0.419-0.22-0.422-0.598-0.42-1.002
		c0.008-2.167,0.004-4.334,0.004-6.833c1.923,1.078,3.646,2.043,5.368,3.01c0.344,0.193,0.37,0.531,0.37,0.871
		C277.942,325.767,277.941,327.928,277.941,330.366z"/>
	<path style="fill:#F8F8F8;" d="M265.445,324.746c-0.894,0-1.79,0.045-2.68-0.015c-0.681-0.046-1.773,0.432-1.962-0.273
		c-0.291-1.09-0.126-2.328-0.006-3.487c0.046-0.446,0.661-0.267,1.025-0.269c2.458-0.014,4.916,0.02,7.373-0.022
		c0.838-0.014,1.156,0.15,1.115,1.107c-0.12,2.828-0.067,2.833-2.856,2.884c-0.67,0.012-1.34,0.002-2.01,0.002
		C265.445,324.696,265.445,324.721,265.445,324.746z"/>
	<path style="fill:#F9F9F9;" d="M258.455,332.997c-1.748-0.926-3.197-1.728-4.679-2.462c-0.593-0.293-0.763-0.68-0.751-1.311
		c0.036-1.946,0.013-3.893,0.013-6.154c1.779,0.988,3.399,1.889,5.021,2.786c0.419,0.231,0.397,0.623,0.397,1.014
		C258.454,328.811,258.455,330.753,258.455,332.997z"/>
	<path style="fill:#F8F8F8;" d="M246.662,327.703c-0.614,0-1.228-0.008-1.841,0.001c-2.557,0.041-3.044-0.607-2.539-3.16
		c0.138-0.695,0.545-0.578,0.962-0.58c2.344-0.009,4.688,0.022,7.031-0.02c0.803-0.014,1.024,0.233,1.015,1.05
		c-0.029,2.605,0.011,2.608-2.619,2.65c-0.669,0.011-1.339,0.002-2.008,0.002C246.662,327.665,246.662,327.684,246.662,327.703z"/>
	<path style="fill:#007302;" d="M245.738,415.248c-2.043,0.007-3.313-1.745-2.57-3.639c0.492-1.256,1.176-2.862,2.508-2.858
		c1.356,0.004,1.675,1.733,2.047,2.946C248.434,414.018,247.728,415.241,245.738,415.248z"/>
	<path style="fill:#0D0D0D;" d="M145.577,116.315c2.653-3.507,5.11-6.757,7.875-10.413c0,1.577,0.009,2.665-0.008,3.752
		c-0.003,0.204-0.07,0.562-0.172,0.587c-1.885,0.459-2.105,2.439-3.408,3.457c0.616,0.636,1.26,0.355,1.822,0.362
		c2.682,0.035,5.366,0.056,8.047-0.005c1.03-0.023,1.606,0.169,1.414,1.349c-0.071,0.436,0.022,0.895-0.02,1.339
		c-0.065,0.699,0.153,0.989,0.918,0.976c2.458-0.043,4.918-0.051,7.376,0.001c0.973,0.021,1.02-0.415,0.74-1.109
		c-0.334-0.83-0.961-1.39-1.831-1.569c-0.761-0.157-1.546-0.242-2.324-0.264c-2.985-0.084-2.986-0.07-2.799-3.267
		c1.304,1.02,2.753,1.154,4.271,1.221c2.328,0.102,3.632,1.586,4.133,3.736c0.238,1.02,0.69,1.323,1.685,1.254
		c1.551-0.107,3.581,0.488,4.536-0.287c1.012-0.822,0.244-2.93,0.315-4.474c0.054-1.171,0.011-2.347,0.011-3.52
		c0-0.279,0.112-0.636-0.018-0.827c-1.598-2.346,1.132-2.626,2.052-3.878c0,1.69,0,3.381,0,5.071c0,2.962-0.04,5.925,0.022,8.885
		c0.021,1.008-0.226,1.39-1.296,1.338c-1.784-0.087-3.582,0.068-5.362-0.052c-1.649-0.111-1.482,0.557-0.894,1.598
		c0.143,0.254,0.475,0.447,0.338,0.903c-0.923-0.136-1.604-0.675-1.863-1.464c-0.319-0.969-0.917-1.041-1.754-1.024
		c-2.346,0.049-4.694,0.044-7.04,0.043c-0.691,0-1.24-0.084-1.268,0.978c-0.028,1.033-2.16,2.768-2.973,2.381
		c-1.12-0.533-2.797-0.719-2.928-2.38c-0.077-0.977-0.493-1.026-1.242-1.02c-3.297,0.03-6.594,0.044-9.89,0.012
		c-0.636-0.006-0.956,0.188-1.322,0.717c-1.518,2.19-4.208,2.261-5.695,0.114c-0.461-0.666-0.908-0.817-1.624-0.811
		c-2.458,0.021-4.919-0.073-7.375,0.006c-1.146,0.037-1.499-0.356-1.365-1.432c0.076-0.606-0.002-1.231,0.056-1.841
		c0.237-2.503,1.696-3.905,4.184-3.766c1.028,0.058,1.379-0.457,0.974-1.043c-0.964-1.394,0.112-1.736,0.911-2.294
		c0.362-0.253,0.724-0.504,1.413-0.982c0,2.46-0.058,4.648,0.033,6.83c0.03,0.723-0.593,1.825,0.494,2.141
		c0.915,0.266,1.756,0.101,2.466-1.024c1.167-1.848,4.084-1.729,5.253,0.126c0.56,0.889,1.154,0.979,2.036,0.97
		c3.632-0.037,7.267,0.055,10.896-0.053c1.314-0.039,1.702,0.368,1.523,1.583c-0.047,0.32,0.009,0.672,0.092,0.99
		c0.138,0.533,0.489,0.886,1.071,0.887c0.669,0,1.059-0.4,1.095-1.029c0.06-1.058,0.066-2.122,0.04-3.182
		c-0.023-0.964-0.804-0.578-1.261-0.582c-3.464-0.032-6.929-0.017-10.394-0.017C147.005,116.315,146.468,116.315,145.577,116.315z
		 M130.234,117.696c0.961,0.03,1.92,0.266,1.735-1.22c-0.098-0.787,0.071-1.638-1.096-1.583c-1.217,0.057-1.92,0.688-2.012,1.957
		C128.763,118.187,129.774,117.543,130.234,117.696z M139.866,120.309c0.865-0.122,1.365-0.634,1.328-1.444
		c-0.038-0.832-0.473-1.505-1.431-1.498c-0.954,0.007-1.404,0.648-1.376,1.512C138.415,119.767,138.988,120.256,139.866,120.309z"/>
	<path style="fill:#151515;" d="M141.194,138.471c0,2.682,0.056,5.116-0.025,7.546c-0.037,1.128,0.224,1.654,1.447,1.49
		c0.657-0.088,1.346-0.063,2.005,0.025c1.321,0.176,1.629-0.808,1.098-1.458c-0.979-1.198-0.043-1.572,0.551-2.17
		c0.464-0.468,0.956-0.907,1.728-1.633c0,1.617,0.031,2.915-0.012,4.211c-0.025,0.751,0.12,1.151,1.006,1.035
		c0.714-0.093,1.449-0.032,2.174-0.021c1.812,0.026,2.76-1.316,1.747-2.863c-0.557-0.851-0.297-1.081,0.2-1.558
		c0.636-0.61,1.25-1.243,2.168-2.161c0,2.977,0.018,5.569-0.009,8.161c-0.01,1.029-0.854,0.68-1.38,0.682
		c-5.693,0.022-11.387,0.014-17.081,0.014c-3.515,0-3.601-0.101-3.087-3.619c0.322-2.205,1.937-3.646,4.191-3.396
		c1.312,0.145,1.312-0.739,0.933-1.171c-1.047-1.193,0.013-1.466,0.641-1.953C139.96,139.269,140.471,138.96,141.194,138.471z
		 M137.205,147.512c0.979,0.031,1.939,0.26,1.77-1.235c-0.091-0.803,0.037-1.664-1.092-1.624c-1.216,0.043-1.922,0.728-2.042,1.984
		C135.711,147.991,136.739,147.366,137.205,147.512z"/>
	<path style="fill:#0D0D0D;" d="M179.301,140.977c0,3.819,0,7.256,0,11.286c-1.955-3.637-4.989-2.197-7.582-2.509
		c-0.817-0.098-0.976,0.532-1.329,1.02c-1.299,1.797-4.08,1.957-5.319,0.126c-0.698-1.032-1.424-1.163-2.473-1.154
		c-3.724,0.031-3.725,0.008-3.725-3.703c0-2.234,0-4.468,0-6.702c0-0.279,0.112-0.633-0.017-0.826
		c-1.555-2.329,1.026-2.716,2.011-3.939c0,3.714-0.032,7.428,0.033,11.141c0.01,0.587-0.603,1.752,0.532,1.729
		c1.069-0.022,2.362,0.758,3.287-0.705c1.384-2.188,4.258-2.186,5.678-0.038c0.443,0.67,0.885,0.865,1.612,0.835
		c1.059-0.043,2.122-0.011,3.183-0.011c1.913,0,2.894-1.229,1.902-2.81c-0.634-1.01-0.223-1.282,0.31-1.814
		C177.955,142.353,178.496,141.796,179.301,140.977z M168.998,148.577c-0.15-0.827-0.524-1.481-1.506-1.42
		c-0.87,0.054-1.305,0.639-1.287,1.457c0.021,0.914,0.567,1.462,1.498,1.43C168.573,150.013,168.969,149.447,168.998,148.577z"/>
	<path style="fill:#151515;" d="M184.657,104.426c0.451,0.631,0.873,1.287,1.362,1.888c0.482,0.592,1.479,1.026,0.243,1.891
		c-0.228,0.16-0.114,0.843-0.115,1.285c-0.008,3.066-0.018,6.131,0.002,9.197c0.005,0.784,0.041,1.383-1.087,1.362
		c-1.052-0.019-0.989-0.59-0.988-1.293c0.009-4.617,0.005-9.235,0.005-13.852C184.272,104.745,184.465,104.586,184.657,104.426z"/>
	<path style="fill:#151515;" d="M129.812,107.011c-0.833,0.507-1.385,2.177-2.646,0.437c-0.608-0.838,0.072-1.047,0.387-1.476
		c0.369-0.501,0.785-0.832,1.285-0.131c0.615,0.862,1.226,0.953,1.869,0.023c0.549-0.795,0.919-0.298,1.409,0.139
		c0.723,0.646,0.621,1.092-0.034,1.727c-0.528,0.511-0.882,0.792-1.426,0.077C130.426,107.504,130.098,107.275,129.812,107.011z"/>
	<path style="fill:#151515;" d="M136.766,136.503c0.833-0.557,1.41-2.174,2.653-0.428c0.605,0.851-0.122,1.041-0.425,1.476
		c-0.384,0.552-0.818,0.761-1.283,0.095c-0.64-0.915-1.244-0.844-1.86,0.021c-0.579,0.812-0.933,0.226-1.411-0.176
		c-0.767-0.646-0.568-1.108,0.047-1.724c0.523-0.524,0.897-0.768,1.431-0.057C136.145,136.013,136.477,136.238,136.766,136.503z"/>
	<path style="fill:#151515;" d="M147.29,155.891c-0.286-0.261-0.525-0.415-0.678-0.629c-0.622-0.874-1.204-0.803-1.8,0.021
		c-0.662,0.913-1.044,0.177-1.536-0.233c-0.621-0.519-0.618-0.92-0.002-1.451c0.5-0.431,0.885-1.145,1.545-0.244
		c0.617,0.843,1.18,0.842,1.806,0.003c0.254-0.34,0.642-0.791,1.047-0.215c0.316,0.45,1.225,0.651,0.861,1.393
		C148.279,155.052,147.734,155.424,147.29,155.891z"/>
	<path style="fill:#151515;" d="M178.908,153.679c-0.381,0.418-0.684,0.81-1.046,1.134c-0.442,0.395-0.714-0.03-0.938-0.311
		c-0.54-0.679-1.023-0.729-1.538,0.019c-0.524,0.762-0.955,0.397-1.432-0.101c-0.429-0.449-0.734-0.808-0.112-1.351
		c0.505-0.441,0.938-1.044,1.561-0.188c0.587,0.805,1.061,0.498,1.561-0.1c0.234-0.279,0.504-0.675,0.93-0.229
		C178.234,152.905,178.551,153.28,178.908,153.679z"/>
	<path style="fill:#151515;" d="M153.24,137.242c-0.618,0.567-1.112,1.385-1.669,1.43c-0.61,0.05-1.427-0.783-1.453-1.377
		c-0.031-0.723,0.814-1.52,1.483-1.515C152.12,135.784,152.631,136.663,153.24,137.242z"/>
	<path style="fill:#F5F5F5;" d="M130.234,117.696c-0.46-0.153-1.471,0.491-1.373-0.845c0.093-1.269,0.795-1.9,2.012-1.957
		c1.166-0.055,0.998,0.796,1.096,1.583C132.153,117.962,131.195,117.725,130.234,117.696z"/>
	<path style="fill:#F5F5F5;" d="M139.866,120.309c-0.879-0.053-1.451-0.542-1.48-1.43c-0.028-0.864,0.422-1.504,1.376-1.512
		c0.958-0.007,1.393,0.666,1.431,1.498C141.231,119.675,140.731,120.187,139.866,120.309z"/>
	<path style="fill:#F5F5F5;" d="M137.205,147.512c-0.466-0.146-1.494,0.478-1.364-0.874c0.121-1.256,0.826-1.941,2.042-1.984
		c1.128-0.04,1.001,0.821,1.092,1.624C139.145,147.772,138.185,147.543,137.205,147.512z"/>
	<path style="fill:#F5F5F5;" d="M168.998,148.577c-0.029,0.871-0.425,1.436-1.295,1.466c-0.932,0.032-1.478-0.516-1.498-1.43
		c-0.018-0.818,0.417-1.403,1.287-1.457C168.474,147.096,168.847,147.75,168.998,148.577z"/>
</g>
</svg>
