<?xml version="1.0" encoding="utf-8"?>
<!-- Generator: Adobe Illustrator 28.0.0, SVG Export Plug-In . SVG Version: 6.00 Build 0)  -->
<svg version="1.1" id="Layer_1" xmlns="http://www.w3.org/2000/svg" xmlns:xlink="http://www.w3.org/1999/xlink" x="0px" y="0px"
	 viewBox="0 0 600 600" style="enable-background:new 0 0 600 600;" xml:space="preserve">
<style type="text/css">
	.st0{fill:#FFFFFF;}
	.st1{fill:#231F20;}
	.st2{fill:#95C7DC;}
	.st3{fill:#7E423F;}
	.st4{fill:#7B5D3F;}
	.st5{fill:#38A761;}
	.st6{fill:#44765D;}
</style>
<path class="st0" d="M77,299.5c0,123,99.7,222.7,222.7,222.7c123,0,222.7-99.7,222.7-222.7S422.7,76.8,299.7,76.8
	C176.7,76.8,77,176.5,77,299.5"/>
<path class="st1" d="M299.7,523.8c-59.9,0-116.2-23.3-158.5-65.7c-42.3-42.3-65.7-98.7-65.7-158.5S98.8,183.4,141.2,141
	c42.3-42.3,98.7-65.7,158.5-65.7S415.9,98.7,458.2,141c42.3,42.3,65.7,98.7,65.7,158.5s-23.3,116.2-65.7,158.5
	C415.9,500.4,359.6,523.8,299.7,523.8 M299.7,78.3c-122,0-221.2,99.2-221.2,221.2s99.2,221.2,221.2,221.2s221.2-99.2,221.2-221.2
	S421.7,78.3,299.7,78.3"/>
<path class="st1" d="M300.4,455.5c-85.6,0-155.2-69.6-155.2-155.2c0-85.6,69.6-155.2,155.2-155.2s155.2,69.6,155.2,155.2
	C455.6,385.8,386,455.5,300.4,455.5 M300.4,147.2c-84.4,0-153,68.6-153,153c0,84.4,68.6,153,153,153s153-68.6,153-153
	C453.4,215.9,384.7,147.2,300.4,147.2"/>
<path class="st1" d="M318.4,114.2c-1.3-0.1-2.7-0.1-3.9-0.4c-4-0.9-7.9-2.4-11.4-4.5c-3.4-2.1-6.9-2.4-10.5-0.5
	c-1.7,0.9-3.2,2.3-3.9,4.1c-0.2,0.4,0,1.1,0.2,1.5c0.2,0.3,0.9,0.4,1.3,0.3c1.3-0.2,2.5-0.6,3.8-0.8c2.4-0.3,4.5,0.8,6.5,1.8
	c0.4,0.2,1,0.6,1,0.8c-0.1,0.4-0.4,1-0.8,1.2c-4.1,2.3-8.5,2.4-13,1.5c-1.2-0.3-1.7-1.3-1.4-2.5c0.5-1.6,0.2-3-0.8-4.3
	c-0.5-0.7-1.1-1.4-1.8-2c-2.2-2.1-5.9-2.3-8.5-0.9c-4,2.2-7.2,5.2-9.8,8.9c-0.7,1-1.3,2.4-2.9,2.5c-1.5,0.1-2.9-0.1-4.4-0.8
	c-1-0.5-2.2-0.9-3.4-1c-2.7-0.3-4.4,1.6-5.9,3.5c-1.9,2.3-3.4,4.8-5.3,7.1c-2.1,2.6-4.3,5.2-6.8,7.4c-1.8,1.6-5.3,1.1-6.1-1.8
	c-0.3-1.2-0.4-2.5-0.2-3.7c0.3-2.3,0.9-4.5,1.4-6.8c0.2-0.9,0.7-1.3,1.6-1.2c2,0.2,3.9,0.4,5.9,0.5c0.6,0,1.5-0.2,1.7-0.6
	c0.6-1.6,1.5-3.3,1.2-4.8c-0.6-3.7-3.1-6.4-5.9-8.6c-2.4-1.9-3.5-1.6-5.6,0.6c-1.8,1.9-2.8,4.2-3.4,6.6c-0.3,1.1-0.3,2.3,0,3.3
	c0.5,2.4,0.3,4.3-1.7,5.9c-1,0.8-1.5,0.7-2.3-0.1c-1.2-1.3-2.5-2.6-3.9-3.9c-1.8-1.7-3.7-2-5.4-0.8c-1.5,1-2.2,2.6-2.8,4.3
	c-0.9,3,0,5.8,0.6,8.6c0.1,0.3,0.3,0.5,0.6,0.7c2.2,2.3,4.8,2.7,8,1.3c0.5-0.2,1.2-0.1,1.8-0.2c0,0.6,0.2,1.2,0,1.8
	c-0.9,3-2.7,5.6-4.9,7.7c-1.9,1.8-4.1,3.5-6.5,4.7c-3,1.5-6.3,1-9.7,1.1c-2,0.7-0.8,2.4-0.5,2.6c13.9,6,24.1-9.7,24.7-12.1
	c0.4-1.3,0.4-2.7,0.6-4c0.1-0.4,0.5-0.7,0.7-1.1c0.3,0.3,0.5,0.7,0.8,1c0,0.1,0,0.2,0.1,0.3c0.2,1.9,1.2,3.4,2.6,4.6
	c1.6,1.4,3.4,2.2,5.7,1.1c2.4-1.2,4.1-3.1,5.6-5.1c1.9-2.4,3.3-5.2,5.2-7.6c1.4-1.9,3.2-3.6,4.9-5.4c0.4-0.4,1.2-0.6,1.8-0.5
	c1.5,0.3,2.9,0.8,4.3,1.2c1.3,0.4,1.5,1,1,2.3c-0.4,0.8-0.6,1.6-0.9,2.5c-0.3,0.7-0.6,1.5,0.4,1.7c0.5,0.1,1.4-0.3,1.7-0.7
	c1-1.2,1.8-2.6,2.6-3.9c0.4-0.7,0.9-1,1.7-1c1.1,0,2.3-0.1,3.4-0.3c4.6-0.8,9.2-1.5,13.6-3.2c1-0.4,2-0.3,3,0.4
	c2.9,2,6.1,2.4,9.6,1.7c3.3-0.7,6-2.8,9-4.2c3.4-1.6,6.7-2.6,10.4-1.8c2.9,0.6,5.4-0.6,6.7-3.2C320.6,115.3,320.1,114.4,318.4,114.2
	 M231.6,116.2c0.1-0.5,0.6-0.9,0.8-1.2c1.7,0.1,2.7,0.8,2.5,1.8c-0.1,0.4-0.7,1-1.2,1C232.7,118,231.4,117,231.6,116.2 M219.8,130.7
	c-0.1,0.4-0.8,0.7-1.3,0.9c-0.3,0.1-0.6,0-0.9,0c0,0.1,0,0.1,0,0.2c-0.9-0.2-1.9-0.3-2.7-0.7c-0.8-0.5-1.4-1.3-0.9-2.4
	c0.4-1,1.7-1.4,2.9-0.9c0.8,0.4,1.7,0.8,2.4,1.4C219.6,129.4,219.9,130.2,219.8,130.7 M280.6,118.5c-3.5,1.4-7.1,2.3-10.9,2.6
	c-0.3,0-0.6,0-0.9,0c-0.5-0.1-1.3-0.2-1.4-0.4c-0.1-0.5,0-1.3,0.4-1.7c2.6-2.8,5.6-4.9,9.6-4.5c1.2,0.1,2.5,0.8,3.5,1.5
	C282,116.9,281.7,118.1,280.6,118.5"/>
<path class="st1" d="M198.7,152.8c0.4-0.4,2.6-2,2.7-2.1c2.2-2.1,4.5-4.1,6.6-6.3c2-2.2,3-4.9,2.1-7.9c-1.3-4.5-4.9-6.7-8.7-8.7
	c-0.3-0.1-1,0.2-1.3,0.5c-1.9,2.6-1.5,4.4,1,6.2c0.8,0.6,1.8,1.1,2.7,1.6c2,1.3,2.2,2.7,0.5,4.4c-1.2,1.2-2.4,2.3-3.7,3.4
	c-5.1,4.5-10.3,8.8-17.1,10.6c-3.4,0.9-6-0.4-6.7-4c-0.3-1.9-0.2-3.9-0.3-5.8c0-0.5-0.2-1.1-0.5-1.6c-0.2-0.3-0.7-0.4-1-0.4
	c-0.2,0-0.4,0.5-0.4,0.8c-0.2,0.8-0.1,1.6-0.4,2.4c-0.7,1.8-0.7,3.5-0.2,5.3c0.6,2.3,0.9,4.7,2.2,6.7c1,1.4,2.2,2.5,3.9,2.9
	c3.4,0.8,6.5-0.4,9.3-2c3-1.8,5.9-3.9,8.8-5.8C198.4,153,198.7,152.8,198.7,152.8"/>
<path class="st1" d="M364.9,143c-2.4,0-4.8,0-7.2,0c-0.7,0-1.7,0.4-1.9-0.8c0-0.2,1.1-0.5,1.7-0.8c0.4-0.2,0.9-0.5,1.1-0.9
	c0.1-0.2-0.2-0.7-0.3-1.1c-0.2-0.5-0.4-0.9-0.5-1.4c-0.1-0.4,0-0.8,0-1.2c-0.4,0.3-0.9,0.4-1.5,0.5c-0.9,0.2-1.9,0.3-2.8,0.5
	c-0.8,1.6-1.6,3.2-2.3,4.8c-0.6,1.2-0.3,2,0.8,2.5c3.5,1.5,7.2,1.5,10.9,1.1c1.1-0.1,2.2-0.6,3.2-1.1c0.4-0.2,0.7-0.8,1-1.2
	c-0.5-0.3-1-0.6-1.5-0.8C365.4,143,365.1,143,364.9,143"/>
<path class="st1" d="M389.4,132.1c-0.2-2.8-3.1-5.3-5.6-4.4c-1.8,0.6-3.4,1.7-5,2.6c-1.9,1.1-3.6,2.4-5.6,3.3c-2.3,1-4.8,1.1-7-0.5
	c-0.9-0.7-0.9-1.4,0.2-1.9c1.5-0.6,3-1.2,4.5-1.7c0.5-0.2,1.2-0.1,1.7,0.1c1.5,0.4,2.5,0.1,3.4-1.3c0.2-0.4,0.5-0.7,0.8-1.1
	c1.1-1.6,1.1-2.6-0.4-3.9c-3.8-3.5-8.2-6-13.4-6.6c-1.8-0.2-3.8,0.3-5.7,0.7c-2.8,0.6-4,2.9-5.2,5.1c-0.8,1.3,0,2.5,1.6,2.7
	c1.9,0.3,3.6,1,4.7,2.8c0.8,1.2,0.8,2.1-1.2,2.3c-2.5,0.2-5-0.1-7.3-1.3c-1.3-0.7-1.6-1.6-1.8-2.9c-0.2-1.3-0.7-2.7-1.4-3.7
	c-0.8-1.1-2-2.1-3.5-1.6c-2.1,0.8-4.2,1.7-6.2,2.8c-1.5,0.8-2.8,2-4.2,3c-1.5,1-2.8,1.1-4,0.2c-1.4-1-1.6-2.3-0.8-4
	c1.2-2.6,2.6-5.1,4-7.5c1-1.9,2.3-3.5,4.2-4.6c0.5-0.3,0.9-0.8,1.1-1.3c0.2-0.5,0.3-1.2,0.1-1.6c-0.2-0.3-0.9-0.3-1.4-0.3
	c-0.5,0-1,0.3-1.5,0.5c-0.8,0.4-1.4,0.3-2-0.4c-0.6-0.8-0.1-1.5,0.4-2c1-0.9,2.1-1.7,3.1-2.7c0.7-0.7,1.2-1.5,2-2.6
	c-0.8,0-1.1-0.1-1.3,0c-3.6,1.4-6.4,3.8-8.1,7.3c-0.7,1.5-0.9,3,0.5,4.2c0.9,0.9,0.9,1.8,0.3,2.8c-0.3,0.5-0.5,0.9-0.8,1.4
	c-1.7,2.9-3.5,5.7-5,8.7c-1.4,2.9-1.2,6,1.9,7.9c1.6,0.9,3.4,1,4.4,0.1c1.2-0.9,2.3-1.8,3.5-2.7c1.7-1.2,3.3-2.5,5.1-3.4
	c1-0.5,2.5-0.2,3.7,0.1c0.5,0.2,0.5,1.5,0.8,2.3c0.1,0.3,0.2,0.7,0.3,1c0.6,3.3,2.6,5.2,5.8,5.8c1.6,0.3,3.3,0.3,5.1,0.5
	c0.5-0.1,1-0.2,1.6-0.3c0.5-0.1,1.2-0.1,1.5-0.5c0.2-0.2,0.4-0.2,0.6-0.2c0.1-0.5,0.6-0.7,1.4-0.7c1.1,0,1.3,0.7,1.6,1.5
	c0.9,2.6,2.9,4.1,5.5,4.6c2.3,0.5,4.5-0.5,6.5-1.6c1.8-1,2.2-1,3.6,0.5c1.4,1.6,2.8,3.2,4.2,4.8c1.1,1.2,2.1,1.3,3,0
	c1.6-2.1,3.1-4.2,4.3-6.5C388.7,136.1,389.5,134.2,389.4,132.1 M363.5,124.6c0-0.3,0.5-0.6,0.6-0.8c1.7,0,3.4,1.1,3.4,1.9
	c0,0.7-1.4,1.6-2.4,1.6C364.3,127.3,363.5,126,363.5,124.6 M383.7,137l-0.4,0.4c-0.5-0.3-1.1-0.6-1.6-1c-0.5-0.4-0.8-0.9-1.2-1.4
	c-0.2-0.4-0.6-1.1-0.4-1.2c0.4-0.4,0.9-0.7,1.4-0.7c1.2,0,2,1.1,2.1,2.5C383.8,136.1,383.7,136.6,383.7,137"/>
<path class="st1" d="M403.2,152.7c2,0,2.2-0.3,1.4-2.1c-0.9-1.9-1.8-3.9-3.9-4.8c-0.8-0.4-1.8-0.4-2.7-0.6c-0.6-0.1-1.3-0.3-1.6-0.7
	c-0.2-0.3,0.1-1.1,0.4-1.5c2.6-3.3,8.5-3.3,10.9,0.2c1.5,2.2,2.7,4.6,4,6.9c1.5,2.7,3.4,4.9,6,6.6c2,1.2,2.1,2,0.2,3.5
	c-1,0.8-2.3,1.6-3.5,1.7c-1.1,0.1-2.4-0.6-3.3-1.4c-2.2-1.9-4.5-2.4-7.3-2.2c-2.2,0.1-4.5,0.3-6.6-0.3c-4.2-1.3-7.8-3.6-8.8-8.2
	c-0.4-1.8-0.1-4,0.7-5.6c1.6-3.5,3.7-6.9,5.5-10.3c1.6-3.1,3.4-6.1,4.7-9.3c0.9-2.2,1.9-3.7,4.2-4.2c1.2-0.2,2.1,0.6,1.7,1.8
	c-0.5,1.3-1.2,2.5-1.9,3.7c-2.7,4.7-5.5,9.3-8.1,14c-0.8,1.5-1.5,3.2-1.8,4.9c-0.5,2.7,1.3,4.5,3.4,5.8
	C398.7,151.8,400.8,152.6,403.2,152.7"/>
<path class="st1" d="M267.1,136.9c-2.1,0.2-4.2,0.2-6.2,0.6c-1.3,0.3-2.6,1-3.6,1.7c-2.2,1.6-4.7,2-7.3,2.4c-1,0.2-2.1-0.2-3.1-0.5
	c-0.4-0.1-1.1-0.6-1.1-0.9c0-0.5,0.4-1.3,0.8-1.4c1.2-0.4,2.4-0.8,3.7-0.8c2.7,0.1,4.9-1.1,7.1-2.3c1.4-0.7,2.9-1.1,4.3-1.7
	c0.5-0.2,1-0.5,1.4-0.9c1.6-1.2,3.1-2.6,4.8-3.6c1.7-1,2.7-0.7,3.9,0.7c1.2,1.4,1.4,2.9,0.4,4.2C271,136.1,269.5,137.4,267.1,136.9
	 M267.9,134.7c0.7-0.5,1.2-0.9,1.7-1.3c-0.4-0.3-0.8-1-1.1-1c-0.7,0.2-1.3,0.7-1.9,1C267,133.8,267.3,134.2,267.9,134.7"/>
<path class="st1" d="M185.7,135.6c0.5,0,1,0.1,1.5,0c1-0.1,1.9-0.4,1.6-1.8c-0.2-1.2,1.1-2.5,2.3-2.4c1,0,1.9,0.1,2.9,0.3
	c2,0.5,3.3,1.9,3.4,4c0.2,2.1-1.9,3.6-4.2,3.1c-2.3-0.5-2.3-0.4-3.1,1.8c-0.4,1-0.9,1.9-2.3,1.8c-1.4-0.1-2.8,0-4.2,0
	c-1.2-0.1-2.4-1.6-2.3-2.9c0.3-2.3,1.2-3.7,2.6-3.8C184.7,135.5,185.2,135.6,185.7,135.6"/>
<path class="st1" d="M355.3,109.7c-0.6,0.9-1,1.7-1.6,2.3c-2.4,2.3-3.3,2.2-5.5-0.4c-0.7-0.9-1.3-0.7-2-0.1
	c-1.5,1.3-2.6,1.2-3.9-0.4c-0.7-0.9-1.3-1.8-1.9-2.7c-0.8-1.2-0.7-1.9,0.8-3.3c1-1,2-2.3,3.7-1.5c0.6,0.3,1,0.9,1.4,1.5
	c1,1.4,1.8,1.5,3.1,0.5c1.9-1.4,2.1-1.4,3.5,0.6C353.7,107.3,354.4,108.4,355.3,109.7"/>
<path class="st1" d="M379.3,115.7c-6-0.3-10.8-0.8-15.4-2.1c-1.9-0.6-3.7-1.1-5.6-1.7c-0.5-0.2-1.1-0.4-1.5-0.8
	c-0.4-0.4-0.8-1.3-0.6-1.6c0.2-0.5,1-0.8,1.6-1c0.4-0.1,0.9,0.2,1.4,0.4c2.6,0.9,5.3,1.9,8,2.6c4.2,1.1,8.5,1.5,12.8,1.2
	c1.5-0.1,3-0.6,4.5-0.9c0.5-0.1,1.2-0.2,1.6,0c0.4,0.1,0.8,0.9,0.7,1.1c-0.4,0.6-0.9,1.5-1.5,1.6C383,115.1,380.5,115.4,379.3,115.7
	"/>
<path class="st1" d="M431.7,138.6c-3.5-0.8-7-1.5-10.4-2.5c-4.4-1.4-8.8-3.1-12.7-5.6c-0.6-0.4-1.4-0.8-1.8-1.4
	c-0.4-0.5-0.6-1.4-0.4-2c0.3-0.8,1.1-0.9,2-0.4c2,1.2,3.9,2.3,5.9,3.4c3.5,2,7.3,3.4,11.3,4.2c2.7,0.6,5.5,0.8,8.3,0.8
	c0.7,0,1.7,0.4,1.9,0.9c0.4,1.1-0.6,1.7-1.5,1.9c-0.8,0.3-1.6,0.3-2.4,0.4C431.7,138.4,431.7,138.5,431.7,138.6"/>
<path class="st1" d="M418.6,141.2c1.6-2.2,3.4-2.1,5.1-1.8c0.5,0.1,1.1,0.7,1.4,1.2c0.3,0.4,0.3,1.1,0.2,1.6c-0.1,0.6-0.4,1.1-0.8,2
	c1-0.2,1.6-0.3,2.2-0.5c1.4-0.4,2.8-1,4.3-1.2c1.1-0.2,2,0.3,2.6,1.4c0.6,1,0,1.7-0.7,2.3c-0.8,0.6-1.7,1.2-2.7,1.5
	c-0.6,0.2-1.4-0.3-2.2-0.5c-0.7-0.2-1.5-0.5-2.1-0.3c-2.9,0.9-5.7,0.7-8.5-0.3c-0.7-0.2-1.5-0.9-1.7-1.5c-0.2-0.8,1.4-1.9,2.5-1.8
	c0.2,0,0.4,0.2,0.6,0.1c0.4-0.1,0.8-0.3,1.3-0.4c-0.2-0.3-0.4-0.6-0.7-0.9C419.3,141.9,419,141.6,418.6,141.2"/>
<path class="st1" d="M293.6,104.6c-2-0.2-3.6-0.3-5.2-0.6c-0.4-0.1-0.9-0.5-1-0.9c-0.1-0.4,0.1-1,0.5-1.3c0.4-0.4,1.1-0.6,1.7-0.7
	c2-0.2,4-0.3,5.9-0.3c2.8,0,5.3-1.1,7.9-1.9c2.2-0.8,4.2-1.9,6.3-3c0.8-0.4,1.5-0.3,1.8,0.4c0.4,0.9,0.2,1.7-0.7,2.3
	c-3.1,2.1-6.7,3.3-10.3,4.3c-2.1,0.6-4.3,1-6.5,1.5C293.8,104.6,293.6,104.6,293.6,104.6"/>
<path class="st1" d="M395.8,114.2c0,0,0.1,0,0.1,0c0.9,0,2-0.2,2.1,1.1c0.1,1.1-0.7,1.9-2.1,2.1c-1,0.1-1.9,0.1-2.9,0.3
	c-0.6,0.1-1.3,0.3-1.8,0.6c-0.3,0.2-0.6,0.7-0.6,1.1c0,0.3,0.6,0.5,0.9,0.7c0.5,0.4,1.4,0.7,1.4,1.1c0,0.6-0.4,1.4-0.9,1.7
	c-0.8,0.6-1.8,1.1-2.8,1.4c-2,0.7-3.5-1.2-3.3-3.5c0.1-1.8,1.2-2.9,2.4-3.9C390.6,115.2,393.1,114.4,395.8,114.2"/>
<path class="st1" d="M279.1,102c-0.4,0.2-0.9,0.5-1.3,0.8c-0.8,0.6-1.5,1.3-2.4,1.9c-1,0.6-1.5,0.3-1.4-0.8c0.1-0.7,0.5-1.4,0.8-2
	c1.3-2.7,3.8-3.8,6.4-4.6c1.3-0.4,2.5,0.1,3.3,1.3c0.8,1.1,0.7,2.2-0.3,3.1c-1.2,1.2-2.5,2.3-3.9,3.3c-0.2,0.2-0.8,0.2-1,0
	c-0.2-0.2-0.2-0.7-0.2-1c0-0.5,0.2-1,0.3-1.5C279.3,102.3,279.2,102.2,279.1,102"/>
<path class="st1" d="M267.2,106.4c-0.3,1.4-0.5,2.6-0.8,3.7c-0.4,1.2-1.4,1.4-2.4,1.1c-1.7-0.5-3.3-1.2-4.9-1.9
	c-0.3-0.1-0.7-0.6-0.8-1c-0.6-2.6,2.1-5.4,4.6-4.7c1.2,0.4,2.4,0.9,3.4,1.6C266.8,105.4,267,106.1,267.2,106.4"/>
<path class="st1" d="M165.3,142c0.4-1,0.8-2.1,1.3-3.1c0.2-0.3,1-0.6,1.2-0.5c0.4,0.2,0.7,0.8,0.7,1.3c0.1,0.8,0,1.7,0,2.5
	c0,0.4-0.1,0.8,0.1,1.2c0.3,0.6,0.7,1.1,1,1.6c0.4-0.5,0.8-0.9,1-1.5c0.3-0.9,0.8-1.5,1.7-1.1c0.3,0.1,0.8,0.8,0.7,1.1
	c-0.3,1.8-0.7,3.7-1.3,5.4c-0.4,1.3-1.9,1.6-3.1,0.9c-1.7-1-2.3-2.7-2.8-4.5c-0.2-1-0.3-2.1-0.4-3.1
	C165.5,142.1,165.4,142,165.3,142"/>
<path class="st1" d="M181.5,164.5c0.3,0.9,0.4,1.7,0.7,2.4c0.3,0.7,0.6,1.4,1.2,1.9c0.2,0.2,1.1-0.2,1.6-0.5
	c0.8-0.4,1.3-1.5,2.4-0.7c1,0.8,1.2,2,1,3.1c-0.4,2-2.4,3.6-4.2,3.5c-2-0.1-3.7-1.7-4-3.7c-0.2-1.1-0.4-2.2-0.5-3.4
	C179.5,166.1,180.1,165.2,181.5,164.5"/>
<path class="st1" d="M314.8,105.9c0.9,0.4,1.5,0.7,2.2,1c-1,2.4-4.5,3.9-6.5,3c-1.4-0.6-1.8-1.9-0.7-3c0.7-0.7,0.8-1.5,0.8-2.4
	c0-1.7,1.9-3.1,3.6-2.6c1.1,0.3,1.5,1.5,1.1,2.7C315.1,105.1,314.9,105.6,314.8,105.9"/>
<path class="st1" d="M406.7,159.8c0.6,0.4,1.2,0.6,1.6,1.1c0.4,0.5,0.7,1.1,1,1.7c1,1.7,0.7,2.6-1,3.6c-0.3,0.2-0.6,0.3-0.8,0.4
	c-2,1.3-2.9,1.3-3.9-0.5c-1.5-2.5-1.2-4.2,0.5-5C405,160.8,405.8,160.3,406.7,159.8"/>
<path class="st1" d="M249.3,108.8c1-0.2,1.5-0.5,2.1-0.5c0.6,0,1.5,0,1.6,0.2c0.2,0.6,0.2,1.5-0.1,2c-0.5,0.8-1.3,1.4-1.9,2
	c-1.8,1.7-4,1.1-4.8-1.2c-0.6-2,0.2-4.6,1.8-5.6c0.4-0.3,1.1-0.2,1.6-0.2c0,0.5,0,0.9,0,1.4C249.7,107.4,249.5,107.9,249.3,108.8"/>
<path class="st1" d="M282.3,132c0.6-0.2,1.2-0.4,1.8-0.5c0.6-0.1,1.5-0.1,1.8,0.2c0.3,0.3,0.2,1.3-0.1,1.7c-0.9,1.7-4.7,3.5-6.3,1.4
	c-0.8-1.1-1-2.8-0.2-4.5c0.3-0.6,0.6-1.3,1.1-1.8c0.4-0.4,1-0.5,1.5-0.7c0.2,0.5,0.5,1.1,0.5,1.6c0,0.7-0.4,1.4-0.5,2.1
	C282,131.8,282.2,131.9,282.3,132"/>
<path class="st1" d="M300.9,128.3c0.9,0.4,1.5,0.6,2.2,0.9c-0.4,0.8-0.6,1.8-1.2,2.3c-0.7,0.6-1.8,1.2-2.7,1.2
	c-1.7,0-2.1-1.9-1.4-3.9c0.6-1.5,1.7-2.8,2.8-4c0.5-0.6,1.4-1,2.5-0.1c-0.6,0.8-1.2,1.5-1.7,2.2C301.1,127.3,301,128,300.9,128.3"/>
<path class="st1" d="M313.3,124.5c0,0.9-1.1,1.9-2.6,1.9c-1.3,0-1.8,0.4-2.1,1.8c-0.2,1.3-1.1,2.5-2.7,2.8c-1,0.2-1.8-0.5-1.4-1.4
	c1.2-3.1,3.3-5.5,6.6-6.4C312.2,122.8,313.3,123.5,313.3,124.5"/>
<path class="st1" d="M208.5,451.5c0.9,0.3,1.9,0.6,2.8,1c3,1.6,6.1,3.2,9,5c1.7,1,3.4,2.3,4.8,3.7c1.2,1.2,1.3,2.9,0.4,4.5
	c-0.8,1.5-2,2.5-3.8,2.6c-1.2,0-1.7,0.5-1.3,1.7c0.5,1.8,1.1,3.6,1.6,5.5c0.1,0.4,0,1.2-0.3,1.4c-0.4,0.3-1.1,0.4-1.6,0.3
	c-3.3-1-3.6-3.9-4.1-6.6c-0.2-0.8-0.3-1.7-0.4-2.6c-1.7,1.3-2.1,2.9-1.3,4.4c0.1,0.3,0.2,1,0,1c-0.4,0.2-1,0.3-1.3,0.2
	c-1-0.4-1.9-0.9-2.8-1.4c-0.4-0.2-0.8-0.4-1.2-0.6c-0.5-0.3-1.4-0.7-1.3-0.8c0.2-0.6,0.6-1.3,1-1.8c0.6-0.8,1.5-1.5,2-2.4
	c1.2-2.2,2.3-4.5,3.5-6.7c0.2-0.4,0.5-0.9,0.5-1.4c0-0.5-0.2-1.3-0.5-1.4c-0.4-0.1-1.2,0.1-1.5,0.4c-1.9,2.9-3.7,5.9-5.5,8.9
	c-0.3,0.5-0.1,1.2-0.2,2.1c-0.2,0.2-0.5,0.6-1,1.1c-1.5-0.9-3.1-1.7-4.6-2.8c-0.5-0.4-0.7-1.2-1.3-2.1c3.2,0.3,3.7-2.1,4.8-3.6
	c0.2-0.2-0.2-1-0.5-1.4c-0.4-0.4-1-0.5-1.5-0.9c-1.5-1.2-1.7-1.2-2.9,0.3c-0.6,0.7-1.1,1.5-1.5,2.4c-0.2,0.4,0.1,1,0.2,1.5
	c0.1,0.5,0.1,1,0.2,1.4c-0.5,0-1.1,0.1-1.6-0.1c-1.4-0.7-2.7-1.5-4-2.4c-0.4-0.3-0.9-0.8-1-1.3c-0.2-0.6-0.2-1.2,0.8-1.2
	c0.5,0,1.2-0.3,1.5-0.8c1.8-2.7,3.6-5.5,5.3-8.3c0.4-0.6,0.2-1.6,0.3-2.3c0.1-0.5,0.1-1.1,0.2-1.6c0.5,0.1,1.1,0,1.5,0.3
	c1.5,0.9,3.1,2,4.5,3c0.3,0.2,0.6,0.8,0.6,1.2c0,0.2-0.7,0.5-1.1,0.5c-1.2,0-1.6,0.8-2.1,1.6c-1.4,2.3-1.4,2.3,0.7,3.9
	c1.7,1.3,2.2,1.2,3.3-0.7c1.2-2.1,1.2-2.1,0.5-4.2C208.4,451.8,208.4,451.7,208.5,451.5 M221.6,462.7c-0.1-0.1-0.2-0.1-0.2-0.2
	c0-0.2,0-0.5-0.1-0.6c-0.4-0.6-0.9-1.1-1.4-1.7c-0.4,0.4-0.9,0.7-1.3,1.2c-0.4,0.4-0.7,1-0.8,1.5c-0.1,0.6-0.2,1.6,0.1,1.8
	c0.6,0.3,1.6,0.4,2.1,0.1C220.7,464.2,221.1,463.3,221.6,462.7"/>
<path class="st1" d="M335,478.4c0-0.6,0-1.2,0.5-1.5c0-0.1,0.5-0.9,0.3-2.6c-1.5,0.2-3,0.5-4.6,0.8c-0.6,0.1-1.3,0.6-1.6,1.1
	c-0.1,0.3,0.5,1,0.9,1.5c0.3,0.4,0.9,0.8,1,1.2c0.3,2.9,0.6,5.8,0.7,8.8c0.1,2.1-0.9,2.8-3.1,2.9c-1.7,0.1-2.8-0.9-3-2.7
	c-0.4-2.6-0.8-5.3-1-7.9c-0.1-0.7,0.5-1.4,0.7-2.1c0.2-0.4,0.7-1,0.5-1.2c-0.2-0.4-0.8-0.8-1.3-0.7c-1.8,0.1-3.6,0.3-5.4,0.7
	c-0.5,0.1-1,0.8-1.3,1.3c-0.1,0.2,0.6,0.7,0.9,1.1c0.3,0.4,0.8,0.8,0.9,1.3c0.4,2.8,0.6,5.6,1.2,8.3c0.3,1.4,1.3,2.8,2.4,3.7
	c2.6,2.1,5.6,1.7,8.4,0.3c2.1-1,3.8-2.8,3.5-5.3C335.5,484.4,335.3,481.4,335,478.4"/>
<path class="st1" d="M354.3,486.3c-0.9-3.9-1.8-7.8-2.7-11.6c-0.1-0.4,0-0.9,0-1.3c0-0.8,0-1.6,0-2.5c-1.8,0.4-3.4,0.8-5,1.2
	c-0.3,0.1-0.7,0.6-0.7,0.9c0,0.2,0.4,0.6,0.7,0.8c0.4,0.3,1.1,0.4,1.2,0.7c0.6,1.8,1.1,3.7,1.6,5.5c-0.2,0.1-0.3,0.2-0.5,0.2
	c-0.4-0.3-0.9-0.5-1.3-0.8c-2-1.6-3.9-3.3-5.9-4.8c-0.8-0.5-1.9-0.9-2.8-0.8c-0.6,0.1-1.1,0.1-1.7,0.2c-0.7,2.1-0.7,2.1-0.7,2.7
	c0.5,0.2,0.7,0.7,0.9,1.3c0.5,2.3,1,4.6,1.6,6.9c0.5,1.8,1.4,3.5-0.3,5.2c-0.1,0.1-0.1,0.2-0.1,0.2c0,0.4,0,0.8,0.2,1.1
	c0.1,0.2,0.6,0.1,1,0.1c0.9-0.1,1.7-0.3,2.6-0.5c0.6-0.1,1.4-0.1,1.9-0.5c0.4-0.3,0.8-0.9,0.9-1.4c0.1-0.3-0.6-0.6-0.9-1
	c-0.4-0.5-1.1-0.9-1.3-1.5c-0.5-1.5-0.8-3-1.2-4.5c-0.1-0.4-0.2-0.9-0.2-1.3c0.1-0.1,0.2-0.2,0.4-0.3c0.8,0.6,1.6,1.3,2.4,1.9
	c2.4,1.9,4.7,3.8,7.1,5.6c0.5,0.4,1.5,0.4,2.2,0.2C354.7,488,354.5,487.1,354.3,486.3"/>
<path class="st1" d="M252.2,480.7c0.6-0.6,0.9-0.8,1.2-1.2c1.5-1.9,3-3.9,4.6-5.9c0.3-0.4,0.9-1,1.3-0.9c1.7,0.1,3.3,0.4,4.9,0.8
	c0.9,0.2,0.9,1.3,0.2,1.7c-2.1,1-2,3.2-2.7,4.9c-0.7,1.8-1.1,3.8-1.4,5.8c-0.1,0.9,0.2,1.8,0.3,2.8c0.1,0.5,0.1,1,0.2,1.6
	c-0.6,0-1.2,0.2-1.7,0.1c-1.1-0.2-2.2-0.5-3.3-0.8c-0.6-0.2-1.3-0.2-1.7-0.6c-0.4-0.3-0.6-0.9-0.6-1.3c0-0.3,0.5-0.8,0.8-0.9
	c1-0.2,1.2-0.8,1.4-1.7c0.2-1.2,0.7-2.4,1.1-3.5c0.1-0.2,0-0.4,0-1c-0.6,0.5-0.9,0.8-1.2,1.1c-1.2,1.6-2.4,3.2-3.7,4.7
	c-0.6,0.6-1.6,1.3-2.3,1.2c-0.5-0.1-1.2-1.2-1.3-2c-0.4-1.6-0.5-3.3-0.7-5c-0.1-0.5-0.2-1.1-0.3-1.7c-1.4,1.2-1.9,4.6-1.1,6.1
	c0.2,0.5,0.3,1,0.4,1.6c-0.6,0-1.2,0.2-1.7,0c-1.4-0.3-2.8-0.7-4.2-1.1c0.3-0.9,0-1.9,1.2-2.4c0.2-0.1,0.4-0.6,0.5-0.9
	c0.9-3.2,1.9-6.5,2.7-9.7c0.1-0.5-0.2-1.1-0.3-1.6c-0.2-0.5-0.5-1-0.6-1.6c-0.1-0.9,0.3-1.2,1.2-0.9c0.8,0.3,1.7,0.6,2.5,0.8
	c2,0.5,2.8,1.4,3.1,3.4C251.2,475.2,251.7,477.8,252.2,480.7"/>
<path class="st1" d="M162.9,436.3c-1.6-1.8-3.2-3.5-4.7-5.4c-0.2-0.2-0.2-0.8,0-1.1c0.1-0.2,0.6-0.4,0.9-0.3
	c1.4,0.5,2.3-0.2,3.3-1.1c2.1-1.9,2.1-1.8,0.3-3.8c-1.6-1.8-1.6-1.8-3.6-0.2c-1.4,1.1-2.4,2.2-1.4,4.2l-0.4,0.2
	c-0.8-0.5-1.6-0.9-2.3-1.5c-1.1-1.2-2.1-2.5-3.1-3.8c-0.2-0.3-0.2-0.8-0.3-1.2c0.4-0.1,0.9-0.3,1.2-0.2c1.1,0.3,1.9-0.1,2.7-0.8
	c2.2-1.9,4.4-3.9,6.7-5.7c0.8-0.6,1.2-1.3,1.2-2.4c0-0.4,0.2-1.1,0.4-1.1c0.4-0.1,1,0.1,1.3,0.4c1.3,1.4,2.6,2.8,3.8,4.2
	c0.6,0.7,0.2,1.7-0.8,1.5c-2-0.4-3,1.1-4.3,2c-0.6,0.5-0.7,1.1-0.1,1.7c0.6,0.6,1,1.4,1.6,1.9c0.3,0.3,1.1,0.6,1.4,0.4
	c1.3-1,3-1.6,3-3.7c0-0.4,0.3-0.9,0.5-1.3c0.4,0.2,0.9,0.4,1.2,0.7c1.3,1.4,2.5,2.7,3.7,4.2c0.2,0.3,0.4,1,0.2,1.2
	c-0.3,0.3-0.8,0.3-1.3,0.4c-0.7,0.2-1.6,0.2-2.2,0.6c-2.6,2.1-5.1,4.3-7.6,6.5c-0.4,0.3-0.5,1-0.6,1.5c-0.1,0.6-0.2,1.2-0.2,1.7
	C163.3,436.2,163.1,436.3,162.9,436.3"/>
<path class="st1" d="M262.4,484.3c0.6-5.8,3.6-9.8,9.2-9.8c5.3,0,9.4,4.1,9.2,8.9c-0.2,5.7-3.4,9.5-8.8,9.5
	C265.9,493,262.8,488.5,262.4,484.3 M267.6,485.3c0,0.5,0,1.4,0.2,2.3c0.2,1.6,1.4,2.6,3,2.6c2.3,0,4.4-2.2,4.6-5
	c0.1-1.6,0.1-3.2,0-4.8c-0.1-1.8-0.7-2.3-2.3-2.7c-1.5-0.4-3.1,0.3-3.9,1.3C267.8,480.8,267.8,482.9,267.6,485.3"/>
<path class="st1" d="M177,449c4.5-1.1,5.8-5.1,8.3-7.7c0.5-0.5,1-1.1,1.3-1.7c0.3-0.5,0.2-1.2,0.3-1.8c0.1-0.4-0.1-1.2,0.1-1.3
	c0.4-0.2,1.1-0.2,1.5,0c1.2,0.7,2.3,1.5,3.3,2.4c2,1.6,4,3.2,5.3,5.5c1.8,3.1,1.3,6.6-1,9.4c-2.2,2.7-5,3.6-8.3,2.9
	c-1.3-0.3-2.7-1-3.8-1.8c-1.8-1.2-3.5-2.7-5.3-4C178.2,450.4,177.8,449.8,177,449 M187.2,453.4c2.9,0,4.4-1.3,5.7-3
	c2-2.6,1.7-6.1-0.6-8.2c-0.7-0.6-1.3-0.8-1.9,0c-2.2,2.7-4.3,5.4-6.4,8.2c-0.5,0.6-0.5,1.3,0.2,1.7
	C185.3,452.6,186.5,453.1,187.2,453.4"/>
<path class="st1" d="M410.5,460.1c-0.2,3.1-3.4,4.9-6.1,3.7c-1.5-0.7-3-1.2-4.6-1.8c-0.2-0.1-0.5,0-0.8,0c0.2,1.6,1.5,3,3,3.3
	c0.4,0.1,0.7,0.4,1.1,0.6c-0.2,0.4-0.4,0.9-0.7,1.1c-1.5,0.9-3.1,1.7-4.6,2.5c-0.2,0.1-0.4,0.1-0.6,0.1c-0.1,0-0.2-0.1-0.5-0.1
	c1-3.3-1.9-5.1-3.1-7.5c-1.3-2.5-2.8-4.8-4.3-7.1c2-1.3,3.8-2.6,5.8-3.6c1.9-1,4-1.6,6.1-0.2c2.1,1.4,2.6,3.6,1.3,5.9
	c-0.7,1.3-0.6,1.3,0.8,1.8C405.6,459.5,407.9,460.5,410.5,460.1L410.5,460.1z M396.1,453.9c-0.3,0.1-1.2,0.2-1.4,0.6
	c-0.2,0.4,0.3,1.3,0.5,1.9c0.2,0.6,0.5,1.1,0.9,1.6c0.2,0.3,0.7,0.4,1,0.6c0.5-0.9,1.3-1.8,1.5-2.8
	C398.8,454.9,397.6,453.9,396.1,453.9"/>
<path class="st1" d="M296.8,477.6c-0.4,4.4-0.6,8.8-1.1,13.2c-0.2,1.9-3,4-5,4c-2,0.1-4,0.2-6-0.9c-2.4-1.3-3.2-3.2-3.1-5.7
	c0.1-2.7,0.3-5.4,0.4-8.1c0-0.4-0.5-0.9-0.6-1.3c-0.2-0.6-0.6-1.3-0.4-1.9c0.2-0.8,1-0.5,1.7-0.4c1.1,0.2,2.2,0.2,3.3,0.3
	c0.6,0.1,1.2,0.1,1.7,0.3c0.4,0.1,0.8,0.5,0.9,0.9c0,0.3-0.4,0.6-0.7,1c-0.4,0.5-1,1-1.1,1.5c-0.2,3-0.3,5.9-0.3,8.9
	c0,1.7,0.7,2.5,2.3,2.7c2,0.2,3.4-0.5,3.6-2.1c0.4-3,0.6-6,0.8-9c0-0.6-0.5-1.2-0.8-1.8c-0.2-0.4-0.7-1-0.5-1.2
	c0.3-0.4,0.9-0.8,1.4-0.8C294.2,477.3,295.3,477.5,296.8,477.6"/>
<path class="st1" d="M410.5,460.2c-0.4-0.6-0.8-1.3-1.2-1.9c-0.3-0.6-0.9-1.1-1-1.8c-0.2-1.4,0.9-2.1,2.1-1.3
	c1.2,0.8,2.5,1.1,3.8,0.7c0.7-0.2,1.4-0.8,1.7-1.4c0.1-0.4-0.5-1.2-1-1.7c-1-0.9-2.3-0.6-3.5-0.6c-1.6,0.1-3.3,0.2-4.8-0.3
	c-1.8-0.6-3.1-1.9-3.3-4c-0.2-2.2,1.2-3.7,2.9-4.9c1-0.7,2.1-1.4,3.2-2.2c0.6-0.5,1.2-0.5,1.8,0c0.8,0.8,1.8,1.5,2.5,2.3
	c0.6,0.6,1,1.5,0.3,2.3c-0.7,0.8-1.8,0.7-2.5,0.1c-1-0.8-2-1-3.1-0.7c-0.5,0.2-1.1,0.6-1.1,1c-0.1,0.4,0.2,1.2,0.6,1.4
	c0.5,0.3,1.2,0.5,1.9,0.5c1.6,0,3.1-0.2,4.7-0.2c3.6-0.1,6.1,2.7,5.4,6.1c-0.5,2.1-2.1,3.2-3.7,4.3c-0.9,0.6-2,1.2-2.8,1.9
	C412.3,460.8,411.4,460.2,410.5,460.2C410.5,460.1,410.5,460.2,410.5,460.2"/>
<path class="st1" d="M388.1,461c1.6,1.4,2.4,3.1,2.9,4.8c0.1,0.2-0.2,0.8-0.4,0.8c-0.5,0.2-1.2,0.3-1.5,0.1c-1.6-1.3-2.7,0.1-4,0.5
	c-0.2,0.1-0.4,0.9-0.3,1.2c0.5,1.3,1.2,2.5,1.9,3.7c0.2,0.3,0.8,0.6,1,0.5c1.3-0.8,2.7-1.5,3.8-2.5c0.4-0.4,0.5-1.3,0.5-2
	c0-1,0.7-1.4,1.4-1.4c0.5,0,1.2,0.7,1.3,1.1c0.1,1,1.1,2,0.2,3.1c-0.4,0.4-0.8,0.9-1.3,1.2c-3.2,1.7-6.5,3.4-9.8,5
	c-0.3,0.2-1,0.2-1.2,0c-0.2-0.2-0.2-0.8-0.1-1.2c0.4-1,0.3-2-0.2-2.9c-1.2-2.2-2.5-4.4-3.5-6.7c-0.7-1.6-1.1-3.4-1.7-5.2
	c3.1-1.6,6.2-3.3,9.3-4.8c0.7-0.3,1.3-0.3,1.6,0.5c0.3,0.7,0.9,1.4,1,2.1c0.3,1.1-0.5,1.8-1.4,1.2c-2-1.3-3.6-0.2-5.2,0.5
	c-0.9,0.4-1,1.3-0.6,2.2c0.4,0.7,0.7,1.4,1.1,2.1c0.6,1,1.5,0.9,2.2,0.4c0.8-0.5,1.4-1.4,1.9-2.2C387.4,462.5,387.7,461.8,388.1,461
	"/>
<path class="st1" d="M239.5,484.6c-0.9-0.1-1.6-0.2-2.2-0.3c-1.2-0.4-2.4-0.8-3.6-1.4c-0.5-0.3-1-0.9-1.2-1.4
	c-0.1-0.3,0.6-0.7,0.9-1.2c0.3-0.5,0.8-1.2,0.7-1.7c-0.1-0.6-0.6-1.3-1.2-1.7c-0.7-0.5-1.6-0.8-2.4-1c-0.5-0.1-1.2,0-1.5,0.4
	c-0.5,0.6-0.7,1.4-0.9,2.2c-0.1,0.5-0.1,1-0.1,1.6c-0.5-0.1-1.1,0-1.6-0.2c-0.8-0.2-1.5-0.5-2.2-0.8c-0.5-0.2-1-0.5-1.9-1
	c1.7-1.5,3.2-2.8,4.6-4.2c2.6-2.6,5.1-5.3,7.6-8c0.7-0.8,1.7-1.4,2.6-0.8c0.6,0.3,1,1.3,1.1,2c0.3,4.3,0.4,8.6,0.7,12.9
	c0,0.7,0.3,1.4,0.4,2.1C239.2,482.9,239.3,483.6,239.5,484.6 M233.6,472c-0.9,0.2-1.8,0.5-1.6,1.5c0.1,0.3,1.1,0.9,1.4,0.7
	C234.8,473.8,233.4,472.8,233.6,472"/>
<path class="st1" d="M165.3,435.7c2.3-0.9,4.6-1.8,6.8-2.8c2.4-1,4.6-2.2,7-3.1c0.8-0.3,2.2-0.3,2.7,0.2c0.5,0.5,0.5,1.8,0.2,2.7
	c-1.5,4.3-3.1,8.5-4.7,12.8c-0.1,0.4,0,0.8-0.1,1.2c-0.2,0.5-0.4,1.1-0.8,1.3c-0.3,0.2-1.1,0.1-1.4-0.2c-1.1-1-2.2-2.1-3.2-3.1
	c-0.8-0.8-0.7-1.2,0.4-1.6c2-0.7,2.5-2.6,1-4.1c-0.3-0.3-0.6-0.5-0.9-0.8c-0.5-0.7-1.1-1.2-1.9-0.8c-0.8,0.4-1.7,0.8-1.7,2
	c0,1.2-0.5,1.4-1.5,0.8c-1-0.6-1.8-1.4-2.7-2.1c-0.2-0.2-0.2-0.7-0.1-1c0.1-0.5,0.4-1,0.7-1.4C165.1,435.6,165.2,435.6,165.3,435.7
	 M176.9,435.5c-0.5-0.4-0.9-0.8-1-0.7c-0.7,0.4-1.4,0.9-2,1.4c0.5,0.4,1.2,1.2,1.4,1.1C175.8,436.9,176.2,436.2,176.9,435.5"/>
<path class="st1" d="M372.1,473.4c0-2.3,0-4.4,0-6.5c0-0.4-0.5-0.8-0.8-1.1c-1-0.8-1.1-1.5,0.1-2.2c1.2-0.7,2.5-1.1,3.8-1.6
	c0.7,0.9,1,1.8,0.7,3c-0.4,1.7-0.3,3.4-0.4,5.2c0,2.8,0,5.7,0,8.5c0,0.3,0,0.5,0,0.8c-0.3,2-1.4,2.5-2.9,1.1c-2-1.8-3.8-3.8-5.8-5.7
	c-1.7-1.6-3.5-3.1-5.2-4.8c-0.6-0.6-0.8-1.5-1.3-2.4c1.9-0.8,3.7-1.5,5.6-2.2c0.8-0.3,1.3,0.4,0.9,1.2c-0.5,0.9-0.3,1.5,0.3,2.2
	c1.3,1.3,2.5,2.6,3.8,3.9C371.1,473.1,371.5,473.2,372.1,473.4"/>
<path class="st1" d="M298,477.6c1-0.1,2-0.2,3-0.2c3.5,0,6.9,0,10.4,0.1c1,0,1.6,0.5,1.7,1.5c0.1,0.6,0.3,1.2,0.4,1.8
	c0.1,1-0.1,1.8-1.2,2.1c-1,0.3-1.4-0.4-1.8-1.1c-0.3-0.5-0.7-1-1.2-1.3c-1-0.6-1.7-0.1-1.7,1c0.1,3.2,0.1,6.5,0.3,9.7
	c0,0.7,0.6,1.3,1,2c0.2,0.3,0.7,0.7,0.6,0.9c-0.2,0.3-0.6,0.7-1,0.8c-2,0.1-4,0.1-6,0c-0.3,0-0.8-0.4-0.9-0.7
	c-0.1-0.3,0.2-0.8,0.4-0.9c0.9-0.5,0.9-1.3,0.9-2.2c-0.1-3.1-0.1-6.2-0.2-9.3c0-0.5-0.4-0.9-0.6-1.4c-0.6,0.3-1.2,0.6-1.7,1
	c-0.4,0.4-0.5,1.1-0.9,1.4c-0.4,0.3-1.2,0.4-1.6,0.2c-0.4-0.2-0.7-0.9-0.7-1.4C297.5,480.3,297.8,479,298,477.6"/>
<path class="st1" d="M443.7,432.4c-0.1-0.5-0.4-1.2-0.3-1.6c0.3-1-0.1-1.5-0.7-2.2c-1.7-1.7-3.6-2.5-6-2.6c-2.6-0.1-5.2-1.4-6.9-2.9
	c0.8-1,1.7-2,2.5-3.1c0.7-0.8,1.5-0.8,1.9,0.1c1,1.8,2.7,1,4.1,1.4c0.1,0,0.6-0.6,0.5-0.8c-0.5-1.5-0.2-3.4-2.5-3.8
	c-0.1,0-0.4-1-0.2-1.2c0.9-1.2,1.9-2.4,2.9-3.5c0.2-0.3,1.1-0.4,1.2-0.3c0.3,0.5,0.6,1.1,0.7,1.7c0.3,1.6,0.5,3.2,0.8,4.8
	c0.1,0.4,0.3,0.8,0.3,1.1c0.1,2.6,1.9,4.2,3.8,5.6c0.6,0.4,1.5,0.2,2.2,0.3c0.5,0.1,0.9,0.1,1.4,0.2c-0.1,0.4,0,1-0.2,1.2
	c-1.7,1.9-3.4,3.8-5.1,5.7C444.1,432.6,443.9,432.5,443.7,432.4"/>
<path class="st1" d="M428.5,424.6c1.1,0.6,2,1,2.9,1.5c1,0.5,1.6,1.5,1.2,2.2c-0.3,0.8-1.4,1-2.5,0.5c-0.4-0.2-0.9-0.6-1.2-0.5
	c-0.5,0.2-1.1,0.6-1.4,1c-0.1,0.3,0.3,1,0.6,1.3c2.1,2.3,4.3,4.6,6.5,6.8c0.4,0.4,1.3,0.5,2,0.7c0.4,0.1,0.9,0,1,0.2
	c0.2,0.2,0.1,0.9-0.1,1.1c-1.7,1.6-3.4,3.3-5.3,4.7c-0.6,0.5-1-0.3-0.7-0.9c0.7-1.4,0-2.2-0.9-3.1c-2-2.1-3.9-4.3-5.9-6.3
	c-0.4-0.4-1.1-0.5-1.6-0.8c-0.2,0.6-0.5,1.3-0.6,1.9c-0.1,0.6,0.2,1.2,0.2,1.8c-0.1,1.2-1.2,1.7-1.9,0.9c-0.9-1-1.6-2.3-2.3-3.5
	c-0.1-0.1,0.1-0.5,0.3-0.7C422.1,430.5,425.3,427.5,428.5,424.6"/>
<path class="st1" d="M352.3,470.5c2.4-0.8,4.4-1.4,6.3-2c0.7,0.6,0.9,1.3,0.6,2.3c-0.2,1,0.1,2.2,0.3,3.2c0.6,2.3,1.5,4.6,2.1,7
	c0.3,0.9,0.8,1.5,1.7,1.9c0.5,0.2,1.2,0.8,1.2,1.1c-0.1,0.5-0.6,1.3-1.1,1.5c-1.7,0.6-3.4,1.1-5.2,1.5c-0.5,0.1-1.1-0.2-1.6-0.4
	c0.2-0.5,0.3-0.9,0.5-1.4c0.2-0.6,0.6-1.3,0.4-1.8c-0.8-2.7-1.7-5.3-2.6-8c-0.2-0.6-0.3-1.2-0.5-1.8c-0.1-0.3-0.2-0.6-0.4-0.9
	C353.6,472,353,471.4,352.3,470.5"/>
<path class="st1" d="M416.8,435.3c2.9,3.5,5.7,6.8,8.4,10.2c0.7,0.8,1.4,1.2,2.4,0.9c0.3-0.1,1,0,1.1,0.1c0.2,0.3,0.1,0.9,0,1.2
	c-0.2,0.4-0.5,0.7-0.8,1c-1.4,1.1-2.8,2.2-4.2,3.2c-0.3,0.2-0.8,0.2-1.2,0.3c-0.1-0.4-0.1-0.9-0.2-1.3c-0.1-0.7,0-1.6-0.4-2.2
	c-2-2.5-4-5-6.1-7.4c-0.4-0.5-1.3-0.6-1.9-0.9c-0.5-0.2-1-0.4-1.5-0.6c0.2-0.4,0.4-1,0.7-1.3C414.2,437.4,415.6,436.2,416.8,435.3"
	/>
<path class="st2" d="M183.3,305.1c0,64.4,52.2,116.5,116.5,116.5s116.5-52.2,116.5-116.5s-52.2-116.5-116.5-116.5
	S183.3,240.8,183.3,305.1"/>
<path class="st1" d="M419.4,329.1l-8.1-1.6c1.5-7.5,2.3-15.2,2.3-23c0-47.4-28.3-89.7-72-107.8l3.2-7.6
	c46.8,19.4,77.1,64.7,77.1,115.4C421.8,312.8,421,321,419.4,329.1"/>
<polygon class="st1" points="385.2,218.7 402.1,202.4 398.1,196.2 381.1,213 "/>
<path class="st1" d="M393,202.3c1.8,1.8,2.6,2.5,4.1,4.4l6.5-5.7c1.5-1.5,1.4-3.9,0-5.3c-1.5-1.5-3.9-1.4-5.3,0L393,202.3z"/>
<path class="st1" d="M386.4,205.4c-0.8,0.7,0.2,3,2,5.2c1.9,2.2,4,3.5,4.8,2.8c0.8-0.7-0.2-3-2-5.2
	C389.3,206,387.1,204.8,386.4,205.4"/>
<polygon class="st1" points="418.1,303.1 441.6,303.3 443.1,296.1 419.2,296.2 "/>
<path class="st1" d="M435.2,296.9c0.1,2.5,0.1,3.6-0.2,6l8.6,0.5c2.1,0,3.7-1.7,3.7-3.8c0-2.1-1.7-3.7-3.8-3.7L435.2,296.9z"/>
<path class="st1" d="M427.6,294.5c-1-0.1-2,2.2-2.2,5.1c-0.2,2.9,0.5,5.3,1.5,5.4c1,0.1,2-2.2,2.2-5.1
	C429.3,296.9,428.6,294.5,427.6,294.5"/>
<path class="st1" d="M180.8,329.1l8.1-1.6c-1.5-7.5-2.3-15.2-2.3-23c0-47.4,28.3-89.7,72-107.8l-3.2-7.6
	c-46.8,19.4-77.1,64.7-77.1,115.4C178.4,312.8,179.2,321,180.8,329.1"/>
<polygon class="st1" points="215,218.7 198.1,202.4 202.1,196.2 219,213 "/>
<path class="st1" d="M207.1,202.3c-1.8,1.8-2.6,2.5-4.1,4.4l-6.5-5.7c-1.5-1.5-1.4-3.9,0-5.3c1.5-1.5,3.9-1.4,5.3,0L207.1,202.3z"/>
<path class="st1" d="M213.8,205.4c0.8,0.7-0.2,3-2,5.2c-1.9,2.2-4,3.5-4.8,2.8c-0.8-0.7,0.2-3,2-5.2
	C210.9,206,213,204.8,213.8,205.4"/>
<polygon class="st1" points="182.1,303.1 158.6,303.3 157.1,296.1 181,296.2 "/>
<path class="st1" d="M165,296.9c-0.1,2.5-0.1,3.6,0.2,6l-8.6,0.5c-2.1,0-3.7-1.7-3.7-3.8c0-2.1,1.7-3.7,3.8-3.7L165,296.9z"/>
<path class="st1" d="M172.5,294.5c1-0.1,2,2.2,2.2,5.1c0.2,2.9-0.5,5.3-1.5,5.4c-1,0.1-2-2.2-2.2-5.1
	C170.9,296.9,171.5,294.5,172.5,294.5"/>
<path class="st3" d="M300,444.2c-34.6,0-68.4-12-95.1-33.9c-26.3-21.5-44.7-51.5-51.8-84.5l34.4-7.2c11.4,52.7,58.7,91,112.5,91
	c53.4,0,100.7-37.9,112.4-90.2l36.5,2.9c-7.3,32.8-28,67.1-54.2,88.3C368.1,432.3,334.4,444.2,300,444.2"/>
<polygon class="st0" points="330.4,444.2 361.7,434.4 357,419.7 325.7,429.5 "/>
<polygon class="st0" points="409.8,399.9 429.2,373.8 416.6,364.7 397.2,390.8 "/>
<polygon class="st0" points="241.4,437.1 273.3,445 277,430.5 245.2,422.5 "/>
<polygon class="st0" points="171.3,378.3 191.5,403.8 203.6,394.5 183.3,369 "/>
<path class="st4" d="M306.4,200.6c0,0-6.2,41.6,4.1,61l-24.1-1.1c0,0,7.2-38.9,1.4-59.9H306.4z"/>
<path class="st5" d="M321.7,177.7c0,0-1.4-0.8-0.6-1.9c0,0,1-0.4,2.7-1.1c-0.2-0.8,0.1-1.8,0.8-2.1c0.9-0.4,1.7-1.1,2.8-1.4
	c1.2-0.3,2.6-0.1,3.8-0.1c0.6,0,1.1,0.3,1.4,0.6c0.2-0.1,0.5-0.1,0.7-0.2c0.1-0.6,0.5-1.1,1.2-1.3c3.2-1.1,6.5-2.1,9.9-1.5
	c0.3,0.1,0.5,0.2,0.7,0.3c0.4,0,0.9-0.1,1.3-0.1c0,0-4-10.5-29-1.5l-1.6,1.2c0,0-3.4,1.4-2.5-1.9c0,0,0,0,0.1,0
	c-0.5-0.7-0.5-1.6,0.2-2.3c1-1,2-1.9,3.2-2.4c1.1-0.5,2.2-0.9,3.3-1.3c0-0.7,0.4-1.5,1.3-1.8c1.6-0.6,3.2-1.4,4.7-2.4
	c-2.6,0.5-7.1,1.2-9.6,0c0,0-2.2,0.3-1.7,2.3c0,0-0.3,1.3-2,0.5c0,0-2.8-1.1-1.7,2.3c0,0-0.4,1.2-2.8-0.2c0,0-3.9-0.8-4.4,4.1
	c0,0-0.9,2-1.7,0.1c0,0,1.9-4.4-2.1-6.3c0,0,1.2-6.7-3.3-7.9v51l3.6-0.1c0,0,10.2-1.5,16.5,5.6c0,0,9.5-1.4,5.8,4.3
	c0,0,15.7,11.4,16.5,13c0,0,2.5-14.7-13.9-23.7c0,0,6.3-2.3,26.9,7.8c0,0,0.5-15.4-25.9-20.5c0,0,12.1,0.5,21,0.3
	c1-0.9,2.3-1.5,4-1.5c0.6,0,1.2,0.1,1.7,0.2c0.5-0.2,1.1-0.2,1.8-0.2c0.6,0,1.2,0.1,1.7,0.2C356.6,187.7,349.8,173.9,321.7,177.7"/>
<path class="st6" d="M300.6,202.8c0,0,12-1.9,16.4,5.7c0,0,2.6,2.2,3.8,0c0,0,4.1,0.8,1.1,3.5c0,0,15.9,12.3,16.9,13
	c0.9,0.7,0.4,0,0.4,0s-10.6-30.4-38.5-22.4C300.6,202.6,300.2,202.7,300.6,202.8"/>
<path class="st6" d="M326.1,194.4c0,0-11.7-0.9-23.9,2.8c0,0,20.4-1.6,27.9,3.3c0,0,4.7,0.1,6.2,2.5c0,0,0.9,2.4,2.6,0
	c0,0,8.6,2.5,13.2,6.2C352.2,209.1,340.4,197,326.1,194.4"/>
<path class="st6" d="M300.4,194.3c0,0,33.6-2.6,56.3-6.5C356.7,187.8,328.6,179.1,300.4,194.3"/>
<path class="st6" d="M345.8,168.5c0,0-32.5-2.4-47.2,19.3c0,0,12.4-9.3,20.4-11.7c0,0,1.7,0.6,4-1.1c0,0,1.1-0.1,1.6-1
	c0,0,2.7-4,8.5-1.7c0,0,0.5-0.3,0.7-0.9c0,0,2.4-3.3,12-2.1C345.8,169.3,347.2,169,345.8,168.5"/>
<path class="st6" d="M299.4,182.5c0,0,15.1-21.6,23.9-22c0,0,3.5-3.2,4.7-4.5c0,0,0.2-2-2.8,0c0,0-11.6-1.2-11,2.7
	c0,0-2.1-1-3.3,0.6c0,0,0,0.6-0.6,3.2C310.3,162.5,300.6,171.1,299.4,182.5"/>
<path class="st6" d="M296.9,151.4l-0.1,26.9c0,0,5.2-11.2,5.6-13.4c0,0,1.5-4.3-2.4-5.6C300.1,159.4,302.1,152.6,296.9,151.4"/>
<path class="st5" d="M272.5,177.7c0,0,1.4-0.8,0.6-1.9c0,0-1-0.4-2.7-1.1c0.2-0.8-0.1-1.8-0.8-2.1c-0.9-0.4-1.7-1.1-2.8-1.4
	c-1.2-0.3-2.6-0.1-3.8-0.1c-0.6,0-1.1,0.3-1.4,0.6c-0.2-0.1-0.5-0.1-0.7-0.2c-0.1-0.6-0.5-1.1-1.2-1.3c-3.2-1.1-6.5-2.1-9.9-1.5
	c-0.3,0.1-0.5,0.2-0.7,0.3c-0.4,0-0.9-0.1-1.3-0.1c0,0,4-10.5,29-1.5l1.6,1.2c0,0,3.4,1.4,2.5-1.9c0,0,0,0-0.1,0
	c0.5-0.7,0.5-1.6-0.2-2.3c-1-1-2-1.9-3.2-2.4c-1.1-0.5-2.2-0.9-3.3-1.3c0-0.7-0.4-1.5-1.3-1.8c-1.6-0.6-3.2-1.4-4.7-2.4
	c2.6,0.5,7.1,1.2,9.6,0c0,0,2.2,0.3,1.7,2.3c0,0,0.3,1.3,2,0.5c0,0,2.8-1.1,1.7,2.3c0,0,0.4,1.2,2.8-0.2c0,0,3.9-0.8,4.4,4.1
	c0,0,0.9,2,1.7,0.1c0,0-1.9-4.4,2.1-6.3c0,0-1.2-6.9,3.3-8.1v51.3l-3.6-0.1c0,0-10.2-1.5-16.5,5.6c0,0-9.5-1.4-5.8,4.3
	c0,0-15.7,11.4-16.5,13c0,0-2.5-14.7,13.9-23.7c0,0-6.3-2.3-26.9,7.8c0,0-0.5-15.4,25.9-20.5c0,0-12.1,0.5-21,0.3
	c-1-0.9-2.3-1.5-4-1.5c-0.6,0-1.2,0.1-1.7,0.2c-0.5-0.2-1.1-0.2-1.8-0.2c-0.6,0-1.2,0.1-1.7,0.2
	C237.5,187.7,244.4,173.9,272.5,177.7"/>
<path class="st6" d="M293.6,202.8c0,0-12-1.9-16.4,5.7c0,0-2.6,2.2-3.8,0c0,0-4.1,0.8-1.1,3.5c0,0-15.9,12.3-16.9,13
	c-0.9,0.7-0.4,0-0.4,0s10.6-30.4,38.5-22.4C293.6,202.6,294,202.7,293.6,202.8"/>
<path class="st6" d="M268.1,194.4c0,0,11.7-0.9,23.9,2.8c0,0-20.4-1.6-27.9,3.3c0,0-4.7,0.1-6.2,2.5c0,0-0.9,2.4-2.6,0
	c0,0-8.6,2.5-13.2,6.2C242,209.1,253.8,197,268.1,194.4"/>
<path class="st6" d="M293.8,194.3c0,0-33.6-2.6-56.3-6.5C237.5,187.8,265.6,179.1,293.8,194.3"/>
<path class="st6" d="M248.4,168.5c0,0,32.5-2.4,47.2,19.3c0,0-12.4-9.3-20.4-11.7c0,0-1.7,0.6-4-1.1c0,0-1.1-0.1-1.6-1
	c0,0-2.7-4-8.5-1.7c0,0-0.5-0.3-0.7-0.9c0,0-2.4-3.3-12-2.1C248.4,169.3,247,169,248.4,168.5"/>
<path class="st6" d="M294.8,182.5c0,0-15.1-21.6-23.9-22c0,0-3.5-3.2-4.7-4.5c0,0-0.2-2,2.8,0c0,0,11.6-1.2,11,2.7
	c0,0,2.1-1,3.3,0.6c0,0,0,0.6,0.6,3.2C283.9,162.5,293.6,171.1,294.8,182.5"/>
<path class="st6" d="M297.3,151.2l0.3,26c0,0-5.2-10.2-5.6-12.4c0,0-1.4-4.3,2.5-5.6C294.5,159.4,292.1,152.5,297.3,151.2"/>
<polygon class="st0" points="400.6,262.6 412.6,262.6 387.6,379.6 330.1,379.6 330.1,262.6 "/>
<path class="st1" d="M387.6,380.6h-56.9c-0.4,0-0.6-0.3-0.6-0.7V262.6c0-0.4,0.2,0,0.6,0h81.9c0.2,0,0.4-0.3,0.6-0.1
	c0.1,0.2,0.2,0.2,0.2,0.5l-25,117.2C388.3,380.5,388,380.6,387.6,380.6 M331.1,379.6h56l24.7-117h-80.6V379.6z"/>
<polygon class="st0" points="395.3,254.6 405.9,254.6 380.9,376.6 306.1,376.6 306.1,254.6 "/>
<path class="st1" d="M380.9,376.6h-74.2c-0.4,0-0.6,0-0.6-0.4v-121c0-0.4,0.2-0.5,0.6-0.5h99.2c0.2,0,0.4,0,0.6,0.2
	c0.1,0.2,0.2,0.3,0.2,0.6l-25,120.9C381.5,376.5,381.2,376.6,380.9,376.6 M307.1,375.6h73.2l24.7-120h-97.9V375.6z"/>
<path class="st0" d="M299.3,258.7c0,0,12.5-10.8,24.9-11.2l50.6-0.1c0,0,15.7,0.1,26.1-4.5L378.6,353c0,0-5.8,14.6-15.4,13.7
	l-23.1-0.2h-41L299.3,258.7z"/>
<path class="st1" d="M401.4,242.4c-0.2-0.2-0.5-0.2-0.8-0.1c-10.1,4.4-25.1,4.4-25.8,4.4l-50.6,0.2c-12.5,0.4-24.8,11-25.4,11.5
	c-0.2,0.1-0.3,0.3-0.3,0.6l0,0.4h1.4c0,0,0.1,0,0.1,0v-0.1c1.8-1.5,13.2-10.5,24.2-10.9l50.6-0.2c0.6,0,14.8,0,25.1-4l-22,108.6
	c-0.4,1-5.7,13.5-13.9,13.5h0c-0.2,0-0.5,0-0.8-0.1l-23.1,0.1h-40.2l0.2-100.8c-0.5,0-1,0-1.5,0l-0.2,101.5c0,0.2,0.1,0.4,0.2,0.5
	s0.3,0.2,0.5,0.2h41l23-0.1c0.3,0,0.6,0,0.9,0c9.5,0,15.1-13.9,15.3-14.5c0,0,0-0.1,0-0.1l22.3-110.1
	C401.7,242.8,401.6,242.6,401.4,242.4"/>
<polygon class="st0" points="197.6,262.6 185.6,262.6 210.6,379.6 268.1,379.6 268.1,262.6 "/>
<path class="st1" d="M267.5,380.6h-56.9c-0.4,0-0.7-0.2-0.7-0.6l-25-117.3c0-0.2,0-0.1,0.2-0.3c0.1-0.2,0.4,0.1,0.6,0.1h81.9
	c0.4,0,1.5-0.4,1.5,0v117.3C269.1,380.3,268,380.6,267.5,380.6 M211.2,379.6h55.9v-117h-80.5L211.2,379.6z"/>
<polygon class="st0" points="202.9,254.6 192.4,254.6 217.4,376.6 292.1,376.6 292.1,254.6 "/>
<path class="st1" d="M291.6,376.6h-74.2c-0.4,0-0.7-0.1-0.7-0.4l-25-121c0-0.2,0-0.3,0.2-0.5c0.1-0.2,0.4-0.1,0.6-0.1h99.2
	c0.4,0,0.5,0.1,0.5,0.5v121C292.1,376.6,292,376.6,291.6,376.6 M218,375.6h73.1v-120h-97.8L218,375.6z"/>
<path class="st0" d="M299.7,258.7c0,0-12.5-10.8-24.9-11.2l-50.6-0.1c0,0-15.7,0.1-26.1-4.5L220.4,353c0,0,5.8,14.6,15.4,13.7
	l23.1-0.2h41L299.7,258.7z"/>
<path class="st1" d="M298.4,267.4l0,99h-40.2l-23.2-0.1c-8.6,0.8-14.2-12.5-14.6-13.5l-22-108.6c10.3,4,24.4,4,25.1,4l50.6,0.2
	c10.8,0.4,22,9.1,24.1,10.8h1.6v-0.3c0-0.2-0.1-0.4-0.3-0.6c-0.5-0.5-12.9-11.1-25.4-11.5l-50.6-0.2c-0.6,0-15.7-0.1-25.8-4.4
	c-0.3-0.1-0.6-0.1-0.8,0.1c-0.2,0.2-0.3,0.5-0.3,0.7l22.3,110.1c0,0,0,0.1,0,0.1c0.2,0.6,5.8,14.5,15.3,14.5c0.3,0,0.6,0,0.8,0
	l23.1,0.1h41c0.2,0,0.4-0.1,0.5-0.2c0.1-0.1,0.2-0.3,0.2-0.5l-0.5-99.9C298.9,267.2,298.9,267.4,298.4,267.4"/>
<path class="st1" d="M255.1,269.5c-0.2-0.1-0.5-0.2-0.8-0.4c0.1,0.1,0.1,0.3,0.2,0.3c0.3,0.5,0.7,1,1,1.6c0.4,0.6,0.5,1.3,0.6,1.9
	c0,0.8,0,1.6-0.3,2.3c-0.4,1-1.3,1.6-2.3,1.9c-1,0.3-2.1,0.3-3.1,0c-0.7-0.2-1.2-0.6-1.7-1c-0.5-0.4-0.9-0.8-1.4-1.2
	c-0.8,0.4-1.6,0.8-2.4,1.2c-1.1,0.5-2.3,1-3.6,1.2c-1.2,0.1-2.3-0.1-3.2-0.9c-0.1-0.1-0.3-0.2-0.5-0.4c0.1,0.4,0.2,0.7,0.2,1
	c0.1,0.9,0.8,1.2,1.4,1.6c0.8,0.6,1.7,0.7,2.6,1.1c0.2,0.1,0.3,0.1,0.4,0.2c0.3,0.2,0.4,0.4,0.4,0.8c0,0.6-0.1,1.3-0.3,2
	c-0.5-0.2-0.9-0.4-1.3-0.6c-1.5-0.6-3-0.6-4.5-0.1c-1.4,0.5-2.6,1.2-3.8,2.1c-1.5,1.1-2.9,2.3-4.4,3.3c-0.9,0.6-1.9,1.1-3,1.1
	c-1.4,0-2.4-0.8-2.8-2c-0.2-0.5-0.3-1.2-0.3-1.7c0-0.9,0.3-1.7,0.7-2.4c0.4-0.6,0.8-1.2,1.3-1.8c0.4-0.4,0.9-0.7,1.3-1.1
	c0.1-0.1,0.2-0.1,0.3-0.1c0,0.4-0.3,0.6-0.5,0.8c-0.6,0.7-1.2,1.3-1.7,2c-0.5,0.7-0.8,1.5-0.9,2.4c-0.1,0.9,0.6,1.7,1.5,1.9
	c1,0.2,1.9-0.1,2.8-0.6c2.1-1.1,3.8-2.7,5.8-4c1.3-0.9,2.8-1.8,4.4-2.2c-0.6-0.9-0.8-2.1-1-3.1c-0.2-0.7-0.2-1.4-0.3-2.2
	c-0.1-0.8-0.2-1.7-0.3-2.5c-0.1-0.8-0.2-1.6-0.3-2.4c-0.1-0.7-0.2-1.5-0.3-2.2c-0.1-0.7-0.2-1.3-0.3-2c-0.1-0.8-0.2-1.5-0.3-2.3
	c-0.1-0.9-0.3-1.8-0.5-2.7c-0.2-0.9-0.3-1.8-0.5-2.7c0-0.2,0-0.4,0.1-0.6c0.2-0.7,0.3-1.3,0.5-2l0.1,0c0.1,0.1,0.3,0.2,0.3,0.4
	c0.2,0.5,0.4,1,0.5,1.6c0.2,1.2,0.4,2.3,0.6,3.5c0.2,1.2,0.4,2.4,0.6,3.6c0.2,1.2,0.4,2.4,0.6,3.6c0.2,1.1,0.3,2.2,0.5,3.3
	c0.2,1,0.4,1.9,1,2.7c0.6,1,1.6,1.4,2.7,1.5c1.2,0.1,2.3-0.3,3.4-0.8c0.5-0.2,1.1-0.5,1.6-0.7c-1.1-1-2.2-1.9-4.3-1.2
	c0-0.1,0-0.2,0-0.3c0.2-0.5,0.4-1,0.5-1.5c0.1-0.3,0.3-0.4,0.6-0.5c0.9-0.4,1.9-0.6,3-0.6c0.6,0,1.1-0.1,1.7-0.1
	c1.3,0,2.6,0.2,3.9,0.6c0.4,0.1,0.8,0.2,1.1,0.3c0.4,0.1,0.5,0.3,0.4,0.6c-0.2,0.5-0.4,1-0.6,1.5c0,0-0.1,0.1-0.2,0.1
	c-1,0.2-1.9,0.7-2.8,1.2c0.7,0.7,1.5,1.1,2.5,1.2c0.7,0.1,1.3,0,2-0.2c0.4-0.1,0.9-0.3,1.3-0.5c0.5-0.2,0.5-0.3,0.2-0.8
	c-0.4-0.7-0.9-1.4-1.3-2.2c-0.3-0.7-0.6-1.4-0.9-2.1c0-0.1-0.1-0.3-0.2-0.3c-0.2-0.1-0.3-0.2-0.2-0.5c0.2-0.5,0.4-1.1,0.6-1.6
	c0.1-0.2,0.2-0.2,0.3-0.1c0.6,0.6,1.1,1.3,1.7,1.9C255,269.1,255.1,269.3,255.1,269.5C255.1,269.5,255.1,269.5,255.1,269.5
	 M247.7,272.7c0.5-0.2,1-0.5,1.5-0.7c0,0,0-0.1,0-0.1c-0.9-0.1-1.7-0.2-2.7-0.3C246.9,272,247.3,272.4,247.7,272.7"/>
<path class="st1" d="M248.2,277.5c-0.4,0.4-0.7,0.8-1.1,1.2c-0.6,0.7-1.2,1.4-1.6,2.2c-0.3,0.7-0.5,1.3-0.4,2.1
	c0.1,0.8,0.7,1.4,1.5,1.5c0.8,0.1,1.5-0.1,2.3-0.4c1.2-0.5,2.3-1.4,3.3-2.1c1.1-0.8,2.1-1.5,3.2-2.3c1.3-0.9,2.6-1.6,4.1-2
	c-0.7-1.1-0.8-2.4-1-3.6c-0.2-0.9-0.3-1.7-0.5-2.6c-0.1-0.6-0.2-1.2-0.3-1.9c-0.1-0.7-0.2-1.5-0.3-2.2c-0.1-0.7-0.1-1.3-0.2-2
	c-0.1-0.8-0.2-1.5-0.2-2.3c-0.1-0.6-0.1-1.2-0.1-1.8c-0.1-1-0.2-2.1-0.2-3.1c0-0.5,0-1.1-0.1-1.6c0-0.1-0.1-0.3-0.1-0.4
	c-0.2-0.2-0.2-0.4-0.1-0.7c0.3-0.6,0.6-1.3,1-2c0.1,0.2,0.3,0.3,0.3,0.4c0.4,0.9,0.8,1.8,1.1,2.8c0.2,0.6,0.4,1.3,0.7,1.9
	c0,0.1,0,0.3,0.1,0.5c-0.6-0.2-0.9-0.8-1.3-1.2c0,0.5,0,0.8,0.1,1.2c0.1,0.5,0.1,1.1,0.2,1.6c0.1,0.7,0.2,1.4,0.2,2.1
	c0,0.4,0.1,0.9,0.1,1.3c0.1,0.7,0.2,1.4,0.2,2.1c0.1,0.6,0.1,1.2,0.2,1.8c0.1,0.6,0.2,1.2,0.2,1.8c0.1,0.5,0.1,1.1,0.2,1.6
	c0.1,0.8,0.2,1.6,0.4,2.5c0.1,0.6,0.3,1.1,0.4,1.7c0.1,0.3,0.3,0.5,0.5,0.7c0.8,0.7,1.8,1.1,2.8,1.4c0.4,0.1,0.8,0.3,1.2,0.5
	c0.1,0.1,0.2,0.2,0.2,0.3c0,0.7-0.1,1.4-0.2,2c0,0.1-0.2,0.1-0.2,0.1c-0.3-0.1-0.5-0.2-0.8-0.3c-1.4-0.8-2.9-0.8-4.4-0.4
	c-1.5,0.4-2.8,1.2-4.1,2c-1.1,0.8-2.1,1.6-3.1,2.4c-0.9,0.7-1.7,1.3-2.7,1.8c-0.6,0.3-1.2,0.5-1.8,0.5c-1.4,0-2.4-0.7-2.9-2.1
	c-0.5-1.4-0.3-2.7,0.4-4c0.4-0.7,0.9-1.4,1.5-2c0.3-0.3,0.8-0.6,1.2-0.9c0.1-0.1,0.2,0,0.3,0C248.2,277.4,248.2,277.4,248.2,277.5"
	/>
<path class="st1" d="M271.3,278.1c0.1-1.1,0.2-2.1,0.4-3c0.2-1.1,0.6-2.1,1.4-2.9c0.5-0.5,1.3-0.4,1.7,0.2c0.4,0.6,0.6,1.3,0.7,2
	c0.1,1.2-0.1,2.3-0.6,3.4c-0.5,1-1.3,1.7-2.3,2.1c-0.7,0.3-0.7,0.3-0.7,1c0,0.1-0.1,0.2-0.1,0.4c0,0-0.1,0-0.1,0
	c-0.1-0.3-0.2-0.6-0.3-1c-1,0.2-1.9,0.2-2.9-0.2c-0.8-0.3-1.4-0.9-1.9-1.7c-0.6-0.9-0.9-2-1.1-3.1c-0.2-1-0.3-2-0.4-3
	c-0.1-1.2-0.2-2.3-0.4-3.5c-0.1-1-0.2-2.1-0.4-3.1c-0.2-1.4-0.4-2.7-0.6-4.1c-0.3-1.7-0.6-3.3-0.9-4.9c-0.1-0.4-0.3-0.8-0.4-1.2
	c0,0-0.1,0-0.1,0c-0.1,0.1-0.1,0.2-0.2,0.3c-0.1,0.1-0.1,0.2-0.2,0.3c0,0.1-0.2,0.1-0.2,0.1c-0.1,0-0.1-0.1-0.1-0.2
	c0-0.5,0.1-0.9,0.2-1.4c0.2-0.5,0.4-1,0.7-1.5c0.1-0.3,0.3-0.3,0.5-0.1c0.5,0.4,0.6,1,0.8,1.6c0.3,1.1,0.5,2.2,0.8,3.3
	c0.2,0.9,0.3,1.7,0.4,2.6c0.1,1,0.3,2,0.4,3c0.1,0.9,0.2,1.9,0.3,2.8c0.1,1.1,0.3,2.1,0.4,3.2c0.1,0.7,0.2,1.4,0.3,2.1
	c0.2,1.5,0.4,3,1.1,4.3c0.5,1,1.3,1.8,2.5,2C270.4,278.1,270.9,278,271.3,278.1 M272,277.9c0.2-0.1,0.3-0.1,0.5-0.2
	c0.8-0.3,1.5-0.8,2.1-1.3c0.2-0.2,0.3-0.3,0.2-0.6c-0.1-0.6-0.4-1-0.8-1.4c-0.4-0.5-0.6-0.4-0.9,0.1
	C272.4,275.5,272.1,276.6,272,277.9"/>
<path class="st1" d="M232,257.5c-0.2,0.3-0.4,0.6-0.6,0.8c-0.1,0.2-0.2,0.4-0.4,0.5c-0.2,0.2-0.5,0.3-0.7,0.4
	c-1.6,0.6-3.2,1.2-4.8,1.9c-1.4,0.6-2.8,1.3-4.2,1.9c-0.3,0.2-0.7,0.3-1.1,0.5c0.1-0.2,0.2-0.4,0.3-0.6c0.4-0.7,1-1.2,1.6-1.5
	c2-1.1,4.1-1.9,6.3-2.7c1.2-0.4,2.3-0.8,3.5-1.2C231.8,257.5,231.9,257.5,232,257.5"/>
<path class="st1" d="M225.8,279.2c0-0.3,0.1-0.5,0.1-0.8c0-0.8,0-1.7-0.2-2.5c-0.3-1.2-0.6-2.5-0.9-3.7c-0.1-0.6-0.2-1.2,0-1.8
	c0.3-0.7,0.8-1.1,1.6-1.3c0.1,0,0.3-0.1,0.5-0.1c-0.1-0.2-0.3-0.4-0.6-0.4c-0.5,0-0.5,0.5-0.8,0.8c-0.3-0.1-0.2-0.4-0.2-0.6
	c0.2-0.5,0.4-1,0.9-1.2c0.3-0.2,0.5-0.2,0.7,0c0.5,0.4,0.9,0.9,1.4,1.4c0.1,0.1,0.1,0.4,0,0.5c-0.2,0.6-0.2,0.5-0.7,0.6
	c-0.7,0-1.4,0.1-2,0.5c-0.3,0.2-0.4,0.5-0.4,0.9c0.2,1,0.5,1.9,0.7,2.9c0.2,0.7,0.2,1.5,0.3,2.2c0.1,0.5,0.1,1,0.1,1.5
	c0,0.3-0.1,0.6-0.2,0.9c0,0.1-0.2,0.2-0.3,0.3C225.8,279.2,225.8,279.2,225.8,279.2"/>
<path class="st1" d="M248.8,264.1c-0.2,0-0.4,0-0.5,0c-0.2-0.1-0.4-0.2-0.6-0.3c-0.7-0.3-0.6-1-0.4-1.5c0.1-0.2,0.6-0.3,0.9-0.1
	c0.6,0.3,1,0.8,1.3,1.3c0.3,0.6,0.6,1.1,0.9,1.7c0.1-0.7,0.2-1.5,0.4-2.2c0.1-0.4,0.2-0.8,0.4-1.2c0.3-0.6,0.8-0.7,1.4-0.3
	c0.5,0.4,0.7,1,0.3,1.6c-0.1,0.2-0.2,0.1-0.3,0c-0.1-0.2-0.3-0.3-0.5-0.5c-0.2-0.2-0.4-0.1-0.5,0.1c-0.2,0.5-0.3,1-0.4,1.5
	c-0.2,0.8-0.3,1.7-0.4,2.5c0,0.1-0.1,0.2-0.2,0.3c-0.1-0.1-0.3-0.1-0.3-0.3c-0.1-0.3-0.2-0.6-0.3-0.9
	C249.6,265.1,249.3,264.5,248.8,264.1"/>
<path class="st1" d="M236.9,260.9c0.1-0.4,0.3-0.7,0.6-0.9c0.6-0.3,1.2-0.6,1.8-0.9c2-0.7,4-1.5,6-2.2c1.8-0.6,3.6-1.1,5.4-1.6
	c0.1,0,0.2,0,0.2,0c0,0.4-0.2,0.6-0.6,0.7c-2.2,0.7-4.4,1.3-6.5,2c-1.7,0.6-3.4,1.3-5.1,1.9C238.2,260.3,237.6,260.6,236.9,260.9"/>
<path class="st1" d="M273.5,261.9c-0.1-0.2-0.3-0.3-0.4-0.5c-0.3-0.2-0.5-0.2-0.6,0.1c-0.2,0.4-0.3,0.8-0.4,1.3
	c-0.1,0.7-0.2,1.4-0.3,2c0,0.1-0.1,0.2-0.2,0.3c-0.1-0.1-0.2-0.1-0.3-0.2c-0.1-0.3-0.2-0.5-0.3-0.8c-0.2-0.6-0.4-1.1-0.8-1.4
	c-0.2,0-0.3,0.1-0.4,0c-0.3-0.1-0.5-0.3-0.8-0.5c-0.3-0.2-0.3-1-0.1-1.2c0.1-0.1,0.4-0.1,0.5-0.1c0.5,0.1,0.8,0.5,1.1,0.9
	c0.3,0.5,0.5,1,0.8,1.4c0.1,0.1,0.1,0.2,0.1,0.3c0.2-0.8,0.4-1.7,0.6-2.6c0,0,0-0.1,0-0.1c0.1-0.3,0.3-0.6,0.7-0.6
	c0.3,0,0.9,0.3,1,0.6C273.9,261.1,273.7,261.7,273.5,261.9"/>
<path class="st1" d="M263.8,280.9c0,0.8-0.6,0.9-1.1,1.1c-1.9,0.7-3.7,1.4-5.5,2.1c-0.6,0.2-1.2,0.6-1.9,0.9c0-0.2,0-0.3,0-0.4
	c0-0.3,0.1-0.6,0.4-0.7c1.3-0.5,2.6-1.1,4-1.6c1.3-0.5,2.6-0.9,3.8-1.3C263.6,280.9,263.7,280.9,263.8,280.9"/>
<path class="st1" d="M253.9,278.8c-0.3,0.5-0.5,1-0.8,1.5c-0.5-0.3-1.1-0.6-1.6-0.9c-0.2,0.4-0.5,0.8-0.7,1.2
	c-0.6-0.3-1.1-0.7-1.7-1c0.3-0.5,0.6-1,0.9-1.5c0.6,0.3,1.1,0.6,1.6,0.9c0.2-0.3,0.3-0.6,0.5-1c0.1-0.2,0.2-0.2,0.4-0.1
	C252.9,278.2,253.4,278.5,253.9,278.8"/>
<path class="st1" d="M239.6,258.3c-0.4-0.1-0.4-0.4-0.5-0.6c-0.2-0.5-0.4-1-0.6-1.4c-0.1-0.2-0.2-0.3-0.5-0.3
	c-0.6,0.1-1.2-0.8-1.1-1.4c0.1-0.3,0.4-0.4,0.8-0.2c0.6,0.3,0.9,0.8,1.2,1.3c0.2,0.3,0.4,0.7,0.5,1.1c0.1-0.7,0.3-1.4,0.4-2.1
	c0-0.2,0.1-0.4,0.2-0.6c0.2-0.4,0.5-0.5,0.8-0.4c0.5,0.2,0.8,0.6,0.7,1c0,0,0,0,0,0.1c-0.1,0.1-0.1,0.3-0.2,0.4
	c-0.1-0.1-0.2-0.2-0.3-0.3c-0.4-0.3-0.6-0.3-0.7,0.1c-0.2,0.5-0.3,1-0.4,1.5C239.8,257.1,239.7,257.7,239.6,258.3"/>
<path class="st1" d="M240.5,283.4c0.1,0.4-0.2,0.8-0.5,0.9c-2.1,0.8-4.2,1.6-6.3,2.4c-0.4,0.1-0.7,0.3-1.1,0.5
	c-0.1,0-0.2,0.1-0.3,0.1c-0.1-0.5,0-0.9,0.6-1.2c1.6-0.6,3.1-1.2,4.7-1.8C238.6,284,239.6,283.7,240.5,283.4"/>
<path class="st1" d="M275.8,265.8c0.1,0.4-0.2,0.8-0.6,1c-1.8,0.7-3.6,1.3-5.4,2c-0.6,0.2-1.2,0.6-1.8,0.8c-0.1,0-0.2,0.1-0.3,0.1
	c-0.2-0.5,0-0.9,0.4-1.1c1.2-0.5,2.4-1,3.7-1.5C273.1,266.7,274.4,266.2,275.8,265.8"/>
<path class="st1" d="M231.8,278.8c-0.1-0.2-0.2-0.3-0.3-0.5c-0.1-0.2-0.2-0.5-0.3-0.8c-0.1-0.3-0.3-0.5-0.7-0.5
	c-0.5,0-0.8-0.6-0.7-1.1c0.1-0.2,0.3-0.2,0.6-0.1c0.4,0.2,0.7,0.6,0.9,0.9c0.1,0.3,0.3,0.5,0.4,0.8c0.1-0.5,0.2-0.9,0.2-1.3
	c0.1-0.2,0.2-0.5,0.2-0.7c0.1-0.3,0.4-0.3,0.6-0.2c0.3,0.1,0.6,0.4,0.5,0.6c0,0.2-0.1,0.3-0.2,0.5c-0.1-0.1-0.2-0.2-0.3-0.3
	c-0.2-0.2-0.3-0.2-0.4,0.1c-0.1,0.3-0.2,0.6-0.2,0.9c-0.1,0.5-0.2,1.1-0.2,1.6C231.9,278.8,231.9,278.8,231.8,278.8"/>
<path class="st1" d="M223.2,269.7c-0.3,0.1-0.3-0.1-0.4-0.3c-0.2-0.4-0.4-0.8-0.6-1.2c0-0.1-0.2-0.1-0.3-0.1c-0.5,0-1-0.7-0.8-1.1
	c0.1-0.2,0.3-0.2,0.5-0.1c0.4,0.1,0.6,0.4,0.8,0.8c0.2,0.3,0.4,0.7,0.6,1c0.1-0.4,0.1-0.7,0.2-1.1c0.1-0.3,0.2-0.7,0.3-1
	c0.1-0.3,0.4-0.3,0.6-0.2c0.5,0.3,0.7,0.5,0.3,1.1c-0.2-0.2-0.3-0.3-0.5-0.5c-0.3,0.3-0.4,0.7-0.5,1.1
	C223.4,268.6,223.3,269.2,223.2,269.7"/>
<path class="st1" d="M368.8,259.3c0-0.5,0.5-0.6,0.8-0.7c0.7-0.4,1.4-0.8,2.1-1.2c0.2-0.1,0.2-0.2,0.3-0.4c0.1-0.7,0.3-1.5,0.5-2.2
	c0-0.1,0.1-0.2,0.2-0.2c0.1,0,0.2,0.1,0.2,0.2c0.2,0.4,0.3,0.9,0.5,1.3c0,0.1,0.1,0.2,0.1,0.3c0.7-0.5,1.4-0.9,2.1-1.4
	c0.6-0.5,1.2-1.1,1.8-1.7c0.1,0.6-0.1,1.1-0.3,1.6c-0.6,1.9-1.7,3.5-2.9,5c-0.1,0.1-0.1,0.2-0.1,0.3c0.2,1.2,0.3,2.5,0.5,3.7
	c0.2,1.1,0.3,2.1,0.5,3.2c0.1,0.9,0.2,1.7,0.4,2.6c0.2,1.4,0.6,2.8,1.5,4c0.2,0.3,0.5,0.6,0.8,0.8c0,0,0,0,0.1-0.1
	c-0.2-0.4-0.4-0.8-0.5-1.3c-0.7-1.9-0.4-3.6,0.9-5.2c0.8-0.9,1.7-1.5,2.8-1.8c1.3-0.3,2.5-0.2,3.7,0.3c0.8,0.3,1.6,0.7,2.2,1.3
	c0.1,0.1,0.2,0.2,0.3,0.4c-0.3,0.3-0.5,0.1-0.7,0c-1-0.4-2-0.5-3-0.3c-1.1,0.2-2.1,0.5-3.2,0.8c-0.6,0.2-1.2,0.5-1.8,0.7
	c-0.4,0.2-0.5,0.5-0.4,0.9c0.4,1.5,1.3,2.9,2.6,3.8c0.9,0.7,2,0.8,3.2,0.5c1.5-0.4,2.8-1.2,4.1-2.1c0.4-0.3,0.9-0.6,1.4-0.9
	c0,0.9-0.2,1.7-0.9,2.2c-0.7,0.6-1.4,1.1-2.1,1.5c-1,0.6-2,1.1-3.1,1.5c-0.8,0.3-1.7,0.6-2.6,0.7c-1.4,0.2-2.8,0.1-4-0.9
	c-0.1-0.1-0.2-0.2-0.4-0.3c0.1,0.5,0.3,1,0.4,1.5c0.2,0.6,0.7,0.9,1.2,1.2c0.8,0.5,1.7,0.7,2.6,1c0.9,0.3,1.1,0.6,1,1.5
	c0,0.4-0.2,0.9-0.2,1.3c0,0.3-0.2,0.3-0.4,0.2c-0.4-0.2-0.8-0.4-1.3-0.6c-1.5-0.6-3-0.6-4.5,0c-1.1,0.4-2.1,1-3.2,1.6
	c-0.1,0-0.1,0.3-0.1,0.4c0,0.6,0.1,1.2,0,1.9c-0.1,1-0.4,1.9-0.6,2.9c-0.1,0.3-0.2,0.5-0.4,0.8c-0.1,0-0.1,0-0.2,0
	c-0.1-0.2-0.2-0.5-0.2-0.7c0-0.5-0.1-0.9-0.1-1.4c0-0.8-0.1-1.5-0.2-2.3c0-0.1-0.1-0.1-0.1-0.2c-1,0.8-2.1,1.6-3.1,2.4
	c-0.8,0.6-1.7,1.2-2.7,1.4c-2,0.5-3.6-0.7-4.1-2.7c-0.4-1.7,0.2-3.1,1.2-4.5c0.6-0.8,1.2-1.6,2.1-2.1c0.2-0.1,0.3-0.3,0.6,0
	c-0.4,0.5-0.9,0.9-1.3,1.4c-0.8,0.9-1.5,1.8-1.8,2.9c-0.2,0.8-0.3,1.5,0.2,2.2c0.3,0.4,0.8,0.6,1.3,0.7c1.1,0.2,2.2-0.3,3.1-0.9
	c1.4-0.9,2.8-1.9,4.2-3c0.1-0.1,0.1-0.4,0.1-0.6c-0.1-1-0.3-2-0.4-2.9c-0.2-1.3-0.4-2.7-0.7-4c-0.2-1.1-0.3-2.2-0.5-3.3
	c-0.2-1.5-0.5-3-0.7-4.5c0-0.1-0.1-0.1-0.1-0.2c-0.4,0.5-0.9,1-1.3,1.4c-0.9,0.9-1.7,1.8-2.6,2.7c-0.4,0.4-0.8,0.8-1.2,1.3
	c-0.2,0.2-0.1,0.3,0,0.4c0.4,0.5,0.8,1,0.9,1.6c0.1,0.7,0.1,1.3,0.1,2c-0.1,0.6-0.2,1.1-0.4,1.6c-0.3,0.8-1,1.3-1.7,1.7
	c-0.6,0.4-1.3,0.7-2.1,0.7c-0.6,0-1.2-0.5-1.3-1.2c-0.2-1.4,0.1-2.8,0.7-4c0.3-0.7,0.8-1.2,1.2-1.8c0.1-0.2,0.2-0.3,0-0.5
	c-1.1-1-2.1-2-3.1-3c-0.7-0.7-1.5-1.4-2.2-2.1c-1-1-2.1-1.9-3-3c-0.9-0.9-1.7-1.9-2.5-2.9c-0.6-0.8-1.2-1.6-1.9-2.4
	c0,0-0.1-0.1-0.1-0.1c-0.5,0.1-0.4-0.2-0.4-0.5c0-0.6,0-1.3,0-1.9c0-0.1,0.1-0.3,0.1-0.5c1.6,0.7,4.8,3.2,4.8,3.8
	c-0.5-0.1-1-0.2-1.6-0.3c0.2,0.2,0.3,0.4,0.5,0.6c1.3,1.3,2.6,2.7,3.9,4c0.8,0.8,1.6,1.5,2.4,2.3c1.2,1.1,2.4,2.3,3.5,3.4
	c0.4,0.4,0.9,0.8,1.3,1.2c0.3-0.3,0.6-0.6,0.8-0.9c0.1-0.1,0.1-0.2,0.2-0.2c1-1.1,2.1-2.2,3.1-3.3c0.6-0.6,1.1-1.2,1.6-1.8
	c0.3-0.3,0-0.6,0-0.9c-0.1-0.9-0.3-1.8-0.4-2.7c-0.1-0.9-0.3-1.8-0.4-2.7c0-0.4-0.1-0.6-0.4-0.9c-0.1-0.1-0.1-0.4,0-0.5
	c0.3-0.8,0.6-1.6,0.9-2.4c0-0.1,0.1-0.2,0.1-0.2c0.1,0,0.2,0.1,0.3,0.2c0.2,0.4,0.4,0.7,0.5,1.1
	C368.1,257.9,368.5,258.6,368.8,259.3c0.2,0.4,0.4,0.9,0.6,1.3c0.3,0.8,0.5,1.5,0.8,2.3c-0.3,0-0.6-0.2-0.8-0.4
	c-0.3-0.3-0.6-0.7-0.9-1c0,0,0,0-0.1,0c0.2,0.9,0.3,1.8,0.5,2.8c0.5-0.5,0.9-1,1.3-1.5c0.8-0.9,1.5-1.8,2.3-2.6
	c0.1-0.1,0.2-0.2,0.2-0.3c-0.1-0.6-0.2-1.2-0.4-1.9c-0.3,0.1-0.5,0.3-0.7,0.3C370.6,258.8,369.8,259.3,368.8,259.3 M375.8,280.1
	c-0.2-0.4-0.4-0.8-0.5-1.2c-0.2-0.8-0.3-1.6-0.5-2.3c-0.1-0.7-0.3-1.4-0.4-2.2c-0.1-0.8-0.2-1.7-0.3-2.5c-0.1-1-0.3-2-0.4-3
	c-0.1-1-0.2-2-0.4-3.1c-0.1-1-0.3-2.1-0.4-3.1c0-0.3-0.1-0.5-0.2-0.8c-0.3,0.4-0.6,0.8-0.9,1.1c-0.7,0.9-1.5,1.7-2.3,2.5
	c-0.3,0.4-0.5,0.7-0.3,1.3c0.2,0.9,0.3,1.8,0.5,2.7c0.2,1,0.3,1.9,0.5,2.9c0.2,0.9,0.3,1.9,0.5,2.8c0.1,0.8,0.3,1.7,0.4,2.5
	c0.1,0.7,0.2,1.5,0.3,2.2c0.1,0.7,0.2,1.4,0.3,2.2C373,281.2,374.3,280.5,375.8,280.1 M361,274.8c-0.4,0.4-0.8,0.9-1.2,1.3
	c-0.4,0.5-0.8,1-1,1.6c-0.1,0.3-0.1,0.7,0,0.9c0.1,0.2,0.5,0.3,0.8,0.3c1-0.2,1.9-0.7,2.7-1.2c0.3-0.2,0.3-0.4,0.2-0.7
	C362.3,276.1,361.6,275.5,361,274.8 M373.9,258.4c0.5-0.6,0.9-1.2,1.3-1.7c-0.5,0.2-0.9,0.4-1.3,0.7c-0.1,0-0.1,0.1-0.1,0.2
	C373.8,257.7,373.8,258,373.9,258.4"/>
<path class="st1" d="M343.8,284c-0.1,0.3-0.1,0.6-0.1,0.8c-0.2,0.9,0.5,1.8,1.4,1.9c0.8,0,1.4-0.2,1.9-0.7c0.6-0.6,1.1-1.3,1.7-2
	c0.1-0.2,0.3-0.3,0.4-0.4c0,0,0.1,0,0.1,0c0,0.1,0,0.2,0,0.4c-0.2,0.8-0.1,1.3,0.6,1.7c0.5,0.3,1.2,0.1,1.7-0.3
	c0.5-0.5,0.7-1.1,1.1-1.7c0.1-0.2,0.2-0.4,0.4-0.6c0,0,0.1,0,0.1,0c0,0.1,0.1,0.2,0.1,0.4c0,0.9,0.8,1.6,1.7,1.6
	c0.4,0,0.8,0,1.2-0.1c0.6-0.1,0.8-0.4,0.6-1c-0.4-0.8-0.8-1.6-1.2-2.4c-0.7-1.4-1.5-2.7-2-4.2c-0.1-0.3-0.3-0.5-0.4-0.7
	c-0.1-0.2-0.2-0.4-0.2-0.6c0.1-0.6,0.2-1.2,0.3-1.7c0-0.1,0.1-0.1,0.1-0.2c0.8,0.3,2.6,2.6,2.5,3.2c-0.3-0.2-0.6-0.3-1-0.5
	c0.3,0.6,0.6,1.2,0.9,1.8c0.6,1.2,1.4,2.4,1.7,3.7c0.1,0.5,0.1,1,0.1,1.5c0,0.6-0.1,1.1-0.3,1.7c-0.3,1-1.2,1.7-2.4,1.8
	c-1.1,0-1.9-0.4-2.4-1.4c0,0,0-0.1,0,0c-0.3,0.5-0.6,1.1-1,1.6c-0.5,0.6-1.3,0.7-2.1,0.5c-0.7-0.2-1-0.8-1.1-1.5
	c-0.1,0.2-0.3,0.4-0.4,0.5c-0.6,0.9-1.3,1.7-2.4,2c-1.2,0.3-2.3-0.2-2.6-1.3c-0.1-0.4,0-0.7,0-1.2c-0.1,0-0.3,0-0.4,0.1
	c-1.7,0.6-3.3,1.3-5,1.8c-0.8,0.3-1.7,0.4-2.6,0.5c-2.1,0.2-4.3,0-6.3-0.7c-1.4-0.5-2.5-1.4-3.2-2.8c-0.7-1.4-1.1-2.9-1.4-4.5
	c-0.2-1.3-0.4-2.6-0.5-4c-0.1-1.1-0.3-2.2-0.4-3.2c-0.1-1-0.2-2.1-0.4-3.1c-0.4-2.3-0.8-4.6-1.5-6.8c-0.1-0.2-0.1-0.3-0.2-0.5
	c-0.3-0.4-0.3-0.9-0.1-1.3c0.2-0.6,0.4-1.1,0.6-1.7c1.3,2.4,1.8,5.1,2.2,7.7c0.2-0.3,0.4-0.6,0.6-0.9c0.3-0.3,0.5-0.6,0.8-0.9
	c0.3-0.3,0.6-0.5,1-0.7c0.3-0.2,0.7-0.4,1.1-0.5c1.2-0.5,2.4-1,3.5-1.5c1.4-0.6,2.8-1.1,4.3-1.6c1.6-0.6,3.3-1.1,5-1.7
	c0.7-0.2,1.4-0.4,2.1-0.7c0.1,0,0.2,0,0.3,0c-0.4,0.5-0.8,1-1.2,1.5c-0.4,0.6-1.1,0.9-1.8,1.1c-2.6,0.9-5.3,1.9-7.9,2.9
	c-1.9,0.7-3.7,1.5-5.6,2.2c-0.6,0.3-1.3,0.5-1.9,0.8c-0.2,0.1-0.3,0.2-0.2,0.5c0.1,1,0.3,1.9,0.4,2.9c0.2,1.1,0.3,2.1,0.4,3.2
	c0.1,0.9,0.2,1.8,0.3,2.7c0.3,1.9,0.5,3.9,1.3,5.7c0.4,1,1.2,1.6,2,2.2c1.2,0.8,2.6,1.2,4.1,1.3c0.7,0.1,1.3,0.1,2,0.1
	c0.6,0,1.1-0.1,1.7-0.1c0.9-0.1,1.8-0.3,2.7-0.5c1.5-0.5,3-1.1,4.5-1.7C343.2,284.1,343.5,284.1,343.8,284"/>
<path class="st1" d="M344.2,263.5c0.7,0.8,1.7,1.5,2,2.6l-0.1,0.1c-0.2,0-0.5-0.1-0.7-0.1c0.3,0.6,0.5,1.3,0.8,1.9
	c0.4,1.1,0.7,2.2,0.6,3.4c-0.2,1.3-0.6,2.4-1.7,3.2c-1.7,1.4-3.6,2.4-5.5,3.4c-1.6,0.8-3.4,1.5-5.2,1.7c-1.5,0.2-3.1,0.2-4.5-0.6
	c-1-0.5-1.6-1.2-2.1-2.2c-0.6-1.1-0.9-2.2-0.8-3.5c0-1.6,0.4-3.1,1.1-4.6c0.1-0.2,0.2-0.5,0.3-0.7c0.1-0.1,0.2-0.2,0.3-0.3
	c0,0,0.1,0,0.1,0.1c0,0.2,0,0.5-0.1,0.7c-0.3,0.9-0.5,1.8-0.5,2.7c-0.1,1,0,2,0.3,3c0.5,1.6,1.6,2.5,3.2,2.9
	c1.9,0.5,3.8,0.2,5.6-0.5c1.9-0.7,3.7-1.5,5.4-2.5c0.8-0.5,1.7-1,2.5-1.5c0.3-0.2,0.8-0.5,0.6-1.1c-0.2-0.5-0.3-1-0.5-1.5
	c-0.5-1.3-0.8-2.6-1.4-3.8c-0.3-0.6-0.1-1-0.1-1.5c0-0.4,0.2-0.8,0.3-1.2C344.1,263.4,344.2,263.5,344.2,263.5"/>
<path class="st1" d="M327.1,260.1c0.3-1.3,0.6-2.5,0.8-3.8c0.1-0.2,0.2-0.5,0.3-0.7c0.2-0.3,0.7-0.4,1.1-0.2
	c0.8,0.3,1.2,1.3,0.7,2.1c0,0.1-0.1,0.1-0.2,0.2c-0.2-0.3-0.4-0.5-0.6-0.7c-0.3-0.3-0.6-0.3-0.8,0.1c-0.2,0.5-0.4,1-0.5,1.6
	c-0.2,1.1-0.3,2.1-0.5,3.2c0,0.1-0.1,0.2-0.2,0.3c-0.1-0.1-0.3-0.1-0.4-0.2c-0.2-0.3-0.3-0.7-0.4-1c-0.3-0.8-0.6-1.6-1.2-2.1
	c-0.3,0-0.5,0.1-0.6,0c-0.4-0.2-0.8-0.4-1.1-0.6c-0.1-0.1-0.2-0.3-0.2-0.5c0-0.2,0-0.4,0-0.6c0.1-0.8,0.4-0.9,1.1-0.7
	c0.7,0.2,1.1,0.8,1.5,1.4c0.3,0.6,0.6,1.2,0.9,1.8C326.9,259.8,327,260,327.1,260.1"/>
<path class="st1" d="M359,261.6c0.2-1.1,0.4-2.2,0.6-3.3c0.1-0.3,0.2-0.6,0.4-0.9c0.3-0.6,0.9-0.7,1.5-0.3c0.2,0.1,0.4,0.3,0.6,0.5
	c0.1,0.1,0.1,0.2,0.1,0.4c0,0.3-0.1,0.6-0.2,0.9c-0.1,0.3-0.2,0.3-0.5,0.1c-0.2-0.2-0.3-0.4-0.5-0.5c-0.3-0.2-0.6-0.2-0.7,0.2
	c-0.2,0.6-0.4,1.2-0.5,1.8c-0.2,1-0.3,2-0.5,3c0,0.1-0.1,0.3-0.2,0.5c-0.4-0.2-0.5-0.5-0.6-0.8c-0.3-0.6-0.5-1.2-0.8-1.8
	c-0.2-0.3-0.5-0.6-0.7-0.9c0,0,0,0.1,0,0.1c-0.2,0-0.4,0-0.6,0c-0.4-0.2-0.8-0.3-1.1-0.7c-0.2-0.2-0.3-0.7-0.2-1.1
	c0.1-0.8,0.5-0.9,1.2-0.6c0.7,0.3,1.2,1,1.6,1.7C358.4,260.4,358.7,261,359,261.6"/>
<path class="st1" d="M382.1,263.3c-0.4-0.1-0.5-0.4-0.6-0.6c-0.2-0.5-0.4-1.1-0.6-1.6c-0.2-0.5-0.6-0.9-0.9-1.4c0,0-0.1,0.1-0.1,0.1
	c-0.1,0-0.3,0.1-0.4,0c-0.4-0.1-0.7-0.3-1-0.5c-0.5-0.3-0.6-1.4-0.3-1.8c0.2-0.2,0.5-0.2,0.7-0.1c0.6,0.2,1,0.6,1.4,1.1
	c0.6,0.7,1,1.5,1.3,2.4c0,0.1,0.1,0.2,0.2,0.4c0.1-0.3,0.1-0.6,0.1-0.8c0.2-1,0.4-2.1,0.7-3.1c0.1-0.4,0.3-0.7,0.7-0.8
	c0.6-0.1,1,0.1,1.4,0.5c0.3,0.4,0.3,1.1,0.1,1.5c-0.1,0.2-0.3,0.2-0.4,0c-0.2-0.2-0.4-0.4-0.6-0.6c-0.1-0.1-0.3,0-0.4,0.1
	c-0.2,0.4-0.5,0.8-0.6,1.2c-0.2,1-0.3,2.1-0.5,3.1C382.3,262.6,382.2,262.9,382.1,263.3"/>
<path class="st1" d="M335.8,268.2c0.9,0.5,1.7,1,2.5,1.5c0.1,0,0.1,0.3,0.1,0.3c-0.4,0.7-0.8,1.4-1.2,2.2c-0.9-0.5-1.7-1-2.5-1.5
	c-0.1,0-0.2-0.3-0.1-0.3C334.9,269.6,335.4,268.9,335.8,268.2"/>
<path class="st1" d="M386.8,277.9c0,0.3,0,0.5-0.1,0.8c-0.1,1.1-0.2,2.2-0.4,3.4c-0.1,0.7,0,1.3,0.2,2c0.1,0.3,0.3,0.5,0.5,0.7
	c0.3,0.2,0.7,0.1,0.9-0.2c0.1-0.2,0.2-0.4,0.3-0.6c0.1-0.1,0.2-0.2,0.3-0.3c0.1,0.9,0,1.6-0.4,2.3c-0.4,0.5-1.2,0.6-1.7,0
	c-0.5-0.7-0.7-1.5-0.7-2.4c0-1.8,0.2-3.5,0.7-5.2c0-0.2,0.2-0.3,0.2-0.4C386.7,277.9,386.8,277.9,386.8,277.9"/>
<path class="st1" d="M379,266.4c-0.1-0.5,0.2-0.7,0.5-1c0.8-0.9,1.8-1.5,2.9-1.9c0.9-0.4,1.8-0.8,2.7-1.2c0.2-0.1,0.5-0.2,0.8-0.3
	c0,0,0.1,0.1,0.1,0.1c-0.3,0.5-0.7,1-1,1.4c-0.1,0.1-0.3,0.1-0.4,0.2c-1.7,0.8-3.4,1.7-5.1,2.5C379.2,266.3,379.1,266.3,379,266.4"
	/>
<path class="st1" d="M354.2,269.6c-0.4,0.7-0.7,1.4-1.1,2.1c-0.8-0.5-1.6-0.9-2.5-1.4c0.1-0.3,0.3-0.5,0.4-0.8
	c0.2-0.4,0.4-0.7,0.6-1.1c0-0.1,0.2-0.1,0.3-0.1C352.7,268.7,353.4,269.1,354.2,269.6"/>
<path class="st1" d="M282.1,345.6L282.1,345.6c-0.5,0-0.8-0.3-0.8-0.7l2.5-50.3c0-0.3,0.2-0.6,0.5-0.7c0.3-0.1,0.6,0,0.8,0.3
	l6.4,8.4l7.1-11.4c0.2-0.4,0.7-0.5,1-0.2c0.4,0.2,0.5,0.7,0.2,1l-7.4,11.9l6.9,9c0.2,0.3,0.2,0.6,0,0.9l-8.1,12.2l8,8.4
	c0.2,0.2,0.3,0.5,0.2,0.8c-0.1,0.3-0.3,0.5-0.6,0.5l-15.8,2.4l-0.4,7.1C282.8,345.3,282.5,345.6,282.1,345.6 M290.6,327.1l-6,9
	l12.8-1.9L290.6,327.1z M284.1,320.4l-0.7,14.9l6.2-9.3L284.1,320.4z M284.6,318.8l5.8,6l7.7-11.5l-6.2-8.1l-7,11.2L284.6,318.8z
	 M285.3,296.7l-0.9,17.5l6.4-10.3L285.3,296.7z"/>
<path class="st1" d="M317,345.6c-0.4,0-0.7-0.3-0.8-0.7l-0.4-7.1l-15.8-2.3c-0.3,0-0.5-0.2-0.6-0.5c-0.1-0.3,0-0.6,0.2-0.8l8-8.4
	l-8.1-12.2c-0.2-0.3-0.2-0.6,0-0.9l7-9.2l-7.1-11.8c-0.2-0.4-0.1-0.8,0.3-1s0.8-0.1,1,0.3l6.8,11.3l6.3-8.2c0.2-0.2,0.5-0.4,0.8-0.3
	c0.3,0.1,0.5,0.4,0.5,0.7l2.5,50.3C317.7,345.3,317.4,345.6,317,345.6L317,345.6z M301.7,334.2l12.8,1.9l-6-9L301.7,334.2z
	 M309.6,326l6.2,9.3l-0.7-14.9L309.6,326z M301.1,313.2l7.7,11.5l5.8-6l-0.2-2.4l-6.8-11.4L301.1,313.2z M308.4,303.7l6.3,10.4
	l-0.9-17.4L308.4,303.7z"/>
<path class="st1" d="M299.6,341.6c-0.4,0-0.5-0.3-0.5-0.8v-75.9c0-0.4,0.1-0.8,0.5-0.8c0.4,0,0.5,0.3,0.5,0.8v75.9
	C300.1,341.2,300,341.6,299.6,341.6"/>
<path class="st1" d="M283.7,318.5l-0.4-1.4l16.4-4.5c0.1,0,0.3,0,0.4,0l15.7,4.1l-0.4,1.5l-15.5-4L283.7,318.5z"/>
<path class="st1" d="M320.2,296c0,0-0.1,0-0.1,0l-20.7-4c-0.4-0.1-0.3-0.4-0.3-0.7v-11c0-0.2-0.3-0.4-0.1-0.6
	c0.2-0.1,0.2-0.2,0.4-0.2l21,3.4c0.3,0,0.5,0.2,0.6,0.5c0.1,0.3,0,0.6-0.2,0.8l-4.4,4.3l4.5,6.4c0.2,0.3,0.2,0.6,0,0.8
	C320.7,295.8,320.4,296,320.2,296 M312.2,292.9l6.2,1.2l-3.1-4.4L312.2,292.9z M301,290.8l9.3,1.8l-4.7-6.4L301,290.8z M306.7,285.2
	l4.7,6.4l3.2-3.3l-4.9-5.2L306.7,285.2z M299.1,281.1v8.7l5.2-4.8l-3.2-3.6L299.1,281.1z M311.7,283l3.9,4.1l3.1-3L311.7,283z
	 M303.9,281.7l1.9,2.3l2.4-1.6L303.9,281.7z"/>
<path class="st1" d="M320.4,295.6L320.4,295.6c-0.4,0-0.8-0.2-0.8-0.6l0.2-11c0-0.4,0.3-0.3,0.8-0.3h0c0.4,0,0.7,0,0.7,0.4
	l-0.2,11.1C321.1,295.6,320.8,295.6,320.4,295.6"/>
<path class="st1" d="M278.4,296c-0.3,0-0.5-0.1-0.6-0.4c-0.2-0.3-0.1-0.6,0-0.9l4.8-6.2l-4.7-4.4c-0.2-0.2-0.3-0.5-0.2-0.8
	c0.1-0.3,0.3-0.5,0.6-0.5l20.7-3.4c0.2,0,0,0,0.2,0.2c0.2,0.1-0.1,0.4-0.1,0.6v11c0,0.4,0.1,0.7-0.2,0.7L278.4,296
	C278.3,296,278.5,296,278.4,296 M283.6,289.7l-3.3,4.4l6.4-1.2L283.6,289.7z M293.4,286.2l-4.6,6.3l9.1-1.8L293.4,286.2z
	 M284.2,288.3l3.3,3.4l4.7-6.4l-3.1-2.1L284.2,288.3z M294.7,285l4.4,4v-7.9l-1.2,0.2L294.7,285z M280.1,284.1l3.2,3l4-4.2
	L280.1,284.1z M290.6,282.3l2.5,1.7l2-2.4L290.6,282.3z"/>
<path class="st1" d="M278.6,295.6c-0.4,0-0.7-0.2-0.8-0.6l-0.2-11c0-0.4,0.3-0.4,0.7-0.4h0c0.4,0,0.7,0,0.8,0.4l0.2,11.1
	C279.4,295.5,279.1,295.6,278.6,295.6L278.6,295.6z"/>
<path class="st1" d="M308,281c0,0-0.1,0-0.1,0l-8.2-1.1c-0.4,0-0.7-0.4-0.7-0.7v-8.2c0-0.2,0.1-0.4,0.3-0.6c0.2-0.1,0.4-0.2,0.6-0.1
	l8.7,2c0.4,0.1,0.6,0.4,0.6,0.8l-0.6,7.3c0,0.2-0.1,0.4-0.3,0.5C308.4,280.9,308.2,281,308,281 M300.1,278.4l7,0.9l0.3-5.9l-7.3-1.6
	V278.4z"/>
<rect x="303.5" y="269.4" transform="matrix(0.7547 -0.656 0.656 0.7547 -106.1401 267.1969)" class="st1" width="1.5" height="12.3"/>
<rect x="299.2" y="275.2" transform="matrix(0.8105 -0.5858 0.5858 0.8105 -103.9575 230.6842)" class="st1" width="10.6" height="1.5"/>
<path class="st1" d="M303.3,275.5c0,0.7,0.6,1.3,1.3,1.3c0.7,0,1.3-0.6,1.3-1.3c0-0.7-0.6-1.3-1.3-1.3
	C303.9,274.1,303.3,274.8,303.3,275.5"/>
<path class="st1" d="M291.2,281c-0.2,0-0.3-0.1-0.5-0.2c-0.2-0.1-0.3-0.3-0.3-0.5l-0.3-7.3c0-0.4,0.2-0.7,0.6-0.8l8.2-2
	c0.2-0.1,0.1,0,0.2,0.1c0.2,0.1-0.1,0.4-0.1,0.6v8.2c0,0.4,0.1,0.7-0.2,0.7L291.2,281C291.1,281,291.2,281,291.2,281 M292,273.5
	l0.4,5.9l6.6-0.9v-6.6L292,273.5z"/>
<rect x="289.6" y="274.8" transform="matrix(0.6558 -0.7549 0.7549 0.6558 -106.2339 318.099)" class="st1" width="12.3" height="1.5"/>
<rect x="294.7" y="270.7" transform="matrix(0.5858 -0.8104 0.8104 0.5858 -101.2909 353.795)" class="st1" width="1.5" height="10.6"/>
<path class="st1" d="M296.7,275.5c0,0.7-0.6,1.3-1.3,1.3c-0.7,0-1.3-0.6-1.3-1.3c0-0.7,0.6-1.3,1.3-1.3
	C296.1,274.1,296.7,274.8,296.7,275.5"/>
<path class="st1" d="M297.5,268.3c0,1,1.1,1.9,2.5,1.9c1.4,0,2.5-0.8,2.5-1.9c0-1-1.1-1.9-2.5-1.9
	C298.6,266.4,297.5,267.3,297.5,268.3"/>
<path class="st0" d="M261,380.1c0,22.3,18.1,40.4,40.4,40.4c22.3,0,40.4-18.1,40.4-40.4s-18.1-40.4-40.4-40.4
	C279.1,339.7,261,357.8,261,380.1"/>
<path d="M301.4,421.6c-22.9,0-41.5-18.6-41.5-41.5c0-22.9,18.6-41.5,41.5-41.5c22.9,0,41.5,18.6,41.5,41.5
	C342.9,403,324.3,421.6,301.4,421.6 M301.4,340.8c-21.7,0-39.3,17.6-39.3,39.3c0,21.7,17.6,39.3,39.3,39.3
	c21.7,0,39.3-17.6,39.3-39.3C340.7,358.4,323,340.8,301.4,340.8"/>
<path d="M301.5,407.5c-6.1,0-10.8-11.3-10.8-25.7s4.7-25.7,10.8-25.7c6.1,0,10.8,11.3,10.8,25.7S307.5,407.5,301.5,407.5
	 M301.5,357.6c-5,0-9.3,11.1-9.3,24.2c0,13.1,4.3,24.2,9.3,24.2c5,0,9.3-11.1,9.3-24.2C310.8,368.7,306.5,357.6,301.5,357.6"/>
<path d="M316.4,398.6L316.4,398.6c-5.6,0-13.4-2.9-20.7-7.6c-12.2-7.7-19.2-17.8-15.9-23c1.2-1.8,3.5-2.8,6.8-2.8
	c5.6,0,13.3,2.8,20.7,7.5c5.7,3.6,10.5,7.9,13.5,12.1c3.2,4.4,4,8.3,2.4,10.8C322,397.5,319.7,398.6,316.4,398.6 M286.5,366.7
	c-1.9,0-4.4,0.4-5.5,2.1c-2.7,4.3,4.4,14.1,15.4,21.2c7.1,4.5,14.6,7.6,19.9,7.6h0c1.9,0,4.4-0.7,5.5-2.4c1.2-2,0.4-5.4-2.3-9.2
	c-2.9-4.1-7.6-8.3-13.1-11.8C299.3,369.5,291.9,366.7,286.5,366.7"/>
<path d="M286.6,397.6L286.6,397.6c-3.7,0-6.3-1-7.5-3.1c-1.5-2.6-0.5-6.4,2.9-10.6c3.2-4.1,8.2-8.1,14.1-11.5
	c7.1-4.1,14.7-6.5,20.2-6.5c3.7,0,6.3,1.1,7.5,3.2c1.5,2.6,0.5,6.4-2.9,10.6c-3.2,4.1-8.2,8.1-14.1,11.4
	C299.7,395.2,292.1,397.6,286.6,397.6 M316.3,367.4c-5.3,0-12.5,2.4-19.5,6.3c-5.7,3.3-10.6,7.2-13.7,11.1c-2.9,3.7-3.9,7.1-2.8,9.1
	c1.1,2,4,2.6,6.2,2.6h0c5.3,0,12.5-2.5,19.5-6.5c5.7-3.3,10.6-7.3,13.7-11.2c2.9-3.7,3.9-7,2.8-9
	C321.4,367.9,318.5,367.4,316.3,367.4"/>
<path class="st1" d="M298.2,382c0,2.2,1.8,3.9,3.9,3.9s3.9-1.8,3.9-3.9c0-2.2-1.8-3.9-3.9-3.9S298.2,379.8,298.2,382"/>
<polygon points="78.1,275.6 78.1,279.2 109.9,298.6 113.8,298.6 147.1,278.9 147.1,275.6 "/>
<polygon points="78.1,324.6 78.1,320.5 109.9,298.6 113.8,298.6 147.1,320.8 147.1,324.6 "/>
<polygon points="453.1,275.6 453.1,279.2 484.2,298.6 488.2,298.6 521.1,278.9 521.1,275.6 "/>
<polygon points="453.1,324.6 453.1,320.5 484.2,298.6 488.2,298.6 521.1,320.8 521.1,324.6 "/>
</svg>
