<?xml version="1.0" encoding="utf-8"?>
<!-- Generator: Adobe Illustrator 25.0.0, SVG Export Plug-In . SVG Version: 6.00 Build 0)  -->
<svg version="1.1" id="Layer_1" xmlns="http://www.w3.org/2000/svg" xmlns:xlink="http://www.w3.org/1999/xlink" x="0px" y="0px"
	 viewBox="0 0 512 512" style="enable-background:new 0 0 512 512;" xml:space="preserve">
<style type="text/css">
	.st0{fill:url(#SVGID_1_);}
	.st1{fill:#12100B;}
	.st2{fill:#506AB0;stroke:#12100B;stroke-width:0.75;stroke-miterlimit:10;}
</style>
<g>
	<g>
		<radialGradient id="SVGID_1_" cx="233.5277" cy="338.0809" r="159.1284" gradientUnits="userSpaceOnUse">
			<stop  offset="0" style="stop-color:#FFFFFF"/>
			<stop  offset="0.1382" style="stop-color:#FFFFFC"/>
			<stop  offset="0.2835" style="stop-color:#FFFDF4"/>
			<stop  offset="0.4321" style="stop-color:#FFFBE5"/>
			<stop  offset="0.583" style="stop-color:#FEF9CF"/>
			<stop  offset="0.7358" style="stop-color:#FDF5AF"/>
			<stop  offset="0.8877" style="stop-color:#FCF084"/>
			<stop  offset="1" style="stop-color:#FCED58"/>
		</radialGradient>
		<path class="st0" d="M266.2,35.5 M67.9,68.3c-13.5,166.6,40.8,268,88.9,323.9c47.6,55.3,98.6,78.1,107.9,82
			c129.8-68.8,176.5-175.7,192.8-253.5c16-76.2,6.7-139.8,4.6-152.3c-62.2-17-128.1-25.6-195.9-25.6C160.4,42.9,82.2,64.2,67.9,68.3
			z"/>
	</g>
	<g>
		<path class="st1" d="M265.2,483.6l-1.5-0.6c-2.4-0.9-58.6-22.2-112.2-84.3C102.1,341.4,46.3,237.4,60.8,66.5l0.2-2.5l2.3-0.7
			c0.8-0.3,84.9-26.5,202.9-26.5c69.3,0,136.6,8.9,200.1,26.4l2.2,0.6l0.4,2.2c0.1,0.7,13.8,71.3-4.2,157.5
			c-16.7,79.6-64.6,189.2-198.1,259.2L265.2,483.6z M67.9,69.7c-13.5,166.6,40.8,268,88.9,323.9c47.6,55.3,98.6,78.1,107.9,82
			c129.8-68.8,176.5-175.7,192.8-253.5c16-76.2,6.7-139.8,4.6-152.3c-62.2-17-128.1-25.6-195.9-25.6C160.4,44.2,82.2,65.5,67.9,69.7
			z"/>
	</g>
	<path class="st2" d="M463.9,182.6l-4.4,0.4c0,0-6.9-2-8.5-2.3c-1.5-0.3-5.5-0.5-6.3-0.5c-0.8,0-8.8-2.6-9.1-2.6
		c-0.3,0-6.9-0.7-6.9-0.7s-2.8-1.5-5-2.3c-2.2-0.8-2-1-3.5-1.8s-3.1-2.7-4.9-4.5c-1.8-1.8-0.5-2.6-0.6-4.1c-0.1-1.5-1.8-3.5-2-5.9
		s-0.3-4.8-0.5-6.1c-0.2-1.3-1.1-2.5-1.5-2.9c-0.4-0.4-1.6-1.3-2.3-2.5c-0.7-1.1-1.9-1.3-3.8-2.1c-1.8-0.8-1.6,0-2.3,0.2
		c-0.6,0.2-2,1.2-2.1,1.9c-0.1,0.7-1.1,3.5-1.5,4.2c-0.4,0.7-2,1.9-2.3,2.1c-0.3,0.2-1.3,0.3-1.8,0.2s-2.9,0-3.9,0.9
		c-1,0.9-1.4,0.4-2,0.6s-1.1-0.3-1.7-0.7c-0.6-0.4-1.6-1.6-3.6-2.3s-0.9,0.9-1.8,2.1s-1.1,0.5-1.4,0.5c-0.3,0-1.1,0.8-1.9,0.9
		c-0.8,0.1-3.5-0.9-4.6-1.3s-1.1-1.1-2.9-1.8s-3.1-0.5-4.4-0.5c-1.3,0-1.1-0.1-2.8-0.9c-1.6-0.8-2.8-1.4-3.8-2.5c-1-1-0.1-3-0.1-3
		s-5.7-2.5-6.3-2.9c-0.6-0.4-4.2-2.2-5.8-3.2c-1.6-0.9-1-1.9-1-3.7c0-1.7-0.7-1.2-0.7-1.2s-3.3-2-4.4-3s-2-1.8-2.6-2.3
		c-0.5-0.5-1.5,0.2-3.3,0.3s-3.4-0.7-4.5-1c-1.1-0.3-2.7-1.8-3.4-2.9s-0.2-3.4-0.3-3.7c-0.1-0.3-1.3-0.8-2.3-1.2s-1.8-2.5-1.8-2.5
		s-0.3-1.7-0.4-3.5c-0.1-1.8,0-1.6,0-1.8s-2.1-2.7-2.3-3c-0.1-0.2-0.1-2.4-0.3-3.2c-0.2-0.8-1.8-1.6-2.4-1.6c-0.7,0-1.7-1.5-1.7-1.5
		l-0.1-6.4c0,0-1-0.8-1.7-1.4c-0.7-0.6-2.4-2.8-3-3.6c-0.7-0.8-0.4-0.1-1.5-1.6c-1-1.4-1-1.7-1-2.7s0.1-1.5-0.1-2.1
		s-1.5-1.3-2.1-2.1c-0.6-0.7-0.6-0.3-1.8-0.3c-1.2,0-0.8,0.8-1.7,1.4c-0.9,0.6-0.9,1.1-1.7,1.7c-0.8,0.6-1.3,0.3-1.8,0.1
		c-0.6-0.2-1.4-0.9-1.4-0.9s-2.4-1.6-2.7-3c-0.4-1.5-1.5-1.2-2.4-1.2c-1,0-0.8,0.2-1.6,0.7s-0.4,1.3-0.5,2s-0.3,1.8-0.3,1.8
		s-2.4,0.1-2.7,0c-0.2-0.1-0.7-0.9-0.7-0.9s-0.9-1.6-1-1.6c-0.1,0-0.7-0.5-1.8,0s-0.7,1-1.2,2.1c-0.4,1.2-0.3,2.3-0.3,2.7
		s-0.2,3.5-0.2,3.5s-1.3,1.4-1.9,1.5s-2.7-0.6-3-0.5s-1.4-0.1-2.3,0c-0.9,0.1-0.8,0.4-0.8,0.4s-0.7,1.7-0.7,2.4
		c-0.1,0.7,0.7,1.7,0.7,1.7s2.1,0.5,2.5,0.6s0.5,1.2,0.7,1.6c0.1,0.4,1,0.7,1.4,1.3s1.6,2.4,1.6,2.4s1,2.7,1,2.9
		c0,0.2,0.8,1.9,0.5,2.5s-0.4,1.8-0.4,2.3s-0.1,1.7,0,2.1s1.5,1.6,1.5,1.6l2.7,0.8c0,0,3,2.8,3.9,4.3s1,2,1,2s0,7.1,0,7.5
		c0,0.4,2.9,0.4,3.7,0.4s2.1,0.4,2.5,0.7s0.4,1.6,0.4,2.1c0,0.6,0.6,2,0.8,2.6c0.2,0.6,2.5,1.9,3,2.3s1,3,1,3s1.9,1.6,2.9,3
		c1,1.3,2.1,1.3,2.6,1.8s3,2.8,3,2.8s-0.1,3.8,0,5.2s0,2.1,0,2.4s0,0.5,0.4,2.3c0.4,1.8,0.4,0.4,1.9,0.6c1.5,0.2,1-0.1,1.7-0.4
		c0.7-0.3,1.7-0.5,2.1-0.7c0.4-0.1,1.2,0,1.2,0s1.3,1.1,1.7,1.6c0.4,0.5,0.8,0.4,1.6,1.8s1,0.4,2.1,0.2c1.2-0.1-0.1-0.7,0-1.3
		c0.1-0.6,1.6,0,2.7,0c1.2,0,0.9,0.3,2.3,0.9c1.4,0.6,1.6,1.2,2.3,1.9c0.6,0.7,1.1,2.1,1.2,2.6c0.1,0.4,0.4,2.5,0.4,2.9
		s-0.6,5.2-0.7,5.5s2.6,0.8,2.6,0.8s-0.6,7.9-0.8,8.1c-0.2,0.1-1.7,1.3-1.7,1.3s0,1.2-0.1,1.8c-0.1,0.6-0.6,3-0.8,4.8s0,1.8,0,3
		c0,1.2,0.6,0.5,1.6,1.3c1,0.7,1.5,1.6,1.9,2c0.4,0.4,3.3,2.4,3.3,2.4l3.6,0.3c0,0,1.8-0.3,2.5-1.3c0.6-1.1,1.1,0,1.1,0l1.5-1.7
		c0,0,1.7-0.2,2.5,0c0.8,0.2,3.6,1.1,4.2,1.5c0.6,0.4,5.3,0,8,0s5.5-1.9,5.5-1.9s3.4,0.4,4.6,0c1.3-0.4,2.9-1.9,2.9-2.7
		s1.5-3.8,2.5-5.5s4.6-3.4,5.9-5.3c1.3-1.9,2.9-4.6,4.4-6.5c1.5-1.9,2.1-2.1,3.4-3.4c1.3-1.3,4-1.9,5.3-2.9s1.7-2.9,1.7-2.9
		s1.5-2.9,2.1-4s2.9-1.9,2.9-1.9l1.1,0.8c0,0,0.9,1.2,0.5,2.2c-0.5,1-0.6,3.6-0.5,5.4s-0.2,5.9-0.2,6.2s-0.6,2.7-0.5,3.5
		c0.1,0.8,1.1,6.6,1.2,7c0.1,0.3,2,3.2,2,3.2s0.2,3.4,0.6,4.1c0.5,0.8,1.2,1.7,2.5,3.4s2,2,2.8,2.7c0.8,0.7,3.1,3.1,3.8,4
		c0.8,0.9,0.2,0.5,2,1.8c1.8,1.4,2.3,1.1,3.7,1.8c1.4,0.8,3.1,0.8,4.1,1.1c1.1,0.3,1.8,0.6,2.8,1.5c0.9,0.9,1.5,1.7,3.2,2.3
		c1.7,0.6,3.7,1.4,5.4,1.8c1.7,0.5,3.1,0.3,3.5,1.1c0.5,0.8,0.2,0.6,1.2,3.2s0.8,2.3,2.1,4.4c1.4,2.1,3.5,4.9,4.3,5.7
		c0.8,0.8,1.5,1.7,2.8,2.6s3.8,2.8,3.8,2.8h2.1c0,0,5.7-20.2,6.1-20.2c0.5,0,3.8-12.7,4-13.3c0.2-0.6-0.8-13.8-0.8-13.8L463.9,182.6
		z"/>
	<path class="st2" d="M448.8,251.8c0,0-2.1,2.3-4.1,4.9c-2,2.6-5.7,3.8-6.6,5.4s-2.8,1.1-0.9,3.4s3.8,2.6,4.6,3.8
		c0.8,1.2,0.5,3.7-0.3,4.1c-0.8,0.5,0.6-0.6-2.6,0c-3.2,0.6-3.8,0.8-5.4,0.1c-1.5-0.7-6.1-3.5-6.1-3.5s-0.3,1.9-1.4,3.9
		c-1.1,2-2.1,4-1.8,6.6c0.3,2.6,1.1,6.1,1.1,7.8c0,1.7,0,8.7,0,8.7s0.9-0.2-3.1,0c-4,0.2-9.2,2-10,3.1c-0.8,1.1-1.8,1.5-2.6,3.1
		c-0.8,1.5-0.2,1.2-1.1,3.1s-0.9,2.3-1.8,4.1c-0.9,1.8-3.8,2.8-4.6,3.2c-0.8,0.5-7.2,1.5-8,2.6c-0.8,1.1-3.4,3.1-4.9,4.9
		c-1.5,1.8-2.9,3.8-4.1,5.1s0.9,3.5,0.9,3.5s-2,1.4-3.4,1.1s-2.9,0-4.9-0.9c-2-0.9-0.5-2.5-3.7-0.8c-3.2,1.7-0.9-0.5-4.6,1.7
		s-2.3,1.6-4.4,2.7s-8.3,2.8-8.7,2.9c-0.5,0.2-4.8,0-5.2,0c-0.5,0-6.1,2.1-6.1,2.1s-1.1,0.8-1.5,1.4c-0.5,0.6,0.9,0.8,0,1.7
		c-0.9,0.9-2,3.4-2,4.8s0.5,2.8,0.8,3.4c0.3,0.6,0.2,1.2-2,2s-5.2,1.8-6.1,2.5c-0.9,0.6-1.5,1.8-3.5,2.9s-2.6,1.4-4.1,1.8
		c-1.5,0.5-0.8-0.2-4.4,1.1c-3.7,1.2-6,1.4-8.3,2.5s-4.3,1.2-6.7,2.1c-2.5,0.9-4.4,0.5-6.1,2.5c-1.7,2-3.2,2-5.1,4.1
		c-1.8,2.1-5.5,6-6.1,6.1s0.2,0-1.7,0.8c-1.8,0.8-3.2,0-3.2,0s-0.6,0.2-2.1,0.3c-1.5,0.1-4.1-0.3-5.5,0c-1.4,0.3-4.6,2.3-5.8,3
		c-1.2,0.8-0.9,2-3.5,2.5c-2.6,0.5-3.7,0.2-5.1,0.8c-1.4,0.6,0-0.2-2.3,1.2s-8.1,1.7-8.1,1.7h-4h-4c0,0-2,2.3-3.1,3.1
		s-6,2.1-6.7,3.5c-0.8,1.4,0.5,2.3-1.1,2.9c-1.5,0.6-0.3,0.6-2.5,0c-2.1-0.6-2.3-0.8-3.5,0.5s-3.7,2.1-4.8,2.5
		c-1.1,0.3,0.9,1.4-3.1,0c-4-1.4-5.2-1.8-5.2-1.8s-0.5-1.8-2.3-3.2c-1.8-1.4-4.9-8.3-4.9-8.3s-0.9-1.4,0-1.8
		c0.9-0.5,2.8-2.3,2.8-2.3s0.8,0-0.3-2.3s-1.7-3.2-1.7-3.2l-1.2-3.5l-1.1-3.5v-3.7c0,0,0.6-0.2,0-0.6c-0.6-0.5-1.5-2.9-1.4-3.7
		c0.2-0.8,0.9-4,0.9-4v-1.4c0,0-2-1.2-2.3-1.8c-0.3-0.6-3.8-3.4-3.4-4.6s0.6-4.1,0.6-4.1l1.5-1.7l0.9-4l0.9-5.4l-0.9-4.8
		c0,0-3-7.2-3.1-8.1c-0.1-0.9-2.4-5.4-2.9-5.8c-0.5-0.5-2-1.7-2.3-4c-0.3-2.3-2.1-4.9-2.1-4.9l-1.4-3.4l-5.2-6.3l-2.3-4.1
		c0,0-2.9-7.7-3.2-8.1c-0.3-0.5-2-8.7-2-8.7s-8-13.5-19.5-20.5c0,0-2.9-1.4-3.4-2.3c-0.5-0.9-2.8-3.5-2.8-4c0-0.5-0.8-3.7-1.2-4.1
		s-3.4-2-3.4-2v-9.2c0,0,0.3-4.8,0-5.5c-0.3-0.8,0-10,0-10l-0.1-4.3c0,0-2-6.4-2.6-6.6c-0.6-0.2-1.7-4.3-2-5.4
		c-0.3-1.1-0.9-4.1-1.1-4.6c-0.2-0.5-1.2-2.8-1.2-2.8s-1.4-2.9-2-3.5s-3.1-2.8-3.5-3.2c-0.5-0.5-3.1-4.1-3.1-4.1s-2.5-1.4-3.1-1.7
		s-3.4-2.6-3.4-2.6s-0.6-0.6-1.5-1.8c-0.9-1.2-1.2-1.7-1.5-2.5c-0.3-0.8-0.8-2.3-0.9-4.8c-0.2-2.5,0.6-2.9,0-4.6
		c-0.6-1.7-1.2-3.5-1.2-3.5l-5.7-10c0,0-2.5-1.8-3.5-4s-3.2-5.7-3.2-5.7l-1.4-4.6c0,0-1.1-4.1-1.4-4.9c-0.3-0.8-2.6-5.1-3.1-6.1
		c-0.5-1.1-0.5-2.1-1.8-4.3s-3.1-2.5-3.1-2.5s-2.1-4-2.1-4.6s-1.2-4-1.2-4s-0.5-1.5-2.1-1.8s-2.8,0.6-3.7,0
		c-0.9-0.6-3.1-1.2-3.1-1.2l1.2-8.1c0,0,2.3-1.1,2.3-1.7s0-6.6,0-6.6l0.2-5.2c0,0-1.1-3.1-1.7-2.9c-0.6,0.2-3.1,0.6-3.5,1.8
		c-0.5,1.2-1.1,2.3-0.9,4.4c0.2,2.1-0.2,4.4,0,5.7c0.2,1.2-1,3.1-1,3.1s-0.8,1.1-1.1,2c-0.3,0.9,1.1,2.1,0,5.4
		c-1.1,3.2-0.8,3.5-1.2,4.8c-0.5,1.2-1.1,2.9-1.1,2.9l-3.5-1.5c0,0,0-2-1.4-2s-4-2.3-4-2.3s-1.7,0.3-2.6,0.6c-0.9,0.3-0.9,1.2-1,2.1
		c0,0.9,1.4,7.2,1.7,7.8c0.3,0.6,0.5,1.2,1.1,2.6s2.6,3.4,3.5,4.4c0.9,1.1,1.4,4.1,1.4,4.1s0,1.7-0.2,3.8c-0.2,2.1,0.5,4.1,1.4,6.1
		c0.9,2,1.4,2.1,1.8,4c0.5,1.8,10.1,20.5,10.1,20.5s0.5,2.3,1.1,3.7c0.6,1.4,4.8,8.6,4.9,9.2c0.2,0.6,2.5,4.9,2.5,4.9l3.1,2.5
		l-4,1.1l-0.5,4c0,0,1.5,1.1,1.4,2c-0.2,0.9-0.6,2.8-0.8,4.1c-0.2,1.4-1.7,3.8-1.7,4.3s-0.2,1.8,0.5,2.9s2.8,2.5,3.2,2.5
		c0.5,0,1.5-0.2,2.1-0.3c0.6-0.2,0.6-0.6,1.7-0.6c1.1,0,3.2,2,3.2,2s5.5,6.7,6.1,7.7c0.6,0.9,4.3,7.8,4.4,8.6
		c0.2,0.8,0.3,3.1,1.2,5.2c0.9,2.1,3.7,7.4,4.1,8.1c0.5,0.8,1.7,1.4,1.1,4c-0.6,2.6-1.7,6-1.2,8.3s0.5,5.8,1.2,7.9
		c0.8,2.1-0.8,5.6-0.8,6.6c0,1,0.8,7.4,2.5,10.4c1.6,3.1,1.4,8,2.2,9c0.8,1,5.7,5.7,7.4,6.7c1.6,1,2.9-0.4,6.5,4.3
		c3.7,4.7,5.1,5.9,5.1,8c0,2,0.8,6.3,1.2,10c0.4,3.7,1.4,6.3,1.4,10.4s-0.2,6.3,0.4,8.4c0.6,2,3.1,6.1,3.1,7.2c0,1,2.7,5.9,4.5,6.3
		c1.8,0.4,8,0.2,8.2,2.9c0.2,2.7-0.8,3.7,1.6,7.2c2.5,3.5,6.5,6.3,9,8.6c2.5,2.2,5.9,5.7,8,8.2s6.3,7.8,8,10
		c1.6,2.2,1.6,2.5,4.3,5.7c2.7,3.3,4.7,5.1,7.4,8.4c2.7,3.3,5.3,5.3,6.9,6.3c1.6,1,1.4-0.8,1.6,1s0.4,1.4,0.4,3.1s-0.4,4.1-1.8,5.3
		s-3.1,0-3.7,2.9c-0.6,2.9-1.8,5.9-0.4,6.7s4.7,1.8,5.7,2.9c1,1,3.1,6.9,3.9,8s1,1.2,4.5,4.3c3.5,3.1,4.7,3.7,6.1,4.1
		c1.4,0.4,5.9,3.5,7.8,2.7s2.5-1.6,5.5-3.7c3.1-2,4.1-4.1,7.6-4.1s3.9,1,6.1,1.4c2.2,0.4,1.8,0.4,4.9,0.8s2,0.4,5.9-1.6
		c3.9-2,1.4-0.8,6.3-3.1c4.9-2.2-2.2-2.5,6.3-2.5c8.6,0,8.8,0.2,11.6,0.2s2.5,0.2,4.5,0c2-0.2,8.2-1.4,8.8-1.4
		c0.6,0,1.4,0.6,4.3-0.4c2.9-1,1.4-0.6,2.9-1s4.1-0.8,4.9-2c0.8-1.2,1.8-3.9,2.7-5.3c0.8-1.4,6.5-1.8,6.5-1.8l4.7,2.2
		c0,0,2.5,1.6,2.5,2.2c0,0.6-2.5,3.3-2.5,3.3s-1,2.2-0.6,3.3c0.4,1,0.3,7.5,0.3,7.5l1.2,3.7l17-12.3l15.5-17.1l18.7-19l22.7-27.6
		l12.6-20.8l14.7-26l15.9-33.4l9.8-31.3l1.5-4L448.8,251.8z"/>
	<path d="M339.2,265c-0.4,0.5-0.5,0.6-0.5,0.7c-3,12.2-4.2,9.4,6.4,13c2.6,0.9,3.7,1.8,2.5,4.5c-2,4.4-3.9,8.9-6,13.7
		c-3-1.5-5.6-2.6-7.9-4.2c-2.3-1.6-3.7-0.9-5,1.1c-1.3,1.9-2.6,3.8-4,5.8c2.5,2.1,4.8,4.1,7.3,6c2.1,1.6,2.4,3.2,0.5,5.1
		c-3.8,3.7-7.6,7.2-11.7,11.1c-2.3-2.5-4.5-5-6.8-7.4c-4-4.1-5.8,1-8.5,2.2c-2.9,1.3-0.8,3.2,0.1,4.6c5.3,8.7,5.3,8.7-4.2,12.1
		c-3,1.1-6.1,2.2-9.6,3.4c-1.2-2.9-2.6-5.4-3.2-8c-0.9-3.5-2.8-4.2-5.9-3.2c-1.5,0.5-3.1,0.6-5.2,1c0,3.4-0.1,6.7,0,10.1
		c0.1,2.2-0.7,3.3-3,3.2c-4.2-0.1-8.4,0.1-12.6-0.3c-0.9-0.1-2.2-1.6-2.4-2.6c-0.4-2.1-0.3-4.3-0.1-6.5c0.3-2.8-0.5-4.1-3.5-4.6
		c-6.7-1-5.9-2.6-8.2,5.4c-1.6,5.9-1.7,5.9-7.2,3.9c-3.3-1.2-6.4-2.9-9.7-4.2c-2.5-1-2.8-2.6-1.4-4.7c0.7-1.1,1.3-2.4,1.8-3.6
		c0.7-1.7,2.2-4.2,1.6-4.9c-1.6-1.9-4-3.2-6.2-4.3c-0.5-0.3-2,0.6-2.7,1.3c-2.3,2.3-4.5,4.7-7.4,7.7c-4.6-4.4-9.1-8.7-14-13.4
		c3.7-3.3,6.8-6,9.8-8.6c0-0.4,0-0.5,0-0.6c-4.3-8.1-4.3-8.1-12.1-3.8c-4.5,2.5-4.7,2.5-6.9-2.1c-1.7-3.5-3-7.2-4.4-10.9
		c-0.7-1.9-0.6-3.5,2-3.9c0.7-0.1,1.3-0.5,1.9-0.7c8.6-3.3,8.6-3.3,5.2-12.3c-4,0-8,0-12.7,0c0-6,0-11.8,0-18.2
		c4.3,0.2,8.4,0.4,12.5,0.6c0.3-0.5,0.5-0.9,0.6-1.2c1.6-7.8,1.7-7.9-5.6-10.7c-3-1.1-4.1-2.6-2.6-5.7c1.6-3.1,2.9-6.4,4.2-9.6
		c0.9-2.1,2.2-2.5,4.2-1.4c0.6,0.3,1.2,0.5,1.8,0.8c7.2,3.5,8.4,3.1,12-4c0.5-0.9,0.2-2.6-0.3-3.6c-0.5-1-1.6-1.8-2.6-2.5
		c-5.8-4.7-5.8-4.7-0.3-10.1c0.1-0.1,0.2-0.2,0.3-0.3c8.9-7,6-7.8,13.6,0.7c0.8,0.8,2.6,0.9,4,0.9c0.9,0,1.7-0.7,2.6-1.1
		c5.8-2.9,6.2-4,2.7-9.4c-0.7-1-1.2-2.1-1.9-3.1c-1.3-1.9-0.9-3.3,1.2-4.2c3.4-1.4,6.8-2.7,10.2-4.1c2.4-0.9,4.3-0.8,4.7,2.3
		c0,0.1,0.1,0.3,0.1,0.4c2.7,8.1,2.7,8,11.1,6.6c2.2-0.4,3.1-1.2,2.9-3.4c-0.1-1.5,0-3-0.1-4.5c-0.3-5.5,0-5.9,5.7-6
		c1.8,0,3.5,0.1,5.3,0.3c6.8,0.6,7.5,1.3,6.2,8c-0.7,3.7,0,5.5,3.9,6.2c6.6,1.3,6.8,1.3,8.4-3.3c2.6-7.8,2.8-7.9,10.4-4.4
		c2.2,1,4.3,2.2,6.5,3.3c0.7,0.4,1.3,0.9,2.5,1.7c-1.6,2.4-2.9,4.9-4.6,7.1c-1.9,2.3-1.1,3.9,1,5.3c1.1,0.8,2.4,1.3,3.4,2.1
		c2.3,2,3.8,0.9,5.5-0.9c6-7,5.9-6.9,12.6-0.7c1.9,1.8,4,3.2,6.1,4.8c0,0.7,0,1.3,0,2c-2.3,1.8-4.5,3.8-6.9,5.5
		c-2.4,1.7-2.5,3.3-1,5.8c3.9,6.2,3.8,6.3,10.7,3.2c5.5-2.5,5.7-2.4,8.1,2.9c1.5,3.3,2.6,6.7,4,10.6c-3.3,0.9-6.2,1.9-9.2,2.6
		c-2.7,0.6-3.5,1.8-2.8,4.6c1.7,6.6,1.5,6.6,8.2,6.6c0.9,0,1.9,0.1,2.8,0c3.3-0.5,4.3,1.1,4.1,4.1c-0.2,3.4-0.2,6.8-0.2,10.2
		c0,2.3-1.2,3.1-3.4,2.9C345.1,265.4,342,265.2,339.2,265z M269.8,200.6c-30.3-1.7-58.7,24.3-58.6,56.8
		c0.1,30.1,26.3,56.5,56.2,56.6c32.4,0.1,58.5-25.6,58.5-57.6C325.9,226,300.4,200.6,269.8,200.6z"/>
	<g>
		<path d="M268.7,310.9c-10.5,0-16.7-27.1-16.7-53.3s6.2-53.3,16.7-53.3c10.5,0,16.7,27.1,16.7,53.3S279.2,310.9,268.7,310.9z
			 M268.7,206.7c-6.9,0-14.3,20.4-14.3,50.9s7.4,50.9,14.3,50.9c6.9,0,14.3-20.4,14.3-50.9S275.6,206.7,268.7,206.7z"/>
	</g>
	<g>
		<path d="M268.7,274.3c-26.2,0-53.3-6.2-53.3-16.7s27.1-16.7,53.3-16.7c26.2,0,53.3,6.2,53.3,16.7S294.9,274.3,268.7,274.3z
			 M268.7,243.3c-30.4,0-50.9,7.4-50.9,14.3c0,6.9,20.4,14.3,50.9,14.3c30.4,0,50.9-7.4,50.9-14.3
			C319.6,250.7,299.1,243.3,268.7,243.3z"/>
	</g>
	<g>
		<path d="M300.4,297.8c-9.6,0-27.2-11.5-43.7-28.6c-18.2-18.9-32.5-42.7-25-50c1.3-1.2,3.1-1.9,5.3-1.9c9.6,0,27.2,11.5,43.7,28.6
			c18.2,18.9,32.5,42.7,25,50C304.5,297.2,302.7,297.8,300.4,297.8z M237,219.8c-1.6,0-2.8,0.4-3.6,1.2c-5,4.8,4,24.6,25.1,46.5
			c15.8,16.4,33.1,27.9,42,27.9c1.6,0,2.8-0.4,3.6-1.2c5-4.8-4-24.6-25.1-46.5C263.1,231.3,245.9,219.8,237,219.8z"/>
	</g>
	<g>
		<path d="M237,297.8L237,297.8c-2.3,0-4-0.6-5.3-1.9c-7.5-7.3,6.8-31.1,25-50c16.5-17.1,34.1-28.6,43.7-28.6c2.3,0,4,0.6,5.3,1.9
			c7.5,7.3-6.8,31.1-25,50C264.2,286.3,246.6,297.8,237,297.8z M300.4,219.8c-8.9,0-26.1,11.5-42,27.9c-21.1,21.9-30,41.7-25.1,46.5
			c0.8,0.8,2,1.2,3.6,1.2c0,0,0,0,0,0c8.9,0,26.1-11.5,42-27.9c21.1-21.9,30-41.7,25.1-46.5C303.2,220.2,302,219.8,300.4,219.8z"/>
	</g>
	<g>
		<g>
			<path d="M288.4,443.4c-1.1,1-1.6,1.5-2.7,2.5c-1.3-1.1-2-1.6-3.3-2.7c-1.9-1.7-2.9-2.6-4.8-4.3c-1.2-1.1-1.8-1.7-3-2.8
				c-0.1-0.3-0.2-0.4-0.2-0.5c0-0.2-0.1-0.3-0.1-0.5c-0.1-0.4-0.1-0.6-0.2-1c-0.2-0.6-0.2-0.9-0.4-1.6c0.5,0.4,0.7,0.7,1.2,1.1
				c0.5,0.4,0.7,0.6,1.2,1c1.6,1.4,2.5,2.1,4.1,3.6c0.9,0.9,1.6,1.5,2.1,1.9c0.5,0.4,0.8,0.6,1,0.6c0.2-0.1,0.3-0.2,0.6-0.4
				c0.4-0.3,0.5-0.5,0.9-0.8C286.2,441.2,286.9,441.9,288.4,443.4z"/>
			<path d="M294.4,437.9c-0.6,0.5-0.9,0.8-1.4,1.3c-0.6,0.6-1.2,0.7-1.9,0.5c-0.6-0.3-0.9-0.5-1.5-0.8c0.4,1,0.6,1.5,1,2.5
				c-1.1,1-1.6,1.5-2.6,2.4c-1.5-1.5-2.3-2.3-3.8-3.8c1.2-1.1,1.8-1.6,3-2.8c-0.1-0.2-0.2-0.3-0.3-0.4c-0.1-0.1-0.1-0.2-0.2-0.3
				c-0.1-0.1-0.2-0.2-0.3-0.3c-0.5-0.6-0.8-0.9-1.3-1.4c-0.1-0.7-0.2-1.1-0.3-1.8c-0.1-0.8-0.2-1.1-0.3-1.9c0.1,0.1,0.1,0.1,0.2,0.2
				c0.1,0.1,0.2,0.2,0.3,0.3c0.2,0.2,0.2,0.3,0.4,0.4c0.2,0.2,0.3,0.3,0.4,0.4c0.1,0.1,0.2,0.2,0.3,0.4c0.6,0.6,0.9,1,1.5,1.6
				c0.1,0.1,0.1,0.2,0.2,0.3c0.3,0.3,0.7,0.5,1.1,0.6c0.4,0,0.7,0,0.9-0.3c0.4-0.3,0.6-0.5,0.9-0.9
				C292.1,435.7,292.9,436.4,294.4,437.9z M295.9,441.3c0.1,0.1,0.1,0.3,0.2,0.4c0.1,0.1,0.1,0.3,0.1,0.4c0,0.1,0.1,0.3,0.1,0.5
				c0,0.2,0,0.3,0.1,0.4c0.1,0.5,0.1,0.9,0.1,0.9c-0.4,0.1-0.5,0.1-0.9,0.1c-0.8,0.1-1.1,0.1-1.9,0.2c0.1,0.4,0.2,0.6,0.3,1.1
				c0,0.2,0,0.3,0,0.5c-0.1,0.1-0.3,0.2-0.4,0.2c-0.3,0.1-0.6,0.2-0.9,0.3c-0.3,0-0.5,0-0.8,0c-0.2,0-0.4,0-0.5,0
				c-0.1-0.7-0.2-1.1-0.4-1.8c0-0.3-0.1-0.4-0.1-0.7c0.2,0,0.7,0,1.3,0c0.3,0,0.5,0,0.7-0.1c0.2,0,0.3-0.1,0.4-0.1
				c0-0.1,0-0.2,0-0.3c0-0.1,0-0.3-0.1-0.6c0-0.4-0.1-0.6-0.1-1C294.2,441.5,294.8,441.4,295.9,441.3z"/>
			<path d="M295.7,422.9c0.4,0.6,0.6,0.9,1.1,1.5c0.2,0.2,0.3,0.3,0.3,0.4c0.1,0.1,0.2,0.3,0.4,0.5c0.2,0.2,0.3,0.4,0.3,0.4
				c0.2,0.2,0.3,0.4,0.3,0.5c-0.4,0.3-0.6,0.5-1,0.8c-0.1,0.1-0.2,0.2-0.3,0.3c-0.4,0.4-0.7,0.7-0.8,0.9c-0.2,0.4-0.3,0.6-0.5,1
				c-0.1,0.3-0.1,1.1,0,2.3c0.1,1.2,0.2,2.1,0.3,2.7c0.1,0.6,0.2,1.1,0,1.6c-0.1,0.5-0.3,0.9-0.6,1.2c-0.5,0.5-0.8,0.8-1.4,1.3
				c-0.2,0.2-0.3,0.3-0.5,0.5c-0.2,0.1-0.3,0.3-0.3,0.3c-1.5-1.5-2.3-2.3-3.8-3.8c1.5-1.4,2.2-2.1,3.7-3.4c0.1-0.1,0.2-0.3,0.3-0.5
				c0.1-0.2,0.1-0.4,0.1-0.7c0-0.3,0-0.5,0-0.7c0-0.2,0-0.5-0.1-0.5c0,0-0.4,0.1-0.8,0.3c-0.4,0.3-0.6,0.4-0.9,0.7
				c-0.3,0.2-0.4,0.4-0.7,0.6c-0.1,0.1-0.2,0.2-0.4,0.3c-0.1,0.1-0.2,0.2-0.3,0.3c-0.1,0.1-0.3,0.4-0.5,0.7
				c-0.3,0.4-0.4,1.2-0.4,1.2c-0.1,0-2.1-2.4-2.5-3.6c-0.4-1.2-0.2-2.2,0.5-2.9c0.3-0.3,1-0.6,2.1-1c1.4-0.4,2.1-0.6,3.5-1.1
				c0.3-0.1,0.4-0.2,0.6-0.3c0.2-0.2,0.3-0.3,0.5-0.4c0.4-0.4,0.7-0.6,1.1-1C295.5,423.2,295.5,423.1,295.7,422.9z M302.8,433.1
				c0.2,0.7,0.3,1.1,0.5,1.9c0.2,1.3,0.3,2,0.2,2.1c-1,0.2-1.5,0.3-2.5,0.5c-0.8,0.1-1.3,0.1-1.4,0c-0.1-0.1-0.2-0.7-0.4-1.9
				c-0.2-1.2-0.2-1.8-0.1-2c0.7-0.1,1.1-0.1,1.8-0.2C302,433.3,302.6,433.1,302.8,433.1z"/>
			<path d="M311,421.7c-0.5,0.5-0.7,0.7-1.1,1.2c0.4,0.7,0.8,1.4,1.1,2c0.3,0.6,0.5,1.3,0.7,1.9c0.3,1.2,0.2,2.2-0.4,2.7
				c-0.6,0.6-1.6,1.3-2.9,2.1c-1.3,0.8-2.2,1.2-2.7,1.2c0.5-0.6,0.8-0.9,1.3-1.5c0.6-0.7,1-1.5,1.2-2.5c0.1-0.4,0.2-0.8,0.2-1.2
				c0.1-0.4,0.1-0.8,0.1-1.2c0.1-0.7-0.1-2.3-0.1-2.3c-0.1,0-1.9,1.6-2.8,1.9c-0.9,0.3-1.8,0-2.6-0.8c-0.2-0.2-0.5-0.5-0.8-0.9
				c-0.3-0.4-0.7-0.9-1-1.5c-0.8-1.2-1.4-2.4-1.9-3.7c-0.4-1.3-0.4-2.2,0.2-2.8c0.6-0.6,1.3-0.6,2.4-0.1c1,0.5,1.8,1,2.5,1.3
				c0.1,0.1,0.3,0.2,0.7,0.4c0.4,0.2,0.8,0.5,1.2,0.7c0.3-0.3,0.4-0.4,0.7-0.7C308.6,419.6,309.4,420.3,311,421.7z M304.5,420.5
				c-0.2-0.2-0.4-0.3-0.6-0.4c-0.2-0.1-0.4-0.1-0.7-0.2c-0.4-0.1-0.8,0-1,0.1c-0.1,0.1-0.2,0.3-0.2,0.6c0.1,0.2,0.1,0.3,0.1,0.6
				c0.3,0.3,0.7,0.4,1.1,0.3c0.4-0.1,0.8-0.3,1.1-0.6C304.5,420.7,304.6,420.5,304.5,420.5z"/>
			<path d="M304.7,408.3c0.5,1.6,0.7,2.4,1.1,4c0.3,0.3,0.5,0.4,0.8,0.7c0.2,0.2,0.3,0.3,0.5,0.4c0.1,0.1,0.2,0.2,0.4,0.3
				c1,0.7,1.5,1.1,2.5,1.8c0.3,0.3,0.6,0.6,0.7,0.8c0.2,0.2,0.3,0.4,0.4,0.5c0.1,0.1,0.2,0.2,0.2,0.3c0.5,0.7,0.8,1,1.3,1.7
				c0.3,0.4,0.5,0.7,0.4,1c0,0.1-0.1,0.1-0.1,0.2c-0.1,0.1-0.1,0.1-0.1,0.1c-0.1,0.1-0.1,0.1-0.2,0.2c-0.9,1-1.4,1.4-2.3,2.4
				c-1.6-1.4-2.4-2.1-3.9-3.6c0.9-0.9,1.3-1.3,2.2-2.2c-0.1-0.2-0.2-0.3-0.3-0.4c-0.1-0.1-0.1-0.1-0.2-0.2c-0.1-0.1-0.2-0.2-0.3-0.3
				c-0.1-0.1-0.2-0.1-0.2-0.1c-0.1-0.1-0.4-0.3-0.7-0.5c-0.3-0.2-0.6-0.4-0.8-0.5c-1.4-0.9-2.2-1.4-3.6-2.4c-0.3,0-0.5,0-0.8,0
				c-0.1,0-0.2,0-0.3,0c-0.1,0-0.2,0-0.2-0.1c-0.3-0.2-0.5-1-0.8-1.5c-0.2-0.5-0.4-1-0.6-1.4c-0.3-0.8-0.4-1.5-0.4-1.5
				c0.1,0,0.3,0.3,0.5,0.4c0.2,0.1,0.3,0.3,0.5,0.4c0.2,0.1,0.6,0.1,1.2,0.1c0.8-0.1,1.2-0.1,2.1-0.2c0.4-0.1,0.7-0.1,0.9-0.2
				C304.4,408.4,304.6,408.4,304.7,408.3z"/>
			<path d="M322.6,409.6c-0.4,0.5-0.7,0.7-1.1,1.2c0.5,0.7,0.8,1.3,1.2,2c0.3,0.6,0.6,1.3,0.8,1.9c0.4,1.2,0.3,2.1-0.3,2.8
				c-0.6,0.6-1.5,1.4-2.8,2.2c-1.3,0.8-2.1,1.2-2.7,1.2c0.5-0.6,0.7-0.9,1.2-1.5c0.6-0.7,0.9-1.5,1.2-2.5c0.1-0.4,0.1-0.8,0.2-1.2
				c0-0.4,0.1-0.8,0.1-1.2c0-0.7-0.2-2.3-0.2-2.3c-0.1,0-1.8,1.6-2.7,1.9c-0.9,0.3-1.8,0.1-2.6-0.7c-0.2-0.2-0.5-0.5-0.8-0.8
				c-0.3-0.4-0.7-0.9-1.1-1.4c-0.8-1.2-1.5-2.4-2-3.6c-0.5-1.2-0.4-2.2,0.1-2.8c0.5-0.6,1.3-0.6,2.3-0.1c1,0.5,1.9,0.9,2.5,1.2
				c0.1,0.1,0.3,0.2,0.7,0.4c0.4,0.2,0.8,0.5,1.2,0.7c0.3-0.3,0.4-0.4,0.7-0.7C320.2,407.5,321,408.2,322.6,409.6z M316.1,408.4
				c-0.2-0.1-0.4-0.3-0.6-0.3c-0.2-0.1-0.5-0.1-0.7-0.1c-0.4,0-0.8,0-1,0.2c-0.1,0.1-0.2,0.3-0.2,0.7c0.1,0.2,0.1,0.3,0.1,0.6
				c0.3,0.3,0.7,0.3,1.1,0.2c0.4-0.1,0.8-0.3,1.1-0.6C316.1,408.7,316.1,408.5,316.1,408.4z"/>
			<path d="M327.4,404.3c-0.5,0.6-0.8,0.9-1.3,1.4c-0.6,0.6-1.2,0.8-1.8,0.6c-0.6-0.3-0.9-0.4-1.6-0.7c0.5,1,0.7,1.5,1.2,2.5
				c-1,1-1.4,1.6-2.4,2.6c-1.6-1.4-2.4-2.1-4-3.5c1.1-1.2,1.7-1.8,2.7-3c-0.1-0.2-0.2-0.2-0.4-0.4c-0.1-0.1-0.1-0.2-0.2-0.3
				c-0.1-0.1-0.2-0.2-0.3-0.3c-0.6-0.5-0.9-0.8-1.4-1.3c-0.2-0.7-0.3-1.1-0.5-1.8c-0.2-0.8-0.3-1.1-0.4-1.9c0.1,0.1,0.1,0.1,0.2,0.2
				c0.1,0.1,0.2,0.1,0.3,0.2c0.2,0.2,0.3,0.2,0.4,0.4c0.2,0.2,0.3,0.3,0.4,0.3c0.1,0.1,0.2,0.2,0.4,0.4c0.6,0.6,1,0.9,1.6,1.5
				c0.1,0.1,0.2,0.2,0.3,0.3c0.4,0.3,0.7,0.5,1.1,0.5c0.4,0,0.7-0.1,0.9-0.3c0.3-0.4,0.5-0.6,0.8-0.9
				C324.9,402.3,325.7,403,327.4,404.3z M313.3,396.9c0.1,0.1,0.3,0.6,0.4,1.6c0.1,0.5,0.1,0.9,0.1,1c0,0.3,0,0.4,0,0.5
				c-0.1,0.1-0.2,0.1-0.6,0.2s-0.7,0.1-1.2,0.1c-0.9,0-1.5,0-1.5-0.1c-0.1-0.1-0.3-0.6-0.5-1.6c-0.2-1-0.2-1.5-0.1-1.7
				c0.9,0,1.3,0,2.2,0c0.3,0,0.6,0,0.8,0C313.1,396.9,313.3,396.9,313.3,396.9z"/>
			<path d="M334.3,396.4c-0.6,0.7-0.9,1.1-1.6,1.8c-0.2,0-0.3-0.1-0.5-0.1c-0.1,0-0.3,0-0.4-0.1c-0.1,0-0.2,0-0.5,0
				c-1-0.1-1.5-0.1-2.5-0.2c0.3,0.8,0.5,1.1,0.8,1.9c0.2,0.5,0.3,0.7,0.6,1.2c-1.4,1.6-2.2,2.4-3.6,4.1c-1.6-1.4-2.4-2.1-4.1-3.4
				c1.4-1.6,2.2-2.4,3.6-4c-3.1,0.1-4.6,0.2-7.6,0.3c-0.5-0.7-0.8-1.1-1.3-1.8c-0.4-0.5-0.6-0.7-0.9-1.2c-0.1-0.1-0.2-0.3-0.3-0.4
				c-0.3-0.4-0.5-0.8-0.8-1.3c1.5-3.3,2.2-5,3.6-8.4c0.9,1.3,1.4,1.9,2.3,3.1c-1,2.7-1.5,4-2.5,6.6c4.2-0.1,6.3-0.2,10.5-0.4
				c0.4-0.4,0.6-0.7,1-1.1C331.8,394.4,332.7,395.1,334.3,396.4z"/>
			<path d="M339.3,390.6c-0.9,1.1-1.4,1.6-2.3,2.7c-0.1,0.1-0.3,0.2-0.4,0.2c-0.1,0-0.1,0-0.2-0.1c-0.1,0-0.2-0.1-0.3-0.1
				c-0.6-0.4-1-0.6-1.6-1c0.3,0.6,0.5,0.9,0.8,1.6c0.1,0.4,0.2,0.6,0.3,1c-1.1,1.2-1.6,1.9-2.7,3.1c-1.7-1.4-2.5-2-4.1-3.4
				c1.4-1.6,2.1-2.4,3.4-4c-1.5-0.9-2.2-1.4-3.6-2.3c-0.4-0.9-0.5-1.4-0.9-2.3c-0.3-0.8-0.7-1.6-0.6-1.8c0-0.1,1,0.3,2.6,1.6
				c1.3,1,2,1.5,3.3,2.5c0.2,0.2,0.5,0.3,0.7,0.3c0.2,0,0.4-0.1,0.6-0.3c0.3-0.4,0.5-0.5,0.8-0.9
				C336.8,388.6,337.6,389.3,339.3,390.6z M325.3,382.6c0.3,0.6,0.5,1.3,0.7,1.8c0,0.1,0.1,0.2,0.1,0.3c0,0.1,0.1,0.2,0.1,0.3
				c0,0.2,0.1,0.3,0.1,0.5c-0.4,0.1-0.6,0.1-0.9,0.2c-0.7,0.1-1.1,0.2-1.8,0.3c0.1,0.5,0.2,0.7,0.3,1.1c0.1,0.3,0.2,0.4,0.3,0.7
				c-0.3,0.2-0.8,0.3-1.4,0.4c-0.3,0.1-0.6,0.1-0.7,0.1c-0.2,0-0.4,0-0.5,0c-0.2-0.7-0.3-1-0.6-1.7c-0.1-0.4-0.2-0.6-0.3-1
				c0.2,0,0.3,0,0.5,0c0.4-0.1,0.7-0.1,1.1-0.2c0.5-0.1,0.8-0.2,0.9-0.3c0,0,0-0.1,0-0.2c0-0.2-0.1-0.3-0.1-0.5
				c-0.1-0.5-0.2-0.8-0.4-1.3C323.6,382.9,324.1,382.8,325.3,382.6z"/>
			<path d="M332,377.6c0.6,1.6,0.9,2.3,1.4,3.9c0.3,0.2,0.5,0.4,0.8,0.6c0.2,0.2,0.4,0.3,0.5,0.4c0.1,0.1,0.3,0.2,0.4,0.2
				c1,0.7,1.5,1,2.6,1.7c0.4,0.3,0.6,0.5,0.8,0.7c0.2,0.2,0.3,0.3,0.4,0.4c0.1,0.1,0.2,0.2,0.2,0.3c0.6,0.6,0.8,1,1.4,1.6
				c0.4,0.4,0.5,0.7,0.5,1c0,0.1-0.1,0.1-0.1,0.2c-0.1,0.1-0.1,0.1-0.1,0.1c-0.1,0.1-0.1,0.1-0.2,0.2c-0.9,1-1.3,1.5-2.1,2.5
				c-1.7-1.3-2.5-2-4.2-3.3c0.8-0.9,1.2-1.4,2-2.4c-0.1-0.1-0.2-0.3-0.3-0.3c-0.1-0.1-0.1-0.1-0.2-0.2c-0.1-0.1-0.2-0.2-0.4-0.3
				c-0.1-0.1-0.2-0.1-0.3-0.1c-0.1-0.1-0.4-0.3-0.7-0.4c-0.3-0.2-0.6-0.3-0.9-0.5c-1.5-0.9-2.3-1.3-3.8-2.1c-0.3,0-0.5,0-0.8,0.1
				c-0.1,0-0.2,0-0.3,0c-0.1,0-0.2,0-0.2,0c-0.3-0.2-0.6-1-0.9-1.5c-0.3-0.5-0.5-0.9-0.7-1.3c-0.4-0.8-0.5-1.5-0.5-1.5
				c0,0,0.4,0.3,0.5,0.4c0.2,0.1,0.3,0.2,0.5,0.3c0.2,0.1,0.6,0.1,1.2,0c0.8-0.1,1.2-0.2,2-0.4c0.4-0.1,0.7-0.2,0.9-0.2
				C331.8,377.7,331.9,377.6,332,377.6z"/>
			<path d="M341.2,378.8c0.7,0.5,1.2,1,1.7,1.5s0.8,0.9,1.1,1.3c0.3,0.4,0.6,0.8,0.8,1.2c0.2,0.4,0.4,0.8,0.5,1.2
				c-4.2-2.6-6.3-3.9-10.5-6.5c-0.1,0-0.2-0.4-0.5-1c-0.2-0.5-0.5-0.9-0.7-1.3c-0.2-0.4-0.5-0.9-0.9-1.5c-0.3-0.4-0.4-0.6-0.4-0.7
				c0.9,0.5,1.3,0.8,2.2,1.3c1.3,0.8,1.9,1.2,3.2,2.1c0.3,0.2,0.5,0.4,0.7,0.5c0.9,0.6,1.4,1,1.5,1.1
				C340.4,378.2,340.6,378.4,341.2,378.8z"/>
			<path d="M347.7,370.8c1.2,0.9,2.2,1.8,3.1,2.8c0.9,1,1.7,2.1,2.4,3.2c1.3,2.3,1.6,4,0.7,5.1c-0.6,0.8-1.6,1.7-2.8,2.6
				c-1.2,1-2.1,1.6-2.7,1.7c0.1-0.1,0.1-0.1,0.2-0.2c0.2-0.2,0.3-0.4,0.4-0.6c0.1-0.1,0.2-0.2,0.3-0.4c0.1-0.2,0.3-0.5,0.5-0.9
				c0.2-0.4,0.5-0.8,0.6-1.3c0.2-0.5,0.3-1,0.4-1.6c0.2-1.1,0.1-2.6-0.2-4.2c-0.4-1.7-1-2.8-1.8-3.4c-0.2-0.1-0.3-0.2-0.5-0.3
				c0.5,0.9,0.7,1.3,1.2,2.2c0.2,0.4,0,1.1-0.6,1.8c-0.6,0.7-1.2,1.1-1.9,1c-0.3,0-0.7-0.2-1-0.3c-0.4-0.2-0.7-0.4-1.1-0.6
				c-0.3-0.2-0.4-0.3-0.7-0.6c-0.1-0.1-0.2-0.2-0.4-0.3c-0.1-0.1-0.2-0.2-0.3-0.3c-0.6-0.5-1.4-1.7-2.2-3.4
				c-0.7-1.8-0.9-2.9-0.5-3.4c0.3-0.4,1.2-0.4,2.7-0.1C345.1,369.3,346.5,369.9,347.7,370.8z M345.8,372.6c-0.2-0.3-0.8-0.5-1.3-0.5
				c-0.4,0-0.7,0.1-0.9,0.3c-0.1,0.1-0.2,0.5-0.1,0.9c0.1,0.4,0.2,0.8,0.4,1c0.2,0,0.2,0,0.4,0c0.2,0,0.3,0,0.5-0.1
				c0.1,0,0.3-0.1,0.4-0.2c0.1-0.2,0.2-0.2,0.4-0.4c0.1-0.2,0.1-0.3,0.2-0.5C345.8,372.9,345.8,372.7,345.8,372.6z"/>
			<path d="M360.7,352.5c1.4,1.6,2.1,2.4,3.5,4c-0.6,0.3-0.9,0.5-1.5,0.9c-0.5,0.3-1,0.7-1.2,1.1c-0.2,0.3-0.3,0.5-0.5,0.7
				c-0.1,0.2-0.2,0.4-0.3,0.7c-0.1,0.4-0.2,0.6-0.3,0.9c0,0.1,0,0.2-0.1,0.3c0,0.1,0,0.3-0.1,0.4c0.5,0.2,0.7,0.3,1.2,0.5
				c0.4,0.2,0.6,0.3,0.9,0.5c0.1,0.1,0.2,0.1,0.3,0.2c0.1,0.1,0.2,0.1,0.4,0.2c0.5,0.3,0.9,0.6,1.2,0.9c0.3,0.3,0.6,0.7,0.9,1
				c0.5,0.6,0.9,1.2,1,1.8c-0.8-0.4-1.2-0.6-2-1.1c-0.3-0.2-0.6-0.4-0.8-0.5c-0.3-0.2-0.6-0.3-0.8-0.4c-0.3-0.2-1-0.6-2.2-1.2
				c-0.7-0.4-1.1-0.6-1.8-1c-0.4-0.3-0.7-0.7-0.9-1.3c-0.2-0.4-0.3-0.7-0.4-1.1c0-0.1-0.1-0.2-0.1-0.4c0,0-0.1-0.2-0.2-0.5
				c0-0.4,0.1-0.6,0.1-1c0-0.1,0-0.2,0.1-0.3c0-0.1,0-0.2,0-0.4c0.2-0.7,0.3-1,0.5-1.7c-0.1,0-0.1,0-0.2,0c0,0-0.1,0-0.3,0
				c-0.3,0.1-0.4,0.1-0.7,0.1c-0.3,0.1-0.6,0.2-0.8,0.4c-0.1,0.1-0.2,0.3-0.2,0.6c0,0.2,0,0.5,0,0.8c0.2,0.8,0.3,1.2,0.5,1.9
				c-0.2-0.2-0.4-0.5-0.6-0.8c-0.2-0.3-0.5-0.6-0.7-0.9c-0.3-0.4-0.4-0.6-0.7-0.9c-0.2-0.2-0.3-0.5-0.4-0.6c0-0.1-0.1-0.3-0.2-0.5
				c-0.3-0.5-0.4-1.1-0.5-1.6c0-0.3,0-0.5,0-0.7c0-0.2,0.1-0.4,0.3-0.6c0.1-0.2,0.5-0.3,1-0.4c0.5-0.1,0.9-0.1,1.3-0.2
				c0.4,0,0.6-0.1,1-0.1c0,0,0.2,0,0.6,0c0.2,0,0.4,0,0.5,0c0.8,0.1,1.2,0.1,1.9,0.1C360.2,352.5,360.6,352.5,360.7,352.5z"/>
			<path d="M372.3,347.2c-0.4,0.5-0.5,0.8-0.9,1.3c0.5,0.6,1,1.2,1.4,1.8c0.4,0.6,0.8,1.2,1,1.8c0.5,1.2,0.6,2.1,0.1,2.8
				c-0.5,0.7-1.3,1.6-2.4,2.5c-1.1,1-1.9,1.5-2.4,1.6c0.4-0.7,0.6-1,1-1.6c0.4-0.8,0.7-1.7,0.8-2.6c0-0.4,0-0.8,0-1.2
				c0-0.4,0-0.8-0.1-1.2c-0.1-0.7-0.5-2.3-0.5-2.3c-0.1,0-1.5,1.9-2.4,2.3c-0.8,0.4-1.7,0.3-2.7-0.4c-0.2-0.2-0.5-0.4-0.9-0.7
				c-0.4-0.3-0.8-0.8-1.3-1.3c-1-1.1-1.8-2.2-2.5-3.4c-0.7-1.2-0.7-2.1-0.3-2.8c0.4-0.6,1.2-0.8,2.3-0.4c1.1,0.3,2,0.7,2.6,0.9
				c0.1,0,0.4,0.1,0.8,0.3c0.4,0.2,0.8,0.4,1.2,0.5c0.2-0.3,0.3-0.5,0.6-0.8C369.6,345.4,370.5,346,372.3,347.2z M365.7,346.9
				c-0.2-0.1-0.4-0.2-0.7-0.3c-0.2-0.1-0.5-0.1-0.7-0.1c-0.4,0-0.8,0.1-0.9,0.3c-0.1,0.1-0.1,0.4-0.1,0.7c0.1,0.2,0.1,0.3,0.2,0.5
				c0.3,0.2,0.7,0.3,1.1,0.1c0.4-0.2,0.7-0.4,0.9-0.8C365.8,347.2,365.8,347,365.7,346.9z"/>
			<path d="M375.5,342.4c-0.7,1.1-1.1,1.6-1.8,2.7c-0.1,0.1-0.2,0.2-0.4,0.2c-0.2,0-0.4-0.1-0.6-0.2c-1.1-0.7-1.6-1-2.7-1.7
				c0.5,0.6,0.8,0.9,1.3,1.5c0.6,0.6,0.8,1,1.4,1.6c-0.4,0.6-0.6,0.9-1.1,1.6c-1.8-1.2-2.7-1.8-4.4-3c0.6-0.9,0.9-1.3,1.5-2.2
				c-3.2-1.7-4.8-2.5-8-4.2c-0.5-0.8-0.8-1.2-1.4-2.1c-0.5-0.7-0.9-1.7-0.9-1.7c0,0,0.2,0.1,0.4,0.2c0.2,0.1,0.3,0.2,0.5,0.2
				c0.7,0.3,1,0.5,1.6,0.8c2.1,1.1,3.1,1.7,5.1,2.8c1.2,0.7,1.8,1,3,1.7c0.2,0.1,0.4,0.2,0.7,0.2c0.3,0,0.5-0.1,0.7-0.3
				c0.3-0.4,0.4-0.6,0.7-1C372.8,340.7,373.7,341.3,375.5,342.4z"/>
			<path d="M380.6,334.6c-0.8,1.3-1.2,1.9-2.1,3.2c-0.5-0.1-0.8-0.2-1.3-0.3c-0.5-0.1-0.8-0.2-1.3-0.3c0.4,0.5,0.6,0.7,0.9,1.2
				c0.1,0.1,0.2,0.2,0.2,0.3c0.1,0.1,0.1,0.2,0.1,0.2c0.1,0.2,0.1,0.3,0.2,0.5c-1.1,1.7-1.7,2.5-2.8,4.2c-1.8-1.2-2.7-1.8-4.5-2.9
				c1.1-1.6,1.6-2.4,2.7-4c-0.6-0.1-1.2,0-1.7,0.2c-0.2,0.1-0.4,0.2-0.6,0.3c-0.2,0.1-0.3,0.3-0.4,0.4c-0.1,0.2-0.1,0.3-0.2,0.5
				c-0.1,0.2-0.1,0.2-0.2,0.4c-0.4-0.5-0.5-0.7-0.9-1.1c-0.4-0.6-0.7-0.9-1.1-1.6c-0.1-0.1-0.2-0.3-0.3-0.6
				c-0.1-0.2-0.1-0.5-0.1-0.9c0-0.7,0.2-1.4,0.6-2.1c0.6-0.9,1.4-1.4,2.5-1.5c1.1-0.1,1.9,0.1,2.5,0.4c0.1,0.1,0.3,0.2,0.5,0.4
				c0.2,0.2,0.3,0.5,0.5,0.8c0.3,0.6,0.6,1,0.8,1.1c0.5-0.7,0.7-1.1,1.2-1.8C377.9,332.9,378.8,333.5,380.6,334.6z"/>
			<path d="M383.6,330c-0.7,1.1-1,1.6-1.7,2.7c-0.1,0.1-0.2,0.2-0.4,0.2c-0.2,0-0.4-0.1-0.6-0.2c-1.1-0.7-1.6-1-2.7-1.7
				c0.5,0.6,0.8,0.9,1.3,1.5c0.6,0.6,0.9,0.9,1.4,1.6c-0.4,0.6-0.6,1-1,1.6c-1.8-1.1-2.7-1.7-4.5-2.9c0.6-0.9,0.9-1.4,1.5-2.3
				c-3.3-1.6-4.9-2.4-8.1-4c-0.6-0.8-0.8-1.2-1.4-2c-0.5-0.7-1-1.7-1-1.7c0,0,0.2,0.1,0.4,0.2c0.2,0.1,0.3,0.2,0.5,0.2
				c0.7,0.3,1,0.5,1.6,0.8c2.1,1.1,3.1,1.6,5.2,2.7c1.2,0.6,1.8,1,3,1.6c0.2,0.1,0.4,0.2,0.7,0.2c0.3,0,0.5-0.1,0.6-0.3
				c0.3-0.4,0.4-0.6,0.6-1C380.8,328.3,381.7,328.9,383.6,330z"/>
			<path d="M374.6,318c0.8,1.5,1.2,2.2,1.9,3.7c0.4,0.2,0.5,0.3,0.9,0.5c0.2,0.1,0.4,0.2,0.5,0.3c0.1,0.1,0.3,0.1,0.4,0.2
				c1.1,0.5,1.6,0.8,2.7,1.4c0.4,0.2,0.7,0.4,0.9,0.6c0.2,0.2,0.3,0.3,0.5,0.4c0.1,0.1,0.2,0.2,0.3,0.3c0.6,0.6,1,0.9,1.6,1.4
				c0.4,0.3,0.6,0.7,0.6,0.9c0,0.1,0,0.2-0.1,0.2c0,0.1-0.1,0.1-0.1,0.1c-0.1,0.1-0.1,0.2-0.1,0.2c-0.7,1.1-1.1,1.7-1.8,2.8
				c-1.8-1.1-2.7-1.7-4.5-2.8c0.7-1,1-1.6,1.6-2.6c-0.1-0.1-0.2-0.2-0.3-0.3c-0.1-0.1-0.1-0.1-0.2-0.1c-0.1-0.1-0.3-0.2-0.4-0.2
				c-0.1-0.1-0.2-0.1-0.3-0.1c-0.2-0.1-0.4-0.2-0.8-0.3c-0.3-0.1-0.7-0.3-0.9-0.4c-1.6-0.7-2.4-1-4-1.7c-0.3,0.1-0.5,0.1-0.8,0.2
				c-0.1,0-0.2,0-0.3,0c-0.1,0-0.2,0-0.2,0c-0.3-0.2-0.7-0.9-1.1-1.4c-0.3-0.4-0.6-0.9-0.8-1.3c-0.5-0.8-0.7-1.4-0.7-1.4
				c0,0,0.4,0.2,0.6,0.3c0.2,0.1,0.4,0.2,0.5,0.3c0.2,0.1,0.6,0,1.2-0.1c0.8-0.2,1.2-0.4,1.9-0.6c0.4-0.1,0.6-0.2,0.9-0.3
				C374.4,318.2,374.5,318.1,374.6,318z"/>
			<path d="M402.2,303.4c0.2,0.2,0.3,0.5,0.5,1.1c0.3,1,0.4,1.5,0.7,2.5c0,0.6-0.1,1.1-0.2,1.6c-0.2,0.5-0.4,1-0.5,1.5
				c-0.1,0.3-0.3,0.7-0.4,1c-0.6,1-1.2,1.8-1.7,2.4c-0.6,0.6-1.2,1-1.8,1.2c-1.2,0.4-3,0-5.2-1.3c-1.7-1-2.8-2-3.3-2.9
				c-0.3-0.5-0.5-0.9-0.7-1.3c-0.2-0.4-0.4-0.8-0.5-1.1c-0.1-0.4-0.3-0.7-0.4-1.1c0-0.1-0.3-1.1-0.4-1.2c0,0-0.4,0.3-0.6,0.6
				c-0.3,0.4-0.4,0.6-0.7,1c-0.1,0.2-0.2,0.4-0.2,0.6c0,0.2,0,0.4,0,0.7c0.2,0.5,0.3,0.8,0.4,1.3c-1-0.8-1.9-1.6-2.8-2.5
				c-0.9-0.9-1.1-1.7-0.6-2.5c0.3-0.6,0.8-1.2,1.5-1.8c0.6-0.6,0.9-0.9,1.4-1.5c0.3-0.4,0.6-0.7,0.7-1c0.6-1.1,0.9-1.6,1.5-2.7
				c0.5,0.5,0.7,0.7,1.2,1.2c0.6,0.6,1,1,1.1,1.2c0.1,0.2,0.2,0.3,0.4,0.5c-0.2,0.5-0.2,0.7-0.4,1.1c-0.3-0.2-0.4-0.3-0.7-0.5
				c-0.3,0-0.5,0.1-0.8,0.1c-0.2,0-0.6,0.1-0.7,0.3c0,0,0.1,0.2,0.2,0.4c0.1,0.2,0.3,0.3,0.4,0.5c0.4,0.4,0.5,0.6,0.9,1.1
				c-0.1,0.2-0.1,0.3-0.1,0.6c-0.1,0.2-0.1,0.4-0.1,0.6c0,0.2-0.1,0.8,0,1.6c0.1,0.7,0.4,1.7,0.9,2.9c0.3,0.6,0.6,1.1,1,1.6
				c0.4,0.4,0.8,0.8,1.3,1.1c0.8,0.5,1.8,0.4,2.8-0.2c0.5-0.3,1-0.7,1.3-1c0.4-0.3,0.7-0.6,0.9-0.9c0.5-0.5,0.8-1,1-1.2
				c0.2-0.4,0.4-0.6,0.6-1c0.5-0.9,0.7-1.4,1.2-2.3C401.7,304.6,401.9,304.2,402.2,303.4z M395,307.6c0.1,0,0.3,0.3,0.5,0.9
				c0.2,0.6,0.3,0.9,0.5,1.4c-0.6,0.2-0.8,0.3-1.4,0.6c-0.2,0.1-0.4,0.2-0.6,0.2c-0.2,0-0.3,0-0.4,0c-0.1,0-0.2-0.2-0.3-0.3
				c-0.1-0.2-0.2-0.4-0.3-0.7c-0.2-0.6-0.3-1-0.2-1.2c0.1-0.1,0.4-0.3,1-0.6C394.4,307.7,394.8,307.5,395,307.6z M400.5,301.1
				c-0.7,1.4-1.1,2-1.9,3.4c-0.1,0.1-0.1,0.1-0.1,0.2c-0.2,0.3-0.3,0.5-0.5,0.8c-0.1,0.1-0.2,0.3-0.3,0.4c-0.1,0.1-0.3,0.3-0.5,0.4
				c-0.3,0.2-0.8,0.3-1.2,0.3c-0.4-0.1-0.6-0.1-1.1-0.2c-0.3-0.1-0.6-0.3-1-0.5c-0.9-0.5-1.8-1.2-2.4-1.9c-0.7-0.7-1.3-1.4-1.8-2.1
				c0.1,0,0.2-0.1,0.3-0.1c0.2,0,0.3,0,0.4,0c0.6,0.5,0.8,0.7,1.4,1.2c0,0,0.1,0,0.1,0.1c0.2,0,0.2,0,0.4,0.1c0.2,0.1,0.5,0,0.8-0.3
				c0.1-0.1,0.3-0.2,0.4-0.3c0.1-0.1,0.3-0.3,0.4-0.6c0.8-1.4,1.2-2.1,1.9-3.5C397.7,299.6,398.6,300.1,400.5,301.1z"/>
			<path d="M404.4,293.9c-0.4,0.7-0.5,1-0.9,1.7c-0.4,0.7-0.9,1.1-1.6,1c-0.7-0.1-1-0.2-1.7-0.3c0.7,0.9,1,1.3,1.7,2.2
				c-0.7,1.2-1,1.9-1.7,3.1c-1.9-1-2.8-1.5-4.7-2.6c0.8-1.4,1.2-2.1,1.9-3.5c-0.2-0.1-0.3-0.2-0.4-0.3c-0.1-0.1-0.2-0.1-0.3-0.2
				c-0.1-0.1-0.2-0.2-0.4-0.2c-0.7-0.4-1-0.6-1.7-1c-0.3-0.7-0.5-1-0.9-1.7c-0.3-0.7-0.5-1.1-0.9-1.8c0.1,0.1,0.1,0.1,0.2,0.1
				c0.1,0.1,0.2,0.1,0.4,0.2c0.2,0.1,0.3,0.2,0.5,0.3c0.2,0.1,0.4,0.2,0.4,0.3c0.1,0.1,0.2,0.2,0.4,0.3c0.8,0.5,1.1,0.7,1.9,1.1
				c0.1,0.1,0.2,0.1,0.3,0.2c0.4,0.2,0.8,0.3,1.2,0.2c0.4-0.1,0.6-0.2,0.8-0.5c0.2-0.4,0.3-0.7,0.6-1.1
				C401.6,292.3,402.5,292.9,404.4,293.9z M406.8,296.8c0.1,0.1,0.2,0.2,0.3,0.4c0.1,0.1,0.2,0.2,0.2,0.3c0.1,0.1,0.1,0.2,0.2,0.4
				c0.1,0.2,0.1,0.3,0.2,0.4c0.3,0.5,0.4,0.8,0.4,0.9c-0.3,0.2-0.5,0.2-0.8,0.4c-0.7,0.3-1,0.4-1.7,0.7c0.2,0.4,0.4,0.6,0.6,1
				c0.1,0.2,0.1,0.3,0.2,0.5c-0.1,0.1-0.2,0.2-0.3,0.3c-0.2,0.2-0.5,0.4-0.8,0.5c-0.3,0.1-0.5,0.2-0.7,0.2c-0.2,0.1-0.3,0.1-0.5,0.1
				c-0.4-0.6-0.5-1-0.9-1.6c-0.1-0.3-0.2-0.4-0.3-0.7c0.2,0,0.6-0.2,1.2-0.4c0.2-0.1,0.5-0.2,0.6-0.2c0.1-0.1,0.2-0.2,0.3-0.2
				c0-0.1-0.1-0.2-0.1-0.3c0-0.1-0.1-0.3-0.2-0.6c-0.2-0.4-0.2-0.5-0.4-0.9C405.4,297.4,405.9,297.2,406.8,296.8z"/>
			<path d="M406.9,289.1c-0.6,1.2-0.9,1.7-1.5,2.9c-0.1,0.1-0.2,0.2-0.3,0.2c-0.2,0-0.4,0-0.6-0.1c-1.1-0.6-1.7-0.9-2.8-1.5
				c0.6,0.6,0.9,0.8,1.4,1.4c0.6,0.6,0.9,0.9,1.6,1.5c-0.4,0.7-0.5,1-0.9,1.7c-1.9-1-2.8-1.5-4.7-2.5c0.5-1,0.8-1.4,1.3-2.4
				c-3.4-1.4-5-2-8.4-3.4c-0.6-0.8-0.9-1.2-1.6-1.9c-0.5-0.7-1.1-1.6-1.1-1.6c0,0,0.2,0.1,0.4,0.1c0.2,0.1,0.3,0.1,0.5,0.2
				c0.7,0.3,1,0.4,1.7,0.6c2.2,0.9,3.2,1.4,5.4,2.3c1.2,0.6,1.9,0.8,3.1,1.4c0.2,0.1,0.4,0.2,0.7,0.2c0.3,0,0.5-0.1,0.6-0.4
				c0.2-0.4,0.3-0.6,0.6-1.1C404.1,287.6,405,288.1,406.9,289.1z"/>
			<path d="M412.7,277.6c-1.2,2.4-1.7,3.6-2.9,6c-0.3-0.1-0.4-0.2-0.7-0.3c-0.5-0.2-0.7-0.3-1.2-0.6c-1-0.5-1.4-0.7-2.4-1.2
				c-0.1,0.2,0.1,0.6,0.5,1.2c0.4,0.6,0.6,0.9,1,1.4c0.3,0.3,0.5,0.7,0.6,1c0.2,0.4,0.3,0.6,0.6,1c0,0.1,0,0.2,0,0.3
				c0,0.1-0.1,0.3-0.1,0.4c-0.8,1.5-1.2,2.3-1.9,3.8c-1.9-1-2.8-1.5-4.7-2.5c0.9-1.8,1.4-2.7,2.3-4.4c0.1-0.2,0.1-0.3,0.1-0.5
				c0-0.2,0-0.5-0.1-0.7c-0.2-0.6-0.4-1.2-0.5-1.2c0,0-0.4,0.3-0.7,0.7c-0.2,0.2-0.3,0.4-0.4,0.6c-0.1,0.1-0.2,0.2-0.2,0.3
				c-0.1,0.1-0.1,0.1-0.1,0.2c0,0.1-0.1,0.2-0.1,0.2c-0.1,0.1-0.1,0.2-0.2,0.2c-0.3,0.5-0.5,1-0.6,1.5c-0.1,0.5,0,1.4,0,1.4
				c-0.1,0.1-2.7-1.8-3.5-2.8c-0.8-1.1-0.9-2.1-0.5-2.9c0.2-0.4,0.8-0.9,1.7-1.5c1.2-0.8,1.7-1.2,2.9-2c0-0.1,0.1-0.1,0.1-0.2
				c0.1-0.1,0.1-0.2,0.2-0.3c0.2-0.2,0.3-0.4,0.5-0.6c0.3-0.5,0.4-0.7,0.7-1.2c0.1-0.3,0.2-0.4,0.3-0.6c0.5,0.4,0.7,0.6,1.1,1.1
				c0.6,0.6,0.9,0.9,1.4,1.4c-0.1,0.1-0.1,0.3-0.2,0.4c0,0.1,0,0.3-0.1,0.4c0,0.1-0.1,0.2-0.1,0.3c0,0.1,0,0.3-0.1,0.5
				c-0.1,0.4-0.1,0.8-0.1,1.2c0,0.3,0.1,0.5,0.2,0.6c1-2,1.5-3,2.4-4.9C409.8,276.1,410.7,276.6,412.7,277.6z M394.4,275.1
				c-0.2-0.1-0.3-0.1-0.5-0.1c-0.1,0-0.3,0.1-0.6,0.2c-0.8,0.3-1.2,0.5-1.9,0.8c-0.1,0.1,0.1,0.5,0.3,1c0.4,0.7,0.6,1,0.9,1.7
				c0.2,0.1,0.8,0,1.6-0.4c0.8-0.3,1.3-0.6,1.3-0.7c0-0.1,0-0.2-0.1-0.4c-0.1-0.2-0.1-0.4-0.2-0.7
				C394.9,276.1,394.7,275.8,394.4,275.1z"/>
			<path d="M402.7,266.1c0.9,1.4,1.4,2.1,2.3,3.6c0.4,0.2,0.6,0.3,0.9,0.4c0.2,0.1,0.4,0.2,0.6,0.3c0.1,0.1,0.3,0.1,0.4,0.2
				c1.1,0.4,1.7,0.7,2.9,1.1c0.4,0.2,0.7,0.4,0.9,0.5c0.2,0.1,0.4,0.3,0.5,0.4c0.1,0.1,0.2,0.2,0.3,0.2c0.7,0.5,1,0.8,1.7,1.3
				c0.4,0.3,0.7,0.6,0.7,0.9c0,0.1,0,0.2-0.1,0.2c0,0.1-0.1,0.1-0.1,0.2c0,0.1-0.1,0.2-0.1,0.2c-0.6,1.2-0.9,1.8-1.4,3
				c-1.9-1-2.9-1.4-4.8-2.4c0.5-1.1,0.8-1.7,1.3-2.8c-0.1-0.1-0.3-0.2-0.4-0.3c-0.1,0-0.1-0.1-0.2-0.1c-0.1-0.1-0.3-0.2-0.4-0.2
				c-0.1,0-0.2-0.1-0.3-0.1c-0.2-0.1-0.4-0.2-0.8-0.3c-0.4-0.1-0.7-0.2-0.9-0.3c-1.6-0.5-2.5-0.8-4.1-1.3c-0.3,0.1-0.5,0.1-0.8,0.2
				c-0.1,0-0.2,0.1-0.3,0.1c-0.1,0-0.2,0-0.2,0c-0.4-0.2-0.8-0.9-1.2-1.3c-0.4-0.4-0.7-0.8-1-1.2c-0.6-0.7-0.9-1.4-0.8-1.4
				c0,0,0.4,0.2,0.6,0.3c0.2,0.1,0.4,0.2,0.6,0.2c0.2,0,0.6,0,1.1-0.2c0.7-0.3,1.1-0.5,1.8-0.8c0.3-0.2,0.6-0.3,0.8-0.4
				C402.5,266.2,402.6,266.2,402.7,266.1z"/>
			<path d="M411.7,265.3c0.8,0.4,1.4,0.7,2,1.1c0.6,0.3,1,0.7,1.4,1.1c0.4,0.3,0.7,0.7,1,1c0.3,0.3,0.5,0.7,0.8,1.1
				c-4.6-1.7-6.9-2.5-11.6-4.2c-0.1,0-0.3-0.3-0.8-0.9c-0.4-0.4-0.7-0.8-1-1.1c-0.3-0.3-0.7-0.7-1.2-1.3c-0.3-0.3-0.5-0.5-0.6-0.6
				c1,0.3,1.4,0.5,2.4,0.8c1.4,0.5,2.2,0.8,3.6,1.3c0.3,0.2,0.6,0.3,0.8,0.4c1,0.4,1.5,0.7,1.7,0.7
				C410.8,264.9,411.1,265,411.7,265.3z"/>
			<path d="M416,256c1.3,0.6,2.5,1.3,3.7,2.1c1.1,0.8,2.1,1.7,3,2.6c1.8,1.9,2.5,3.6,1.9,4.9c-0.4,0.9-1.1,2-2,3.2
				c-0.9,1.2-1.6,2-2.2,2.2c0.1-0.1,0.1-0.2,0.1-0.3c0.1-0.3,0.2-0.5,0.2-0.6c0-0.1,0.1-0.3,0.2-0.5c0.1-0.2,0.2-0.6,0.3-1
				c0.1-0.4,0.2-0.9,0.3-1.4c0-0.5,0-1.1,0-1.7c-0.1-1.2-0.5-2.6-1.2-4.1c-0.8-1.6-1.6-2.6-2.5-3c-0.2-0.1-0.3-0.1-0.6-0.2
				c0.7,0.8,1,1.1,1.7,1.9c0.3,0.4,0.3,1-0.1,1.9c-0.4,0.8-0.9,1.3-1.6,1.4c-0.3,0-0.7,0-1-0.1c-0.4-0.1-0.8-0.2-1.2-0.4
				c-0.3-0.2-0.5-0.3-0.8-0.4c-0.1-0.1-0.3-0.1-0.4-0.2c-0.1-0.1-0.2-0.2-0.3-0.2c-0.7-0.4-1.8-1.4-2.9-2.9
				c-1.1-1.6-1.6-2.7-1.3-3.3c0.2-0.5,1.1-0.7,2.6-0.7C413.3,255.1,414.7,255.4,416,256z M414.6,258.2c-0.3-0.2-0.9-0.3-1.3-0.2
				c-0.4,0.1-0.7,0.2-0.8,0.4c-0.1,0.2-0.1,0.5,0.1,0.9c0.1,0.4,0.4,0.7,0.7,0.9c0.1,0,0.2-0.1,0.4-0.1c0.2-0.1,0.3-0.1,0.4-0.2
				c0.1-0.1,0.2-0.2,0.3-0.3c0.1-0.2,0.2-0.3,0.3-0.5c0-0.2,0-0.3,0.1-0.5C414.8,258.5,414.7,258.3,414.6,258.2z"/>
			<path d="M431.9,232.9c-0.4,0.9-0.5,1.4-0.9,2.3c0.1,0.1,0.2,0.1,0.3,0.1c0,0,0.1,0.1,0.2,0.2c0.2,0.2,0.5,0.4,0.7,0.5
				c0.1,0,0.3,0.3,0.7,0.7c0.7,0.7,1.2,1.2,1.4,1.7c0.1,0.2,0.2,0.6,0.3,1c0.1,0.4,0.1,1,0.1,1.6c0,0.6,0,1.2-0.1,1.6
				c0,0.5-0.1,0.8-0.2,1c-0.5,1.4-1.3,2.4-2.2,3.2c-0.5,0.4-1,0.6-1.6,0.6c-0.6,0-1.2-0.1-1.9-0.4c-0.2-0.1-0.4-0.2-0.6-0.3
				c-0.2-0.1-0.3-0.2-0.4-0.2c-0.1-0.1-0.3-0.2-0.5-0.3c-0.4-0.2-0.9-0.6-1.6-1.2c-0.7-0.6-1.4-1.4-2.2-2.4c-0.7-1-1-1.8-1-2
				c0,0,0-0.1,0-0.1c0,0,0-0.1-0.1-0.2c0-0.2,0-0.3,0-0.5c0.5,0.7,0.7,1,1.2,1.6c0.3,0.4,0.5,0.7,0.8,1c0.3,0.3,0.5,0.5,0.7,0.7
				c0.3,0.2,0.5,0.3,0.8,0.5c0.9,0.4,1.8,0.3,2.6-0.4c0.4-0.3,0.7-0.7,1-1.1c0.3-0.3,0.5-0.7,0.6-1c0.3-0.6,0.5-1.5,0.6-2.6
				c0.2-1.1,0.1-1.9-0.1-2c-0.3-0.2-1.2-0.3-2.4-0.4c-0.6-0.1-1.2-0.1-1.5-0.1c-0.5,0-0.9,0-1.2,0c-0.7,0-1.4,0.1-1.9,0.2
				c-0.4-0.6-0.7-0.9-1.1-1.5c-0.6-0.8-0.9-1.1-1.6-1.9c0.6,0,1,0,1.6,0c0.9,0,1.4-0.1,2.3-0.1c1-0.1,1.7-0.4,1.8-0.8
				c0.2-0.4,0.2-0.6,0.4-1C428.9,231.7,429.9,232.1,431.9,232.9z M416.1,231.3c0.3,0.3,0.5,0.7,0.7,1c0.2,0.3,0.4,0.7,0.6,1.1
				c0.3,0.7,0.5,1.2,0.4,1.4c0,0.1-0.1,0.2-0.2,0.2c-0.1,0.1-0.4,0.3-0.9,0.5c-0.7,0.4-1.1,0.5-1.8,0.9c-0.3-0.2-0.7-0.9-1.2-1.9
				c-0.6-1-0.8-1.6-0.8-1.8c0.2-0.1,0.3-0.2,0.5-0.3c0.2-0.1,0.5-0.3,1-0.5C415.1,231.8,415.4,231.6,416.1,231.3z"/>
			<path d="M435.5,223c-0.3,0.9-0.5,1.3-0.8,2.2c0,0.1,0,0.2,0.2,0.3c0.1,0.1,0.3,0.3,0.4,0.4c0.4,0.3,0.7,0.6,0.7,0.9
				c-2.5,1.4-3.7,2.1-6.1,3.4c0,0.1,0.4,0.4,1.2,1c0.7,0.5,1,1.1,0.8,1.7c-0.1,0.3-0.2,0.5-0.3,0.8c-2-0.8-3-1.2-4.9-2
				c0.3-0.8,0.5-1.2,0.8-2c0.1-0.2-0.1-0.5-0.5-0.8c-0.3-0.3-0.5-0.4-0.8-0.6c-0.2-0.2-0.3-0.4-0.5-0.6c-0.5-0.7-0.9-1.5-1.2-2.6
				c-0.3-1-0.3-1.8-0.1-2.3c0.2-0.5,0.6-0.7,1.1-0.5c0.3,0.1,0.5,0.2,0.7,0.3c0.2,0.1,0.4,0.1,0.6,0.1c0.2,0,0.3,0,0.5,0
				c0.2,0,0.3,0,0.5,0c0.1,0,0.3,0,0.5-0.1c0.2,0,0.5-0.1,0.9-0.1c0.7-0.1,1.1-0.3,1.2-0.5c0.1-0.4,0.2-0.5,0.3-0.9
				C432.6,221.8,433.5,222.2,435.5,223z M428.7,225.2c-0.2-0.1-0.3-0.1-0.5-0.2c-0.1,0-0.3-0.1-0.5-0.1c-0.3,0-0.6,0-0.7,0.2
				c-0.3,0.6-0.3,1.2-0.1,1.5c0.2-0.1,0.3-0.1,0.4-0.2c0.2-0.1,0.3-0.2,0.5-0.3c0.3-0.2,0.4-0.3,0.7-0.5c0.1-0.2,0.2-0.2,0.4-0.4
				C428.9,225.3,428.8,225.2,428.7,225.2z"/>
			<path d="M438.2,215.3c-0.3,0.7-0.4,1.1-0.6,1.8c-0.3,0.8-0.7,1.2-1.4,1.2c-0.7,0-1-0.1-1.7-0.1c0.8,0.8,1.2,1.2,2,1.9
				c-0.5,1.3-0.7,2-1.2,3.3c-2-0.8-3-1.2-5-1.9c0.5-1.5,0.8-2.3,1.3-3.8c-0.2-0.1-0.3-0.2-0.5-0.3c-0.1-0.1-0.2-0.1-0.3-0.2
				c-0.1-0.1-0.3-0.1-0.4-0.2c-0.7-0.3-1.1-0.5-1.8-0.8c-0.4-0.6-0.7-0.9-1.1-1.5c-0.4-0.7-0.7-1-1.1-1.6c0.1,0,0.1,0.1,0.2,0.1
				c0.1,0,0.2,0.1,0.4,0.1c0.2,0.1,0.3,0.1,0.6,0.2c0.2,0.1,0.4,0.2,0.5,0.2c0.1,0.1,0.3,0.1,0.5,0.3c0.8,0.4,1.2,0.5,2,0.9
				c0.1,0.1,0.2,0.1,0.3,0.2c0.4,0.2,0.8,0.2,1.2,0.1c0.3-0.1,0.6-0.3,0.7-0.6c0.2-0.5,0.2-0.7,0.4-1.2
				C435.2,214.1,436.2,214.5,438.2,215.3z M441,217.8c0.1,0.1,0.2,0.2,0.3,0.3c0.1,0.1,0.2,0.2,0.3,0.3c0.1,0.1,0.2,0.2,0.3,0.4
				c0.1,0.2,0.2,0.3,0.2,0.4c0.3,0.5,0.5,0.7,0.5,0.8c-0.3,0.2-0.4,0.3-0.7,0.5c-0.6,0.4-0.9,0.6-1.6,0.9c0.3,0.4,0.4,0.5,0.7,0.9
				c0.1,0.2,0.1,0.3,0.2,0.5c-0.1,0.1-0.2,0.3-0.2,0.3c-0.2,0.3-0.4,0.5-0.7,0.6c-0.2,0.1-0.5,0.2-0.6,0.3c-0.2,0.1-0.3,0.1-0.4,0.2
				c-0.5-0.6-0.7-0.9-1.1-1.5c-0.2-0.3-0.2-0.4-0.4-0.6c0.2,0,0.6-0.3,1.1-0.6c0.2-0.1,0.4-0.2,0.6-0.3c0.1-0.1,0.2-0.2,0.3-0.3
				c-0.1-0.1-0.1-0.2-0.2-0.3c0-0.1-0.2-0.3-0.3-0.5c-0.2-0.3-0.3-0.5-0.5-0.9C439.7,218.6,440.1,218.4,441,217.8z"/>
			<path d="M426.9,205.3c1.1,1.3,1.6,2,2.7,3.3c0.4,0.1,0.6,0.2,1,0.3c0.2,0.1,0.4,0.2,0.6,0.2c0.1,0,0.3,0.1,0.4,0.1
				c1.2,0.3,1.8,0.5,2.9,0.8c0.4,0.2,0.8,0.3,1,0.4c0.2,0.1,0.4,0.2,0.5,0.3c0.1,0.1,0.2,0.1,0.3,0.2c0.7,0.4,1.1,0.7,1.8,1.1
				c0.5,0.2,0.7,0.5,0.8,0.8c0,0.1,0,0.2,0,0.3c0,0.1,0,0.1,0,0.2c0,0.1-0.1,0.2-0.1,0.2c-0.4,1.3-0.6,1.9-1.1,3.2
				c-2-0.8-3-1.1-5-1.9c0.4-1.2,0.6-1.8,1-2.9c-0.1-0.1-0.3-0.2-0.4-0.2c-0.1,0-0.1-0.1-0.2-0.1c-0.1-0.1-0.3-0.1-0.4-0.2
				c-0.1,0-0.2,0-0.3,0c-0.2,0-0.4-0.1-0.8-0.2c-0.4-0.1-0.7-0.1-1-0.2c-1.7-0.3-2.5-0.5-4.2-0.9c-0.3,0.1-0.4,0.2-0.7,0.3
				c-0.1,0-0.2,0.1-0.3,0.1c-0.1,0-0.2,0.1-0.2,0c-0.4-0.1-0.9-0.8-1.3-1.1c-0.4-0.4-0.8-0.8-1.1-1.1c-0.6-0.7-1-1.3-1-1.3
				c0,0,0.4,0.2,0.6,0.2c0.2,0.1,0.4,0.1,0.6,0.1c0.2,0,0.6-0.1,1.1-0.3c0.7-0.4,1-0.6,1.7-1c0.3-0.2,0.6-0.4,0.7-0.5
				C426.7,205.5,426.8,205.4,426.9,205.3z"/>
			<path d="M435.7,203.5c0.8,0.3,1.5,0.6,2.1,0.9c0.6,0.3,1.1,0.6,1.5,0.9c0.4,0.3,0.8,0.6,1.1,0.9c0.3,0.3,0.6,0.6,0.9,1
				c-4.8-1.2-7.1-1.8-11.9-3c-0.1,0-0.4-0.3-0.9-0.8c-0.4-0.4-0.8-0.7-1.1-1c-0.3-0.3-0.8-0.7-1.4-1.1c-0.4-0.3-0.6-0.5-0.6-0.6
				c1,0.2,1.5,0.3,2.4,0.6c1.5,0.4,2.2,0.6,3.7,0.9c0.3,0.1,0.6,0.2,0.8,0.3c1,0.3,1.6,0.5,1.8,0.5
				C434.7,203.2,435.1,203.3,435.7,203.5z"/>
			<path d="M432.5,179.4c0.3,0.3,0.5,0.5,0.8,0.8c0.3,0.3,0.4,0.5,0.7,0.8c0.3,0.4,0.5,0.7,0.5,0.8c-0.4,0.4-0.7,0.6-1.1,0.9
				c-0.7,0.6-1.1,0.9-1.2,0.9c0.2,0.4,0.4,0.5,0.6,0.9c0.2,0.3,0.4,0.5,0.6,0.8c-0.2,0.3-0.5,0.7-1.1,1.1c-0.6,0.4-1,0.7-1.2,0.8
				c-0.4-0.4-0.5-0.6-0.9-1.1c-0.2-0.3-0.3-0.4-0.5-0.7c-0.2-0.3-0.3-0.4-0.5-0.7c0.2-0.1,0.6-0.3,1.2-0.7c0.6-0.4,1-0.8,1-0.9
				c0-0.1-0.1-0.2-0.2-0.3c-0.2-0.3-0.3-0.5-0.5-0.8c-0.1-0.2-0.2-0.3-0.3-0.5c-0.1-0.2-0.2-0.3-0.2-0.4
				C431.1,180.5,431.5,180.2,432.5,179.4z M449,179.6c-0.2,0.7-0.3,1-0.5,1.7c-0.2,0.8-0.6,1.2-1.2,1.2c-0.3,0-0.6,0-0.9-0.1
				c-0.3,0-0.7,0-1-0.1c-0.6-0.1-1.2-0.1-1.3-0.1c0,0,0.5,0.7,1.5,1.4c0.7,0.5,1.1,1,1,1.5c0,0,0,0.1-0.1,0.2
				c-0.1,0.2-0.3,0.4-0.5,0.8c-0.2,0.4-0.4,0.7-0.5,1c-0.1,0.2-0.3,0.6-0.6,1.1c-0.1,0.3-0.3,0.5-0.4,0.8c-0.1,0.1-0.1,0.2-0.2,0.4
				c-0.1,0.2-0.2,0.4-0.2,0.5c-0.1,0.1-0.9-0.3-1.4-0.6c-0.8-0.6-1.2-0.8-2.1-1.4c-0.8-0.6-1.4-1.1-1.7-1.5
				c-0.3-0.4-0.6-1.1-0.9-2.1c-0.5-1.2-0.7-1.8-1.1-3c-0.3,0-0.4,0-0.7-0.1c-0.3,0-0.4,0-0.7-0.1c-1.1-1.1-1.6-1.6-2.7-2.7
				c0.1,0,0.9,0.1,2.6,0.3c1.8,0.3,2.7,0.4,4.5,0.7c1,0.1,1.6,0.2,2.6,0.4c0.3,0,0.5-0.1,0.7-0.2c0.1-0.1,0.2-0.2,0.3-0.5
				c0.1-0.4,0.2-0.6,0.3-1C445.9,178.7,447,179,449,179.6z M442.4,182.1c-0.5-0.1-0.8-0.1-1.3-0.2c-0.9-0.1-1.3-0.2-2.2-0.3
				c0.2,0.3,0.3,0.4,0.6,0.6c0.3,0.4,0.5,0.6,0.8,0.9c0.1,0.2,0.1,0.3,0.2,0.5c0.1,0.1,0.1,0.3,0.2,0.6c0,0.3,0.2,0.5,0.5,0.8
				c0.2-0.3,0.3-0.4,0.4-0.7c0.1-0.3,0.2-0.4,0.4-0.7C442,182.9,442.1,182.6,442.4,182.1z"/>
			<path d="M451.5,169.8c-0.4,1.5-0.6,2.3-0.9,3.8c-0.5,0.1-0.8,0.1-1.3,0.1c-0.5,0-0.8,0-1.3,0c0.5,0.4,0.7,0.5,1.2,0.9
				c0.1,0.1,0.2,0.2,0.3,0.2c0.1,0.1,0.2,0.1,0.2,0.2c0.2,0.2,0.2,0.2,0.4,0.4c-0.5,2-0.8,2.9-1.3,4.9c-2-0.6-3-0.9-5.1-1.6
				c0.5-1.9,0.8-2.8,1.2-4.7c-0.6,0.1-1.1,0.3-1.5,0.7c-0.2,0.2-0.4,0.3-0.5,0.5c-0.1,0.2-0.2,0.4-0.3,0.6c0,0.2,0,0.4-0.1,0.6
				c0,0.2,0,0.3,0,0.4c-0.5-0.3-0.7-0.5-1.2-0.9c-0.6-0.5-0.9-0.7-1.5-1.2c-0.2-0.1-0.3-0.3-0.4-0.5c-0.1-0.2-0.2-0.5-0.4-0.9
				c-0.2-0.7-0.3-1.4,0-2.2c0.3-1.1,0.9-1.8,1.9-2.2c1-0.4,1.8-0.5,2.5-0.3c0.2,0,0.4,0.1,0.6,0.3c0.2,0.1,0.5,0.4,0.7,0.6
				c0.5,0.5,0.9,0.8,1.1,0.9c0.2-0.8,0.3-1.3,0.5-2.1C448.5,168.9,449.5,169.2,451.5,169.8z"/>
			<path d="M448.3,160.7c0.1,0,0.3,0.1,0.6,0.3c0.3,0.2,0.7,0.5,1.2,0.8c0.5,0.3,0.9,0.6,1.3,0.9c0.4,0.3,0.6,0.4,0.7,0.5
				c0.2,0.2,0.4,0.3,0.5,0.4c-1.5,1.5-2.2,2.3-3.7,3.7c0,0.1,0.4,0.5,1.3,1.1c0.9,0.6,1.3,1,1.2,1.4c-0.1,0.5-0.2,0.7-0.3,1.2
				c-2-0.6-3.1-0.9-5.1-1.5c0.2-0.7,0.3-1,0.4-1.7c-0.4-0.2-1.2-0.8-2.3-1.5c-1.1-0.8-1.9-2-2.4-3.5c-0.1-0.5-0.2-0.7-0.4-1.1
				c-0.1-0.4-0.1-0.8,0-1c0.1-0.3,0.3-0.4,0.8-0.4c0.9,0,1.3,0,2.2,0.1c0.9,0.1,1.3,0.1,2.2,0.1
				C447.1,160.4,447.6,160.5,448.3,160.7z M446.5,163.1c-0.5-0.1-0.7-0.1-1.2-0.1c-0.5,0-0.8,0.1-0.9,0.3c0,0.1-0.1,0.3-0.1,0.4
				c0,0.1,0,0.2,0.1,0.4c0.1,0.3,0.2,0.5,0.3,0.8C445.5,164.1,445.8,163.8,446.5,163.1z"/>
			<path d="M454.7,156.1c-0.3,1.4-0.5,2.2-0.8,3.6c-1.7-0.3-2.5-0.4-4.2-0.7c-2.5-0.5-3.7-0.8-6.2-1.3c-1.6-0.4-2.4-0.5-4-0.9
				c-0.2-0.2-0.4-0.3-0.4-0.4c-0.1-0.1-0.3-0.2-0.4-0.4c-0.3-0.3-0.5-0.5-0.8-0.8c-0.5-0.5-0.7-0.7-1.2-1.2c0.6,0.1,1,0.2,1.6,0.3
				c0.6,0.1,0.9,0.2,1.5,0.3c2.1,0.4,3.2,0.6,5.3,1c1.2,0.3,2.2,0.5,2.8,0.6c0.6,0.1,1,0.1,1.1,0c0.1-0.2,0.1-0.4,0.2-0.6
				c0.1-0.5,0.2-0.7,0.3-1.1C451.6,155.2,452.7,155.5,454.7,156.1z"/>
			<path d="M447.6,141.3c0.7,0.3,1,0.4,1.7,0.8c0.2,0.1,0.4,0.1,0.5,0.2c0.1,0.1,0.3,0.1,0.6,0.3c0.3,0.1,0.5,0.2,0.5,0.2
				c0.2,0.1,0.4,0.2,0.5,0.3c-0.2,0.5-0.2,0.7-0.4,1.2c0,0.2,0,0.2-0.1,0.4c-0.1,0.5-0.2,0.9-0.1,1.2c0.1,0.4,0.1,0.7,0.2,1.1
				c0.1,0.3,0.5,1,1.3,2.1c0.7,1,1.3,1.8,1.8,2.2c0.4,0.4,0.7,0.9,0.9,1.4c0.2,0.5,0.2,1,0.2,1.3c-0.2,0.7-0.2,1.1-0.4,1.8
				c-0.1,0.2-0.1,0.5-0.1,0.7c0,0.2-0.1,0.4-0.1,0.5c-2.1-0.6-3.1-0.8-5.2-1.4c0.4-2,0.6-2.9,1.1-4.9c0-0.2,0-0.4,0-0.6
				c0-0.2-0.1-0.4-0.3-0.7c-0.1-0.2-0.3-0.5-0.4-0.7c-0.1-0.2-0.3-0.4-0.4-0.4c-0.1,0-0.3,0.3-0.4,0.7c-0.2,0.4-0.2,0.6-0.4,1.1
				c-0.1,0.4-0.1,0.5-0.2,0.9c0,0.2-0.1,0.3-0.1,0.5c0,0.1,0,0.3-0.1,0.4c0,0.2,0,0.5,0,0.8c0,0.5,0.3,1.3,0.3,1.3
				c-0.1,0.1-3-1.1-4-2c-1-0.9-1.4-1.8-1.2-2.8c0.1-0.5,0.5-1.1,1.2-1.9c0.9-1.1,1.3-1.6,2.2-2.7c0.1-0.2,0.2-0.4,0.3-0.6
				c0.1-0.3,0.1-0.4,0.2-0.6c0.1-0.6,0.2-0.9,0.3-1.5C447.6,141.6,447.6,141.5,447.6,141.3z M459,146.7c0.6,0.6,0.9,0.8,1.4,1.4
				c0.9,1,1.3,1.6,1.3,1.8c-0.7,0.7-1.1,1-1.8,1.7c-0.6,0.5-1,0.8-1.1,0.7c-0.1,0-0.6-0.5-1.4-1.5c-0.8-0.9-1.2-1.5-1.2-1.7
				c0.5-0.4,0.8-0.7,1.4-1.1C458.4,147.3,458.9,146.9,459,146.7z"/>
		</g>
	</g>
	<g>
		<g>
			<path d="M94.1,134.9c0.1,1.2,0.2,1.8,0.3,3c-1.1,0.9-1.7,1.3-2.7,2.2c1.3,0.5,1.9,0.8,3.1,1.3c0.1,1.2,0.2,1.8,0.3,2.9
				c-2.2-1-3.3-1.5-5.5-2.5c-1.5,0.2-2.2,0.4-3.6,0.6c-0.1-1.1-0.2-1.6-0.3-2.7c1.5-0.2,2.2-0.4,3.7-0.6
				C91.3,137.4,92.2,136.6,94.1,134.9z"/>
			<path d="M89.9,152.3c-0.3-1.9-0.4-2.9-0.6-4.8c-0.4,0.1-0.7,0.3-0.8,0.5c-0.2,0.3-0.3,0.6-0.3,1c0,0.2,0.1,0.5,0.3,0.6
				c0.1,0.1,0.2,0.2,0.5,0.3c0,1,0.1,1.5,0.1,2.4c-0.7-0.2-1.2-0.6-1.5-1.1c-0.3-0.5-0.6-1.2-0.7-2.1c-0.1-0.8-0.1-1.5,0.1-2
				c0.2-0.5,0.5-1,1-1.4c0.5-0.4,1.1-0.7,1.8-0.8c1-0.2,1.8,0,2.5,0.5c0.7,0.5,1.1,1.3,1.2,2.4c0.1,0.9,0.1,1.6-0.1,2.2
				c-0.2,0.6-0.5,1-1,1.4c-0.5,0.4-1.1,0.6-2,0.8C90,152.2,90,152.2,89.9,152.3z M90.7,149.6c0.5-0.1,0.8-0.3,1-0.6
				c0.2-0.2,0.2-0.5,0.2-0.9c0-0.4-0.2-0.7-0.6-0.8c-0.2-0.1-0.5-0.2-0.9-0.1C90.5,148.2,90.6,148.6,90.7,149.6z"/>
			<path d="M93.8,153c0.1,0.9,0.2,1.3,0.3,2.2c-0.4,0.1-0.6,0.1-0.9,0.2c0.4,0.2,0.7,0.5,1,0.8c0.2,0.3,0.3,0.7,0.4,1.1
				c0.1,0.5,0,0.9-0.1,1.2c-0.1,0.3-0.7,0.8-0.7,0.9c0,0.1,0.8,0.6,1,0.9c0.2,0.3,0.3,0.6,0.4,1.1c0.1,0.7,0,1.2-0.3,1.7
				c-0.3,0.5-0.9,0.8-1.8,1c-1.6,0.3-2.4,0.5-3.9,0.8c-0.2-1-0.2-1.4-0.4-2.4c1.4-0.3,2.1-0.4,3.6-0.7c0.3-0.1,0.5-0.2,0.6-0.3
				c0.2-0.2,0.3-0.4,0.2-0.7c0-0.3-0.2-0.5-0.4-0.6c-0.2-0.1-0.6-0.1-1-0.1c-1.3,0.3-1.9,0.4-3.2,0.7c-0.1-1-0.2-1.5-0.4-2.4
				c1.4-0.3,2.1-0.4,3.5-0.7c0.3-0.1,0.5-0.1,0.6-0.2c0.1-0.1,0.3-0.2,0.3-0.3c0.1-0.1,0.1-0.3,0.1-0.5c0-0.3-0.2-0.5-0.4-0.6
				c-0.2-0.1-0.6-0.2-1.1-0.1c-1.3,0.2-1.9,0.4-3.2,0.6c-0.1-1-0.2-1.5-0.3-2.4C90,153.7,91.3,153.5,93.8,153z"/>
			<path d="M93.2,173.1c-0.4-1.9-0.5-2.9-0.9-4.8c-0.4,0.1-0.6,0.3-0.8,0.5c-0.2,0.3-0.3,0.6-0.2,1c0,0.2,0.1,0.4,0.3,0.6
				c0.1,0.1,0.3,0.2,0.5,0.3c0.1,1,0.1,1.4,0.2,2.4c-0.7-0.2-1.2-0.5-1.6-1c-0.4-0.4-0.6-1.1-0.8-2.1c-0.1-0.8-0.1-1.5,0-2
				c0.2-0.5,0.5-1,0.9-1.4c0.5-0.4,1-0.7,1.7-0.9c1-0.2,1.8-0.1,2.5,0.4c0.7,0.5,1.2,1.3,1.4,2.4c0.2,0.9,0.1,1.6,0,2.2
				c-0.2,0.6-0.5,1.1-1,1.4c-0.5,0.4-1.1,0.7-1.9,0.9C93.4,173,93.3,173,93.2,173.1z M93.9,170.4c0.5-0.2,0.8-0.3,0.9-0.6
				c0.2-0.2,0.2-0.5,0.2-0.9c-0.1-0.4-0.3-0.6-0.6-0.8c-0.2-0.1-0.5-0.1-0.9-0.1C93.7,169,93.8,169.4,93.9,170.4z"/>
			<path d="M97.2,173.6c0.2,0.9,0.2,1.3,0.4,2.2c-0.4,0.1-0.6,0.1-1,0.2c0.5,0.2,0.8,0.5,1.1,0.8c0.2,0.3,0.4,0.7,0.5,1.2
				c0.1,0.7,0,1.2-0.3,1.7c-0.3,0.5-0.9,0.8-1.7,1c-1.6,0.4-2.4,0.6-4,1c-0.2-1-0.3-1.4-0.5-2.4c1.4-0.3,2.1-0.5,3.4-0.8
				c0.4-0.1,0.7-0.2,0.8-0.4c0.1-0.2,0.2-0.4,0.1-0.7c-0.1-0.3-0.2-0.5-0.5-0.6c-0.3-0.1-0.7-0.1-1.2,0c-1.2,0.3-1.8,0.4-3,0.7
				c-0.2-1-0.3-1.4-0.5-2.4C93.4,174.5,94.7,174.2,97.2,173.6z"/>
			<path d="M99.2,193.5c0,0.8,0,1.2,0,1.9c-0.4,0-0.7,0-0.9-0.1c-0.2,0-0.5-0.1-0.8-0.2c-0.2,0.4-0.2,0.6-0.4,1.1
				c0,0.1-0.1,0.3-0.2,0.5c-0.7-0.3-1.1-0.5-1.8-0.9c0.1-0.3,0.2-0.5,0.3-0.8c0.1-0.3,0.3-0.7,0.3-0.8c-0.1-0.2-0.7-0.7-0.9-1.1
				c-0.3-0.5-0.5-1.1-0.7-1.9c-0.3-1.1-0.2-2,0.2-2.7c0.4-0.7,0.9-1.1,1.6-1.3c0.5-0.1,1-0.1,1.5,0.1c0.5,0.2,1.4,1.3,1.5,1.3
				c0.1,0,0.6-0.7,0.8-0.9c0.3-0.2,0.5-0.3,0.8-0.4c0.6-0.2,1.2-0.1,1.7,0.3c0.5,0.4,0.8,1,1.1,1.9c0.2,0.9,0.2,1.7-0.1,2.2
				c-0.3,0.5-0.7,0.9-1.2,1c-0.3,0.1-0.6,0.1-0.9,0c-0.3-0.1-0.6-0.2-0.8-0.3c-0.2-0.1-0.9-0.8-1-0.8c-0.1,0-0.9,1.5-0.9,1.6
				C98.4,193.5,98.9,193.5,99.2,193.5z M97.8,190.1c0-0.1-0.5-0.4-0.7-0.5c-0.2-0.1-0.4-0.1-0.6,0c-0.3,0.1-0.5,0.3-0.7,0.6
				c-0.2,0.3-0.2,0.6-0.1,1c0.1,0.4,0.8,1.3,0.8,1.3C96.7,192.5,97.9,190.5,97.8,190.1z M100.1,190.4c0,0.1,0.5,0.4,0.7,0.6
				c0.2,0.1,0.4,0.1,0.6,0.1c0.2,0,0.3-0.2,0.4-0.3c0.1-0.2,0.1-0.4,0.1-0.6c-0.1-0.2-0.2-0.4-0.3-0.5c-0.2-0.1-0.4-0.1-0.5-0.1
				C100.8,189.6,100.1,190.2,100.1,190.4z"/>
			<path d="M101.3,206.4c0.7-0.2,1.1-0.3,1.8-0.5c0.4,1.6,0.6,2.4,1.1,4c-1.4,0.4-2.2,0.7-3.6,1.1c-0.7-0.6-1.3-1.2-1.6-1.7
				s-0.6-1.2-0.8-2c-0.3-1-0.3-1.9-0.1-2.6c0.2-0.7,0.6-1.4,1.2-1.9c0.6-0.5,1.3-0.9,2.2-1.2c0.9-0.3,1.8-0.3,2.6-0.1
				c0.8,0.2,1.4,0.6,2,1.2c0.4,0.5,0.8,1.2,1,2.1c0.2,0.9,0.3,1.6,0.3,2.1c0,0.5-0.2,1-0.5,1.4c-0.3,0.4-0.7,0.8-1.2,1.1
				c-0.5-0.9-0.7-1.4-1.1-2.3c0.3-0.2,0.5-0.4,0.6-0.7c0.1-0.3,0.1-0.6,0-1c-0.1-0.6-0.5-1-1-1.2c-0.5-0.2-1.2-0.2-2,0.1
				c-0.9,0.3-1.5,0.6-1.8,1.1c-0.3,0.5-0.4,1-0.2,1.6c0.1,0.3,0.2,0.6,0.3,0.8c0.2,0.2,0.4,0.5,0.7,0.8c0.3-0.1,0.5-0.1,0.8-0.2
				C101.6,207.5,101.5,207.1,101.3,206.4z"/>
			<path d="M102.7,211.8c0.9-0.3,1.8-0.2,2.6,0.2c0.8,0.4,1.3,1.2,1.6,2.2c0.3,1.2,0.2,2.2-0.3,3.1c-0.4,0.7-1.1,1.2-1.9,1.4
				c-0.9,0.3-1.8,0.2-2.6-0.2c-0.8-0.4-1.3-1.2-1.6-2.3c-0.3-1-0.2-1.8,0.1-2.6C101,212.8,101.7,212.2,102.7,211.8z M103.4,214.2
				c-0.5,0.2-0.9,0.4-1.1,0.7c-0.2,0.3-0.3,0.6-0.2,0.9c0.1,0.3,0.3,0.6,0.6,0.7c0.3,0.1,0.8,0.1,1.3-0.1c0.5-0.2,0.9-0.4,1.1-0.7
				c0.2-0.3,0.3-0.6,0.2-0.9c-0.1-0.3-0.3-0.6-0.6-0.7C104.4,214,103.9,214,103.4,214.2z"/>
			<path d="M110.6,218.5c0.3,0.9,0.4,1.4,0.7,2.3c-3.4,1.1-5.1,1.7-8.4,2.8c-0.3-0.9-0.4-1.4-0.7-2.3
				C105.5,220.2,107.2,219.6,110.6,218.5z"/>
			<path d="M110.3,225.9c0.1,0.4,0.2,0.6,0.3,1.1c-0.7,0.2-1,0.4-1.7,0.6c-0.1-0.4-0.2-0.7-0.3-1.1c-1.8,0.6-2.6,0.9-4.4,1.5
				c-0.3-0.9-0.4-1.4-0.7-2.3c1.8-0.6,2.6-0.9,4.4-1.5c-0.1-0.3-0.2-0.5-0.3-0.9c0.7-0.2,1-0.3,1.7-0.6c0.1,0.3,0.2,0.5,0.3,0.8
				c0.1,0,0.2-0.1,0.3-0.1c0.2-0.1,0.5-0.2,0.8-0.2c0.3,0,0.6,0,0.8,0c0.2,0.1,0.4,0.2,0.6,0.4c0.2,0.2,0.4,0.6,0.5,1.1
				c0.1,0.4,0.3,1,0.4,1.8c-0.6,0.1-0.9,0.1-1.5,0.2c0-0.3-0.1-0.5-0.1-0.7c-0.1-0.2-0.1-0.3-0.2-0.4c-0.1-0.1-0.2-0.1-0.4-0.1
				C110.7,225.7,110.5,225.8,110.3,225.9z"/>
			<path d="M116.7,237.5c0.3,1,0.5,1.5,0.9,2.5c-2,0.7-3,1.1-5,1.9c-0.5,0.2-1,0.3-1.5,0.3c-0.5,0-1-0.1-1.4-0.3
				c-0.4-0.2-0.8-0.5-1-0.8c-0.4-0.4-0.7-1-0.9-1.7c-0.1-0.4-0.3-0.8-0.4-1.3c-0.1-0.5-0.1-0.9-0.1-1.3c0.1-0.4,0.2-0.8,0.4-1.1
				c0.2-0.4,0.5-0.7,0.8-0.9c0.5-0.3,0.9-0.6,1.3-0.7c2-0.7,3-1.1,5-1.8c0.3,1,0.5,1.5,0.8,2.5c-2,0.7-3.1,1.1-5.1,1.9
				c-0.5,0.2-0.8,0.4-0.9,0.8c-0.2,0.3-0.2,0.7,0,1.2c0.1,0.4,0.4,0.7,0.7,0.9c0.3,0.2,0.7,0.1,1.2,0
				C113.6,238.6,114.6,238.2,116.7,237.5z"/>
			<path d="M115.9,242.6c0.3,0.8,0.4,1.2,0.8,2.1c-0.4,0.2-0.6,0.2-1,0.4c0.5,0.2,0.9,0.4,1.2,0.6c0.3,0.3,0.5,0.6,0.7,1.1
				c0.2,0.6,0.2,1.2,0,1.7c-0.2,0.5-0.8,0.9-1.6,1.2c-1.5,0.6-2.3,0.9-3.8,1.5c-0.3-0.9-0.5-1.4-0.8-2.3c1.3-0.5,2-0.8,3.3-1.3
				c0.4-0.1,0.6-0.3,0.7-0.5c0.1-0.2,0.1-0.4,0-0.7c-0.1-0.3-0.3-0.4-0.6-0.5c-0.3-0.1-0.7,0-1.2,0.2c-1.2,0.4-1.7,0.7-2.9,1.1
				c-0.3-0.9-0.5-1.4-0.8-2.3C112.3,244,113.5,243.6,115.9,242.6z"/>
			<path d="M121.1,249.6c0.3,0.9,0.5,1.3,0.8,2.2c-0.6,0.3-0.9,0.4-1.6,0.6c-0.3-0.9-0.5-1.3-0.8-2.2
				C120.1,250,120.5,249.9,121.1,249.6z M118.8,250.5c0.3,0.9,0.5,1.3,0.8,2.2c-2.4,1-3.6,1.4-6,2.4c-0.3-0.9-0.5-1.3-0.9-2.2
				C115.2,252,116.4,251.5,118.8,250.5z"/>
			<path d="M120.1,253.8c0.4,0.9,0.5,1.4,0.9,2.3c-1.3,1.1-2,1.6-3.3,2.7c1.7-0.2,2.5-0.2,4.2-0.4c0.4,0.9,0.5,1.3,0.9,2.2
				c-2.8,0-4.2,0-6.9,0c-0.3-0.8-0.5-1.2-0.8-2C117.1,256.7,118.1,255.8,120.1,253.8z"/>
			<path d="M122.2,269.1c-0.8-1.8-1.1-2.6-1.9-4.4c-0.3,0.2-0.6,0.4-0.7,0.6c-0.2,0.3-0.2,0.7,0,1c0.1,0.2,0.2,0.4,0.4,0.5
				c0.1,0.1,0.3,0.2,0.5,0.2c0.3,0.9,0.4,1.4,0.7,2.3c-0.7-0.1-1.3-0.3-1.8-0.6c-0.5-0.4-0.9-1-1.2-1.9c-0.3-0.8-0.5-1.4-0.4-1.9
				c0-0.5,0.2-1,0.6-1.5c0.4-0.5,0.9-0.9,1.5-1.2c0.9-0.4,1.8-0.4,2.6-0.1c0.8,0.3,1.4,1,1.8,2c0.3,0.8,0.5,1.5,0.4,2.1
				c-0.1,0.6-0.3,1.1-0.7,1.6c-0.4,0.5-1,0.9-1.7,1.2C122.3,269.1,122.3,269.1,122.2,269.1z M122.3,266.4c0.4-0.2,0.7-0.5,0.8-0.8
				c0.1-0.3,0.1-0.6,0-0.9c-0.1-0.3-0.4-0.6-0.8-0.7c-0.2-0.1-0.5,0-0.9,0.1C121.8,265.1,122,265.6,122.3,266.4z"/>
			<path d="M126.3,268.9c0.4,0.8,0.5,1.2,0.9,2c-0.4,0.2-0.6,0.3-1,0.4c0.5,0,0.9,0.1,1.1,0.2c0.2,0.1,0.4,0.4,0.6,0.7
				c0.1,0.3,0.2,0.7,0.2,1.2c-0.8,0-1.1,0-1.9,0.1c0-0.3,0-0.5-0.1-0.7c-0.1-0.3-0.3-0.5-0.7-0.5c-0.4-0.1-1.1,0.1-2.1,0.5
				c-0.8,0.4-1.2,0.5-2,0.9c-0.4-0.9-0.6-1.3-1-2.2C122.7,270.5,123.9,270,126.3,268.9z"/>
			<path d="M124.2,275.9c0.5,0.8,0.7,1.2,1.2,2.1c-0.2,0.2-0.4,0.4-0.4,0.6c0,0.2,0,0.5,0.1,0.7c0.1,0.3,0.3,0.5,0.5,0.6
				c0.2,0.1,0.3,0.1,0.4,0c0.2-0.1,0.2-0.2,0.3-0.4c0-0.1-0.1-0.5-0.2-1c-0.2-0.8-0.3-1.4-0.3-1.7c0-0.3,0.1-0.7,0.3-1
				c0.2-0.3,0.5-0.6,0.8-0.7c0.4-0.2,0.8-0.2,1.1-0.1c0.4,0.1,0.7,0.3,1,0.6c0.3,0.3,0.6,0.8,0.9,1.4c0.3,0.7,0.5,1.2,0.5,1.6
				c0,0.4,0,0.7-0.1,1c-0.1,0.3-0.3,0.6-0.7,1c-0.5-0.8-0.7-1.2-1.2-1.9c0.2-0.1,0.3-0.3,0.3-0.5c0-0.2,0-0.5-0.1-0.7
				c-0.1-0.2-0.2-0.4-0.4-0.5c-0.1-0.1-0.3-0.1-0.4,0c-0.1,0.1-0.2,0.2-0.2,0.4c0,0.2,0.1,0.5,0.2,1c0.2,0.8,0.4,1.3,0.4,1.8
				c0,0.4-0.1,0.8-0.3,1.1c-0.2,0.3-0.5,0.6-0.8,0.7c-0.3,0.2-0.7,0.2-1.1,0.2c-0.4,0-0.8-0.2-1.2-0.6c-0.4-0.3-0.7-0.9-1.1-1.6
				c-0.5-1-0.7-1.9-0.5-2.4C123.4,276.8,123.7,276.3,124.2,275.9z"/>
			<path d="M134.1,280.3c0.4,0.9,0.6,1.3,1,2.1c-0.6,0.3-0.9,0.4-1.5,0.7c-0.4-0.9-0.6-1.3-1-2.1
				C133.2,280.7,133.5,280.6,134.1,280.3z M131.9,281.4c0.4,0.9,0.6,1.3,1,2.1c-2.3,1.1-3.5,1.7-5.8,2.8c-0.4-0.9-0.6-1.3-1-2.2
				C128.4,283,129.5,282.5,131.9,281.4z"/>
			<path d="M137.1,286.7c-0.9,0.4-1.3,0.6-2.2,1.1c0.2,0.5,0.3,0.7,0.6,1.2c-0.6,0.3-1,0.5-1.6,0.8c-0.2-0.5-0.3-0.7-0.6-1.2
				c-0.8,0.4-1.2,0.6-2.1,1c-0.2,0.1-0.4,0.2-0.5,0.3c-0.1,0.1-0.1,0.3,0,0.5c0.1,0.2,0.2,0.4,0.5,0.6c-0.6,0.4-0.9,0.5-1.5,0.9
				c-0.4-0.5-0.7-0.9-0.9-1.4c-0.3-0.5-0.4-1-0.4-1.3c0-0.3,0.1-0.6,0.4-0.9c0.2-0.3,0.7-0.6,1.3-0.9c0.8-0.4,1.2-0.6,2-1
				c-0.2-0.3-0.2-0.5-0.4-0.8c0.7-0.3,1-0.5,1.6-0.8c0.2,0.3,0.2,0.5,0.4,0.8c0.4-0.2,0.6-0.3,1.1-0.5
				C135.8,285.7,136.2,286,137.1,286.7z"/>
			<path d="M135.8,289.6c0.4,0.9,0.7,1.3,1.1,2.2c-1.3,1.2-2,1.8-3.3,3.1c1.7-0.3,2.6-0.5,4.4-0.9c0.4,0.8,0.6,1.2,1.1,2.1
				c-2.9,0.4-4.4,0.6-7.3,0.9c-0.8,0.1-1.4,0.1-1.8-0.1c-0.5-0.2-1-0.7-1.4-1.4c-0.2-0.3-0.4-0.8-0.6-1.5c0.6-0.4,0.9-0.6,1.5-0.9
				c0.1,0.4,0.2,0.7,0.4,1.1c0.1,0.3,0.3,0.4,0.5,0.5c0.2,0.1,0.5,0.1,0.8,0.1C133.1,292.8,134,291.7,135.8,289.6z"/>
			<path d="M143.8,299.9c1.2,2.3,1.8,3.4,3.1,5.7c-0.7,0.4-1,0.5-1.7,0.9c-0.7-1.4-1.1-2-1.8-3.4c-0.5,0.3-0.8,0.4-1.4,0.7
				c0.6,1.2,0.9,1.7,1.6,2.9c-0.6,0.3-0.9,0.5-1.6,0.9c-0.6-1.2-1-1.7-1.6-2.9c-1.3,0.7-1.9,1-3.2,1.7c-0.5-0.9-0.8-1.4-1.3-2.4
				C139.1,302.4,140.7,301.5,143.8,299.9z"/>
			<path d="M142.3,309.1c0.9-0.5,1.7-0.6,2.6-0.3c0.9,0.3,1.6,0.8,2.1,1.8c0.6,1.1,0.7,2.1,0.4,3c-0.3,0.7-0.8,1.3-1.6,1.8
				c-0.9,0.5-1.7,0.6-2.6,0.4c-0.9-0.2-1.6-0.9-2.1-1.8c-0.5-0.9-0.7-1.7-0.5-2.5C140.8,310.3,141.4,309.6,142.3,309.1z
				 M143.5,311.2c-0.5,0.3-0.8,0.6-1,0.9c-0.1,0.3-0.1,0.6,0.1,0.9c0.2,0.3,0.4,0.5,0.8,0.5c0.3,0.1,0.8-0.1,1.3-0.3
				c0.5-0.3,0.8-0.6,0.9-0.9s0.1-0.6,0-0.9c-0.2-0.3-0.4-0.5-0.8-0.5C144.4,310.8,144,310.9,143.5,311.2z"/>
			<path d="M149.4,315c0.4,0.8,0.7,1.2,1.1,1.9c-0.4,0.2-0.5,0.3-0.9,0.5c0.5,0,0.9,0,1.2,0.1c0.3,0.1,0.5,0.3,0.6,0.6
				c0.2,0.3,0.3,0.7,0.3,1.2c-0.8,0.1-1.1,0.2-1.9,0.2c0-0.3-0.1-0.5-0.2-0.7c-0.2-0.3-0.4-0.4-0.7-0.4c-0.4,0-1.1,0.2-2,0.7
				c-0.8,0.4-1.1,0.6-1.9,1.1c-0.5-0.8-0.7-1.2-1.2-2.1C146.1,317,147.2,316.3,149.4,315z"/>
			<path d="M151.3,325.1c0.6,0.8,0.9,1.2,1.5,2.1c-0.3,0.3-0.6,0.5-0.7,0.8c-0.2,0.4-0.1,0.8,0.2,1.3c0.2,0.3,0.4,0.5,0.7,0.6
				s0.5,0.1,0.7-0.1c0.2-0.1,0.3-0.3,0.4-0.6c0.1-0.3,0-0.7-0.3-1.4c-0.4-1.1-0.5-2-0.4-2.7c0.1-0.7,0.5-1.2,1.1-1.5
				c0.4-0.2,0.8-0.3,1.3-0.3c0.5,0,1,0.2,1.4,0.5c0.5,0.3,0.9,0.8,1.4,1.6c0.6,0.9,0.8,1.7,0.8,2.4c-0.1,0.7-0.5,1.3-1.2,1.9
				c-0.6-0.8-0.9-1.2-1.4-2c0.3-0.3,0.5-0.5,0.5-0.8c0-0.3,0-0.6-0.2-0.9c-0.2-0.3-0.3-0.4-0.5-0.5c-0.2-0.1-0.4,0-0.5,0.1
				c-0.1,0.1-0.2,0.2-0.2,0.4c0,0.2,0,0.5,0.2,0.9c0.4,1.1,0.6,2,0.6,2.5c0,0.6,0,1-0.3,1.4c-0.2,0.4-0.5,0.7-0.9,1
				c-0.5,0.3-1,0.4-1.6,0.4c-0.6,0-1.1-0.2-1.6-0.5c-0.5-0.3-1-0.9-1.4-1.6c-0.8-1.3-1.1-2.3-0.8-3
				C150.1,326.3,150.6,325.6,151.3,325.1z"/>
			<path d="M158.4,337.2c0.4,0.8,0.6,1.2,1,2c-0.5,0.2-1,0.2-1.4,0.2c-0.5,0-0.9-0.2-1.3-0.5c-0.4-0.3-0.8-0.7-1.2-1.3
				c-0.4-0.6-0.6-1.1-0.7-1.5c-0.1-0.4-0.2-0.9-0.1-1.3c0.1-0.4,0.2-0.8,0.5-1.2c0.2-0.4,0.6-0.7,1.2-1c0.6-0.3,1.1-0.5,1.6-0.6
				c0.4,0,0.7,0,1.1,0.1c0.4,0.1,0.7,0.2,0.9,0.4c0.4,0.3,0.8,0.7,1.2,1.3c0.5,0.8,0.8,1.6,0.8,2.2c0,0.6-0.3,1.3-0.8,1.8
				c-0.6-0.7-0.9-1-1.5-1.7c0.2-0.2,0.3-0.4,0.3-0.7c0-0.2-0.1-0.5-0.2-0.7c-0.2-0.3-0.5-0.5-0.9-0.6c-0.4-0.1-0.8,0.1-1.3,0.4
				c-0.4,0.3-0.7,0.6-0.8,0.9c-0.1,0.3-0.1,0.7,0.2,1c0.2,0.3,0.4,0.4,0.6,0.5C157.7,337.3,158,337.3,158.4,337.2z"/>
			<path d="M165.8,336.9c0.5,0.8,0.8,1.2,1.3,2c-0.6,0.4-0.8,0.5-1.4,0.9c-0.5-0.8-0.8-1.2-1.3-2C165,337.5,165.3,337.3,165.8,336.9
				z M163.8,338.2c0.5,0.8,0.8,1.2,1.3,2c-2.2,1.4-3.3,2.1-5.4,3.5c-0.5-0.8-0.8-1.2-1.3-2C160.5,340.3,161.6,339.6,163.8,338.2z"/>
			<path d="M166.8,349.6c-1.1-1.6-1.6-2.4-2.7-3.9c-0.3,0.3-0.5,0.5-0.6,0.7c-0.1,0.3,0,0.7,0.2,1c0.1,0.2,0.3,0.3,0.5,0.5
				c0.1,0.1,0.3,0.1,0.6,0.1c0.5,0.8,0.7,1.2,1.2,2.1c-0.7,0.1-1.4,0-1.9-0.3c-0.5-0.3-1.1-0.8-1.6-1.6c-0.5-0.7-0.7-1.3-0.8-1.8
				c-0.1-0.5,0-1.1,0.3-1.6s0.7-1,1.3-1.4c0.8-0.5,1.7-0.7,2.6-0.6c0.9,0.2,1.6,0.7,2.2,1.6c0.5,0.7,0.8,1.4,0.8,2
				c0.1,0.6-0.1,1.1-0.3,1.6c-0.3,0.5-0.8,1-1.5,1.5C167,349.5,166.9,349.5,166.8,349.6z M166.4,346.9c0.4-0.3,0.6-0.6,0.6-0.9
				c0.1-0.3,0-0.6-0.2-0.8c-0.2-0.3-0.5-0.5-0.9-0.5c-0.2,0-0.5,0.1-0.9,0.2C165.6,345.8,165.9,346.1,166.4,346.9z"/>
			<path d="M170.8,348.6c0.5,0.7,0.8,1.1,1.3,1.8c-0.3,0.2-0.5,0.4-0.9,0.6c0.5,0,1,0.1,1.3,0.3c0.3,0.2,0.7,0.5,0.9,0.9
				c0.4,0.5,0.5,1.1,0.4,1.6c-0.1,0.5-0.5,1-1.2,1.5c-1.3,0.9-2,1.4-3.4,2.3c-0.6-0.8-0.9-1.2-1.4-2c1.2-0.8,1.8-1.2,2.9-2
				c0.3-0.2,0.5-0.4,0.6-0.7c0.1-0.2,0-0.4-0.1-0.6c-0.2-0.2-0.4-0.4-0.7-0.4c-0.3,0-0.7,0.1-1.2,0.5c-1,0.7-1.5,1-2.6,1.7
				c-0.6-0.8-0.8-1.2-1.4-2C167.6,350.8,168.7,350,170.8,348.6z"/>
			<path d="M175.2,361.4c0.5,0.8,0.7,1.2,1.2,2c-0.5,0.2-0.9,0.3-1.4,0.2c-0.5,0-0.9-0.2-1.3-0.4c-0.4-0.2-0.9-0.6-1.3-1.2
				c-0.4-0.5-0.7-1-0.8-1.4c-0.2-0.4-0.2-0.9-0.2-1.3c0-0.4,0.2-0.8,0.4-1.2c0.2-0.4,0.6-0.7,1.1-1.1c0.5-0.4,1.1-0.6,1.6-0.7
				c0.4-0.1,0.7,0,1.1,0c0.4,0.1,0.7,0.2,1,0.4c0.4,0.3,0.9,0.7,1.3,1.3c0.6,0.8,0.9,1.5,0.9,2.2c0,0.6-0.2,1.3-0.7,1.9
				c-0.6-0.6-1-1-1.6-1.6c0.2-0.2,0.3-0.4,0.3-0.7c0-0.2-0.1-0.5-0.3-0.7c-0.2-0.3-0.5-0.5-0.9-0.5c-0.4,0-0.8,0.1-1.3,0.5
				c-0.4,0.3-0.7,0.6-0.8,1c-0.1,0.4,0,0.7,0.2,1c0.2,0.3,0.4,0.4,0.7,0.5C174.6,361.5,174.9,361.5,175.2,361.4z"/>
			<path d="M181.8,369.8c-1.2-1.5-1.8-2.3-2.9-3.8c-0.3,0.3-0.5,0.5-0.5,0.8c-0.1,0.3,0,0.7,0.2,1c0.1,0.2,0.3,0.3,0.6,0.4
				c0.1,0.1,0.3,0.1,0.6,0.1c0.5,0.8,0.8,1.2,1.3,2c-0.7,0.1-1.4,0-1.9-0.2c-0.5-0.2-1.1-0.7-1.7-1.5c-0.5-0.7-0.8-1.3-0.9-1.8
				c-0.1-0.5,0-1.1,0.2-1.6c0.2-0.6,0.6-1,1.2-1.5c0.8-0.6,1.7-0.8,2.5-0.7c0.9,0.1,1.7,0.6,2.3,1.5c0.5,0.7,0.9,1.3,1,1.9
				c0.1,0.6,0,1.1-0.3,1.6c-0.3,0.5-0.7,1-1.4,1.5C181.9,369.7,181.9,369.7,181.8,369.8z M181.2,367.2c0.4-0.3,0.6-0.6,0.6-0.9
				c0-0.3,0-0.6-0.2-0.8c-0.2-0.3-0.5-0.4-0.9-0.4c-0.2,0-0.5,0.1-0.9,0.3C180.4,366.1,180.7,366.4,181.2,367.2z"/>
			<path d="M181.8,371.1c0.7,0.7,1,1,1.7,1.7c-0.2,0.3-0.3,0.5-0.2,0.7c0,0.2,0.1,0.4,0.3,0.7c0.2,0.3,0.4,0.4,0.6,0.5
				c0.2,0,0.3,0,0.4-0.1c0.1-0.1,0.2-0.3,0.2-0.5c0-0.1-0.2-0.5-0.4-1c-0.4-0.7-0.7-1.3-0.8-1.6c-0.1-0.3-0.1-0.7,0-1
				c0.1-0.4,0.3-0.6,0.6-0.9c0.3-0.3,0.7-0.4,1.1-0.4c0.4,0,0.8,0.1,1.2,0.4c0.4,0.2,0.8,0.6,1.2,1.2c0.5,0.6,0.8,1,0.9,1.4
				c0.1,0.3,0.2,0.7,0.1,1c0,0.3-0.2,0.7-0.4,1.1c-0.6-0.6-1-1-1.6-1.6c0.1-0.2,0.2-0.3,0.2-0.5c0-0.2-0.1-0.4-0.3-0.6
				c-0.2-0.2-0.3-0.3-0.5-0.4c-0.2,0-0.3,0-0.4,0.1c-0.1,0.1-0.2,0.2-0.1,0.4c0,0.2,0.2,0.5,0.5,0.9c0.4,0.7,0.7,1.2,0.8,1.6
				c0.1,0.4,0.1,0.8,0,1.1c-0.1,0.3-0.3,0.6-0.6,0.9c-0.3,0.2-0.7,0.4-1.1,0.4c-0.4,0-0.9-0.1-1.3-0.3c-0.5-0.2-0.9-0.7-1.5-1.3
				c-0.7-0.9-1.1-1.6-1.1-2.2C181.2,372.1,181.4,371.6,181.8,371.1z"/>
			<path d="M187.4,377.1c0.7,0.8,1,1.2,1.6,2c-0.8,0.6-1.2,0.9-2,1.5c-0.7-0.8-1-1.2-1.6-2C186.3,378,186.7,377.7,187.4,377.1z"/>
			<path d="M199.1,387.9c0.4,0.7,0.5,1,0.9,1.7c-0.3,0.2-0.6,0.3-0.8,0.3c-0.2,0.1-0.5,0.1-0.8,0.2c0,0.4,0.1,0.6,0.1,1.1
				c0,0.1,0,0.3,0.1,0.5c-0.8,0-1.2,0-2,0c-0.1-0.3-0.1-0.5-0.1-0.8c0-0.3,0-0.7-0.1-0.8c-0.2-0.2-0.9-0.3-1.3-0.6
				c-0.5-0.3-1-0.8-1.5-1.3c-0.8-0.9-1.1-1.7-1.1-2.4c0-0.7,0.3-1.3,0.9-1.8c0.4-0.3,0.9-0.5,1.4-0.5c0.6,0,1.9,0.6,1.9,0.5
				c0.1,0,0.2-0.9,0.4-1.1c0.1-0.3,0.3-0.5,0.6-0.7c0.5-0.4,1-0.5,1.7-0.4c0.6,0.1,1.2,0.5,1.9,1.2c0.6,0.7,0.9,1.4,0.9,2
				c0,0.6-0.2,1-0.6,1.4c-0.2,0.2-0.5,0.3-0.8,0.4c-0.3,0.1-0.6,0.1-0.9,0c-0.3,0-1.2-0.4-1.3-0.3c-0.1,0.1-0.1,1.7-0.1,1.8
				C198.3,388.2,198.8,388,199.1,387.9z M196.2,385.6c-0.1-0.1-0.7-0.1-0.9-0.1c-0.2,0-0.4,0.1-0.5,0.2c-0.2,0.2-0.4,0.4-0.4,0.8
				c0,0.3,0.1,0.7,0.4,1c0.3,0.3,1.3,0.8,1.4,0.8C196.2,388.1,196.4,385.9,196.2,385.6z M198.5,384.9c0.1,0.1,0.6,0.2,0.9,0.2
				c0.3,0,0.5-0.1,0.6-0.2c0.1-0.1,0.2-0.3,0.2-0.5c0-0.2-0.1-0.4-0.2-0.6c-0.2-0.2-0.3-0.3-0.6-0.3c-0.2,0-0.4,0-0.6,0.1
				C198.7,383.9,198.3,384.7,198.5,384.9z"/>
			<path d="M207.9,391c2.2,2.4,3.3,3.6,5.5,5.9c-0.7,0.6-1,0.9-1.7,1.4c-0.7-0.8-1.1-1.2-1.9-2c-2,1.7-3,2.6-5.1,4.3
				c-0.7-0.8-1.1-1.2-1.8-2c2-1.7,3.1-2.6,5.1-4.3c-0.7-0.8-1.1-1.2-1.8-2C206.9,391.8,207.2,391.6,207.9,391z"/>
			<path d="M214,406.6c-1.4-1.4-2-2.1-3.4-3.5c-0.3,0.3-0.4,0.6-0.4,0.8c0,0.4,0.1,0.7,0.3,0.9c0.2,0.2,0.4,0.3,0.6,0.4
				c0.1,0,0.3,0.1,0.6,0c0.6,0.7,0.9,1.1,1.5,1.9c-0.7,0.2-1.4,0.2-2,0c-0.6-0.2-1.2-0.6-1.9-1.3c-0.6-0.6-0.9-1.2-1.1-1.7
				c-0.2-0.5-0.1-1,0-1.6c0.2-0.6,0.5-1.1,1.1-1.6c0.8-0.7,1.6-1,2.5-0.9c0.9,0,1.7,0.5,2.5,1.3c0.6,0.6,1,1.2,1.2,1.8
				c0.2,0.6,0.1,1.1-0.1,1.7c-0.2,0.5-0.6,1.1-1.3,1.7C214.1,406.5,214.1,406.5,214,406.6z M213.2,404c0.3-0.3,0.5-0.7,0.5-0.9
				c0-0.3-0.1-0.5-0.3-0.8c-0.3-0.3-0.6-0.4-1-0.4c-0.2,0-0.5,0.1-0.8,0.4C212.2,403,212.5,403.4,213.2,404z"/>
			<path d="M218.3,411c0.6,0.7,0.9,1.1,1.4,1.8c-0.4,0.2-0.9,0.4-1.4,0.4c-0.5,0-0.9,0-1.4-0.2c-0.5-0.2-0.9-0.5-1.4-1
				c-0.5-0.5-0.8-0.9-1-1.3c-0.2-0.4-0.3-0.8-0.4-1.2c0-0.4,0.1-0.8,0.2-1.2c0.2-0.4,0.5-0.8,0.9-1.2c0.5-0.4,1-0.7,1.5-0.9
				c0.4-0.1,0.7-0.1,1.1-0.1c0.4,0,0.7,0.1,1,0.2c0.5,0.2,1,0.6,1.5,1.1c0.7,0.7,1.1,1.4,1.2,2c0.1,0.6,0,1.3-0.4,1.9
				c-0.7-0.6-1.1-0.8-1.8-1.4c0.2-0.2,0.2-0.5,0.2-0.7c0-0.2-0.2-0.5-0.4-0.7c-0.3-0.3-0.6-0.4-1-0.4s-0.8,0.2-1.2,0.6
				c-0.4,0.4-0.6,0.7-0.6,1.1c0,0.4,0.1,0.7,0.4,0.9c0.2,0.2,0.5,0.4,0.7,0.4C217.6,411.3,217.9,411.2,218.3,411z"/>
			<path d="M225.5,409.3c0.7,0.7,1,1,1.7,1.7c-1,0.9-1.4,1.3-2.4,2.2c0.5,0,0.9,0.1,1.2,0.2c0.3,0.1,0.7,0.3,1,0.6
				c0.5,0.5,0.7,1,0.7,1.5c0,0.5-0.3,1.1-0.9,1.7c-1.2,1.1-1.8,1.7-3,2.8c-0.7-0.7-1.1-1-1.8-1.7c1-1,1.5-1.4,2.6-2.4
				c0.3-0.3,0.4-0.5,0.5-0.7c0-0.2-0.1-0.4-0.3-0.6c-0.2-0.2-0.5-0.3-0.8-0.3c-0.3,0-0.7,0.2-1.1,0.6c-0.9,0.8-1.3,1.3-2.2,2.1
				c-0.7-0.7-1-1-1.7-1.7C221.6,412.9,222.9,411.7,225.5,409.3z"/>
			<path d="M229.7,416.8c0.7,0.6,1,0.9,1.6,1.5c-0.3,0.3-0.4,0.4-0.7,0.7c0.6-0.1,1,0,1.4,0.1c0.4,0.1,0.8,0.3,1.1,0.7
				c0.5,0.5,0.7,1,0.7,1.5c0,0.5-0.3,1.1-0.9,1.7c-1.2,1.1-1.7,1.7-2.9,2.9c-0.7-0.7-1.1-1-1.8-1.7c1-1,1.5-1.5,2.5-2.5
				c0.3-0.3,0.4-0.5,0.4-0.7c0-0.2-0.1-0.4-0.3-0.6c-0.2-0.2-0.5-0.3-0.8-0.3c-0.3,0-0.7,0.2-1.1,0.7c-0.9,0.9-1.3,1.3-2.2,2.1
				c-0.7-0.7-1.1-1-1.8-1.7C227,419.4,227.9,418.6,229.7,416.8z"/>
			<path d="M233.4,424.6c0.7-0.7,1.5-1,2.4-1c0.9,0,1.8,0.4,2.6,1.1c0.9,0.8,1.4,1.7,1.4,2.7c0,0.8-0.4,1.5-1,2.1
				c-0.7,0.7-1.5,1.1-2.4,1.1c-0.9,0-1.8-0.4-2.7-1.1c-0.8-0.7-1.2-1.4-1.3-2.2C232.4,426.2,232.7,425.3,233.4,424.6z M235.3,426.3
				c-0.4,0.4-0.6,0.8-0.6,1.1c0,0.3,0.1,0.6,0.4,0.9c0.3,0.2,0.6,0.3,0.9,0.3c0.4,0,0.7-0.3,1.2-0.7c0.4-0.4,0.6-0.8,0.6-1.1
				c0-0.3-0.1-0.6-0.3-0.9c-0.3-0.2-0.6-0.3-0.9-0.3C236,425.6,235.7,425.9,235.3,426.3z"/>
		</g>
	</g>
</g>
</svg>
