<?xml version="1.0" encoding="UTF-8"?>
<svg version="1.1" xmlns="http://www.w3.org/2000/svg" width="176" height="148">
<path d="M0 0 C58.08 0 116.16 0 176 0 C176 48.84 176 97.68 176 148 C117.92 148 59.84 148 0 148 C0 99.16 0 50.32 0 0 Z " fill="#E5CA06" transform="translate(0,0)"/>
<path d="M0 0 C58.08 0 116.16 0 176 0 C176 48.84 176 97.68 176 148 C117.92 148 59.84 148 0 148 C0 99.16 0 50.32 0 0 Z M66 11 C65.34 11.66 64.68 12.32 64 13 C63.505 11.515 63.505 11.515 63 10 C58.17391028 10.74247534 54.38978244 13.61021756 51 17 C50.53837573 19.43252661 50.53837573 19.43252661 50.375 22.125 C50.30023438 23.03507812 50.22546875 23.94515625 50.1484375 24.8828125 C50.09945312 25.58148437 50.05046875 26.28015625 50 27 C51.32 27.66 52.64 28.32 54 29 C51.03 29.66 48.06 30.32 45 31 C45 27.37 45 23.74 45 20 C40.90844727 22.04577636 38.27507283 24.06566353 36 28 C35.3215055 30.73364452 35.14663592 33.16503886 35 36 C34.67 35.01 34.34 34.02 34 33 C33.34 33 32.68 33 32 33 C28.86443984 36.57263824 26.66327521 40.37777405 26.5625 45.1875 C26.94867252 48.5527177 27.49575302 50.99150603 29 54 C31.64 54 34.28 54 37 54 C32.25 58.875 32.25 58.875 30 60 C29.731875 59.278125 29.46375 58.55625 29.1875 57.8125 C28.01017502 55.02409874 26.60854116 52.55904276 25 50 C24.01 50.495 24.01 50.495 23 51 C22.22747704 59.20656297 22.22747704 59.20656297 24.9375 66.6875 C26.43755311 68.3732151 26.43755311 68.3732151 28 70 C28.23287008 71.68183948 28.41264166 73.3712416 28.5625 75.0625 C28.64628906 75.98160156 28.73007812 76.90070313 28.81640625 77.84765625 C28.87699219 78.55792969 28.93757813 79.26820312 29 80 C26.36 80 23.72 80 21 80 C20.01160771 90.62521707 24.80890288 102.5027192 31 111 C32.91915078 112.42445884 32.91915078 112.42445884 35 113 C37.7193293 112.21297649 37.7193293 112.21297649 40 111 C42.0625 113.25 42.0625 113.25 44 116 C43.75 118.0625 43.75 118.0625 43 120 C43 121.32 43 122.64 43 124 C49.19164634 130.02398087 57.05581663 133.84023624 65 137 C66.03125 137.433125 67.0625 137.86625 68.125 138.3125 C72.10355792 139.26389428 75.93013706 139.16279452 80 139 C80 137.02 80 135.04 80 133 C83.3 133.33 86.6 133.66 90 134 C90.33 135.98 90.66 137.96 91 140 C106.87367536 139.71422188 118.25923307 133.76763422 131 125 C130.01 123.02 129.02 121.04 128 119 C129.65 117.35 131.3 115.7 133 114 C133.5775 114.350625 134.155 114.70125 134.75 115.0625 C136.89090437 116.14982447 136.89090437 116.14982447 138.921875 115.875 C143.49755566 113.94839762 145.60547359 108.12328496 148 104 C148.40734375 103.36964844 148.8146875 102.73929687 149.234375 102.08984375 C153.29894491 95.22697379 153.83640493 86.75730044 155 79 C152.36 79 149.72 79 147 79 C147.12102207 74.14811521 147.27875222 70.43505396 150.5625 66.6875 C153.85815097 62.64889881 153.47832621 58.60152876 153.37109375 53.57421875 C153.23924932 50.83992934 153.23924932 50.83992934 151 49 C150.34 50.65 149.68 52.3 149 54 C148.34 54 147.68 54 147 54 C147.165 53.360625 147.33 52.72125 147.5 52.0625 C148.48541907 46.02680822 149.22314713 41.12256083 145.5 35.9375 C144.675 34.968125 143.85 33.99875 143 33 C141.06201737 35.77260299 141.06201737 35.77260299 140 38 C140.00902344 37.3709375 140.01804687 36.741875 140.02734375 36.09375 C139.76965733 28.65445499 137.37332169 25.02258268 132 20 C129.78629949 21.78657757 129.78629949 21.78657757 129.8046875 24.1640625 C129.82789063 24.97617187 129.85109375 25.78828125 129.875 26.625 C129.89304687 27.44226563 129.91109375 28.25953125 129.9296875 29.1015625 C129.95289063 29.72804688 129.97609375 30.35453125 130 31 C128.02 30.34 126.04 29.68 124 29 C124.495 28.505 124.495 28.505 125 28 C125.4348833 21.18097392 125.4348833 21.18097392 123 15 C118.43768521 11.36712554 118.43768521 11.36712554 113 10 C113.495 13.465 113.495 13.465 114 17 C113.34 17 112.68 17 112 17 C111.773125 16.278125 111.54625 15.55625 111.3125 14.8125 C109.66099387 11.2735583 108.11841749 9.37270896 105 7 C102.19364348 6.58347213 99.85932786 6.75768408 97 7 C97 7.99 97 8.98 97 10 C92.05 10 87.1 10 82 10 C82 11.98 82 13.96 82 16 C77.25 17.125 77.25 17.125 75 16 C76.19899698 12.9168649 77.47700477 9.93720508 79 7 C73.09798209 6.59986319 70.37333604 6.62666396 66 11 Z " fill="#FDFDFD" transform="translate(0,0)"/>
<path d="M0 0 C-1.04166667 1.7578125 -2.08333333 3.515625 -3.125 5.2734375 C-4.15068348 6.97472667 -4.15068348 6.97472667 -4 9 C-3.01 9 -2.02 9 -1 9 C0.32 9 1.64 9 3 9 C3 7.02 3 5.04 3 3 C7.95 3 12.9 3 18 3 C18 2.01 18 1.02 18 0 C21.08880245 -0.43351613 23.01851779 -0.69481499 26 0 C28.8254809 2.31319745 31.02741492 4.93016447 33 8 C33 8.66 33 9.32 33 10 C33.66 10 34.32 10 35 10 C34.505 6.535 34.505 6.535 34 3 C38.48837049 4.25256851 41.63836665 5.73441332 45 9 C46.67715874 12.6123419 46.12778364 17.10259895 46 21 C45.505 21.495 45.505 21.495 45 22 C46.98 22.66 48.96 23.32 51 24 C50.97679687 23.37351562 50.95359375 22.74703125 50.9296875 22.1015625 C50.91164063 21.28429687 50.89359375 20.46703125 50.875 19.625 C50.85179687 18.81289063 50.82859375 18.00078125 50.8046875 17.1640625 C51 15 51 15 53 13 C58.37332169 18.02258268 60.76965733 21.65445499 61.02734375 29.09375 C61.01832031 29.7228125 61.00929688 30.351875 61 31 C61.99 28.525 61.99 28.525 63 26 C68.85156195 31.65650989 68.85156195 31.65650989 69.23046875 35.0859375 C69.1537863 39.17102052 69.02788733 43.0169366 68 47 C68.66 47 69.32 47 70 47 C70.66 45.35 71.32 43.7 72 42 C74.63827703 44.63827703 74.35901928 46.00813914 74.4375 49.6875 C74.37512256 54.92720468 73.57205953 57.39410438 70.1796875 61.265625 C68.00535225 64.4623298 68.09405334 68.22931605 68 72 C70.64 72 73.28 72 76 72 C74.31842425 86.31091029 70.40476957 97.80685143 61 109 C60.4225 108.835 59.845 108.67 59.25 108.5 C56.73335631 107.85537969 56.73335631 107.85537969 53 108 C50.73122465 110.41880929 50.73122465 110.41880929 49 113 C49.99 114.65 50.98 116.3 52 118 C39.25923307 126.76763422 27.87367536 132.71422188 12 133 C11.67 131.02 11.34 129.04 11 127 C7.7 126.67 4.4 126.34 1 126 C1 127.98 1 129.96 1 132 C-10.22596297 132.95135279 -19.39159588 128.29699212 -28.6875 122.4375 C-29.28780029 122.06181885 -29.88810059 121.6861377 -30.5065918 121.29907227 C-33.6403068 119.23388492 -35.73581757 117.5968029 -37 114 C-36.01 113.01 -36.01 113.01 -35 112 C-35.33693943 108.63060567 -36.88819408 106.57089417 -39 104 C-42.465 104.99 -42.465 104.99 -46 106 C-53.06887286 96.24495545 -58.50221455 85.30425641 -58 73 C-55.36 73 -52.72 73 -50 73 C-50.24047662 66.80772708 -50.41562052 62.58437948 -55 58 C-56.38226016 55.23547967 -56.09525387 52.9538637 -56.0625 49.875 C-56.05347656 48.77929688 -56.04445313 47.68359375 -56.03515625 46.5546875 C-56.02355469 45.71164063 -56.01195313 44.86859375 -56 44 C-55.01 44 -54.02 44 -53 44 C-49 50.75 -49 50.75 -49 53 C-44.85329961 50.62370911 -44.85329961 50.62370911 -42 47 C-44.64 47 -47.28 47 -50 47 C-52.11501874 42.76996251 -52.85940965 38.6544265 -52 34 C-50.6613109 31.07877138 -49.12419297 28.4202926 -47 26 C-46.34 26 -45.68 26 -45 26 C-44.67 26.99 -44.34 27.98 -44 29 C-43.979375 27.845 -43.95875 26.69 -43.9375 25.5 C-43.29655035 20.06163931 -40.0390482 16.50734901 -36 13 C-35.34 13 -34.68 13 -34 13 C-34 16.63 -34 20.26 -34 24 C-31.03 23.34 -28.06 22.68 -25 22 C-26.32 21.34 -27.64 20.68 -29 20 C-28.96610349 11.27164827 -28.96610349 11.27164827 -26.703125 8.29296875 C-25.125 7 -25.125 7 -22 5 C-21.01 4.34 -20.02 3.68 -19 3 C-16 4 -16 4 -15 6 C-14.38125 5.3503125 -14.38125 5.3503125 -13.75 4.6875 C-9.07692435 0.18131991 -6.45118631 -0.67907224 0 0 Z M-28.125 36.41796875 C-29.933464 38.86952879 -31.48053351 41.36113932 -33 44 C-33.5053125 44.74894531 -34.010625 45.49789062 -34.53125 46.26953125 C-39.90784491 55.51428751 -39.60442938 67.68939244 -38 78 C-34.36647666 90.57570243 -26.19423398 100.45049399 -15 107 C-2.40828199 113.54021883 9.05844206 115.18810556 22.9375 111.375 C28.61797217 109.38542868 33.25708306 106.66850106 38 103 C39.010625 102.29875 40.02125 101.5975 41.0625 100.875 C48.58147653 94.3641544 54.17468543 84.27660253 55.29711914 74.38037109 C55.43656534 71.60092648 55.45874171 68.84516395 55.4375 66.0625 C55.45748047 65.13759766 55.47746094 64.21269531 55.49804688 63.25976562 C55.48988038 51.60618059 50.52522587 42.68397746 43 34 C32.03769599 23.66903287 18.5911049 19.18430328 3.578125 19.59765625 C-8.85940774 20.99619978 -19.87836289 27.03438718 -28.125 36.41796875 Z " fill="#E9ECEA" transform="translate(79,7)"/>
<path d="M0 0 C2.63827703 2.63827703 2.35901928 4.00813914 2.4375 7.6875 C2.37512256 12.92720468 1.57205953 15.39410438 -1.8203125 19.265625 C-3.99464775 22.4623298 -3.90594666 26.22931605 -4 30 C-1.36 30 1.28 30 4 30 C2.31842425 44.31091029 -1.59523043 55.80685143 -11 67 C-11.5775 66.835 -12.155 66.67 -12.75 66.5 C-15.26664369 65.85537969 -15.26664369 65.85537969 -19 66 C-21.26877535 68.41880929 -21.26877535 68.41880929 -23 71 C-22.01 72.65 -21.02 74.3 -20 76 C-32.74076693 84.76763422 -44.12632464 90.71422188 -60 91 C-60.33 89.02 -60.66 87.04 -61 85 C-64.3 84.67 -67.6 84.34 -71 84 C-71 85.98 -71 87.96 -71 90 C-82.22596297 90.95135279 -91.39159588 86.29699212 -100.6875 80.4375 C-101.28780029 80.06181885 -101.88810059 79.6861377 -102.5065918 79.29907227 C-105.6403068 77.23388492 -107.73581757 75.5968029 -109 72 C-108.01 71.01 -108.01 71.01 -107 70 C-107.33693943 66.63060567 -108.88819408 64.57089417 -111 62 C-113.31 62.66 -115.62 63.32 -118 64 C-125.06887286 54.24495545 -130.50221455 43.30425641 -130 31 C-127.36 31 -124.72 31 -122 31 C-122.24047662 24.80772708 -122.41562052 20.58437948 -127 16 C-128.38226016 13.23547967 -128.09525387 10.9538637 -128.0625 7.875 C-128.05347656 6.77929688 -128.04445312 5.68359375 -128.03515625 4.5546875 C-128.02355469 3.71164063 -128.01195312 2.86859375 -128 2 C-127.01 2 -126.02 2 -125 2 C-121 8.75 -121 8.75 -121 11 C-117.37 8.36 -113.74 5.72 -110 3 C-108.43707941 7.68876177 -109.94402215 11.60517486 -112 16 C-113.72341358 17.70391795 -115.52848456 19.05428974 -117.48046875 20.484375 C-120.23647203 23.23329344 -119.93533195 26.24925297 -120 30 C-117.69 30 -115.38 30 -113 30 C-112.85304688 30.81791016 -112.85304688 30.81791016 -112.703125 31.65234375 C-110.01320391 45.21789408 -103.28077996 56.80677296 -92 65 C-78.9684278 72.83631875 -64.71852044 75.47050397 -49.69921875 71.9453125 C-36.70168202 67.39335318 -26.24248886 60.02684531 -19.3203125 47.94140625 C-16.7468546 42.20822932 -15.38511434 36.11079854 -14 30 C-11.36 30 -8.72 30 -6 30 C-6.13293183 25.92142614 -6.13293183 25.92142614 -7 22 C-9.85251385 19.82053354 -9.85251385 19.82053354 -13 18 C-16.00675169 13.43803193 -16.54105269 9.32378883 -17 4 C-13.00499382 5.3697164 -10.19990508 7.25722422 -7 10 C-4.3513141 6.80331012 -2.06007659 3.60513403 0 0 Z " fill="#231F20" transform="translate(151,49)"/>
<path d="M0 0 C6.38449523 5.99505282 9.78532201 11.1208533 10.25756836 19.99633789 C10.45818468 29.80613578 8.08191979 36.75797498 1.55078125 44.109375 C-5.54168468 50.54738592 -13.47049309 51.98551427 -22.859375 51.6796875 C-30.46981301 50.68360262 -36.67156621 46.88066079 -41.7890625 41.21875 C-47.95213478 32.91413271 -48.60043785 23.20268334 -47.26171875 13.234375 C-44.48826358 6.0274404 -37.88458477 -0.2070031 -31.1796875 -3.91796875 C-21.22749518 -8.31639183 -8.45765649 -6.60252286 0 0 Z " fill="#CE1B20" transform="translate(106.26171875,50.765625)"/>
<path d="M0 0 C0 3.63 0 7.26 0 11 C2.16949219 10.566875 2.16949219 10.566875 4.3828125 10.125 C6.29681717 9.74970497 8.21088292 9.37472133 10.125 9 C11.07632813 8.80921875 12.02765625 8.6184375 13.0078125 8.421875 C17.73638116 7.50243109 22.15562735 6.7390237 27 7 C27 6.34 27 5.68 27 5 C33.43311296 4.90492937 39.65758005 4.84683274 46 6 C46 6.33 46 6.66 46 7 C44.44152344 7.14695312 44.44152344 7.14695312 42.8515625 7.296875 C28.74643214 8.75059294 16.70585851 12.24927932 6.92578125 23.35546875 C5.11248064 25.82958173 3.54158394 28.34927645 2 31 C1.49339844 31.75023438 0.98679687 32.50046875 0.46484375 33.2734375 C-4.90262989 42.51326677 -4.6143427 54.69674756 -3 65 C-0.73206382 72.77748529 3.2256303 79.34267834 9 85 C9 85.66 9 86.32 9 87 C9.56589844 87.27070312 10.13179687 87.54140625 10.71484375 87.8203125 C13.09440593 89.04873605 15.30320036 90.43827898 17.5625 91.875 C29.19962784 98.78613269 40.32098651 100.87064539 53.59765625 98.3046875 C60.59098791 96.3580057 66.29359283 93.4581306 72 89 C73.2375 88.07767578 73.2375 88.07767578 74.5 87.13671875 C84.04634842 78.97757409 87.11626945 67.70129126 90 56 C91.32 56 92.64 56 94 56 C94.495 55.01 94.495 55.01 95 54 C95 54.99 95 55.98 95 57 C96.32 57 97.64 57 99 57 C99 57.66 99 58.32 99 59 C96.69 59 94.38 59 92 59 C91.9175 60.093125 91.835 61.18625 91.75 62.3125 C90.05948446 75.24265938 83.4102369 84.7399046 73.65625 93.07421875 C66.50578493 98.25830592 58.01514507 103.06450909 49 103 C47.91847656 103.03609375 46.83695312 103.0721875 45.72265625 103.109375 C30.97628633 103.4241321 19.57860478 100.14103897 8.1875 90.3125 C0.11631588 82.5557776 -6.58415063 72.9011381 -7.1875 61.4375 C-7.125625 60.633125 -7.06375 59.82875 -7 59 C-9.31 59 -11.62 59 -14 59 C-14.6157346 53.89819905 -14.6157346 53.89819905 -14 51 C-12.546875 49.5546875 -12.546875 49.5546875 -10.6875 48.25 C-5.50707561 44.49576532 -5.02116095 39.01026159 -4 33 C-4.57234375 33.33773437 -5.1446875 33.67546875 -5.734375 34.0234375 C-9.35670217 35.58478542 -12.16302825 34.63949529 -16 34 C-18.11501874 29.76996251 -18.85940965 25.6544265 -18 21 C-16.6613109 18.07877138 -15.12419297 15.4202926 -13 13 C-12.34 13 -11.68 13 -11 13 C-10.67 13.99 -10.34 14.98 -10 16 C-9.979375 14.845 -9.95875 13.69 -9.9375 12.5 C-9.37750164 7.74849879 -5.4025711 0 0 0 Z " fill="#EDEFED" transform="translate(45,20)"/>
<path d="M0 0 C4.80382061 4.40567216 6.11884958 9.89485413 6.43359375 16.20703125 C6.45755526 18.07536764 6.45818135 19.94412442 6.4375 21.8125 C6.42775146 22.79009277 6.41800293 23.76768555 6.40795898 24.77490234 C6.08716999 37.80002307 1.65627919 46.24383055 -7 56 C-9.51416549 58.31470217 -12.09847634 60.20381869 -15 62 C-16.093125 62.721875 -17.18625 63.44375 -18.3125 64.1875 C-27.99760976 69.37750277 -40.28143861 71.11116446 -51.02050781 68.51074219 C-64.61569551 64.32195463 -74.49845483 57.10892435 -82 45 C-82.52980469 44.2265625 -83.05960938 43.453125 -83.60546875 42.65625 C-89.07181615 33.22412115 -87.43099193 21.52018156 -87 11 C-86.34 10.67 -85.68 10.34 -85 10 C-84.67 17.26 -84.34 24.52 -84 32 C-83.34 32 -82.68 32 -82 32 C-82.33 31.01 -82.66 30.02 -83 29 C-80.36 29 -77.72 29 -75 29 C-75.33 30.32 -75.66 31.64 -76 33 C-75.38125 33.04125 -74.7625 33.0825 -74.125 33.125 C-72 34 -72 34 -70.625 36.875 C-70.41875 37.90625 -70.2125 38.9375 -70 40 C-70.66 40.99 -71.32 41.98 -72 43 C-71.46375 42.731875 -70.9275 42.46375 -70.375 42.1875 C-67.42717399 41.95477689 -66.95188505 42.5799856 -64.75 44.4375 C-63.38875 45.7059375 -63.38875 45.7059375 -62 47 C-62.33 48.65 -62.66 50.3 -63 52 C-62.34 52 -61.68 52 -61 52 C-60.67 51.01 -60.34 50.02 -60 49 C-60 50.32 -60 51.64 -60 53 C-60.66 53 -61.32 53 -62 53 C-62 53.99 -62 54.98 -62 56 C-61.34 56 -60.68 56 -60 56 C-59.67 55.01 -59.34 54.02 -59 53 C-57.515 53.495 -57.515 53.495 -56 54 C-56 55.32 -56 56.64 -56 58 C-55.34 58 -54.68 58 -54 58 C-53.67 56.35 -53.34 54.7 -53 53 C-52.05125 53.04125 -51.1025 53.0825 -50.125 53.125 C-46.89755144 53.34973818 -46.89755144 53.34973818 -45 51 C-42.6171875 50.8046875 -42.6171875 50.8046875 -39.875 50.875 C-38.96492188 50.89304688 -38.05484375 50.91109375 -37.1171875 50.9296875 C-36.41851562 50.95289063 -35.71984375 50.97609375 -35 51 C-34.15937603 54.09773244 -33.91064799 56.78332751 -34 60 C-30.30581799 61.231394 -27.7943739 60.64432764 -24 60 C-24.49831724 56.31245243 -25.10067643 54.39509338 -28 52 C-21.84765625 52.5859375 -21.84765625 52.5859375 -20 53 C-19.67 53.66 -19.34 54.32 -19 55 C-17.35 54.67 -15.7 54.34 -14 54 C-13.21717352 52.20800528 -13.21717352 52.20800528 -13 50 C-14.3516367 47.75244247 -14.3516367 47.75244247 -16 46 C-14.68 45.34 -13.36 44.68 -12 44 C-11.34 44.99 -10.68 45.98 -10 47 C-9.01879536 43.94736336 -9.01879536 42.05263664 -10 39 C-8.29159719 40.63412443 -7.06546953 41.86906094 -6 44 C-5.23043864 41.65466049 -5.23043864 41.65466049 -5 39 C-6.33378575 37.1645201 -6.33378575 37.1645201 -8 36 C-5.0625 36.75 -5.0625 36.75 -2 38 C-1.125 40.125 -1.125 40.125 -1 42 C3.84198111 36.49774873 4.38777824 29.77324015 4.375 22.75 C4.37628906 22.00927246 4.37757813 21.26854492 4.37890625 20.50537109 C4.27160265 14.89266105 3.17503537 10.26066961 0.875 5.1015625 C0 3 0 3 0 0 Z " fill="#CDB60A" transform="translate(128,51)"/>
<path d="M0 0 C2.25 0.0625 2.25 0.0625 5 1 C6.67849824 3.2308475 7.75999263 5.47405906 9 8 C9.53625 7.67 10.0725 7.34 10.625 7 C13.5391061 5.77300796 15.86867708 5.85766714 19 6 C18.85892253 7.45880109 18.71197585 8.91703551 18.5625 10.375 C18.48128906 11.18710937 18.40007812 11.99921875 18.31640625 12.8359375 C18 15 18 15 17 17 C19.08428209 19.08428209 22.31794565 19.87841364 25 21 C24.9375 23.25 24.9375 23.25 24 26 C21.7691525 27.67849824 19.52594094 28.75999263 17 30 C17.350625 30.721875 17.70125 31.44375 18.0625 32.1875 C19.10409017 35.3122705 18.89096572 36.88161996 18 40 C14.7 39.67 11.4 39.34 8 39 C7.608125 39.969375 7.21625 40.93875 6.8125 41.9375 C5 45 5 45 2.3125 45.875 C1.549375 45.91625 0.78625 45.9575 0 46 C-1.32 43.03 -2.64 40.06 -4 37 C-4.886875 37.495 -5.77375 37.99 -6.6875 38.5 C-9.87586238 39.94378674 -11.58187546 40.30159922 -15 40 C-15.2954439 34.97745369 -14.98514628 32.10457614 -12 28 C-12.928125 27.87625 -13.85625 27.7525 -14.8125 27.625 C-18 27 -18 27 -21 25 C-20.875 22.6875 -20.875 22.6875 -20 20 C-16.9375 18.1875 -16.9375 18.1875 -14 17 C-14.33 13.37 -14.66 9.74 -15 6 C-10.53160785 5.78721942 -7.17737474 6.40861915 -3 8 C-2.87625 7.236875 -2.7525 6.47375 -2.625 5.6875 C-2 3 -2 3 0 0 Z " fill="#F2AAA8" transform="translate(85,50)"/>
<path d="M0 0 C-1.04166667 1.7578125 -2.08333333 3.515625 -3.125 5.2734375 C-4.15068348 6.97472667 -4.15068348 6.97472667 -4 9 C-3.01 9 -2.02 9 -1 9 C0.32 9 1.64 9 3 9 C3 7.02 3 5.04 3 3 C7.95 3 12.9 3 18 3 C18 2.01 18 1.02 18 0 C21.0868504 -0.43324216 23.01755552 -0.678299 26 0 C28.96178812 2.23767448 31.29651573 4.69119835 33 8 C32.75710065 11.24342074 32.52299299 12.51187321 30.125 14.75 C26.26742869 17.01915959 23.20155338 17.10969412 18.8125 17.0625 C17.18248047 17.04896484 17.18248047 17.04896484 15.51953125 17.03515625 C14.68808594 17.02355469 13.85664062 17.01195313 13 17 C13 17.66 13 18.32 13 19 C6.4 18.67 -0.2 18.34 -7 18 C-7 18.66 -7 19.32 -7 20 C-14.34886547 21.9457989 -22.06072914 23.92965451 -29 20 C-28.96610349 11.27164827 -28.96610349 11.27164827 -26.703125 8.29296875 C-25.125 7 -25.125 7 -22 5 C-21.01 4.34 -20.02 3.68 -19 3 C-16 4 -16 4 -15 6 C-14.5875 5.566875 -14.175 5.13375 -13.75 4.6875 C-9.07692435 0.18131991 -6.45118631 -0.67907224 0 0 Z " fill="#F9FAF9" transform="translate(79,7)"/>
<path d="M0 0 C1.65 0 3.3 0 5 0 C5 0.66 5 1.32 5 2 C5.99 1.67 6.98 1.34 8 1 C8.495 1.99 8.495 1.99 9 3 C8.28714844 3.3403125 7.57429688 3.680625 6.83984375 4.03125 C0.15765615 7.41281465 -4.65286921 10.86912804 -9 17 C-9.54785156 17.74765625 -10.09570312 18.4953125 -10.66015625 19.265625 C-12.37169145 22.75855399 -12.49557295 25.87719411 -12.4375 29.6875 C-12.42775146 30.39648438 -12.41800293 31.10546875 -12.40795898 31.8359375 C-12.12231014 40.34149496 -10.0934653 46.36565123 -3.875 52.375 C0.65958174 56.1022602 5.43574806 58.23430836 11 60 C10.67 60.99 10.34 61.98 10 63 C7.69 62.67 5.38 62.34 3 62 C2.67 63.65 2.34 65.3 2 67 C1.34 67 0.68 67 0 67 C-0.33 65.68 -0.66 64.36 -1 63 C-1.66 63 -2.32 63 -3 63 C-3.33 63.66 -3.66 64.32 -4 65 C-4.66 65 -5.32 65 -6 65 C-6 64.01 -6 63.02 -6 62 C-5.01 61.505 -5.01 61.505 -4 61 C-4 60.34 -4 59.68 -4 59 C-4.33 59.66 -4.66 60.32 -5 61 C-5.66 61 -6.32 61 -7 61 C-6.67 59.35 -6.34 57.7 -6 56 C-6.5775 55.71125 -7.155 55.4225 -7.75 55.125 C-9.21676136 54.39161932 -10.67568587 53.64228395 -12.125 52.875 C-13.95720802 51.85903818 -13.95720802 51.85903818 -16 52 C-15.79375 51.443125 -15.5875 50.88625 -15.375 50.3125 C-14.88215945 47.27331661 -15.54992063 45.68264684 -17 43 C-17.99 42.67 -18.98 42.34 -20 42 C-19.67 40.68 -19.34 39.36 -19 38 C-22.465 38.495 -22.465 38.495 -26 39 C-26 39.66 -26 40.32 -26 41 C-27.485 41.495 -27.485 41.495 -29 42 C-29.08738991 37.62512669 -29.140524 33.25047922 -29.1875 28.875 C-29.21263672 27.6375 -29.23777344 26.4 -29.26367188 25.125 C-29.27333984 23.92617187 -29.28300781 22.72734375 -29.29296875 21.4921875 C-29.3086792 20.39245605 -29.32438965 19.29272461 -29.34057617 18.15966797 C-28.94577506 14.49693252 -27.90779395 12.13570514 -26 9 C-23.3125 7.125 -23.3125 7.125 -21 6 C-21 6.66 -21 7.32 -21 8 C-20.01 8 -19.02 8 -18 8 C-18 8.99 -18 9.98 -18 11 C-14.535 10.505 -14.535 10.505 -11 10 C-10.34 8.35 -9.68 6.7 -9 5 C-8.01 5.33 -7.02 5.66 -6 6 C-3.32118433 4.82605543 -3.32118433 4.82605543 -1 3 C-0.67 2.01 -0.34 1.02 0 0 Z " fill="#F2D504" transform="translate(72,42)"/>
<path d="M0 0 C-0.14107747 1.45880109 -0.28802415 2.91703551 -0.4375 4.375 C-0.51871094 5.18710937 -0.59992188 5.99921875 -0.68359375 6.8359375 C-1 9 -1 9 -2 11 C0.08428209 13.08428209 3.31794565 13.87841364 6 15 C5.9375 17.25 5.9375 17.25 5 20 C2.7691525 21.67849824 0.52594094 22.75999263 -2 24 C-1.649375 24.721875 -1.29875 25.44375 -0.9375 26.1875 C0 29 0 29 -1 34 C-4.63 33.67 -8.26 33.34 -12 33 C-12.495 31.515 -12.495 31.515 -13 30 C-12.34 30 -11.68 30 -11 30 C-11 28.35 -11 26.7 -11 25 C-14.26954202 25.56371414 -15.82575883 26.49962266 -18 29 C-18.66 28.67 -19.32 28.34 -20 28 C-20 26.66666667 -20 25.33333333 -20 24 C-18.88625 23.71125 -17.7725 23.4225 -16.625 23.125 C-12.99708908 22.30758671 -12.99708908 22.30758671 -11 20 C-10.66666667 17 -10.66666667 17 -11 14 C-11.66 13.34 -12.32 12.68 -13 12 C-13.99 12 -14.98 12 -16 12 C-15.01 12.66 -14.02 13.32 -13 14 C-12.6875 16.5 -12.6875 16.5 -13 19 C-13.66 19.66 -14.32 20.32 -15 21 C-17.625 20.625 -17.625 20.625 -20 20 C-21.125 16.6875 -21.125 16.6875 -22 13 C-20 10 -20 10 -19 9 C-20.32 9 -21.64 9 -23 9 C-23 7.35 -23 5.7 -23 4 C-21.948125 4.2475 -20.89625 4.495 -19.8125 4.75 C-15.96109463 5.40344254 -15.96109463 5.40344254 -13.25 3.0625 C-12.5075 2.381875 -11.765 1.70125 -11 1 C-10.01 1 -9.02 1 -8 1 C-5.29120665 -0.35439668 -2.99066732 -0.06501451 0 0 Z " fill="#E96866" transform="translate(104,56)"/>
<path d="M0 0 C0.33 0 0.66 0 1 0 C0.979375 1.0415625 0.95875 2.083125 0.9375 3.15625 C1.00041271 15.05234427 3.67914184 26.50447218 12.26171875 35.32421875 C12.83535156 35.87722656 13.40898438 36.43023437 14 37 C14 37.66 14 38.32 14 39 C14.56589844 39.27070312 15.13179687 39.54140625 15.71484375 39.8203125 C18.09440593 41.04873605 20.30320036 42.43827898 22.5625 43.875 C34.19962784 50.78613269 45.32098651 52.87064539 58.59765625 50.3046875 C65.59098791 48.3580057 71.29359283 45.4581306 77 41 C78.2375 40.07767578 78.2375 40.07767578 79.5 39.13671875 C89.04634842 30.97757409 92.11626945 19.70129126 95 8 C96.32 8 97.64 8 99 8 C99.33 7.34 99.66 6.68 100 6 C100 6.99 100 7.98 100 9 C101.32 9 102.64 9 104 9 C104 9.66 104 10.32 104 11 C101.69 11 99.38 11 97 11 C96.9175 12.093125 96.835 13.18625 96.75 14.3125 C95.05948446 27.24265938 88.4102369 36.7399046 78.65625 45.07421875 C71.50578493 50.25830592 63.01514507 55.06450909 54 55 C52.91847656 55.03609375 51.83695313 55.0721875 50.72265625 55.109375 C35.97628633 55.4241321 24.57860478 52.14103897 13.1875 42.3125 C5.31799745 34.74960145 -1.50106987 25.14919216 -2.1875 13.9375 C-2.0946875 12.9784375 -2.0946875 12.9784375 -2 12 C-1.67 12 -1.34 12 -1 12 C-0.67 8.04 -0.34 4.08 0 0 Z " fill="#E3E3E3" transform="translate(40,68)"/>
<path d="M0 0 C0 0.99 0 1.98 0 3 C-0.99 3.33 -1.98 3.66 -3 4 C-4.71567661 7.50294871 -4.71567661 7.50294871 -6 11 C-9.125 10.47916667 -12.25 9.95833333 -15.375 9.4375 C-16.674375 9.2209375 -16.674375 9.2209375 -18 9 C-17.34 12.63 -16.68 16.26 -16 20 C-18.01822917 21.23697917 -20.03645833 22.47395833 -22.0546875 23.7109375 C-24.11793582 24.9853713 -24.11793582 24.9853713 -26 27 C-28 25 -28 25 -28.4375 22.4375 C-27.42276468 14.46457962 -22.16911428 7.90604131 -16 3 C-10.5862672 -0.10788364 -6.06587573 -0.37138015 0 0 Z " fill="#EA1B23" transform="translate(88,47)"/>
<path d="M0 0 C2.63827703 2.63827703 2.35901928 4.00813914 2.4375 7.6875 C2.37512256 12.92720468 1.57205953 15.39410438 -1.8203125 19.265625 C-3.99464775 22.4623298 -3.90594666 26.22931605 -4 30 C-4.66 30 -5.32 30 -6 30 C-6.04125 28.7625 -6.0825 27.525 -6.125 26.25 C-6.32457677 24.03156591 -6.32457677 24.03156591 -7 22 C-9.85251385 19.82053354 -9.85251385 19.82053354 -13 18 C-16.00675169 13.43803193 -16.54105269 9.32378883 -17 4 C-13.00499382 5.3697164 -10.19990508 7.25722422 -7 10 C-4.3513141 6.80331012 -2.06007659 3.60513403 0 0 Z " fill="#1E692F" transform="translate(151,49)"/>
<path d="M0 0 C2.61724095 2.36797991 4.32861729 4.89600354 6 8 C6 8.66 6 9.32 6 10 C9.63 7.36 13.26 4.72 17 2 C18.56237913 6.68713739 17.05822787 10.60727206 15 15 C13.27328804 16.67201972 11.45753363 18.00220701 9.51953125 19.41796875 C6.71487389 22.33798477 6.93975706 26.12723964 7 30 C6.34 30 5.68 30 5 30 C4.97421875 29.33613281 4.9484375 28.67226562 4.921875 27.98828125 C4.56317842 22.4040277 4.11424995 19.11424995 0 15 C-1.37252731 12.25494537 -1.13229255 9.99672588 -1.125 6.9375 C-1.12757812 5.85339844 -1.13015625 4.76929688 -1.1328125 3.65234375 C-1 1 -1 1 0 0 Z " fill="#1B662B" transform="translate(24,50)"/>
<path d="M0 0 C0.66 0 1.32 0 2 0 C2.66 3.96 3.32 7.92 4 12 C5.4025 11.484375 6.805 10.96875 8.25 10.4375 C11.62215325 9.19773777 13.57056481 8.81228277 17 10 C12.8318524 15.33370864 9.59810452 19.08055141 3 21 C-0.4375 21.1875 -0.4375 21.1875 -3 21 C-5.11501874 16.76996251 -5.85940965 12.6544265 -5 8 C-3.6613109 5.07877138 -2.12419297 2.4202926 0 0 Z " fill="#226C33" transform="translate(32,33)"/>
<path d="M0 0 C0 3.63 0 7.26 0 11 C4.62 11 9.24 11 14 11 C12.35697047 12.68997323 10.68528688 14.35216394 9 16 C8.29875 16.763125 7.5975 17.52625 6.875 18.3125 C2.44171766 20.91464398 -1.97919832 20.31654792 -7 20 C-8.45878389 15.62364833 -8.75135479 11.56327407 -8 7 C-6.18917704 3.84638217 -3.91409406 0 0 0 Z " fill="#1F6A30" transform="translate(45,20)"/>
<path d="M0 0 C5.875 4.75 5.875 4.75 7 7 C7.07092842 9.2072923 7.08415025 11.41667452 7.0625 13.625 C7.05347656 14.81351563 7.04445312 16.00203125 7.03515625 17.2265625 C7.02355469 18.14179687 7.01195312 19.05703125 7 20 C-1.11528888 20.97198327 -5.6810137 19.6532307 -12.19921875 14.7265625 C-13.09060547 13.87191406 -13.09060547 13.87191406 -14 13 C-14 12.34 -14 11.68 -14 11 C-9.71 11 -5.42 11 -1 11 C-1.020625 9.55625 -1.04125 8.1125 -1.0625 6.625 C-1.125 2.25 -1.125 2.25 0 0 Z " fill="#1F6A31" transform="translate(131,20)"/>
<path d="M0 0 C0.33 0 0.66 0 1 0 C0.979375 1.0415625 0.95875 2.083125 0.9375 3.15625 C1.00041271 15.05234427 3.67914184 26.50447218 12.26171875 35.32421875 C12.83535156 35.87722656 13.40898438 36.43023437 14 37 C14 37.66 14 38.32 14 39 C14.56589844 39.27070312 15.13179687 39.54140625 15.71484375 39.8203125 C18.09440593 41.04873605 20.30320036 42.43827898 22.5625 43.875 C27.79747043 47.05811168 33.18637756 49.12107259 39 51 C39 51.99 39 52.98 39 54 C27.56022977 53.56000884 18.54841626 47.46454939 10.48046875 39.7109375 C3.91709685 32.53774049 -1.58058586 23.850431 -2.1875 13.9375 C-2.0946875 12.9784375 -2.0946875 12.9784375 -2 12 C-1.67 12 -1.34 12 -1 12 C-0.67 8.04 -0.34 4.08 0 0 Z " fill="#E1E0E1" transform="translate(40,68)"/>
<path d="M0 0 C5.82574032 5.63154897 5.82574032 5.63154897 6.265625 9.0859375 C6.23551326 13.49730709 6.07105973 16.98732176 4 21 C-2.77504825 21.10978087 -6.43034404 19.48810383 -11.37109375 14.88671875 C-12.99192375 13.0093545 -14.00614037 11.26240408 -15 9 C-10.15340923 9.59104765 -6.39251833 10.97944157 -2 13 C-1.93941406 12.31292969 -1.87882813 11.62585937 -1.81640625 10.91796875 C-1.73261719 10.01691406 -1.64882812 9.11585937 -1.5625 8.1875 C-1.48128906 7.29417969 -1.40007812 6.40085937 -1.31640625 5.48046875 C-1 3 -1 3 0 0 Z " fill="#1A672C" transform="translate(142,33)"/>
<path d="M0 0 C0.99 0.33 1.98 0.66 3 1 C1.68 4.3 0.36 7.6 -1 11 C0.65 11.33 2.3 11.66 4 12 C6.39228689 12.89305874 8.66943362 13.94896026 11 15 C11 15.66 11 16.32 11 17 C4.84677599 18.7900288 -2.14667135 20.72735422 -8.265625 17.984375 C-8.83796875 17.65953125 -9.4103125 17.3346875 -10 17 C-9.96610349 8.27164827 -9.96610349 8.27164827 -7.703125 5.29296875 C-6.125 4 -6.125 4 -3 2 C-2.01 1.34 -1.02 0.68 0 0 Z " fill="#1D692E" transform="translate(60,10)"/>
<path d="M0 0 C4.48837049 1.25256851 7.63836665 2.73441332 11 6 C12.54720987 9.45146816 12.07164839 13.27428351 12 17 C7.42852006 19.35947352 3.03284173 19.60923874 -2 19 C-5.5625 17.5 -5.5625 17.5 -8 16 C-5.22920113 12.19015156 -1.37131855 11.93159248 3 11 C2.01 7.37 1.02 3.74 0 0 Z " fill="#1A672B" transform="translate(113,10)"/>
<path d="M0 0 C-1.04166667 1.7578125 -2.08333333 3.515625 -3.125 5.2734375 C-4.15068348 6.97472667 -4.15068348 6.97472667 -4 9 C-1.98118514 10.77613788 -1.98118514 10.77613788 0.5 12.5625 C2.01565385 13.68754553 3.52005581 14.82837752 5 16 C5 16.33 5 16.66 5 17 C-2.06794224 17.31335705 -7.74650697 17.53458302 -14 14 C-14.66 13.34 -15.32 12.68 -16 12 C-15.86230302 7.04290889 -13.23211811 4.46861456 -10 1 C-6.78548731 -0.60725635 -3.56387464 -0.05748185 0 0 Z " fill="#1E6930" transform="translate(79,7)"/>
<path d="M0 0 C3.0868504 -0.43324216 5.01755552 -0.678299 8 0 C10.96178812 2.23767448 13.29651573 4.69119835 15 8 C14.75710065 11.24342074 14.52299299 12.51187321 12.125 14.75 C8.26742869 17.01915959 5.20155338 17.10969412 0.8125 17.0625 C-0.81751953 17.04896484 -0.81751953 17.04896484 -2.48046875 17.03515625 C-3.31191406 17.02355469 -4.14335938 17.01195313 -5 17 C-2.35039045 13.36905358 0.01824456 11.10148204 4 9 C3.71125 8.443125 3.4225 7.88625 3.125 7.3125 C1.9586747 4.91505355 0.9660119 2.48403061 0 0 Z " fill="#19672C" transform="translate(97,7)"/>
<path d="M0 0 C4.80382061 4.40567216 6.11884958 9.89485413 6.43359375 16.20703125 C6.45755526 18.07536764 6.45818135 19.94412442 6.4375 21.8125 C6.42775146 22.79009277 6.41800293 23.76768555 6.40795898 24.77490234 C6.08723263 37.79747967 1.65764539 46.24770979 -7 56 C-10.71561987 59.4348261 -13.98394013 61.99235883 -19 63 C-16.71066902 60.5790142 -14.24616351 58.65612332 -11.5625 56.6875 C-7.75813752 53.77536586 -5.33455846 51.16160422 -3 47 C-3.33 46.67 -3.66 46.34 -4 46 C-5.11375 47.2684375 -5.11375 47.2684375 -6.25 48.5625 C-9 51 -9 51 -11.125 51.0625 C-13.44570777 49.74743226 -14.56512796 48.22405166 -16 46 C-14.68 45.34 -13.36 44.68 -12 44 C-11.34 44.99 -10.68 45.98 -10 47 C-9.01879536 43.94736336 -9.01879536 42.05263664 -10 39 C-8.29159719 40.63412443 -7.06546953 41.86906094 -6 44 C-5.23043864 41.65466049 -5.23043864 41.65466049 -5 39 C-6.33378575 37.1645201 -6.33378575 37.1645201 -8 36 C-5.0625 36.75 -5.0625 36.75 -2 38 C-1.125 40.125 -1.125 40.125 -1 42 C3.84198111 36.49774873 4.38777824 29.77324015 4.375 22.75 C4.37628906 22.00927246 4.37757813 21.26854492 4.37890625 20.50537109 C4.27160265 14.89266105 3.17503537 10.26066961 0.875 5.1015625 C0 3 0 3 0 0 Z " fill="#433E19" transform="translate(128,51)"/>
<path d="M0 0 C0.66 0.33 1.32 0.66 2 1 C-3.47024327 8.55414546 -10.71215581 12.80597067 -19.875 14.875 C-21.24802 14.95971826 -22.62438686 14.99295761 -24 15 C-25.18851563 15.01417969 -26.37703125 15.02835938 -27.6015625 15.04296875 C-31.06882923 15.06033983 -34.5330381 15.04382396 -38 15 C-38.33 14.01 -38.66 13.02 -39 12 C-37.99582031 11.97421875 -36.99164063 11.9484375 -35.95703125 11.921875 C-23.00643305 11.44587883 -9.63736968 9.63736968 0 0 Z " fill="#E7E7E7" transform="translate(118,108)"/>
<path d="M0 0 C1.051875 0.185625 2.10375 0.37125 3.1875 0.5625 C6.57119882 0.95079331 8.76425888 0.88247485 12 0 C12 1.65 12 3.3 12 5 C10.35 5.33 8.7 5.66 7 6 C7.66 6.33 8.32 6.66 9 7 C8.01 7.495 8.01 7.495 7 8 C7.99 8.66 8.98 9.32 10 10 C10.3125 12.5 10.3125 12.5 10 15 C9.34 15.66 8.68 16.32 8 17 C5.375 16.625 5.375 16.625 3 16 C1.875 12.6875 1.875 12.6875 1 9 C3 6 3 6 4 5 C2.68 5 1.36 5 0 5 C0 3.35 0 1.7 0 0 Z " fill="#EDA4A3" transform="translate(81,60)"/>
<path d="M0 0 C0.66 0.33 1.32 0.66 2 1 C2.625 3.5625 2.625 3.5625 3 6 C4.32 5.01 5.64 4.02 7 3 C6.67 4.32 6.34 5.64 6 7 C6.66 7 7.32 7 8 7 C8.33 6.01 8.66 5.02 9 4 C9 5.32 9 6.64 9 8 C8.34 8 7.68 8 7 8 C7 8.99 7 9.98 7 11 C7.66 11 8.32 11 9 11 C9.33 10.01 9.66 9.02 10 8 C10.99 8.33 11.98 8.66 13 9 C13 10.32 13 11.64 13 13 C13.66 13 14.32 13 15 13 C15.33 11.35 15.66 9.7 16 8 C18.97 8.495 18.97 8.495 22 9 C21.67 11.31 21.34 13.62 21 16 C20.01 16 19.02 16 18 16 C18.33 14.35 18.66 12.7 19 11 C18.01 11.495 18.01 11.495 17 12 C16.67 12.99 16.34 13.98 16 15 C11.62563349 14.49135273 8.59903281 13.57073772 5 11 C4.67 10.34 4.34 9.68 4 9 C3.195625 8.71125 2.39125 8.4225 1.5625 8.125 C-1 7 -1 7 -2.3125 4.875 C-2.539375 4.25625 -2.76625 3.6375 -3 3 C-2.01 2.01 -1.02 1.02 0 0 Z " fill="#796E0E" transform="translate(59,96)"/>
<path d="M0 0 C1.04068391 3.12205172 0.99162646 4.66950789 0.66015625 7.88671875 C0.56669922 8.82451172 0.47324219 9.76230469 0.37695312 10.72851562 C0.27318359 11.70498047 0.16941406 12.68144531 0.0625 13.6875 C-0.03740234 14.67556641 -0.13730469 15.66363281 -0.24023438 16.68164062 C-0.4877804 19.12173718 -0.74125362 21.56106991 -1 24 C-1.66 23.01 -2.32 22.02 -3 21 C-6.56769552 20.26393501 -6.56769552 20.26393501 -10 20 C-10.36222842 16.99867877 -10.61149994 14.90989629 -10 12 C-8.4059318 10.18310506 -6.70094169 8.8849044 -4.7578125 7.453125 C-2.26400297 5.39157579 -1.19719197 2.95776839 0 0 Z " fill="#F8F8F8" transform="translate(41,59)"/>
<path d="M0 0 C2.31 1.98 4.62 3.96 7 6 C8.2065625 6.680625 8.2065625 6.680625 9.4375 7.375 C11.42634623 9.44340008 11.23522077 10.37451961 11.25 13.1875 C11.1675 14.445625 11.085 15.70375 11 17 C10.67 16.34 10.34 15.68 10 15 C7.87423218 14.53348793 7.87423218 14.53348793 5.4375 14.375 C4.61121094 14.30023438 3.78492188 14.22546875 2.93359375 14.1484375 C2.29550781 14.09945312 1.65742188 14.05046875 1 14 C1 15.65 1 17.3 1 19 C0.67 19 0.34 19 0 19 C0 12.73 0 6.46 0 0 Z " fill="#DFE0DF" transform="translate(134,62)"/>
<path d="M0 0 C-0.14107747 1.45880109 -0.28802415 2.91703551 -0.4375 4.375 C-0.51871094 5.18710937 -0.59992188 5.99921875 -0.68359375 6.8359375 C-1 9 -1 9 -2 11 C-2.66 11 -3.32 11 -4 11 C-4.66 12.32 -5.32 13.64 -6 15 C-6.99 15 -7.98 15 -9 15 C-8.979375 14.195625 -8.95875 13.39125 -8.9375 12.5625 C-8.70366379 10.06645115 -8.70366379 10.06645115 -10 9 C-10.04092937 6.66702567 -10.04241723 4.33294775 -10 2 C-6.5980513 -0.09350689 -3.94727588 -0.17942163 0 0 Z " fill="#FBEFEE" transform="translate(104,56)"/>
<path d="M0 0 C0.625 1.875 0.625 1.875 1 4 C0.34 4.66 -0.32 5.32 -1 6 C-0.69208308 7.671549 -0.35613097 9.33805547 0 11 C-0.4375 13.3125 -0.4375 13.3125 -1 15 C-0.34 15 0.32 15 1 15 C0.62403791 17.78211944 0.32681541 19.5879284 -1.4375 21.8125 C-3 23 -3 23 -5 23 C-4.67 21.35 -4.34 19.7 -4 18 C-5.98 17.34 -7.96 16.68 -10 16 C-9.67 14.68 -9.34 13.36 -9 12 C-7.02 12.495 -7.02 12.495 -5 13 C-5 12.34 -5 11.68 -5 11 C-5.99 10.67 -6.98 10.34 -8 10 C-6 10 -4 10 -2 10 C-2.75150023 6.72226496 -2.75150023 6.72226496 -6 5 C-6 4.34 -6 3.68 -6 3 C-4.02 2.01 -2.04 1.02 0 0 Z " fill="#D4C012" transform="translate(130,71)"/>
<path d="M0 0 C1.32 0 2.64 0 4 0 C4.48990279 5.06232884 2.7106322 9.32630846 1 14 C-0.65 14.33 -2.3 14.66 -4 15 C-7 9.72 -7 9.72 -7 6.75 C-5.56474199 4.23829848 -3.64442549 3.99165956 -1 3 C-0.67 2.01 -0.34 1.02 0 0 Z " fill="#FCF5F5" transform="translate(89,81)"/>
<path d="M0 0 C1.9375 1.6875 1.9375 1.6875 3 4 C2.5 6.6875 2.5 6.6875 1 9 C-1.3125 10 -1.3125 10 -4 10 C-6.8125 8.5625 -6.8125 8.5625 -9 7 C-8.6875 4.625 -8.6875 4.625 -8 2 C-4.77856724 -0.14762184 -3.7404533 -0.561068 0 0 Z " fill="#FBF1F0" transform="translate(73,68)"/>
<path d="M0 0 C2.375 0.3125 2.375 0.3125 5 1 C7.14762184 4.22143276 7.561068 5.2595467 7 9 C5.3125 10.9375 5.3125 10.9375 3 12 C0.3125 11.5 0.3125 11.5 -2 10 C-3 7.6875 -3 7.6875 -3 5 C-1.5625 2.1875 -1.5625 2.1875 0 0 Z " fill="#FCF3F3" transform="translate(85,50)"/>
<path d="M0 0 C3.94727588 -0.17942163 6.5980513 -0.09350689 10 2 C10 4.64 10 7.28 10 10 C3.57789614 10.48468708 3.57789614 10.48468708 1.0625 8.375 C-0.25066255 5.43969547 -0.21691118 3.18136394 0 0 Z " fill="#FBF3F2" transform="translate(70,56)"/>
<path d="M0 0 C1.134375 0.020625 2.26875 0.04125 3.4375 0.0625 C5.27441257 3.84437881 5.59587626 6.00818308 4.4375 10.0625 C-3.4375 9.1875 -3.4375 9.1875 -4.5625 8.0625 C-4.6875 4.5625 -4.6875 4.5625 -4.5625 1.0625 C-3.5625 0.0625 -3.5625 0.0625 0 0 Z " fill="#FBF3F2" transform="translate(98.5625,79.9375)"/>
<path d="M0 0 C2.97 0.99 5.94 1.98 9 3 C8.6875 5.375 8.6875 5.375 8 8 C4.77856724 10.14762184 3.7404533 10.561068 0 10 C-1.9375 8.3125 -1.9375 8.3125 -3 6 C-2.33228817 3.60736593 -1.77902615 1.77902615 0 0 Z " fill="#FCF5F5" transform="translate(101,68)"/>
<path d="M0 0 C0.3125 3.3125 0.3125 3.3125 0 7 C-2.64755663 9.34497873 -4.2936993 9.95291329 -7.8125 10.1875 C-8.8953125 10.0946875 -8.8953125 10.0946875 -10 10 C-10.48468708 3.57789614 -10.48468708 3.57789614 -8.375 1.0625 C-5.43969547 -0.25066255 -3.18136394 -0.21691118 0 0 Z " fill="#FCF5F4" transform="translate(80,80)"/>
<path d="M0 0 C5.4 -0.36 5.4 -0.36 7.875 1.125 C9.55468045 3.92446741 9.45742277 5.79804064 9 9 C7.375 11.375 7.375 11.375 5 13 C1.85610056 13.44912849 -0.05480125 13.504106 -2.875 12 C-4.70488947 8.74686316 -4.18128355 5.68609891 -4 2 C-3.34 2 -2.68 2 -2 2 C-1.34 4.31 -0.68 6.62 0 9 C1.65 8.67 3.3 8.34 5 8 C5 6.35 5 4.7 5 3 C2.525 2.01 2.525 2.01 0 1 C0 0.67 0 0.34 0 0 Z " fill="#F5DDDC" transform="translate(85,67)"/>
<path d="M0 0 C1.9375 0.375 1.9375 0.375 4 1 C4.33 1.66 4.66 2.32 5 3 C5.639375 3.28875 6.27875 3.5775 6.9375 3.875 C9.42001234 5.22909764 9.96871397 6.42178493 11 9 C9.71034824 10.37562854 8.37310707 11.70766393 7 13 C6.34 13 5.68 13 5 13 C5 10.69 5 8.38 5 6 C0.39257135 7.21044132 0.39257135 7.21044132 -4 9 C-3.71125 8.443125 -3.4225 7.88625 -3.125 7.3125 C-1.9586747 4.91505355 -0.9660119 2.48403061 0 0 Z " fill="#F0A5A4" transform="translate(75,74)"/>
<path d="M0 0 C1.9375 0.3125 1.9375 0.3125 4 1 C5 4 5 4 4 7 C2.00390625 7.80078125 2.00390625 7.80078125 -0.4375 8.3125 C-1.24058594 8.49425781 -2.04367188 8.67601563 -2.87109375 8.86328125 C-3.92490234 8.93095703 -3.92490234 8.93095703 -5 9 C-7 7 -7 7 -7.125 4.375 C-7.08375 3.59125 -7.0425 2.8075 -7 2 C-5.34385343 1.61781233 -3.67542976 1.28604898 -2 1 C-1.67 1.33 -1.34 1.66 -1 2 C-0.67 1.34 -0.34 0.68 0 0 Z " fill="#9B8C0B" transform="translate(100,104)"/>
<path d="M0 0 C-2.32178367 1.54785578 -4.30598042 2.62280776 -6.8125 3.75 C-12.97518796 6.82569014 -17.31108833 11.24803828 -20.25390625 17.5 C-21.84600139 22.83476904 -21.84456966 28.46667975 -22 34 C-22.33 34 -22.66 34 -23 34 C-24.10046343 17.39115381 -24.10046343 17.39115381 -18.8515625 10.8984375 C-7.79960963 -0.43331165 -7.79960963 -0.43331165 0 0 Z " fill="#451C0D" transform="translate(82,46)"/>
<path d="M0 0 C0.33 0 0.66 0 1 0 C1.33 3.96 1.66 7.92 2 12 C4.64 12 7.28 12 10 12 C10.33 12.66 10.66 13.32 11 14 C4.5 17 4.5 17 0 17 C-1.54897985 13.9020403 -0.83239539 10.73783448 -0.5625 7.375 C-0.51029297 6.66859375 -0.45808594 5.9621875 -0.40429688 5.234375 C-0.27458793 3.48920013 -0.13795046 1.74454275 0 0 Z " fill="#DEE6E0" transform="translate(36,28)"/>
<path d="M0 0 C1.65 1.65 3.3 3.3 5 5 C3.515 7.475 3.515 7.475 2 10 C0.35 9.67 -1.3 9.34 -3 9 C-3.33 7.02 -3.66 5.04 -4 3 C-2.68 2.01 -1.36 1.02 0 0 Z " fill="#D9C40D" transform="translate(111,97)"/>
<path d="M0 0 C2.475 0.495 2.475 0.495 5 1 C5 2.65 5 4.3 5 6 C5.94875 5.79375 6.8975 5.5875 7.875 5.375 C9.421875 5.189375 9.421875 5.189375 11 5 C11.66 5.66 12.32 6.32 13 7 C14.32 7 15.64 7 17 7 C16.67 8.32 16.34 9.64 16 11 C15.43152344 10.80664062 14.86304687 10.61328125 14.27734375 10.4140625 C9.54635062 8.81863577 4.81205575 7.33099414 0 6 C0.66 4.68 1.32 3.36 2 2 C1.34 1.34 0.68 0.68 0 0 Z " fill="#3C360A" transform="translate(93,34)"/>
<path d="M0 0 C0 0.66 0 1.32 0 2 C-4.62369023 3.80679587 -8.42528653 4.21839082 -13.375 4.125 C-14.62023437 4.10695313 -15.86546875 4.08890625 -17.1484375 4.0703125 C-18.55996094 4.03550781 -18.55996094 4.03550781 -20 4 C-20.33 3.01 -20.66 2.02 -21 1 C-18.43761495 0.83138242 -15.87511576 0.66504227 -13.3125 0.5 C-12.59126953 0.45230469 -11.87003906 0.40460938 -11.12695312 0.35546875 C-7.41171286 0.11796481 -3.72305126 -0.05874637 0 0 Z " fill="#EFEFEF" transform="translate(100,119)"/>
<path d="M0 0 C0.33 0 0.66 0 1 0 C1.06058594 0.69867187 1.12117187 1.39734375 1.18359375 2.1171875 C1.26738281 3.02726562 1.35117188 3.93734375 1.4375 4.875 C1.51871094 5.77992187 1.59992188 6.68484375 1.68359375 7.6171875 C1.86989285 10.01110861 1.86989285 10.01110861 3 12 C2.71887936 14.00800456 2.38932033 16.01014051 2 18 C-1.3 17.01 -4.6 16.02 -8 15 C-8 14.01 -8 13.02 -8 12 C-5.36 12 -2.72 12 0 12 C0 8.04 0 4.08 0 0 Z " fill="#CFDAD1" transform="translate(138,28)"/>
<path d="M0 0 C1 3 1 3 1.125 5 C1.90711935 7.31362562 1.90711935 7.31362562 4.8125 8.6875 C9.97744773 10.67568072 15.52646816 10.73935563 21 11 C21 11.33 21 11.66 21 12 C17.04 12 13.08 12 9 12 C8.67 12.66 8.34 13.32 8 14 C8 13.34 8 12.68 8 12 C7.38511719 11.79503906 6.77023438 11.59007812 6.13671875 11.37890625 C2.7578125 10.25260417 -0.62109375 9.12630208 -4 8 C-3.40138258 5.64828869 -2.73075648 3.3140622 -2 1 C-1.34 0.67 -0.68 0.34 0 0 Z " fill="#DCE4DD" transform="translate(63,13)"/>
<path d="M0 0 C8.49857643 0.43582443 16.1971067 7.13697309 22 13 C23.50073416 14.94473835 24.74017257 16.88348992 26 19 C25.67 19.66 25.34 20.32 25 21 C24.32195312 20.20335938 23.64390625 19.40671875 22.9453125 18.5859375 C17.83859276 12.72341954 13.15848591 7.86799667 6.19140625 4.18359375 C3.94597444 2.97082042 2.00387174 1.5747967 0 0 Z " fill="#3F3B20" transform="translate(102,30)"/>
<path d="M0 0 C2.4375 0.1875 2.4375 0.1875 3.4375 1.1875 C3.625 3.625 3.625 3.625 3.4375 6.1875 C2.7775 6.8475 2.1175 7.5075 1.4375 8.1875 C-1.1875 7.8125 -1.1875 7.8125 -3.5625 7.1875 C-4.1875 4.8125 -4.1875 4.8125 -4.5625 2.1875 C-2.5625 0.1875 -2.5625 0.1875 0 0 Z " fill="#EB1A20" transform="translate(87.5625,68.8125)"/>
<path d="M0 0 C4.51720311 -0.36625971 4.51720311 -0.36625971 6.8125 1.375 C8 3 8 3 8 5 C7.01 5.33 6.02 5.66 5 6 C5 6.66 5 7.32 5 8 C2.03 8 -0.94 8 -4 8 C-4 4.99472353 -2.05564773 4.05564773 0 2 C0 1.34 0 0.68 0 0 Z " fill="#B0C4B4" transform="translate(89,10)"/>
<path d="M0 0 C0.66 0.33 1.32 0.66 2 1 C2.625 3.5625 2.625 3.5625 3 6 C4.32 5.01 5.64 4.02 7 3 C6.67 4.32 6.34 5.64 6 7 C6.66 7 7.32 7 8 7 C8.33 6.01 8.66 5.02 9 4 C9 5.32 9 6.64 9 8 C8.34 8 7.68 8 7 8 C7 8.99 7 9.98 7 11 C6.34 11 5.68 11 5 11 C4.67 10.34 4.34 9.68 4 9 C3.195625 8.71125 2.39125 8.4225 1.5625 8.125 C-1 7 -1 7 -2.3125 4.875 C-2.539375 4.25625 -2.76625 3.6375 -3 3 C-2.01 2.01 -1.02 1.02 0 0 Z " fill="#544B0E" transform="translate(59,96)"/>
<path d="M0 0 C0.625 1.875 0.625 1.875 1 4 C0.34 4.66 -0.32 5.32 -1 6 C-0.67958603 8.60280568 -0.67958603 8.60280568 0 11 C-0.99 11.66 -1.98 12.32 -3 13 C-2.67 13.99 -2.34 14.98 -2 16 C-3.98 15.34 -5.96 14.68 -8 14 C-7.01 13.67 -6.02 13.34 -5 13 C-5 12.34 -5 11.68 -5 11 C-5.99 10.67 -6.98 10.34 -8 10 C-6 10 -4 10 -2 10 C-2.75150023 6.72226496 -2.75150023 6.72226496 -6 5 C-6 4.34 -6 3.68 -6 3 C-4.02 2.01 -2.04 1.02 0 0 Z " fill="#544C0D" transform="translate(130,71)"/>
<path d="M0 0 C0.33 0 0.66 0 1 0 C1 3.3 1 6.6 1 10 C-1.64 10 -4.28 10 -7 10 C-7.33 11.32 -7.66 12.64 -8 14 C-8 12.35 -8 10.7 -8 9 C-7.34 9 -6.68 9 -6 9 C-6 7.68 -6 6.36 -6 5 C-5.34 5 -4.68 5 -4 5 C-3.67 4.34 -3.34 3.68 -3 3 C-2.01 3 -1.02 3 0 3 C0 2.01 0 1.02 0 0 Z " fill="#BBBCBB" transform="translate(28,70)"/>
<path d="M0 0 C0.33 0.99 0.66 1.98 1 3 C2.32 3 3.64 3 5 3 C5 3.66 5 4.32 5 5 C2.69 5 0.38 5 -2 5 C-2.2165625 6.918125 -2.2165625 6.918125 -2.4375 8.875 C-2.70642746 11.25692894 -2.92226346 12.84452691 -4 15 C-4.66 15 -5.32 15 -6 15 C-5.48041715 10.62065881 -4.94324258 6.31196609 -4 2 C-2.68 2 -1.36 2 0 2 C0 1.34 0 0.68 0 0 Z " fill="#F9F9F9" transform="translate(139,74)"/>
<path d="M0 0 C2.31 0 4.62 0 7 0 C7 0.66 7 1.32 7 2 C5.35 2 3.7 2 2 2 C1.95875 2.598125 1.9175 3.19625 1.875 3.8125 C1 6 1 6 -2.0625 7.75 C-3.5165625 8.36875 -3.5165625 8.36875 -5 9 C-5 8.34 -5 7.68 -5 7 C-5.66 7 -6.32 7 -7 7 C-7.33 8.65 -7.66 10.3 -8 12 C-8.66 11.67 -9.32 11.34 -10 11 C-10 9.35 -10 7.7 -10 6 C-8.35 5.34 -6.7 4.68 -5 4 C-5 3.34 -5 2.68 -5 2 C-4.01 2.33 -3.02 2.66 -2 3 C-2 3.66 -2 4.32 -2 5 C-1.34 4.67 -0.68 4.34 0 4 C0 2.68 0 1.36 0 0 Z " fill="#524A0C" transform="translate(70,40)"/>
<path d="M0 0 C0.66 0 1.32 0 2 0 C1.67 1.32 1.34 2.64 1 4 C2.32 4.33 3.64 4.66 5 5 C5 5.99 5 6.98 5 8 C2.6875 9.75 2.6875 9.75 0 11 C-0.99 10.67 -1.98 10.34 -3 10 C-2.49287967 6.28111761 -1.88391785 3.26545761 0 0 Z " fill="#7F730E" transform="translate(51,80)"/>
<path d="M0 0 C0.33 0 0.66 0 1 0 C1.06058594 1.14597656 1.12117188 2.29195313 1.18359375 3.47265625 C1.26806989 5.00261297 1.35271427 6.53256041 1.4375 8.0625 C1.47681641 8.81466797 1.51613281 9.56683594 1.55664062 10.34179688 C1.75927564 13.94246529 2.06161096 17.36711381 2.66015625 20.93359375 C2.77230469 21.94550781 2.88445313 22.95742187 3 24 C2.34 24.66 1.68 25.32 1 26 C-2.44419134 16.58997722 -2.44419134 16.58997722 -2 12 C-1.67 12 -1.34 12 -1 12 C-0.67 8.04 -0.34 4.08 0 0 Z " fill="#D1D1D1" transform="translate(40,68)"/>
<path d="M0 0 C1.23593891 3.70781672 0.5678132 4.67510253 -0.9375 8.1875 C-1.31777344 9.08855469 -1.69804688 9.98960938 -2.08984375 10.91796875 C-2.39019531 11.60503906 -2.69054688 12.29210938 -3 13 C-3.99 12.67 -4.98 12.34 -6 12 C-5.67 9.69 -5.34 7.38 -5 5 C-6.98 5.99 -6.98 5.99 -9 7 C-9.66 6.34 -10.32 5.68 -11 5 C-9.93458984 4.58427734 -9.93458984 4.58427734 -8.84765625 4.16015625 C-7.46900391 3.61681641 -7.46900391 3.61681641 -6.0625 3.0625 C-5.14597656 2.70285156 -4.22945312 2.34320313 -3.28515625 1.97265625 C-1.07581467 1.2003782 -1.07581467 1.2003782 0 0 Z " fill="#D0D7D1" transform="translate(46,48)"/>
<path d="M0 0 C0.33 0 0.66 0 1 0 C1.05423638 1.91635217 1.09289963 3.83314925 1.125 5.75 C1.14820313 6.81734375 1.17140625 7.8846875 1.1953125 8.984375 C1.00487687 11.92470106 0.52670104 13.52361878 -1 16 C-1.66 16 -2.32 16 -3 16 C-4.11393093 12.65820721 -3.75376997 11.35008877 -3 8 C-3 7.01 -3 6.02 -3 5 C-2.34 5 -1.68 5 -1 5 C-0.67 3.35 -0.34 1.7 0 0 Z " fill="#F9E209" transform="translate(132,70)"/>
<path d="M0 0 C4 4.5 4 4.5 4 9 C2.125 10.0625 2.125 10.0625 0 11 C-0.66 10.67 -1.32 10.34 -2 10 C-1.814375 9.236875 -1.62875 8.47375 -1.4375 7.6875 C-0.77180827 4.91032625 -0.77180827 4.91032625 -2 2 C-1.34 2 -0.68 2 0 2 C0 1.34 0 0.68 0 0 Z " fill="#D0DCD2" transform="translate(97,8)"/>
<path d="M0 0 C0.33 0.99 0.66 1.98 1 3 C3.64 3 6.28 3 9 3 C7.86280581 6.41158256 6.95657056 7.11854601 4 9 C3.34 9 2.68 9 2 9 C0.14223235 5.86501708 -0.20140476 3.62528568 0 0 Z " fill="#ECF0ED" transform="translate(28,51)"/>
<path d="M0 0 C1.65 0 3.3 0 5 0 C5 1.65 5 3.3 5 5 C4.01 5 3.02 5 2 5 C2 5.99 2 6.98 2 8 C0.02 8 -1.96 8 -4 8 C-4 7.34 -4 6.68 -4 6 C-2.68 6 -1.36 6 0 6 C0 4.02 0 2.04 0 0 Z " fill="#A1B9A5" transform="translate(82,10)"/>
<path d="M0 0 C0.66 0.33 1.32 0.66 2 1 C2 3.31 2 5.62 2 8 C1.34 8 0.68 8 0 8 C-0.33 8.66 -0.66 9.32 -1 10 C-1.99 9.34 -2.98 8.68 -4 8 C-2.87548273 5.0280615 -1.77706209 2.66559313 0 0 Z " fill="#D6DFD7" transform="translate(78,8)"/>
<path d="M0 0 C3.26954202 0.56371414 4.82575883 1.49962266 7 4 C6.67 4.66 6.34 5.32 6 6 C3.66842508 6.34541851 1.33491639 6.67794257 -1 7 C-1.99 7.66 -2.98 8.32 -4 9 C-3.71125 8.443125 -3.4225 7.88625 -3.125 7.3125 C-1.9586747 4.91505355 -0.9660119 2.48403061 0 0 Z " fill="#F5CBCA" transform="translate(75,74)"/>
<path d="M0 0 C0.99 0.33 1.98 0.66 3 1 C2.01 1.495 2.01 1.495 1 2 C1 4.31 1 6.62 1 9 C-0.98 9 -2.96 9 -5 9 C-4.505 9.78375 -4.01 10.5675 -3.5 11.375 C-2 14 -2 14 -2 16 C-2.66 16 -3.32 16 -4 16 C-5.03789581 14.35666496 -6.03567924 12.68756133 -7 11 C-7.66 10.34 -8.32 9.68 -9 9 C-8.34 8.34 -7.68 7.68 -7 7 C-3.375 7.375 -3.375 7.375 0 8 C0 5.36 0 2.72 0 0 Z " fill="#E96F6D" transform="translate(80,58)"/>
<path d="M0 0 C2 2 2 2 2.375 5 C2.65930328 8.12114709 2.65930328 8.12114709 5.0625 9.375 C5.701875 9.58125 6.34125 9.7875 7 10 C3.75 11.1875 3.75 11.1875 0 12 C-2.4375 10.625 -2.4375 10.625 -4 9 C-3.67 8.34 -3.34 7.68 -3 7 C-1.02 7.495 -1.02 7.495 1 8 C0.65213292 6.02463255 0.65213292 6.02463255 0 4 C-0.66 3.67 -1.32 3.34 -2 3 C-1.34 2.01 -0.68 1.02 0 0 Z " fill="#EA7471" transform="translate(92,57)"/>
<path d="M0 0 C1.65 0 3.3 0 5 0 C4.34 0.66 3.68 1.32 3 2 C3.33 2.66 3.66 3.32 4 4 C0.93882432 6.62386487 0.26826873 7 -4 7 C-4 5.35 -4 3.7 -4 2 C-3.34 1.67 -2.68 1.34 -2 1 C-1.34 1.33 -0.68 1.66 0 2 C0 1.34 0 0.68 0 0 Z " fill="#C3AF0E" transform="translate(92,33)"/>
<path d="M0 0 C0.94875 0.04125 1.8975 0.0825 2.875 0.125 C2.875 1.115 2.875 2.105 2.875 3.125 C0.565 3.125 -1.745 3.125 -4.125 3.125 C-4.125 4.115 -4.125 5.105 -4.125 6.125 C-0.66 5.63 -0.66 5.63 2.875 5.125 C2.875 5.785 2.875 6.445 2.875 7.125 C0.235 7.125 -2.405 7.125 -5.125 7.125 C-5.25 4.75 -5.25 4.75 -5.125 2.125 C-3.125 0.125 -3.125 0.125 0 0 Z " fill="#837710" transform="translate(50.125,70.875)"/>
<path d="M0 0 C2 3 2 3 2 6 C-1.3 7.32 -4.6 8.64 -8 10 C-8.66 9.34 -9.32 8.68 -10 8 C-9.05125 7.566875 -8.1025 7.13375 -7.125 6.6875 C-3.79958063 5.20697799 -3.79958063 5.20697799 -2 2 C-1.34 2 -0.68 2 0 2 C0 1.34 0 0.68 0 0 Z " fill="#DCE3DD" transform="translate(114,15)"/>
<path d="M0 0 C1.66666667 0 3.33333333 0 5 0 C5 0.66 5 1.32 5 2 C5.66 2 6.32 2 7 2 C6.67 3.65 6.34 5.3 6 7 C5.01 7 4.02 7 3 7 C3 6.01 3 5.02 3 4 C2.01 4 1.02 4 0 4 C-0.33 3.01 -0.66 2.02 -1 1 C-0.67 0.67 -0.34 0.34 0 0 Z " fill="#928511" transform="translate(51,46)"/>
<path d="M0 0 C-0.66 1.98 -1.32 3.96 -2 6 C-2.66 6 -3.32 6 -4 6 C-4.33 4.68 -4.66 3.36 -5 2 C-5.66 2 -6.32 2 -7 2 C-7.33 2.66 -7.66 3.32 -8 4 C-8.66 4 -9.32 4 -10 4 C-10 3.01 -10 2.02 -10 1 C-6.42181037 -1.33958553 -4.07775191 -0.9267618 0 0 Z " fill="#D2BF0F" transform="translate(76,103)"/>
<path d="M0 0 C0.33 0.99 0.66 1.98 1 3 C-1.64 5.64 -4.28 8.28 -7 11 C-7.99 10.67 -8.98 10.34 -10 10 C-6.92118304 6.12948725 -3.99926986 2.97088618 0 0 Z " fill="#EAEAEA" transform="translate(126,102)"/>
<path d="M0 0 C2.9375 0.75 2.9375 0.75 6 2 C7.29318325 4.77110696 7 6.86460877 7 10 C4 10 4 10 2 9 C2.226875 8.071875 2.45375 7.14375 2.6875 6.1875 C3.36319983 3.03173152 3.36319983 3.03173152 1.5625 1.125 C1.046875 0.75375 0.53125 0.3825 0 0 Z " fill="#8F800C" transform="translate(120,87)"/>
<path d="M0 0 C2 2 2 2 2.1953125 4.8203125 C2.16050781 6.45613281 2.16050781 6.45613281 2.125 8.125 C2.10695312 9.22070312 2.08890625 10.31640625 2.0703125 11.4453125 C2.04710937 12.28835937 2.02390625 13.13140625 2 14 C1.67 14 1.34 14 1 14 C0.67 11.36 0.34 8.72 0 6 C-1.98 6.99 -1.98 6.99 -4 8 C-2.87548273 5.0280615 -1.77706209 2.66559313 0 0 Z " fill="#4C8459" transform="translate(151,49)"/>
<path d="M0 0 C1 2 1 2 1 5 C1.99 5 2.98 5 4 5 C4.99 6.485 4.99 6.485 6 8 C5.67 8.99 5.34 9.98 5 11 C2.69 9.35 0.38 7.7 -2 6 C-1.125 1.125 -1.125 1.125 0 0 Z " fill="#453E0A" transform="translate(113,41)"/>
<path d="M0 0 C0.66 0 1.32 0 2 0 C2.268125 1.093125 2.53625 2.18625 2.8125 3.3125 C3.87663739 6.61692663 4.34654664 7.94960422 7 10 C4.625 10.125 4.625 10.125 2 10 C0 8 0 8 -0.1953125 6.0546875 C-0.13020833 4.03645833 -0.06510417 2.01822917 0 0 Z " fill="#FBF1F0" transform="translate(81,69)"/>
<path d="M0 0 C1.98 0.495 1.98 0.495 4 1 C3.67 3.31 3.34 5.62 3 8 C2.01 8 1.02 8 0 8 C0.33 6.35 0.66 4.7 1 3 C0.34 3 -0.32 3 -1 3 C-0.67 2.01 -0.34 1.02 0 0 Z " fill="#988A0D" transform="translate(77,104)"/>
<path d="M0 0 C2 3 2 3 3 5 C5.52733235 5.65555119 5.52733235 5.65555119 8 6 C8 6.33 8 6.66 8 7 C6.35 7.33 4.7 7.66 3 8 C3 8.66 3 9.32 3 10 C2.01 10.33 1.02 10.66 0 11 C0 7.37 0 3.74 0 0 Z " fill="#FFE101" transform="translate(43,73)"/>
<path d="M0 0 C0.66 0.33 1.32 0.66 2 1 C2.40729228 3.32156597 2.74438677 5.6568787 3 8 C1.125 7.75 1.125 7.75 -1 7 C-2.25 4.9375 -2.25 4.9375 -3 3 C-2.01 2.01 -1.02 1.02 0 0 Z " fill="#80740E" transform="translate(59,96)"/>
<path d="M0 0 C2.97 1.98 2.97 1.98 6 4 C4.35 5.65 2.7 7.3 1 9 C0 2.25 0 2.25 0 0 Z " fill="#CCBA10" transform="translate(60,94)"/>
<path d="M0 0 C0 3 0 3 -1 5 C0.32 5 1.64 5 3 5 C3 5.66 3 6.32 3 7 C-0.34373475 6.44271087 -3.03312999 5.64826111 -6 4 C-3.94766315 1.7522025 -2.99332739 0.9977758 0 0 Z " fill="#256E34" transform="translate(111,22)"/>
<path d="M0 0 C1.65 0.99 3.3 1.98 5 3 C4.67 4.98 4.34 6.96 4 9 C1.67281553 6.88437775 0.14186589 4.94982021 -1 2 C-0.67 1.34 -0.34 0.68 0 0 Z " fill="#DAC50F" transform="translate(119,87)"/>
<path d="M0 0 C0 0.99 0 1.98 0 3 C1.32 3 2.64 3 4 3 C4 3.66 4 4.32 4 5 C1.03 5 -1.94 5 -5 5 C-5 3 -5 3 -3.625 1.375 C-2 0 -2 0 0 0 Z " fill="#98B29C" transform="translate(90,13)"/>
<path d="M0 0 C0.66 0.99 1.32 1.98 2 3 C1.1028125 3.1546875 1.1028125 3.1546875 0.1875 3.3125 C-2.28243264 4.08876455 -3.32251235 5.07088921 -5 7 C-5.66 6.67 -6.32 6.34 -7 6 C-7 4.66666667 -7 3.33333333 -7 2 C-4.69 1.34 -2.38 0.68 0 0 Z " fill="#E86663" transform="translate(91,78)"/>
<path d="M0 0 C1.32 0 2.64 0 4 0 C4 1.65 4 3.3 4 5 C2.35 4.67 0.7 4.34 -1 4 C-0.67 2.68 -0.34 1.36 0 0 Z " fill="#F7DAD9" transform="translate(89,81)"/>
<path d="M0 0 C0.33 0 0.66 0 1 0 C1 2.64 1 5.28 1 8 C0.67 7.34 0.34 6.68 0 6 C-1.32 6 -2.64 6 -4 6 C-3.67 4.68 -3.34 3.36 -3 2 C-2.01 2 -1.02 2 0 2 C0 1.34 0 0.68 0 0 Z " fill="#A8B4AA" transform="translate(144,71)"/>
<path d="M0 0 C0.433125 0.474375 0.86625 0.94875 1.3125 1.4375 C3.02309613 3.23686957 3.02309613 3.23686957 6 4 C5.67 3.01 5.34 2.02 5 1 C5.99 1.33 6.98 1.66 8 2 C7.34 3.32 6.68 4.64 6 6 C4.35 5.67 2.7 5.34 1 5 C0.67 3.35 0.34 1.7 0 0 Z " fill="#695F0E" transform="translate(107,101)"/>
<path d="M0 0 C0.66 0.33 1.32 0.66 2 1 C1.01 2.485 1.01 2.485 0 4 C1.32 3.67 2.64 3.34 4 3 C3.67 3.66 3.34 4.32 3 5 C0.67843403 5.40729228 -1.6568787 5.74438677 -4 6 C-4 5.34 -4 4.68 -4 4 C-3.34 4 -2.68 4 -2 4 C-1.34 2.68 -0.68 1.36 0 0 Z " fill="#736910" transform="translate(56,90)"/>
<path d="M0 0 C0.33 0.66 0.66 1.32 1 2 C2.32 2 3.64 2 5 2 C5.33 2.99 5.66 3.98 6 5 C4.68 5 3.36 5 2 5 C1.34 5.99 0.68 6.98 0 8 C0 5.36 0 2.72 0 0 Z " fill="#C6CAC7" transform="translate(31,71)"/>
<path d="M0 0 C1.9375 0.3125 1.9375 0.3125 4 1 C5 4 5 4 4 7 C3.01 7 2.02 7 1 7 C0.67 4.69 0.34 2.38 0 0 Z " fill="#6F640D" transform="translate(100,104)"/>
<path d="M0 0 C2.97 0.495 2.97 0.495 6 1 C5.67 2.32 5.34 3.64 5 5 C3.35 4.67 1.7 4.34 0 4 C0 2.68 0 1.36 0 0 Z " fill="#63590C" transform="translate(104,40)"/>
<path d="M0 0 C1 3 1 3 0.0625 5.1875 C-0.4634375 6.0846875 -0.4634375 6.0846875 -1 7 C-1.66 7 -2.32 7 -3 7 C-3.33 6.01 -3.66 5.02 -4 4 C-2.68 2.68 -1.36 1.36 0 0 Z " fill="#ECD507" transform="translate(132,79)"/>
<path d="M0 0 C1.98 0 3.96 0 6 0 C6 0.99 6 1.98 6 3 C4.02 3.33 2.04 3.66 0 4 C0.66 3.67 1.32 3.34 2 3 C2 2.34 2 1.68 2 1 C1.34 0.67 0.68 0.34 0 0 Z " fill="#C4C3C4" transform="translate(98,118)"/>
<path d="M0 0 C0.6875 1.8125 0.6875 1.8125 1 4 C-0.3125 5.75 -0.3125 5.75 -2 7 C-2.66 7 -3.32 7 -4 7 C-2.92598892 4.08482708 -2.22189824 2.22189824 0 0 Z " fill="#F8DE05" transform="translate(129,87)"/>
<path d="M0 0 C2 1 2 1 5 3 C5 3.66 5 4.32 5 5 C2.03 4.505 2.03 4.505 -1 4 C-0.67 2.68 -0.34 1.36 0 0 Z " fill="#CAB70F" transform="translate(121,83)"/>
<path d="M0 0 C2.875 -0.125 2.875 -0.125 6 0 C8 2 8 2 8.125 4.625 C8.08375 5.40875 8.0425 6.1925 8 7 C7.236875 6.21625 6.47375 5.4325 5.6875 4.625 C3.09108195 1.92742283 3.09108195 1.92742283 0 0 Z " fill="#FCF8F7" transform="translate(85,67)"/>
<path d="M0 0 C1.98 0.99 1.98 0.99 4 2 C4 2.99 4 3.98 4 5 C2.68 5 1.36 5 0 5 C0 3.35 0 1.7 0 0 Z " fill="#FAEFEE" transform="translate(81,60)"/>
<path d="M0 0 C1.35432675 1.31200404 2.68733482 2.64631404 4 4 C4 4.33 4 4.66 4 5 C2.35 5 0.7 5 -1 5 C-0.67 3.35 -0.34 1.7 0 0 Z " fill="#FAEEED" transform="translate(96,74)"/>
<path d="M0 0 C0.33 0 0.66 0 1 0 C1.33 2.64 1.66 5.28 2 8 C1.01 7.67 0.02 7.34 -1 7 C-1.33 5.35 -1.66 3.7 -2 2 C-1.34 2 -0.68 2 0 2 C0 1.34 0 0.68 0 0 Z " fill="#EC8E8B" transform="translate(80,70)"/>
<path d="M0 0 C0 1.65 0 3.3 0 5 C-1.65 4.67 -3.3 4.34 -5 4 C-1.125 0 -1.125 0 0 0 Z " fill="#FAF0EF" transform="translate(93,60)"/>
<path d="M0 0 C0.99 0.33 1.98 0.66 3 1 C2.01 2.98 1.02 4.96 0 7 C-0.33 7 -0.66 7 -1 7 C-1.04254356 5.00045254 -1.04080783 2.99958364 -1 1 C-0.67 0.67 -0.34 0.34 0 0 Z " fill="#E7EDE8" transform="translate(140,32)"/>
</svg>
